%TF.GenerationSoftware,KiCad,Pcbnew,8.0.1*%
%TF.CreationDate,2024-03-26T18:20:05+01:00*%
%TF.ProjectId,TDA7294V,54444137-3239-4345-962e-6b696361645f,rev?*%
%TF.SameCoordinates,Original*%
%TF.FileFunction,Copper,L1,Top*%
%TF.FilePolarity,Positive*%
%FSLAX46Y46*%
G04 Gerber Fmt 4.6, Leading zero omitted, Abs format (unit mm)*
G04 Created by KiCad (PCBNEW 8.0.1) date 2024-03-26 18:20:05*
%MOMM*%
%LPD*%
G01*
G04 APERTURE LIST*
G04 Aperture macros list*
%AMRoundRect*
0 Rectangle with rounded corners*
0 $1 Rounding radius*
0 $2 $3 $4 $5 $6 $7 $8 $9 X,Y pos of 4 corners*
0 Add a 4 corners polygon primitive as box body*
4,1,4,$2,$3,$4,$5,$6,$7,$8,$9,$2,$3,0*
0 Add four circle primitives for the rounded corners*
1,1,$1+$1,$2,$3*
1,1,$1+$1,$4,$5*
1,1,$1+$1,$6,$7*
1,1,$1+$1,$8,$9*
0 Add four rect primitives between the rounded corners*
20,1,$1+$1,$2,$3,$4,$5,0*
20,1,$1+$1,$4,$5,$6,$7,0*
20,1,$1+$1,$6,$7,$8,$9,0*
20,1,$1+$1,$8,$9,$2,$3,0*%
G04 Aperture macros list end*
%TA.AperFunction,ComponentPad*%
%ADD10C,1.600000*%
%TD*%
%TA.AperFunction,ComponentPad*%
%ADD11O,1.600000X1.600000*%
%TD*%
%TA.AperFunction,ComponentPad*%
%ADD12R,1.800000X1.800000*%
%TD*%
%TA.AperFunction,ComponentPad*%
%ADD13O,1.800000X1.800000*%
%TD*%
%TA.AperFunction,ComponentPad*%
%ADD14RoundRect,0.250000X-0.750000X-1.550000X0.750000X-1.550000X0.750000X1.550000X-0.750000X1.550000X0*%
%TD*%
%TA.AperFunction,ComponentPad*%
%ADD15O,2.000000X3.600000*%
%TD*%
%TA.AperFunction,ComponentPad*%
%ADD16C,1.400000*%
%TD*%
%TA.AperFunction,ComponentPad*%
%ADD17O,1.400000X1.400000*%
%TD*%
%TA.AperFunction,ComponentPad*%
%ADD18R,1.600000X1.600000*%
%TD*%
%TA.AperFunction,ComponentPad*%
%ADD19R,2.400000X2.400000*%
%TD*%
%TA.AperFunction,ComponentPad*%
%ADD20C,2.400000*%
%TD*%
%TA.AperFunction,ComponentPad*%
%ADD21RoundRect,0.250000X-0.600000X0.850000X-0.600000X-0.850000X0.600000X-0.850000X0.600000X0.850000X0*%
%TD*%
%TA.AperFunction,ComponentPad*%
%ADD22O,1.700000X2.200000*%
%TD*%
%TA.AperFunction,ViaPad*%
%ADD23C,0.800000*%
%TD*%
%TA.AperFunction,Conductor*%
%ADD24C,0.254000*%
%TD*%
%TA.AperFunction,Conductor*%
%ADD25C,2.000000*%
%TD*%
%TA.AperFunction,Conductor*%
%ADD26C,5.000000*%
%TD*%
G04 APERTURE END LIST*
D10*
%TO.P,R11,1*%
%TO.N,Net-(J2-Pin_2)*%
X148000000Y-50920000D03*
D11*
%TO.P,R11,2*%
%TO.N,Net-(C14-Pad2)*%
X148000000Y-61080000D03*
%TD*%
D12*
%TO.P,U2,1,SGND*%
%TO.N,GND*%
X158750000Y-47752000D03*
D13*
%TO.P,U2,2,-*%
%TO.N,Net-(U2--)*%
X160020000Y-42672000D03*
%TO.P,U2,3,+*%
%TO.N,Net-(U2-+)*%
X161290000Y-47752000D03*
%TO.P,U2,4,SIG_GND*%
%TO.N,GND*%
X162560000Y-42672000D03*
%TO.P,U2,5,NC*%
%TO.N,unconnected-(U2-NC-Pad5)*%
X163830000Y-47752000D03*
%TO.P,U2,6,BOOT*%
%TO.N,Net-(U2-BOOT)*%
X165100000Y-42672000D03*
%TO.P,U2,7,+Vs*%
%TO.N,+VDC*%
X166370000Y-47752000D03*
%TO.P,U2,8,-Vs*%
%TO.N,-VDC*%
X167640000Y-42672000D03*
%TO.P,U2,9,STBY*%
%TO.N,STBY*%
X168910000Y-47752000D03*
%TO.P,U2,10,MUTE*%
%TO.N,Mute*%
X170180000Y-42672000D03*
%TO.P,U2,11,NC*%
%TO.N,unconnected-(U2-NC-Pad11)*%
X171450000Y-47752000D03*
%TO.P,U2,12,NC*%
%TO.N,unconnected-(U2-NC-Pad12)*%
X172720000Y-42672000D03*
%TO.P,U2,13,+Vs*%
%TO.N,+VDC*%
X173990000Y-47752000D03*
%TO.P,U2,14*%
%TO.N,Net-(J2-Pin_2)*%
X175260000Y-42672000D03*
%TO.P,U2,15,-Vs*%
%TO.N,-VDC*%
X176530000Y-47752000D03*
%TD*%
D14*
%TO.P,J2,1,Pin_1*%
%TO.N,Net-(J2-Pin_1)*%
X146500000Y-44000000D03*
D15*
%TO.P,J2,2,Pin_2*%
%TO.N,Net-(J2-Pin_2)*%
X151500000Y-44000000D03*
%TD*%
D16*
%TO.P,R9,1*%
%TO.N,GND*%
X168080000Y-64000000D03*
D17*
%TO.P,R9,2*%
%TO.N,Net-(U2-+)*%
X163000000Y-64000000D03*
%TD*%
D10*
%TO.P,C9,1*%
%TO.N,GND*%
X174000000Y-55000000D03*
%TO.P,C9,2*%
%TO.N,+VDC*%
X174000000Y-50000000D03*
%TD*%
D12*
%TO.P,U1,1,SGND*%
%TO.N,GND*%
X120650000Y-47752000D03*
D13*
%TO.P,U1,2,-*%
%TO.N,Net-(U1--)*%
X121920000Y-42672000D03*
%TO.P,U1,3,+*%
%TO.N,Net-(U1-+)*%
X123190000Y-47752000D03*
%TO.P,U1,4,SIG_GND*%
%TO.N,GND*%
X124460000Y-42672000D03*
%TO.P,U1,5,NC*%
%TO.N,unconnected-(U1-NC-Pad5)*%
X125730000Y-47752000D03*
%TO.P,U1,6,BOOT*%
%TO.N,Net-(U1-BOOT)*%
X127000000Y-42672000D03*
%TO.P,U1,7,+Vs*%
%TO.N,+VDC*%
X128270000Y-47752000D03*
%TO.P,U1,8,-Vs*%
%TO.N,-VDC*%
X129540000Y-42672000D03*
%TO.P,U1,9,STBY*%
%TO.N,STBY*%
X130810000Y-47752000D03*
%TO.P,U1,10,MUTE*%
%TO.N,Mute*%
X132080000Y-42672000D03*
%TO.P,U1,11,NC*%
%TO.N,unconnected-(U1-NC-Pad11)*%
X133350000Y-47752000D03*
%TO.P,U1,12,NC*%
%TO.N,unconnected-(U1-NC-Pad12)*%
X134620000Y-42672000D03*
%TO.P,U1,13,+Vs*%
%TO.N,+VDC*%
X135890000Y-47752000D03*
%TO.P,U1,14*%
%TO.N,Net-(J2-Pin_1)*%
X137160000Y-42672000D03*
%TO.P,U1,15,-Vs*%
%TO.N,-VDC*%
X138430000Y-47752000D03*
%TD*%
D18*
%TO.P,D1,1,K*%
%TO.N,Net-(D1-K)*%
X161500000Y-81000000D03*
D11*
%TO.P,D1,2,A*%
%TO.N,Mute*%
X161500000Y-73380000D03*
%TD*%
D16*
%TO.P,R7,1*%
%TO.N,Net-(D1-K)*%
X163920000Y-75500000D03*
D17*
%TO.P,R7,2*%
%TO.N,/Mute{slash}st-by*%
X169000000Y-75500000D03*
%TD*%
D10*
%TO.P,C1,1*%
%TO.N,Net-(J1-Pin_1)*%
X126250000Y-74000000D03*
%TO.P,C1,2*%
%TO.N,Net-(U1-+)*%
X121250000Y-74000000D03*
%TD*%
D18*
%TO.P,C13,1*%
%TO.N,Net-(U2-BOOT)*%
X165000000Y-51500000D03*
D10*
%TO.P,C13,2*%
%TO.N,Net-(J2-Pin_2)*%
X165000000Y-56500000D03*
%TD*%
D16*
%TO.P,R1,1*%
%TO.N,GND*%
X121170000Y-71000000D03*
D17*
%TO.P,R1,2*%
%TO.N,Net-(U1-+)*%
X126250000Y-71000000D03*
%TD*%
D16*
%TO.P,R10,1*%
%TO.N,Net-(U2--)*%
X159750000Y-55750000D03*
D17*
%TO.P,R10,2*%
%TO.N,Net-(J2-Pin_2)*%
X154670000Y-55750000D03*
%TD*%
D16*
%TO.P,R6,1*%
%TO.N,Mute*%
X163920000Y-73000000D03*
D17*
%TO.P,R6,2*%
%TO.N,Net-(D1-K)*%
X169000000Y-73000000D03*
%TD*%
D16*
%TO.P,R5,1*%
%TO.N,STBY*%
X163920000Y-78000000D03*
D17*
%TO.P,R5,2*%
%TO.N,/Mute{slash}st-by*%
X169000000Y-78000000D03*
%TD*%
D19*
%TO.P,C8,1*%
%TO.N,GND*%
X145000000Y-71000000D03*
D20*
%TO.P,C8,2*%
%TO.N,-VDC*%
X150000000Y-71000000D03*
%TD*%
D10*
%TO.P,C4,1*%
%TO.N,GND*%
X145000000Y-54500000D03*
%TO.P,C4,2*%
%TO.N,Net-(C4-Pad2)*%
X145000000Y-59500000D03*
%TD*%
D16*
%TO.P,R12,1*%
%TO.N,Net-(J2-Pin_1)*%
X154500000Y-50000000D03*
D17*
%TO.P,R12,2*%
%TO.N,Net-(U2--)*%
X159580000Y-50000000D03*
%TD*%
D18*
%TO.P,C11,1*%
%TO.N,Net-(C11-Pad1)*%
X157000000Y-58597349D03*
D10*
%TO.P,C11,2*%
%TO.N,GND*%
X157000000Y-63597349D03*
%TD*%
D16*
%TO.P,R3,1*%
%TO.N,Net-(C2-Pad1)*%
X133920000Y-53000000D03*
D17*
%TO.P,R3,2*%
%TO.N,Net-(U1--)*%
X139000000Y-53000000D03*
%TD*%
D18*
%TO.P,C2,1*%
%TO.N,Net-(C2-Pad1)*%
X133500000Y-59000000D03*
D10*
%TO.P,C2,2*%
%TO.N,GND*%
X138500000Y-59000000D03*
%TD*%
D16*
%TO.P,R2,1*%
%TO.N,Net-(U1--)*%
X133920000Y-50500000D03*
D17*
%TO.P,R2,2*%
%TO.N,Net-(J2-Pin_1)*%
X139000000Y-50500000D03*
%TD*%
D18*
%TO.P,C3,1*%
%TO.N,Net-(U1-BOOT)*%
X126883349Y-53420000D03*
D10*
%TO.P,C3,2*%
%TO.N,Net-(J2-Pin_1)*%
X126883349Y-58420000D03*
%TD*%
D14*
%TO.P,J3,1,Pin_1*%
%TO.N,+VDC*%
X135000000Y-83820000D03*
D15*
%TO.P,J3,2,Pin_2*%
%TO.N,GND*%
X140000000Y-83820000D03*
%TO.P,J3,3,Pin_3*%
%TO.N,-VDC*%
X145000000Y-83820000D03*
%TD*%
D10*
%TO.P,C14,1*%
%TO.N,GND*%
X151000000Y-54500000D03*
%TO.P,C14,2*%
%TO.N,Net-(C14-Pad2)*%
X151000000Y-59500000D03*
%TD*%
D19*
%TO.P,C7,1*%
%TO.N,+VDC*%
X137000000Y-71000000D03*
D20*
%TO.P,C7,2*%
%TO.N,GND*%
X132000000Y-71000000D03*
%TD*%
D21*
%TO.P,J4,1,Pin_1*%
%TO.N,GND*%
X157460000Y-77820000D03*
D22*
%TO.P,J4,2,Pin_2*%
%TO.N,/Mute{slash}st-by*%
X154960000Y-77820000D03*
%TD*%
D18*
%TO.P,C6,1*%
%TO.N,Mute*%
X171500000Y-83000000D03*
D10*
%TO.P,C6,2*%
%TO.N,GND*%
X176500000Y-83000000D03*
%TD*%
D21*
%TO.P,J1,1,Pin_1*%
%TO.N,Net-(J1-Pin_1)*%
X125000000Y-77860000D03*
D22*
%TO.P,J1,2,Pin_2*%
%TO.N,GND*%
X122500000Y-77860000D03*
%TD*%
D10*
%TO.P,C10,1*%
%TO.N,-VDC*%
X177000000Y-50000000D03*
%TO.P,C10,2*%
%TO.N,GND*%
X177000000Y-55000000D03*
%TD*%
%TO.P,R4,1*%
%TO.N,Net-(J2-Pin_1)*%
X142000000Y-50920000D03*
D11*
%TO.P,R4,2*%
%TO.N,Net-(C4-Pad2)*%
X142000000Y-61080000D03*
%TD*%
D18*
%TO.P,C5,1*%
%TO.N,STBY*%
X164000000Y-83000000D03*
D10*
%TO.P,C5,2*%
%TO.N,GND*%
X169000000Y-83000000D03*
%TD*%
D16*
%TO.P,R8,1*%
%TO.N,Net-(C11-Pad1)*%
X154670000Y-53500000D03*
D17*
%TO.P,R8,2*%
%TO.N,Net-(U2--)*%
X159750000Y-53500000D03*
%TD*%
D10*
%TO.P,C12,1*%
%TO.N,GND*%
X168080000Y-61500000D03*
%TO.P,C12,2*%
%TO.N,Net-(U2-+)*%
X163080000Y-61500000D03*
%TD*%
D23*
%TO.N,Net-(U1-+)*%
X123000000Y-52000000D03*
%TO.N,GND*%
X171000000Y-56750000D03*
X120000000Y-56000000D03*
X160250000Y-61000000D03*
X140000000Y-67000000D03*
X120000000Y-55000000D03*
X155000000Y-48000000D03*
X120000000Y-54000000D03*
X162750000Y-53250000D03*
X139000000Y-67000000D03*
X178000000Y-38750000D03*
X133000000Y-66000000D03*
X159250000Y-58250000D03*
X149000000Y-65000000D03*
X163750000Y-53250000D03*
X129000000Y-39000000D03*
X127000000Y-39000000D03*
X171000000Y-57750000D03*
X150000000Y-65000000D03*
X171000000Y-54750000D03*
X130000000Y-39000000D03*
X138000000Y-65000000D03*
X157000000Y-42000000D03*
X138000000Y-66000000D03*
X168500000Y-66000000D03*
X178000000Y-40750000D03*
X125000000Y-39000000D03*
X157000000Y-51000000D03*
X147000000Y-39000000D03*
X151000000Y-39000000D03*
X134000000Y-67000000D03*
X163750000Y-54250000D03*
X145000000Y-39000000D03*
X156000000Y-42000000D03*
X168500000Y-67000000D03*
X152000000Y-65000000D03*
X120000000Y-57000000D03*
X143000000Y-39000000D03*
X147000000Y-65000000D03*
X140000000Y-68000000D03*
X155000000Y-47000000D03*
X128000000Y-39000000D03*
X171000000Y-55750000D03*
X148000000Y-39000000D03*
X159250000Y-61000000D03*
X177000000Y-38750000D03*
X133000000Y-67000000D03*
X126000000Y-39000000D03*
X146000000Y-39000000D03*
X160250000Y-58250000D03*
X151000000Y-65000000D03*
X153000000Y-65000000D03*
X134000000Y-66000000D03*
X177000000Y-39750000D03*
X149000000Y-39000000D03*
X146000000Y-65000000D03*
X139000000Y-66000000D03*
X138000000Y-67000000D03*
X124000000Y-39000000D03*
X134000000Y-68000000D03*
X154000000Y-48000000D03*
X120000000Y-52000000D03*
X133000000Y-68000000D03*
X120000000Y-53000000D03*
X139000000Y-68000000D03*
X120000000Y-51000000D03*
X134000000Y-65000000D03*
X150000000Y-39000000D03*
X162750000Y-54250000D03*
X155000000Y-42000000D03*
X148000000Y-65000000D03*
X178000000Y-39750000D03*
X156000000Y-48000000D03*
X144000000Y-39000000D03*
X158000000Y-42000000D03*
X133000000Y-65000000D03*
%TO.N,Net-(J2-Pin_1)*%
X147828982Y-48828982D03*
%TO.N,STBY*%
X154000000Y-43000000D03*
X157000000Y-46371500D03*
X171000000Y-72000000D03*
%TO.N,Mute*%
X133000000Y-40000000D03*
%TO.N,Net-(J2-Pin_2)*%
X162000000Y-59250000D03*
%TD*%
D24*
%TO.N,Net-(U1-+)*%
X123000000Y-52000000D02*
X123190000Y-51810000D01*
X123190000Y-51810000D02*
X123190000Y-47752000D01*
%TO.N,Net-(U1-BOOT)*%
X124503000Y-45169000D02*
X127000000Y-42672000D01*
X124503000Y-51039651D02*
X124503000Y-45169000D01*
X126883349Y-53420000D02*
X124503000Y-51039651D01*
%TO.N,Net-(J2-Pin_1)*%
X146500000Y-47500000D02*
X146500000Y-44000000D01*
D25*
X139000000Y-50500000D02*
X141580000Y-50500000D01*
X141580000Y-50500000D02*
X142000000Y-50920000D01*
X142000000Y-42672000D02*
X145172000Y-42672000D01*
X137160000Y-42672000D02*
X142000000Y-42672000D01*
X142000000Y-50920000D02*
X142000000Y-42672000D01*
X145172000Y-42672000D02*
X146500000Y-44000000D01*
D24*
X147828982Y-48828982D02*
X146500000Y-47500000D01*
D25*
%TO.N,Net-(C4-Pad2)*%
X142000000Y-61080000D02*
X143420000Y-61080000D01*
X143420000Y-61080000D02*
X145000000Y-59500000D01*
D24*
%TO.N,STBY*%
X171000000Y-72000000D02*
X171000000Y-77452398D01*
X168452398Y-80000000D02*
X165920000Y-80000000D01*
X165920000Y-80000000D02*
X163920000Y-78000000D01*
X157000000Y-46371500D02*
X154000000Y-43371500D01*
X171000000Y-77452398D02*
X168452398Y-80000000D01*
X154000000Y-43371500D02*
X154000000Y-43000000D01*
%TO.N,Mute*%
X132080000Y-40920000D02*
X132080000Y-42672000D01*
X133000000Y-40000000D02*
X132080000Y-40920000D01*
D25*
%TO.N,+VDC*%
X166370000Y-47752000D02*
X166370000Y-46479208D01*
D26*
X137000000Y-77200000D02*
X137000000Y-71000000D01*
D25*
X135890000Y-69890000D02*
X137000000Y-71000000D01*
X135890000Y-47322151D02*
X135890000Y-47752000D01*
X173162792Y-45652000D02*
X173990000Y-46479208D01*
X128270000Y-46479208D02*
X129097208Y-45652000D01*
X135890000Y-47752000D02*
X135890000Y-69890000D01*
X167197208Y-45652000D02*
X173162792Y-45652000D01*
X134219849Y-45652000D02*
X135890000Y-47322151D01*
X173990000Y-46479208D02*
X173990000Y-47752000D01*
X129097208Y-45652000D02*
X134219849Y-45652000D01*
X128270000Y-47752000D02*
X128270000Y-46479208D01*
X166370000Y-46479208D02*
X167197208Y-45652000D01*
D26*
X135000000Y-83820000D02*
X135000000Y-79200000D01*
X135000000Y-79200000D02*
X137000000Y-77200000D01*
%TO.N,-VDC*%
X145000000Y-83820000D02*
X150000000Y-78820000D01*
X150000000Y-78820000D02*
X150000000Y-71000000D01*
D24*
%TO.N,Net-(C11-Pad1)*%
X154670000Y-53500000D02*
X157000000Y-55830000D01*
X157000000Y-55830000D02*
X157000000Y-58597349D01*
%TO.N,Net-(U2-+)*%
X163080000Y-61500000D02*
X163080000Y-63920000D01*
X163080000Y-61500000D02*
X163080000Y-59080000D01*
X161290000Y-57290000D02*
X161290000Y-47752000D01*
X163080000Y-63920000D02*
X163000000Y-64000000D01*
X163080000Y-59080000D02*
X161290000Y-57290000D01*
%TO.N,Net-(U2-BOOT)*%
X162603000Y-45169000D02*
X165100000Y-42672000D01*
X162603000Y-49103000D02*
X162603000Y-45169000D01*
X165000000Y-51500000D02*
X162603000Y-49103000D01*
%TO.N,Net-(J2-Pin_2)*%
X154670000Y-55750000D02*
X150000000Y-55750000D01*
D25*
X154000000Y-40000000D02*
X151500000Y-42500000D01*
X175260000Y-42672000D02*
X175260000Y-41399208D01*
X173860792Y-40000000D02*
X154000000Y-40000000D01*
X175260000Y-41399208D02*
X173860792Y-40000000D01*
X151000000Y-47920000D02*
X151000000Y-44500000D01*
D24*
X154670000Y-58420000D02*
X154670000Y-55750000D01*
X161525651Y-59724349D02*
X155974349Y-59724349D01*
D25*
X151500000Y-42500000D02*
X151500000Y-44000000D01*
D24*
X162000000Y-59250000D02*
X161525651Y-59724349D01*
D25*
X151000000Y-44500000D02*
X151500000Y-44000000D01*
D24*
X148000000Y-53750000D02*
X148000000Y-50920000D01*
D25*
X148000000Y-50920000D02*
X151000000Y-47920000D01*
D24*
X150000000Y-55750000D02*
X148000000Y-53750000D01*
X155974349Y-59724349D02*
X154670000Y-58420000D01*
D25*
%TO.N,Net-(C14-Pad2)*%
X149420000Y-61080000D02*
X151000000Y-59500000D01*
X148000000Y-61080000D02*
X149420000Y-61080000D01*
D24*
%TO.N,Net-(U2--)*%
X159580000Y-50000000D02*
X160020000Y-49560000D01*
X159750000Y-53500000D02*
X159750000Y-50170000D01*
X160020000Y-49560000D02*
X160020000Y-42672000D01*
X159750000Y-55750000D02*
X159750000Y-53500000D01*
X159750000Y-50170000D02*
X159580000Y-50000000D01*
%TD*%
%TA.AperFunction,Conductor*%
%TO.N,GND*%
G36*
X153205703Y-43438876D02*
G01*
X153231885Y-43470587D01*
X153267467Y-43532216D01*
X153394129Y-43672888D01*
X153450116Y-43713565D01*
X153478370Y-43734092D01*
X153508585Y-43765516D01*
X153512590Y-43771510D01*
X153512591Y-43771511D01*
X156061371Y-46320290D01*
X156094856Y-46381613D01*
X156097010Y-46395005D01*
X156114326Y-46559756D01*
X156114327Y-46559759D01*
X156172818Y-46739777D01*
X156172821Y-46739784D01*
X156267467Y-46903716D01*
X156394129Y-47044388D01*
X156547265Y-47155648D01*
X156547270Y-47155651D01*
X156720192Y-47232642D01*
X156720197Y-47232644D01*
X156905354Y-47272000D01*
X156905355Y-47272000D01*
X157094644Y-47272000D01*
X157094646Y-47272000D01*
X157200222Y-47249559D01*
X157269886Y-47254875D01*
X157325619Y-47297011D01*
X157349725Y-47362591D01*
X157350000Y-47370849D01*
X157350000Y-47502000D01*
X158316988Y-47502000D01*
X158284075Y-47559007D01*
X158250000Y-47686174D01*
X158250000Y-47817826D01*
X158284075Y-47944993D01*
X158316988Y-48002000D01*
X157350000Y-48002000D01*
X157350000Y-48699844D01*
X157356401Y-48759372D01*
X157356403Y-48759379D01*
X157406645Y-48894086D01*
X157406649Y-48894093D01*
X157492809Y-49009187D01*
X157492812Y-49009190D01*
X157607906Y-49095350D01*
X157607913Y-49095354D01*
X157742620Y-49145596D01*
X157742627Y-49145598D01*
X157802155Y-49151999D01*
X157802172Y-49152000D01*
X158467001Y-49152000D01*
X158534040Y-49171685D01*
X158579795Y-49224489D01*
X158589739Y-49293647D01*
X158565956Y-49350726D01*
X158554942Y-49365309D01*
X158554938Y-49365316D01*
X158455775Y-49564461D01*
X158455769Y-49564476D01*
X158394885Y-49778462D01*
X158394884Y-49778464D01*
X158374357Y-49999999D01*
X158374357Y-50000000D01*
X158394884Y-50221535D01*
X158394885Y-50221537D01*
X158455769Y-50435523D01*
X158455775Y-50435538D01*
X158554938Y-50634683D01*
X158554943Y-50634691D01*
X158689020Y-50812238D01*
X158841088Y-50950866D01*
X158842558Y-50952206D01*
X158853437Y-50962123D01*
X158853439Y-50962125D01*
X158878833Y-50977848D01*
X159042599Y-51079247D01*
X159043280Y-51079510D01*
X159043556Y-51079723D01*
X159047733Y-51081803D01*
X159047326Y-51082619D01*
X159098686Y-51122075D01*
X159122285Y-51187839D01*
X159122500Y-51195142D01*
X159122500Y-52407471D01*
X159102815Y-52474510D01*
X159063779Y-52512897D01*
X159023438Y-52537875D01*
X159023437Y-52537876D01*
X158859020Y-52687761D01*
X158724943Y-52865308D01*
X158724938Y-52865316D01*
X158625775Y-53064461D01*
X158625769Y-53064476D01*
X158564885Y-53278462D01*
X158564884Y-53278464D01*
X158544357Y-53499999D01*
X158544357Y-53500000D01*
X158564884Y-53721535D01*
X158564885Y-53721537D01*
X158625769Y-53935523D01*
X158625775Y-53935538D01*
X158724938Y-54134683D01*
X158724943Y-54134691D01*
X158859020Y-54312238D01*
X159023433Y-54462120D01*
X159023435Y-54462121D01*
X159023438Y-54462124D01*
X159063777Y-54487101D01*
X159110412Y-54539127D01*
X159122500Y-54592527D01*
X159122500Y-54657471D01*
X159102815Y-54724510D01*
X159063779Y-54762897D01*
X159023438Y-54787875D01*
X159023437Y-54787876D01*
X158859020Y-54937761D01*
X158724943Y-55115308D01*
X158724938Y-55115316D01*
X158625775Y-55314461D01*
X158625769Y-55314476D01*
X158564885Y-55528462D01*
X158564884Y-55528464D01*
X158544357Y-55749999D01*
X158544357Y-55750000D01*
X158564884Y-55971535D01*
X158564885Y-55971537D01*
X158625769Y-56185523D01*
X158625775Y-56185538D01*
X158724938Y-56384683D01*
X158724943Y-56384691D01*
X158859020Y-56562238D01*
X159023437Y-56712123D01*
X159023439Y-56712125D01*
X159212595Y-56829245D01*
X159212596Y-56829245D01*
X159212599Y-56829247D01*
X159420060Y-56909618D01*
X159638757Y-56950500D01*
X159638759Y-56950500D01*
X159861241Y-56950500D01*
X159861243Y-56950500D01*
X160079940Y-56909618D01*
X160287401Y-56829247D01*
X160473224Y-56714190D01*
X160540583Y-56695635D01*
X160607282Y-56716443D01*
X160652144Y-56770009D01*
X160662500Y-56819618D01*
X160662500Y-57351807D01*
X160686612Y-57473028D01*
X160686615Y-57473038D01*
X160705861Y-57519501D01*
X160733915Y-57587229D01*
X160733917Y-57587233D01*
X160802494Y-57689866D01*
X160802589Y-57690008D01*
X160802592Y-57690011D01*
X161462656Y-58350075D01*
X161496141Y-58411398D01*
X161491157Y-58481090D01*
X161449285Y-58537023D01*
X161447860Y-58538074D01*
X161394129Y-58577111D01*
X161267466Y-58717785D01*
X161172821Y-58881715D01*
X161172818Y-58881722D01*
X161130759Y-59011167D01*
X161091321Y-59068843D01*
X161026963Y-59096041D01*
X161012828Y-59096849D01*
X158424500Y-59096849D01*
X158357461Y-59077164D01*
X158311706Y-59024360D01*
X158300500Y-58972849D01*
X158300499Y-57749478D01*
X158300498Y-57749472D01*
X158300497Y-57749465D01*
X158294091Y-57689866D01*
X158276439Y-57642539D01*
X158243797Y-57555020D01*
X158243793Y-57555013D01*
X158157547Y-57439804D01*
X158157544Y-57439801D01*
X158042335Y-57353555D01*
X158042328Y-57353551D01*
X157907482Y-57303257D01*
X157907483Y-57303257D01*
X157847883Y-57296850D01*
X157847881Y-57296849D01*
X157847873Y-57296849D01*
X157847865Y-57296849D01*
X157751500Y-57296849D01*
X157684461Y-57277164D01*
X157638706Y-57224360D01*
X157627500Y-57172849D01*
X157627500Y-55768194D01*
X157617359Y-55717215D01*
X157607218Y-55666233D01*
X157603386Y-55646966D01*
X157558407Y-55538379D01*
X157556763Y-55533784D01*
X157487414Y-55429996D01*
X157487413Y-55429994D01*
X157457419Y-55400000D01*
X157400008Y-55342589D01*
X155889338Y-53831919D01*
X155855853Y-53770596D01*
X155855216Y-53727303D01*
X155854586Y-53727245D01*
X155875643Y-53500000D01*
X155875643Y-53499999D01*
X155855115Y-53278464D01*
X155855114Y-53278462D01*
X155838917Y-53221536D01*
X155794229Y-53064472D01*
X155794224Y-53064461D01*
X155695061Y-52865316D01*
X155695056Y-52865308D01*
X155560979Y-52687761D01*
X155396562Y-52537876D01*
X155396560Y-52537874D01*
X155207404Y-52420754D01*
X155207398Y-52420752D01*
X155206748Y-52420500D01*
X154999940Y-52340382D01*
X154781243Y-52299500D01*
X154558757Y-52299500D01*
X154340060Y-52340382D01*
X154243806Y-52377671D01*
X154132601Y-52420752D01*
X154132595Y-52420754D01*
X153943439Y-52537874D01*
X153943437Y-52537876D01*
X153779020Y-52687761D01*
X153644943Y-52865308D01*
X153644938Y-52865316D01*
X153545775Y-53064461D01*
X153545769Y-53064476D01*
X153484885Y-53278462D01*
X153484884Y-53278464D01*
X153464357Y-53499999D01*
X153464357Y-53500000D01*
X153484884Y-53721535D01*
X153484885Y-53721537D01*
X153545769Y-53935523D01*
X153545775Y-53935538D01*
X153644938Y-54134683D01*
X153644943Y-54134691D01*
X153779020Y-54312238D01*
X153943437Y-54462123D01*
X153943439Y-54462125D01*
X154036221Y-54519573D01*
X154082857Y-54571601D01*
X154093961Y-54640582D01*
X154066008Y-54704617D01*
X154036221Y-54730427D01*
X153943439Y-54787874D01*
X153943437Y-54787876D01*
X153779020Y-54937761D01*
X153676722Y-55073227D01*
X153620613Y-55114863D01*
X153577768Y-55122500D01*
X152338756Y-55122500D01*
X152271717Y-55102815D01*
X152225962Y-55050011D01*
X152216018Y-54980853D01*
X152224755Y-54951529D01*
X152224417Y-54951406D01*
X152226269Y-54946317D01*
X152285139Y-54726610D01*
X152285141Y-54726599D01*
X152304966Y-54500002D01*
X152304966Y-54499997D01*
X152285141Y-54273400D01*
X152285139Y-54273389D01*
X152226269Y-54053682D01*
X152226264Y-54053668D01*
X152130136Y-53847521D01*
X152130132Y-53847513D01*
X152079025Y-53774526D01*
X151400000Y-54453551D01*
X151400000Y-54447339D01*
X151372741Y-54345606D01*
X151320080Y-54254394D01*
X151245606Y-54179920D01*
X151154394Y-54127259D01*
X151052661Y-54100000D01*
X151046448Y-54100000D01*
X151725472Y-53420974D01*
X151652478Y-53369863D01*
X151446331Y-53273735D01*
X151446317Y-53273730D01*
X151226610Y-53214860D01*
X151226599Y-53214858D01*
X151000002Y-53195034D01*
X150999998Y-53195034D01*
X150773400Y-53214858D01*
X150773389Y-53214860D01*
X150553682Y-53273730D01*
X150553673Y-53273734D01*
X150347516Y-53369866D01*
X150347512Y-53369868D01*
X150274526Y-53420973D01*
X150274526Y-53420974D01*
X150953553Y-54100000D01*
X150947339Y-54100000D01*
X150845606Y-54127259D01*
X150754394Y-54179920D01*
X150679920Y-54254394D01*
X150627259Y-54345606D01*
X150600000Y-54447339D01*
X150600000Y-54453552D01*
X149920974Y-53774526D01*
X149920973Y-53774526D01*
X149869868Y-53847512D01*
X149869866Y-53847516D01*
X149773734Y-54053673D01*
X149773730Y-54053682D01*
X149714860Y-54273389D01*
X149714859Y-54273396D01*
X149713574Y-54288079D01*
X149688118Y-54353146D01*
X149631525Y-54394122D01*
X149561763Y-54397996D01*
X149502365Y-54364946D01*
X148663819Y-53526400D01*
X148630334Y-53465077D01*
X148627500Y-53438719D01*
X148627500Y-52360310D01*
X148647185Y-52293271D01*
X148695204Y-52249826D01*
X148786434Y-52203343D01*
X148977510Y-52064517D01*
X151042028Y-50000000D01*
X153294357Y-50000000D01*
X153314884Y-50221535D01*
X153314885Y-50221537D01*
X153375769Y-50435523D01*
X153375775Y-50435538D01*
X153474938Y-50634683D01*
X153474943Y-50634691D01*
X153609020Y-50812238D01*
X153761088Y-50950866D01*
X153762558Y-50952206D01*
X153773437Y-50962123D01*
X153773439Y-50962125D01*
X153962595Y-51079245D01*
X153962596Y-51079245D01*
X153962599Y-51079247D01*
X154170060Y-51159618D01*
X154388757Y-51200500D01*
X154388759Y-51200500D01*
X154611241Y-51200500D01*
X154611243Y-51200500D01*
X154829940Y-51159618D01*
X155037401Y-51079247D01*
X155226562Y-50962124D01*
X155390981Y-50812236D01*
X155525058Y-50634689D01*
X155624229Y-50435528D01*
X155685115Y-50221536D01*
X155705643Y-50000000D01*
X155690556Y-49837188D01*
X155685115Y-49778464D01*
X155685114Y-49778462D01*
X155659308Y-49687764D01*
X155624229Y-49564472D01*
X155624224Y-49564461D01*
X155525061Y-49365316D01*
X155525056Y-49365308D01*
X155390979Y-49187761D01*
X155226562Y-49037876D01*
X155226560Y-49037874D01*
X155037404Y-48920754D01*
X155037398Y-48920752D01*
X155028077Y-48917141D01*
X154829940Y-48840382D01*
X154611243Y-48799500D01*
X154388757Y-48799500D01*
X154170060Y-48840382D01*
X154038864Y-48891207D01*
X153962601Y-48920752D01*
X153962595Y-48920754D01*
X153773439Y-49037874D01*
X153773437Y-49037876D01*
X153609020Y-49187761D01*
X153474943Y-49365308D01*
X153474938Y-49365316D01*
X153375775Y-49564461D01*
X153375769Y-49564476D01*
X153314885Y-49778462D01*
X153314884Y-49778464D01*
X153294357Y-49999999D01*
X153294357Y-50000000D01*
X151042028Y-50000000D01*
X152144518Y-48897510D01*
X152283343Y-48706433D01*
X152390568Y-48495992D01*
X152463553Y-48271368D01*
X152466621Y-48252000D01*
X152500500Y-48038097D01*
X152500500Y-45972889D01*
X152520185Y-45905850D01*
X152536819Y-45885208D01*
X152582743Y-45839284D01*
X152644517Y-45777510D01*
X152783343Y-45586433D01*
X152890568Y-45375992D01*
X152963553Y-45151368D01*
X152970550Y-45107192D01*
X153000500Y-44918097D01*
X153000500Y-43532589D01*
X153020185Y-43465550D01*
X153072989Y-43419795D01*
X153142147Y-43409851D01*
X153205703Y-43438876D01*
G37*
%TD.AperFunction*%
%TA.AperFunction,Conductor*%
G36*
X158979222Y-41520185D02*
G01*
X159024977Y-41572989D01*
X159034921Y-41642147D01*
X159005896Y-41705703D01*
X159003439Y-41708453D01*
X158951215Y-41765185D01*
X158911016Y-41808852D01*
X158784075Y-42003151D01*
X158690842Y-42215699D01*
X158633866Y-42440691D01*
X158633864Y-42440702D01*
X158614700Y-42671993D01*
X158614700Y-42672006D01*
X158633864Y-42903297D01*
X158633866Y-42903308D01*
X158690842Y-43128300D01*
X158784075Y-43340848D01*
X158911016Y-43535147D01*
X158911019Y-43535151D01*
X158911021Y-43535153D01*
X159068216Y-43705913D01*
X159068219Y-43705915D01*
X159068222Y-43705918D01*
X159251365Y-43848464D01*
X159251375Y-43848471D01*
X159299095Y-43874295D01*
X159313162Y-43881908D01*
X159327517Y-43889676D01*
X159377108Y-43938895D01*
X159392500Y-43998731D01*
X159392500Y-46228000D01*
X159372815Y-46295039D01*
X159320011Y-46340794D01*
X159268500Y-46352000D01*
X159000000Y-46352000D01*
X159000000Y-47318988D01*
X158942993Y-47286075D01*
X158815826Y-47252000D01*
X158684174Y-47252000D01*
X158557007Y-47286075D01*
X158500000Y-47318988D01*
X158500000Y-46352000D01*
X158015061Y-46352000D01*
X157948022Y-46332315D01*
X157902267Y-46279511D01*
X157891740Y-46240962D01*
X157890378Y-46228000D01*
X157885674Y-46183244D01*
X157827179Y-46003216D01*
X157732533Y-45839284D01*
X157605871Y-45698612D01*
X157586964Y-45684875D01*
X157452734Y-45587351D01*
X157452729Y-45587348D01*
X157279807Y-45510357D01*
X157279802Y-45510355D01*
X157134001Y-45479365D01*
X157094646Y-45471000D01*
X157094645Y-45471000D01*
X157038281Y-45471000D01*
X156971242Y-45451315D01*
X156950600Y-45434681D01*
X154894894Y-43378975D01*
X154861409Y-43317652D01*
X154864645Y-43252974D01*
X154885674Y-43188256D01*
X154905460Y-43000000D01*
X154885674Y-42811744D01*
X154827179Y-42631716D01*
X154732533Y-42467784D01*
X154605871Y-42327112D01*
X154564705Y-42297203D01*
X154452734Y-42215851D01*
X154452729Y-42215848D01*
X154279807Y-42138857D01*
X154279800Y-42138855D01*
X154258558Y-42134340D01*
X154197076Y-42101148D01*
X154163299Y-42039985D01*
X154167951Y-41970271D01*
X154196655Y-41925371D01*
X154585208Y-41536819D01*
X154646531Y-41503334D01*
X154672889Y-41500500D01*
X158912183Y-41500500D01*
X158979222Y-41520185D01*
G37*
%TD.AperFunction*%
%TA.AperFunction,Conductor*%
G36*
X162810000Y-44023217D02*
G01*
X162790315Y-44090256D01*
X162773681Y-44110898D01*
X162299373Y-44585208D01*
X162202992Y-44681589D01*
X162159289Y-44725292D01*
X162115586Y-44768994D01*
X162115585Y-44768996D01*
X162046233Y-44872789D01*
X162044586Y-44877393D01*
X161999615Y-44985962D01*
X161999614Y-44985964D01*
X161991500Y-45026761D01*
X161991499Y-45026762D01*
X161975500Y-45107192D01*
X161975500Y-46332929D01*
X161955815Y-46399968D01*
X161903011Y-46445723D01*
X161833853Y-46455667D01*
X161811237Y-46450210D01*
X161634984Y-46389702D01*
X161441765Y-46357460D01*
X161406049Y-46351500D01*
X161173951Y-46351500D01*
X161151934Y-46355174D01*
X160945015Y-46389702D01*
X160811763Y-46435448D01*
X160741964Y-46438598D01*
X160681543Y-46403512D01*
X160649682Y-46341329D01*
X160647500Y-46318167D01*
X160647500Y-43998731D01*
X160667185Y-43931692D01*
X160712483Y-43889676D01*
X160726838Y-43881908D01*
X160788626Y-43848470D01*
X160789170Y-43848047D01*
X160887503Y-43771511D01*
X160971784Y-43705913D01*
X161128979Y-43535153D01*
X161186490Y-43447124D01*
X161239635Y-43401769D01*
X161308866Y-43392345D01*
X161372202Y-43421846D01*
X161394107Y-43447126D01*
X161451414Y-43534842D01*
X161608558Y-43705545D01*
X161608562Y-43705548D01*
X161791644Y-43848047D01*
X161791648Y-43848050D01*
X161995697Y-43958476D01*
X161995706Y-43958479D01*
X162215139Y-44033811D01*
X162309999Y-44049640D01*
X162310000Y-44049639D01*
X162310000Y-43105012D01*
X162367007Y-43137925D01*
X162494174Y-43172000D01*
X162625826Y-43172000D01*
X162752993Y-43137925D01*
X162810000Y-43105012D01*
X162810000Y-44023217D01*
G37*
%TD.AperFunction*%
%TA.AperFunction,Conductor*%
G36*
X178943039Y-38019685D02*
G01*
X178988794Y-38072489D01*
X179000000Y-38124000D01*
X179000000Y-87876000D01*
X178980315Y-87943039D01*
X178927511Y-87988794D01*
X178876000Y-88000000D01*
X118124000Y-88000000D01*
X118056961Y-87980315D01*
X118011206Y-87927511D01*
X118000000Y-87876000D01*
X118000000Y-85126610D01*
X121399500Y-85126610D01*
X121420262Y-85257701D01*
X121426598Y-85297701D01*
X121480127Y-85462445D01*
X121558768Y-85616788D01*
X121660586Y-85756928D01*
X121783072Y-85879414D01*
X121923212Y-85981232D01*
X122077555Y-86059873D01*
X122242299Y-86113402D01*
X122413389Y-86140500D01*
X122413390Y-86140500D01*
X122586610Y-86140500D01*
X122586611Y-86140500D01*
X122757701Y-86113402D01*
X122922445Y-86059873D01*
X123076788Y-85981232D01*
X123216928Y-85879414D01*
X123339414Y-85756928D01*
X123441232Y-85616788D01*
X123519873Y-85462445D01*
X123573402Y-85297701D01*
X123600500Y-85126611D01*
X123600500Y-85126610D01*
X123899500Y-85126610D01*
X123920262Y-85257701D01*
X123926598Y-85297701D01*
X123980127Y-85462445D01*
X124058768Y-85616788D01*
X124160586Y-85756928D01*
X124283072Y-85879414D01*
X124423212Y-85981232D01*
X124577555Y-86059873D01*
X124742299Y-86113402D01*
X124913389Y-86140500D01*
X124913390Y-86140500D01*
X125086610Y-86140500D01*
X125086611Y-86140500D01*
X125257701Y-86113402D01*
X125422445Y-86059873D01*
X125576788Y-85981232D01*
X125716928Y-85879414D01*
X125839414Y-85756928D01*
X125941232Y-85616788D01*
X126019873Y-85462445D01*
X126073402Y-85297701D01*
X126100500Y-85126611D01*
X126100500Y-84953389D01*
X126073402Y-84782299D01*
X126019873Y-84617555D01*
X125941232Y-84463212D01*
X125839414Y-84323072D01*
X125716928Y-84200586D01*
X125576788Y-84098768D01*
X125422445Y-84020127D01*
X125257701Y-83966598D01*
X125257699Y-83966597D01*
X125257698Y-83966597D01*
X125126271Y-83945781D01*
X125086611Y-83939500D01*
X124913389Y-83939500D01*
X124873728Y-83945781D01*
X124742302Y-83966597D01*
X124577552Y-84020128D01*
X124423211Y-84098768D01*
X124350531Y-84151574D01*
X124283072Y-84200586D01*
X124283070Y-84200588D01*
X124283069Y-84200588D01*
X124160588Y-84323069D01*
X124160588Y-84323070D01*
X124160586Y-84323072D01*
X124160350Y-84323397D01*
X124058768Y-84463211D01*
X123980128Y-84617552D01*
X123926597Y-84782302D01*
X123899500Y-84953389D01*
X123899500Y-85126610D01*
X123600500Y-85126610D01*
X123600500Y-84953389D01*
X123573402Y-84782299D01*
X123519873Y-84617555D01*
X123441232Y-84463212D01*
X123339414Y-84323072D01*
X123216928Y-84200586D01*
X123076788Y-84098768D01*
X122922445Y-84020127D01*
X122757701Y-83966598D01*
X122757699Y-83966597D01*
X122757698Y-83966597D01*
X122626271Y-83945781D01*
X122586611Y-83939500D01*
X122413389Y-83939500D01*
X122373728Y-83945781D01*
X122242302Y-83966597D01*
X122077552Y-84020128D01*
X121923211Y-84098768D01*
X121850531Y-84151574D01*
X121783072Y-84200586D01*
X121783070Y-84200588D01*
X121783069Y-84200588D01*
X121660588Y-84323069D01*
X121660588Y-84323070D01*
X121660586Y-84323072D01*
X121660350Y-84323397D01*
X121558768Y-84463211D01*
X121480128Y-84617552D01*
X121426597Y-84782302D01*
X121399500Y-84953389D01*
X121399500Y-85126610D01*
X118000000Y-85126610D01*
X118000000Y-78216246D01*
X121150000Y-78216246D01*
X121183242Y-78426127D01*
X121183242Y-78426130D01*
X121248904Y-78628217D01*
X121345379Y-78817557D01*
X121470272Y-78989459D01*
X121470276Y-78989464D01*
X121620535Y-79139723D01*
X121620540Y-79139727D01*
X121792442Y-79264620D01*
X121981782Y-79361095D01*
X122183871Y-79426757D01*
X122250000Y-79437231D01*
X122250000Y-78408482D01*
X122268409Y-78419111D01*
X122421009Y-78460000D01*
X122578991Y-78460000D01*
X122731591Y-78419111D01*
X122750000Y-78408482D01*
X122750000Y-79437230D01*
X122816126Y-79426757D01*
X122816129Y-79426757D01*
X123018217Y-79361095D01*
X123207557Y-79264620D01*
X123379458Y-79139728D01*
X123518330Y-79000856D01*
X123579653Y-78967371D01*
X123649345Y-78972355D01*
X123705279Y-79014226D01*
X123711551Y-79023440D01*
X123715185Y-79029331D01*
X123715186Y-79029334D01*
X123807288Y-79178656D01*
X123931344Y-79302712D01*
X124080666Y-79394814D01*
X124247203Y-79449999D01*
X124349991Y-79460500D01*
X125650008Y-79460499D01*
X125752797Y-79449999D01*
X125919334Y-79394814D01*
X126068656Y-79302712D01*
X126192712Y-79178656D01*
X126284814Y-79029334D01*
X126339999Y-78862797D01*
X126350500Y-78760009D01*
X126350499Y-76959992D01*
X126339999Y-76857203D01*
X126284814Y-76690666D01*
X126192712Y-76541344D01*
X126068656Y-76417288D01*
X125919334Y-76325186D01*
X125752797Y-76270001D01*
X125752795Y-76270000D01*
X125650010Y-76259500D01*
X124349998Y-76259500D01*
X124349981Y-76259501D01*
X124247203Y-76270000D01*
X124247200Y-76270001D01*
X124080668Y-76325185D01*
X124080663Y-76325187D01*
X123931342Y-76417289D01*
X123807289Y-76541342D01*
X123711551Y-76696559D01*
X123659603Y-76743283D01*
X123590640Y-76754506D01*
X123526558Y-76726662D01*
X123518331Y-76719143D01*
X123379464Y-76580276D01*
X123379459Y-76580272D01*
X123207557Y-76455379D01*
X123018215Y-76358903D01*
X122816124Y-76293241D01*
X122750000Y-76282768D01*
X122750000Y-77311517D01*
X122731591Y-77300889D01*
X122578991Y-77260000D01*
X122421009Y-77260000D01*
X122268409Y-77300889D01*
X122250000Y-77311517D01*
X122250000Y-76282768D01*
X122249999Y-76282768D01*
X122183875Y-76293241D01*
X121981784Y-76358903D01*
X121792442Y-76455379D01*
X121620540Y-76580272D01*
X121620535Y-76580276D01*
X121470276Y-76730535D01*
X121470272Y-76730540D01*
X121345379Y-76902442D01*
X121248904Y-77091782D01*
X121183242Y-77293869D01*
X121183242Y-77293872D01*
X121150000Y-77503753D01*
X121150000Y-77610000D01*
X121951518Y-77610000D01*
X121940889Y-77628409D01*
X121900000Y-77781009D01*
X121900000Y-77938991D01*
X121940889Y-78091591D01*
X121951518Y-78110000D01*
X121150000Y-78110000D01*
X121150000Y-78216246D01*
X118000000Y-78216246D01*
X118000000Y-74000001D01*
X119944532Y-74000001D01*
X119964364Y-74226686D01*
X119964366Y-74226697D01*
X120023258Y-74446488D01*
X120023261Y-74446497D01*
X120119431Y-74652732D01*
X120119432Y-74652734D01*
X120249954Y-74839141D01*
X120410858Y-75000045D01*
X120410861Y-75000047D01*
X120597266Y-75130568D01*
X120803504Y-75226739D01*
X121023308Y-75285635D01*
X121185230Y-75299801D01*
X121249998Y-75305468D01*
X121250000Y-75305468D01*
X121250002Y-75305468D01*
X121306673Y-75300509D01*
X121476692Y-75285635D01*
X121696496Y-75226739D01*
X121902734Y-75130568D01*
X122089139Y-75000047D01*
X122250047Y-74839139D01*
X122380568Y-74652734D01*
X122476739Y-74446496D01*
X122535635Y-74226692D01*
X122555468Y-74000001D01*
X124944532Y-74000001D01*
X124964364Y-74226686D01*
X124964366Y-74226697D01*
X125023258Y-74446488D01*
X125023261Y-74446497D01*
X125119431Y-74652732D01*
X125119432Y-74652734D01*
X125249954Y-74839141D01*
X125410858Y-75000045D01*
X125410861Y-75000047D01*
X125597266Y-75130568D01*
X125803504Y-75226739D01*
X126023308Y-75285635D01*
X126185230Y-75299801D01*
X126249998Y-75305468D01*
X126250000Y-75305468D01*
X126250002Y-75305468D01*
X126306673Y-75300509D01*
X126476692Y-75285635D01*
X126696496Y-75226739D01*
X126902734Y-75130568D01*
X127089139Y-75000047D01*
X127250047Y-74839139D01*
X127380568Y-74652734D01*
X127476739Y-74446496D01*
X127535635Y-74226692D01*
X127555468Y-74000000D01*
X127535635Y-73773308D01*
X127476739Y-73553504D01*
X127380568Y-73347266D01*
X127250047Y-73160861D01*
X127250045Y-73160858D01*
X127089141Y-72999954D01*
X126902734Y-72869432D01*
X126902732Y-72869431D01*
X126696497Y-72773261D01*
X126696488Y-72773258D01*
X126476697Y-72714366D01*
X126476693Y-72714365D01*
X126476692Y-72714365D01*
X126476691Y-72714364D01*
X126476686Y-72714364D01*
X126250002Y-72694532D01*
X126249998Y-72694532D01*
X126023313Y-72714364D01*
X126023302Y-72714366D01*
X125803511Y-72773258D01*
X125803502Y-72773261D01*
X125597267Y-72869431D01*
X125597265Y-72869432D01*
X125410858Y-72999954D01*
X125249954Y-73160858D01*
X125119432Y-73347265D01*
X125119431Y-73347267D01*
X125023261Y-73553502D01*
X125023258Y-73553511D01*
X124964366Y-73773302D01*
X124964364Y-73773313D01*
X124944532Y-73999998D01*
X124944532Y-74000001D01*
X122555468Y-74000001D01*
X122555468Y-74000000D01*
X122535635Y-73773308D01*
X122476739Y-73553504D01*
X122380568Y-73347266D01*
X122250047Y-73160861D01*
X122250045Y-73160858D01*
X122089141Y-72999954D01*
X121902734Y-72869432D01*
X121902732Y-72869431D01*
X121696497Y-72773261D01*
X121696488Y-72773258D01*
X121476697Y-72714366D01*
X121476693Y-72714365D01*
X121476692Y-72714365D01*
X121476691Y-72714364D01*
X121476686Y-72714364D01*
X121250002Y-72694532D01*
X121249998Y-72694532D01*
X121023313Y-72714364D01*
X121023302Y-72714366D01*
X120803511Y-72773258D01*
X120803502Y-72773261D01*
X120597267Y-72869431D01*
X120597265Y-72869432D01*
X120410858Y-72999954D01*
X120249954Y-73160858D01*
X120119432Y-73347265D01*
X120119431Y-73347267D01*
X120023261Y-73553502D01*
X120023258Y-73553511D01*
X119964366Y-73773302D01*
X119964364Y-73773313D01*
X119944532Y-73999998D01*
X119944532Y-74000001D01*
X118000000Y-74000001D01*
X118000000Y-72006880D01*
X120516672Y-72006880D01*
X120632821Y-72078797D01*
X120632822Y-72078798D01*
X120840195Y-72159134D01*
X121058807Y-72200000D01*
X121281193Y-72200000D01*
X121499809Y-72159133D01*
X121707168Y-72078801D01*
X121707181Y-72078795D01*
X121823326Y-72006879D01*
X121170001Y-71353553D01*
X121170000Y-71353553D01*
X120516672Y-72006879D01*
X120516672Y-72006880D01*
X118000000Y-72006880D01*
X118000000Y-71000000D01*
X119964859Y-71000000D01*
X119985378Y-71221439D01*
X120046240Y-71435350D01*
X120145369Y-71634428D01*
X120161137Y-71655308D01*
X120161138Y-71655308D01*
X120770369Y-71046078D01*
X120820000Y-71046078D01*
X120843852Y-71135095D01*
X120889930Y-71214905D01*
X120955095Y-71280070D01*
X121034905Y-71326148D01*
X121123922Y-71350000D01*
X121216078Y-71350000D01*
X121305095Y-71326148D01*
X121384905Y-71280070D01*
X121450070Y-71214905D01*
X121496148Y-71135095D01*
X121520000Y-71046078D01*
X121520000Y-71000000D01*
X121523553Y-71000000D01*
X122178861Y-71655308D01*
X122194631Y-71634425D01*
X122194633Y-71634422D01*
X122293759Y-71435350D01*
X122354621Y-71221439D01*
X122375141Y-71000000D01*
X125044357Y-71000000D01*
X125064884Y-71221535D01*
X125064885Y-71221537D01*
X125125769Y-71435523D01*
X125125775Y-71435538D01*
X125224938Y-71634683D01*
X125224943Y-71634691D01*
X125359020Y-71812238D01*
X125523437Y-71962123D01*
X125523439Y-71962125D01*
X125712595Y-72079245D01*
X125712596Y-72079245D01*
X125712599Y-72079247D01*
X125920060Y-72159618D01*
X126138757Y-72200500D01*
X126138759Y-72200500D01*
X126361241Y-72200500D01*
X126361243Y-72200500D01*
X126579940Y-72159618D01*
X126787401Y-72079247D01*
X126976562Y-71962124D01*
X127140981Y-71812236D01*
X127275058Y-71634689D01*
X127374229Y-71435528D01*
X127435115Y-71221536D01*
X127455643Y-71000004D01*
X130295233Y-71000004D01*
X130314273Y-71254079D01*
X130370968Y-71502477D01*
X130370973Y-71502494D01*
X130464058Y-71739671D01*
X130464057Y-71739671D01*
X130591454Y-71960327D01*
X130591461Y-71960338D01*
X130633452Y-72012991D01*
X130633453Y-72012992D01*
X131435387Y-71211058D01*
X131440889Y-71231591D01*
X131519881Y-71368408D01*
X131631592Y-71480119D01*
X131768409Y-71559111D01*
X131788940Y-71564612D01*
X130986813Y-72366738D01*
X131147616Y-72476371D01*
X131147624Y-72476376D01*
X131377176Y-72586921D01*
X131377174Y-72586921D01*
X131620652Y-72662024D01*
X131620658Y-72662026D01*
X131872595Y-72699999D01*
X131872604Y-72700000D01*
X132127396Y-72700000D01*
X132127404Y-72699999D01*
X132379341Y-72662026D01*
X132379347Y-72662024D01*
X132622824Y-72586921D01*
X132852376Y-72476376D01*
X132852377Y-72476375D01*
X133013185Y-72366738D01*
X132211060Y-71564612D01*
X132231591Y-71559111D01*
X132368408Y-71480119D01*
X132480119Y-71368408D01*
X132559111Y-71231591D01*
X132564612Y-71211059D01*
X133366544Y-72012992D01*
X133366546Y-72012991D01*
X133408544Y-71960330D01*
X133535941Y-71739671D01*
X133629026Y-71502494D01*
X133629031Y-71502477D01*
X133685726Y-71254079D01*
X133704767Y-71000004D01*
X133704767Y-70999995D01*
X133685726Y-70745920D01*
X133629031Y-70497522D01*
X133629026Y-70497505D01*
X133535941Y-70260328D01*
X133535942Y-70260328D01*
X133408545Y-70039672D01*
X133366545Y-69987006D01*
X132564612Y-70788939D01*
X132559111Y-70768409D01*
X132480119Y-70631592D01*
X132368408Y-70519881D01*
X132231591Y-70440889D01*
X132211059Y-70435387D01*
X133013185Y-69633260D01*
X132852384Y-69523628D01*
X132852376Y-69523623D01*
X132622823Y-69413078D01*
X132622825Y-69413078D01*
X132379347Y-69337975D01*
X132379341Y-69337973D01*
X132127404Y-69300000D01*
X131872595Y-69300000D01*
X131620658Y-69337973D01*
X131620652Y-69337975D01*
X131377175Y-69413078D01*
X131147622Y-69523625D01*
X131147609Y-69523632D01*
X130986813Y-69633259D01*
X131788941Y-70435387D01*
X131768409Y-70440889D01*
X131631592Y-70519881D01*
X131519881Y-70631592D01*
X131440889Y-70768409D01*
X131435387Y-70788941D01*
X130633452Y-69987006D01*
X130591457Y-70039667D01*
X130464058Y-70260328D01*
X130370973Y-70497505D01*
X130370968Y-70497522D01*
X130314273Y-70745920D01*
X130295233Y-70999995D01*
X130295233Y-71000004D01*
X127455643Y-71000004D01*
X127455643Y-71000000D01*
X127435115Y-70778464D01*
X127374229Y-70564472D01*
X127374224Y-70564461D01*
X127275061Y-70365316D01*
X127275056Y-70365308D01*
X127140979Y-70187761D01*
X126976562Y-70037876D01*
X126976560Y-70037874D01*
X126787404Y-69920754D01*
X126787398Y-69920752D01*
X126579940Y-69840382D01*
X126361243Y-69799500D01*
X126138757Y-69799500D01*
X125920060Y-69840382D01*
X125788864Y-69891207D01*
X125712601Y-69920752D01*
X125712595Y-69920754D01*
X125523439Y-70037874D01*
X125523437Y-70037876D01*
X125359020Y-70187761D01*
X125224943Y-70365308D01*
X125224938Y-70365316D01*
X125125775Y-70564461D01*
X125125769Y-70564476D01*
X125064885Y-70778462D01*
X125064884Y-70778464D01*
X125044357Y-70999999D01*
X125044357Y-71000000D01*
X122375141Y-71000000D01*
X122375141Y-70999999D01*
X122354621Y-70778560D01*
X122293759Y-70564649D01*
X122194635Y-70365580D01*
X122194630Y-70365572D01*
X122178860Y-70344690D01*
X121523553Y-70999999D01*
X121523553Y-71000000D01*
X121520000Y-71000000D01*
X121520000Y-70953922D01*
X121496148Y-70864905D01*
X121450070Y-70785095D01*
X121384905Y-70719930D01*
X121305095Y-70673852D01*
X121216078Y-70650000D01*
X121123922Y-70650000D01*
X121034905Y-70673852D01*
X120955095Y-70719930D01*
X120889930Y-70785095D01*
X120843852Y-70864905D01*
X120820000Y-70953922D01*
X120820000Y-71046078D01*
X120770369Y-71046078D01*
X120816447Y-71000000D01*
X120161138Y-70344691D01*
X120161137Y-70344691D01*
X120145368Y-70365574D01*
X120046240Y-70564649D01*
X119985378Y-70778560D01*
X119964859Y-70999999D01*
X119964859Y-71000000D01*
X118000000Y-71000000D01*
X118000000Y-69993119D01*
X120516671Y-69993119D01*
X121170000Y-70646447D01*
X121170001Y-70646447D01*
X121823327Y-69993119D01*
X121707178Y-69921202D01*
X121707177Y-69921201D01*
X121499804Y-69840865D01*
X121281193Y-69800000D01*
X121058807Y-69800000D01*
X120840195Y-69840865D01*
X120632824Y-69921200D01*
X120632823Y-69921201D01*
X120516671Y-69993119D01*
X118000000Y-69993119D01*
X118000000Y-58420001D01*
X125577881Y-58420001D01*
X125597713Y-58646686D01*
X125597715Y-58646697D01*
X125656607Y-58866488D01*
X125656610Y-58866497D01*
X125752780Y-59072732D01*
X125752781Y-59072734D01*
X125883303Y-59259141D01*
X126044207Y-59420045D01*
X126044210Y-59420047D01*
X126230615Y-59550568D01*
X126436853Y-59646739D01*
X126656657Y-59705635D01*
X126816598Y-59719628D01*
X126883347Y-59725468D01*
X126883349Y-59725468D01*
X126883351Y-59725468D01*
X126950100Y-59719628D01*
X127110041Y-59705635D01*
X127329845Y-59646739D01*
X127536083Y-59550568D01*
X127722488Y-59420047D01*
X127883396Y-59259139D01*
X128013917Y-59072734D01*
X128110088Y-58866496D01*
X128168984Y-58646692D01*
X128188817Y-58420000D01*
X128188064Y-58411398D01*
X128176601Y-58280371D01*
X128168984Y-58193308D01*
X128110088Y-57973504D01*
X128013917Y-57767266D01*
X127883396Y-57580861D01*
X127883394Y-57580858D01*
X127722490Y-57419954D01*
X127536083Y-57289432D01*
X127536081Y-57289431D01*
X127329846Y-57193261D01*
X127329837Y-57193258D01*
X127110046Y-57134366D01*
X127110042Y-57134365D01*
X127110041Y-57134365D01*
X127110040Y-57134364D01*
X127110035Y-57134364D01*
X126883351Y-57114532D01*
X126883347Y-57114532D01*
X126656662Y-57134364D01*
X126656651Y-57134366D01*
X126436860Y-57193258D01*
X126436851Y-57193261D01*
X126230616Y-57289431D01*
X126230614Y-57289432D01*
X126044207Y-57419954D01*
X125883303Y-57580858D01*
X125752781Y-57767265D01*
X125752780Y-57767267D01*
X125656610Y-57973502D01*
X125656607Y-57973511D01*
X125597715Y-58193302D01*
X125597713Y-58193313D01*
X125577881Y-58419998D01*
X125577881Y-58420001D01*
X118000000Y-58420001D01*
X118000000Y-48699844D01*
X119250000Y-48699844D01*
X119256401Y-48759372D01*
X119256403Y-48759379D01*
X119306645Y-48894086D01*
X119306649Y-48894093D01*
X119392809Y-49009187D01*
X119392812Y-49009190D01*
X119507906Y-49095350D01*
X119507913Y-49095354D01*
X119642620Y-49145596D01*
X119642627Y-49145598D01*
X119702155Y-49151999D01*
X119702172Y-49152000D01*
X120400000Y-49152000D01*
X120400000Y-48185012D01*
X120457007Y-48217925D01*
X120584174Y-48252000D01*
X120715826Y-48252000D01*
X120842993Y-48217925D01*
X120900000Y-48185012D01*
X120900000Y-49152000D01*
X121597828Y-49152000D01*
X121597844Y-49151999D01*
X121657372Y-49145598D01*
X121657379Y-49145596D01*
X121792086Y-49095354D01*
X121792093Y-49095350D01*
X121907187Y-49009190D01*
X121907190Y-49009187D01*
X121993350Y-48894093D01*
X121993355Y-48894084D01*
X122022075Y-48817081D01*
X122063945Y-48761147D01*
X122129409Y-48736729D01*
X122197682Y-48751580D01*
X122229484Y-48776428D01*
X122238216Y-48785913D01*
X122238219Y-48785915D01*
X122238222Y-48785918D01*
X122421365Y-48928464D01*
X122421375Y-48928471D01*
X122497517Y-48969676D01*
X122547108Y-49018895D01*
X122562500Y-49078731D01*
X122562500Y-51141602D01*
X122542815Y-51208641D01*
X122511386Y-51241920D01*
X122394127Y-51327113D01*
X122267466Y-51467785D01*
X122172821Y-51631715D01*
X122172818Y-51631722D01*
X122123554Y-51783342D01*
X122114326Y-51811744D01*
X122094540Y-52000000D01*
X122114326Y-52188256D01*
X122114327Y-52188259D01*
X122172818Y-52368277D01*
X122172821Y-52368284D01*
X122267467Y-52532216D01*
X122380313Y-52657544D01*
X122394129Y-52672888D01*
X122547265Y-52784148D01*
X122547270Y-52784151D01*
X122720192Y-52861142D01*
X122720197Y-52861144D01*
X122905354Y-52900500D01*
X122905355Y-52900500D01*
X123094644Y-52900500D01*
X123094646Y-52900500D01*
X123279803Y-52861144D01*
X123452730Y-52784151D01*
X123605871Y-52672888D01*
X123732533Y-52532216D01*
X123827179Y-52368284D01*
X123885674Y-52188256D01*
X123905460Y-52000000D01*
X123885674Y-51811744D01*
X123827179Y-51631716D01*
X123827178Y-51631715D01*
X123825171Y-51625536D01*
X123826328Y-51625160D01*
X123817500Y-51583619D01*
X123817500Y-51540932D01*
X123837185Y-51473893D01*
X123889989Y-51428138D01*
X123959147Y-51418194D01*
X124022703Y-51447219D01*
X124029181Y-51453251D01*
X125546530Y-52970600D01*
X125580015Y-53031923D01*
X125582849Y-53058281D01*
X125582849Y-54267870D01*
X125582850Y-54267876D01*
X125589257Y-54327483D01*
X125639551Y-54462328D01*
X125639555Y-54462335D01*
X125725801Y-54577544D01*
X125725804Y-54577547D01*
X125841013Y-54663793D01*
X125841020Y-54663797D01*
X125975866Y-54714091D01*
X125975865Y-54714091D01*
X125982793Y-54714835D01*
X126035476Y-54720500D01*
X127731221Y-54720499D01*
X127790832Y-54714091D01*
X127925680Y-54663796D01*
X128040895Y-54577546D01*
X128127145Y-54462331D01*
X128177440Y-54327483D01*
X128183849Y-54267873D01*
X128183848Y-52572128D01*
X128177440Y-52512517D01*
X128171809Y-52497420D01*
X128127146Y-52377671D01*
X128127142Y-52377664D01*
X128040896Y-52262455D01*
X128040893Y-52262452D01*
X127925684Y-52176206D01*
X127925677Y-52176202D01*
X127790831Y-52125908D01*
X127790832Y-52125908D01*
X127731232Y-52119501D01*
X127731230Y-52119500D01*
X127731222Y-52119500D01*
X127731214Y-52119500D01*
X126521630Y-52119500D01*
X126454591Y-52099815D01*
X126433949Y-52083181D01*
X125166819Y-50816051D01*
X125133334Y-50754728D01*
X125130500Y-50728370D01*
X125130500Y-49200594D01*
X125150185Y-49133555D01*
X125202989Y-49087800D01*
X125272147Y-49077856D01*
X125294759Y-49083312D01*
X125385019Y-49114298D01*
X125613951Y-49152500D01*
X125613952Y-49152500D01*
X125846048Y-49152500D01*
X125846049Y-49152500D01*
X126074981Y-49114298D01*
X126294503Y-49038936D01*
X126498626Y-48928470D01*
X126522583Y-48909824D01*
X126613455Y-48839095D01*
X126681784Y-48785913D01*
X126838979Y-48615153D01*
X126838980Y-48615150D01*
X126838983Y-48615148D01*
X126842131Y-48611104D01*
X126843836Y-48612431D01*
X126889990Y-48573002D01*
X126959216Y-48563543D01*
X127022567Y-48593012D01*
X127041027Y-48613267D01*
X127125483Y-48729510D01*
X127292490Y-48896517D01*
X127483567Y-49035343D01*
X127582991Y-49086002D01*
X127694003Y-49142566D01*
X127694005Y-49142566D01*
X127694008Y-49142568D01*
X127800696Y-49177233D01*
X127918631Y-49215553D01*
X128151903Y-49252500D01*
X128151908Y-49252500D01*
X128388097Y-49252500D01*
X128621368Y-49215553D01*
X128654253Y-49204868D01*
X128845992Y-49142568D01*
X129056433Y-49035343D01*
X129247510Y-48896517D01*
X129414517Y-48729510D01*
X129498971Y-48613268D01*
X129554301Y-48570603D01*
X129623914Y-48564624D01*
X129685709Y-48597230D01*
X129697420Y-48611441D01*
X129697863Y-48611097D01*
X129701011Y-48615141D01*
X129701018Y-48615149D01*
X129701021Y-48615153D01*
X129858216Y-48785913D01*
X129858219Y-48785915D01*
X129858222Y-48785918D01*
X130041365Y-48928464D01*
X130041371Y-48928468D01*
X130041374Y-48928470D01*
X130182499Y-49004843D01*
X130243534Y-49037874D01*
X130245497Y-49038936D01*
X130358867Y-49077856D01*
X130465015Y-49114297D01*
X130465017Y-49114297D01*
X130465019Y-49114298D01*
X130693951Y-49152500D01*
X130693952Y-49152500D01*
X130926048Y-49152500D01*
X130926049Y-49152500D01*
X131154981Y-49114298D01*
X131374503Y-49038936D01*
X131578626Y-48928470D01*
X131602583Y-48909824D01*
X131693455Y-48839095D01*
X131761784Y-48785913D01*
X131918979Y-48615153D01*
X131976191Y-48527582D01*
X132029337Y-48482226D01*
X132098568Y-48472802D01*
X132161904Y-48502304D01*
X132183809Y-48527583D01*
X132241016Y-48615147D01*
X132241019Y-48615151D01*
X132241021Y-48615153D01*
X132398216Y-48785913D01*
X132398219Y-48785915D01*
X132398222Y-48785918D01*
X132581365Y-48928464D01*
X132581371Y-48928468D01*
X132581374Y-48928470D01*
X132722499Y-49004843D01*
X132783534Y-49037874D01*
X132785497Y-49038936D01*
X132898867Y-49077856D01*
X133005015Y-49114297D01*
X133005017Y-49114297D01*
X133005019Y-49114298D01*
X133233951Y-49152500D01*
X133233952Y-49152500D01*
X133411698Y-49152500D01*
X133478737Y-49172185D01*
X133524492Y-49224989D01*
X133534436Y-49294147D01*
X133505411Y-49357703D01*
X133456493Y-49392126D01*
X133410796Y-49409829D01*
X133382601Y-49420752D01*
X133382595Y-49420754D01*
X133193439Y-49537874D01*
X133193437Y-49537876D01*
X133029020Y-49687761D01*
X132894943Y-49865308D01*
X132894938Y-49865316D01*
X132795775Y-50064461D01*
X132795769Y-50064476D01*
X132734885Y-50278462D01*
X132734884Y-50278464D01*
X132714357Y-50499999D01*
X132714357Y-50500000D01*
X132734884Y-50721535D01*
X132734885Y-50721537D01*
X132795769Y-50935523D01*
X132795775Y-50935538D01*
X132894938Y-51134683D01*
X132894943Y-51134691D01*
X133029020Y-51312238D01*
X133193437Y-51462123D01*
X133193439Y-51462125D01*
X133382595Y-51579245D01*
X133382596Y-51579245D01*
X133382599Y-51579247D01*
X133524898Y-51634374D01*
X133580298Y-51676946D01*
X133603889Y-51742713D01*
X133588178Y-51810793D01*
X133538154Y-51859572D01*
X133524906Y-51865622D01*
X133442591Y-51897512D01*
X133382601Y-51920752D01*
X133382595Y-51920754D01*
X133193439Y-52037874D01*
X133193437Y-52037876D01*
X133029020Y-52187761D01*
X132894943Y-52365308D01*
X132894938Y-52365316D01*
X132795775Y-52564461D01*
X132795769Y-52564476D01*
X132734885Y-52778462D01*
X132734884Y-52778464D01*
X132714357Y-52999999D01*
X132714357Y-53000000D01*
X132734884Y-53221535D01*
X132734885Y-53221537D01*
X132795769Y-53435523D01*
X132795775Y-53435538D01*
X132894938Y-53634683D01*
X132894943Y-53634691D01*
X133029020Y-53812238D01*
X133193437Y-53962123D01*
X133193439Y-53962125D01*
X133382595Y-54079245D01*
X133382596Y-54079245D01*
X133382599Y-54079247D01*
X133590060Y-54159618D01*
X133808757Y-54200500D01*
X133808759Y-54200500D01*
X134031242Y-54200500D01*
X134031243Y-54200500D01*
X134242716Y-54160968D01*
X134312229Y-54167998D01*
X134366908Y-54211495D01*
X134389391Y-54277649D01*
X134389500Y-54282856D01*
X134389500Y-57575500D01*
X134369815Y-57642539D01*
X134317011Y-57688294D01*
X134265500Y-57699500D01*
X132652129Y-57699500D01*
X132652123Y-57699501D01*
X132592516Y-57705908D01*
X132457671Y-57756202D01*
X132457664Y-57756206D01*
X132342455Y-57842452D01*
X132342452Y-57842455D01*
X132256206Y-57957664D01*
X132256202Y-57957671D01*
X132205908Y-58092517D01*
X132199501Y-58152116D01*
X132199500Y-58152135D01*
X132199500Y-59847870D01*
X132199501Y-59847876D01*
X132205908Y-59907483D01*
X132256202Y-60042328D01*
X132256206Y-60042335D01*
X132342452Y-60157544D01*
X132342455Y-60157547D01*
X132457664Y-60243793D01*
X132457671Y-60243797D01*
X132592517Y-60294091D01*
X132592516Y-60294091D01*
X132599444Y-60294835D01*
X132652127Y-60300500D01*
X134265500Y-60300499D01*
X134332539Y-60320184D01*
X134378294Y-60372987D01*
X134389500Y-60424499D01*
X134389500Y-69479164D01*
X134371087Y-69543080D01*
X134371435Y-69543272D01*
X134370594Y-69544792D01*
X134370497Y-69545131D01*
X134369753Y-69546314D01*
X134223532Y-69849945D01*
X134112227Y-70168034D01*
X134112223Y-70168046D01*
X134037233Y-70496602D01*
X134037231Y-70496618D01*
X133999500Y-70831491D01*
X133999500Y-75905790D01*
X133979815Y-75972829D01*
X133963181Y-75993471D01*
X132759172Y-77197479D01*
X132759168Y-77197483D01*
X132567721Y-77437553D01*
X132567720Y-77437555D01*
X132549055Y-77460960D01*
X132369752Y-77746316D01*
X132223532Y-78049945D01*
X132112227Y-78368034D01*
X132112223Y-78368046D01*
X132037233Y-78696602D01*
X132037230Y-78696620D01*
X131999746Y-79029311D01*
X131999743Y-79029338D01*
X131999500Y-79031483D01*
X131999500Y-83988508D01*
X132037231Y-84323381D01*
X132037233Y-84323397D01*
X132112223Y-84651953D01*
X132112227Y-84651965D01*
X132223532Y-84970054D01*
X132369752Y-85273683D01*
X132369754Y-85273686D01*
X132549054Y-85559039D01*
X132759175Y-85822523D01*
X132997477Y-86060825D01*
X133260961Y-86270946D01*
X133546314Y-86450246D01*
X133849949Y-86596469D01*
X134088848Y-86680063D01*
X134168034Y-86707772D01*
X134168046Y-86707776D01*
X134496606Y-86782767D01*
X134831492Y-86820499D01*
X134831493Y-86820500D01*
X134831496Y-86820500D01*
X135168507Y-86820500D01*
X135168507Y-86820499D01*
X135503394Y-86782767D01*
X135831954Y-86707776D01*
X136150051Y-86596469D01*
X136453686Y-86450246D01*
X136739039Y-86270946D01*
X137002523Y-86060825D01*
X137240825Y-85822523D01*
X137450946Y-85559039D01*
X137630246Y-85273686D01*
X137776469Y-84970051D01*
X137857649Y-84738052D01*
X138500000Y-84738052D01*
X138536934Y-84971247D01*
X138609897Y-85195802D01*
X138717085Y-85406171D01*
X138855866Y-85597186D01*
X139022813Y-85764133D01*
X139213828Y-85902914D01*
X139424195Y-86010102D01*
X139648744Y-86083063D01*
X139648750Y-86083065D01*
X139750000Y-86099101D01*
X139750000Y-84474120D01*
X139795818Y-84493099D01*
X139931056Y-84520000D01*
X140068944Y-84520000D01*
X140204182Y-84493099D01*
X140250000Y-84474120D01*
X140250000Y-86099100D01*
X140351249Y-86083065D01*
X140351255Y-86083063D01*
X140575804Y-86010102D01*
X140786171Y-85902914D01*
X140977186Y-85764133D01*
X141144133Y-85597186D01*
X141282914Y-85406171D01*
X141390102Y-85195802D01*
X141463065Y-84971247D01*
X141500000Y-84738052D01*
X141500000Y-84070000D01*
X140654121Y-84070000D01*
X140673099Y-84024182D01*
X140680195Y-83988509D01*
X141999500Y-83988509D01*
X142037231Y-84323381D01*
X142037233Y-84323397D01*
X142112223Y-84651953D01*
X142112227Y-84651965D01*
X142223532Y-84970054D01*
X142369752Y-85273683D01*
X142369754Y-85273686D01*
X142549054Y-85559039D01*
X142759176Y-85822524D01*
X142997476Y-86060824D01*
X143260961Y-86270946D01*
X143546314Y-86450246D01*
X143849949Y-86596469D01*
X144088848Y-86680063D01*
X144168034Y-86707772D01*
X144168046Y-86707776D01*
X144496606Y-86782767D01*
X144831491Y-86820499D01*
X144831492Y-86820500D01*
X144831495Y-86820500D01*
X145168508Y-86820500D01*
X145168508Y-86820499D01*
X145503394Y-86782767D01*
X145831954Y-86707776D01*
X146150051Y-86596469D01*
X146453686Y-86450246D01*
X146739039Y-86270946D01*
X147002524Y-86060824D01*
X147976736Y-85086611D01*
X153859500Y-85086611D01*
X153886598Y-85257701D01*
X153940127Y-85422445D01*
X154018768Y-85576788D01*
X154120586Y-85716928D01*
X154243072Y-85839414D01*
X154383212Y-85941232D01*
X154537555Y-86019873D01*
X154702299Y-86073402D01*
X154873389Y-86100500D01*
X154873390Y-86100500D01*
X155046610Y-86100500D01*
X155046611Y-86100500D01*
X155217701Y-86073402D01*
X155382445Y-86019873D01*
X155536788Y-85941232D01*
X155676928Y-85839414D01*
X155799414Y-85716928D01*
X155901232Y-85576788D01*
X155979873Y-85422445D01*
X156033402Y-85257701D01*
X156060500Y-85086611D01*
X156359500Y-85086611D01*
X156386598Y-85257701D01*
X156440127Y-85422445D01*
X156518768Y-85576788D01*
X156620586Y-85716928D01*
X156743072Y-85839414D01*
X156883212Y-85941232D01*
X157037555Y-86019873D01*
X157202299Y-86073402D01*
X157373389Y-86100500D01*
X157373390Y-86100500D01*
X157546610Y-86100500D01*
X157546611Y-86100500D01*
X157717701Y-86073402D01*
X157882445Y-86019873D01*
X158036788Y-85941232D01*
X158176928Y-85839414D01*
X158299414Y-85716928D01*
X158401232Y-85576788D01*
X158479873Y-85422445D01*
X158533402Y-85257701D01*
X158560500Y-85086611D01*
X158560500Y-84913389D01*
X158533402Y-84742299D01*
X158479873Y-84577555D01*
X158401232Y-84423212D01*
X158299414Y-84283072D01*
X158176928Y-84160586D01*
X158036788Y-84058768D01*
X157882445Y-83980127D01*
X157717701Y-83926598D01*
X157717699Y-83926597D01*
X157717698Y-83926597D01*
X157586271Y-83905781D01*
X157546611Y-83899500D01*
X157373389Y-83899500D01*
X157333728Y-83905781D01*
X157202302Y-83926597D01*
X157037552Y-83980128D01*
X156883211Y-84058768D01*
X156828157Y-84098768D01*
X156743072Y-84160586D01*
X156743070Y-84160588D01*
X156743069Y-84160588D01*
X156620588Y-84283069D01*
X156620588Y-84283070D01*
X156620586Y-84283072D01*
X156591526Y-84323070D01*
X156518768Y-84423211D01*
X156440128Y-84577552D01*
X156386597Y-84742302D01*
X156380262Y-84782302D01*
X156359500Y-84913389D01*
X156359500Y-85086611D01*
X156060500Y-85086611D01*
X156060500Y-84913389D01*
X156033402Y-84742299D01*
X155979873Y-84577555D01*
X155901232Y-84423212D01*
X155799414Y-84283072D01*
X155676928Y-84160586D01*
X155536788Y-84058768D01*
X155382445Y-83980127D01*
X155217701Y-83926598D01*
X155217699Y-83926597D01*
X155217698Y-83926597D01*
X155086271Y-83905781D01*
X155046611Y-83899500D01*
X154873389Y-83899500D01*
X154833728Y-83905781D01*
X154702302Y-83926597D01*
X154537552Y-83980128D01*
X154383211Y-84058768D01*
X154328157Y-84098768D01*
X154243072Y-84160586D01*
X154243070Y-84160588D01*
X154243069Y-84160588D01*
X154120588Y-84283069D01*
X154120588Y-84283070D01*
X154120586Y-84283072D01*
X154091526Y-84323070D01*
X154018768Y-84423211D01*
X153940128Y-84577552D01*
X153886597Y-84742302D01*
X153880262Y-84782302D01*
X153859500Y-84913389D01*
X153859500Y-85086611D01*
X147976736Y-85086611D01*
X151215475Y-81847870D01*
X160199500Y-81847870D01*
X160199501Y-81847876D01*
X160205908Y-81907483D01*
X160256202Y-82042328D01*
X160256206Y-82042335D01*
X160342452Y-82157544D01*
X160342455Y-82157547D01*
X160457664Y-82243793D01*
X160457671Y-82243797D01*
X160592517Y-82294091D01*
X160592516Y-82294091D01*
X160599444Y-82294835D01*
X160652127Y-82300500D01*
X162347872Y-82300499D01*
X162407483Y-82294091D01*
X162471997Y-82270029D01*
X162532167Y-82247587D01*
X162601859Y-82242603D01*
X162663182Y-82276088D01*
X162696666Y-82337411D01*
X162699500Y-82363769D01*
X162699500Y-83847870D01*
X162699501Y-83847876D01*
X162705908Y-83907483D01*
X162756202Y-84042328D01*
X162756206Y-84042335D01*
X162842452Y-84157544D01*
X162842455Y-84157547D01*
X162957664Y-84243793D01*
X162957671Y-84243797D01*
X163092517Y-84294091D01*
X163092516Y-84294091D01*
X163099444Y-84294835D01*
X163152127Y-84300500D01*
X164847872Y-84300499D01*
X164907483Y-84294091D01*
X165042331Y-84243796D01*
X165157546Y-84157546D01*
X165243796Y-84042331D01*
X165294091Y-83907483D01*
X165300500Y-83847873D01*
X165300500Y-83000002D01*
X167695034Y-83000002D01*
X167714858Y-83226599D01*
X167714860Y-83226610D01*
X167773730Y-83446317D01*
X167773735Y-83446331D01*
X167869863Y-83652478D01*
X167920974Y-83725472D01*
X168600000Y-83046446D01*
X168600000Y-83052661D01*
X168627259Y-83154394D01*
X168679920Y-83245606D01*
X168754394Y-83320080D01*
X168845606Y-83372741D01*
X168947339Y-83400000D01*
X168953553Y-83400000D01*
X168274526Y-84079025D01*
X168347513Y-84130132D01*
X168347521Y-84130136D01*
X168553668Y-84226264D01*
X168553682Y-84226269D01*
X168773389Y-84285139D01*
X168773400Y-84285141D01*
X168999998Y-84304966D01*
X169000002Y-84304966D01*
X169226599Y-84285141D01*
X169226610Y-84285139D01*
X169446317Y-84226269D01*
X169446331Y-84226264D01*
X169652478Y-84130136D01*
X169725471Y-84079024D01*
X169046447Y-83400000D01*
X169052661Y-83400000D01*
X169154394Y-83372741D01*
X169245606Y-83320080D01*
X169320080Y-83245606D01*
X169372741Y-83154394D01*
X169400000Y-83052661D01*
X169400000Y-83046447D01*
X170084197Y-83730644D01*
X170133192Y-83740491D01*
X170183375Y-83789106D01*
X170198049Y-83844632D01*
X170199099Y-83844576D01*
X170199146Y-83844571D01*
X170199146Y-83844573D01*
X170199324Y-83844564D01*
X170199501Y-83847876D01*
X170205908Y-83907483D01*
X170256202Y-84042328D01*
X170256206Y-84042335D01*
X170342452Y-84157544D01*
X170342455Y-84157547D01*
X170457664Y-84243793D01*
X170457671Y-84243797D01*
X170592517Y-84294091D01*
X170592516Y-84294091D01*
X170599444Y-84294835D01*
X170652127Y-84300500D01*
X172347872Y-84300499D01*
X172407483Y-84294091D01*
X172542331Y-84243796D01*
X172657546Y-84157546D01*
X172743796Y-84042331D01*
X172794091Y-83907483D01*
X172800500Y-83847873D01*
X172800500Y-83000002D01*
X175195034Y-83000002D01*
X175214858Y-83226599D01*
X175214860Y-83226610D01*
X175273730Y-83446317D01*
X175273735Y-83446331D01*
X175369863Y-83652478D01*
X175420974Y-83725472D01*
X176100000Y-83046446D01*
X176100000Y-83052661D01*
X176127259Y-83154394D01*
X176179920Y-83245606D01*
X176254394Y-83320080D01*
X176345606Y-83372741D01*
X176447339Y-83400000D01*
X176453553Y-83400000D01*
X175774526Y-84079025D01*
X175847513Y-84130132D01*
X175847521Y-84130136D01*
X176053668Y-84226264D01*
X176053682Y-84226269D01*
X176273389Y-84285139D01*
X176273400Y-84285141D01*
X176499998Y-84304966D01*
X176500002Y-84304966D01*
X176726599Y-84285141D01*
X176726610Y-84285139D01*
X176946317Y-84226269D01*
X176946331Y-84226264D01*
X177152478Y-84130136D01*
X177225471Y-84079024D01*
X176546447Y-83400000D01*
X176552661Y-83400000D01*
X176654394Y-83372741D01*
X176745606Y-83320080D01*
X176820080Y-83245606D01*
X176872741Y-83154394D01*
X176900000Y-83052661D01*
X176900000Y-83046447D01*
X177579024Y-83725471D01*
X177630136Y-83652478D01*
X177726264Y-83446331D01*
X177726269Y-83446317D01*
X177785139Y-83226610D01*
X177785141Y-83226599D01*
X177804966Y-83000002D01*
X177804966Y-82999997D01*
X177785141Y-82773400D01*
X177785139Y-82773389D01*
X177726269Y-82553682D01*
X177726264Y-82553668D01*
X177630136Y-82347521D01*
X177630132Y-82347513D01*
X177579025Y-82274526D01*
X176900000Y-82953551D01*
X176900000Y-82947339D01*
X176872741Y-82845606D01*
X176820080Y-82754394D01*
X176745606Y-82679920D01*
X176654394Y-82627259D01*
X176552661Y-82600000D01*
X176546448Y-82600000D01*
X177225472Y-81920974D01*
X177152478Y-81869863D01*
X176946331Y-81773735D01*
X176946317Y-81773730D01*
X176726610Y-81714860D01*
X176726599Y-81714858D01*
X176500002Y-81695034D01*
X176499998Y-81695034D01*
X176273400Y-81714858D01*
X176273389Y-81714860D01*
X176053682Y-81773730D01*
X176053673Y-81773734D01*
X175847516Y-81869866D01*
X175847512Y-81869868D01*
X175774526Y-81920973D01*
X175774526Y-81920974D01*
X176453553Y-82600000D01*
X176447339Y-82600000D01*
X176345606Y-82627259D01*
X176254394Y-82679920D01*
X176179920Y-82754394D01*
X176127259Y-82845606D01*
X176100000Y-82947339D01*
X176100000Y-82953552D01*
X175420974Y-82274526D01*
X175420973Y-82274526D01*
X175369868Y-82347512D01*
X175369866Y-82347516D01*
X175273734Y-82553673D01*
X175273730Y-82553682D01*
X175214860Y-82773389D01*
X175214858Y-82773400D01*
X175195034Y-82999997D01*
X175195034Y-83000002D01*
X172800500Y-83000002D01*
X172800499Y-82152128D01*
X172794091Y-82092517D01*
X172789781Y-82080962D01*
X172743797Y-81957671D01*
X172743793Y-81957664D01*
X172657547Y-81842455D01*
X172657544Y-81842452D01*
X172542335Y-81756206D01*
X172542328Y-81756202D01*
X172407482Y-81705908D01*
X172407483Y-81705908D01*
X172347883Y-81699501D01*
X172347881Y-81699500D01*
X172347873Y-81699500D01*
X172347864Y-81699500D01*
X170652129Y-81699500D01*
X170652123Y-81699501D01*
X170592516Y-81705908D01*
X170457671Y-81756202D01*
X170457664Y-81756206D01*
X170342455Y-81842452D01*
X170342452Y-81842455D01*
X170256206Y-81957664D01*
X170256202Y-81957671D01*
X170205908Y-82092517D01*
X170199501Y-82152116D01*
X170199501Y-82152123D01*
X170199322Y-82155452D01*
X170197847Y-82155372D01*
X170179815Y-82216784D01*
X170127011Y-82262539D01*
X170083522Y-82270029D01*
X169400000Y-82953551D01*
X169400000Y-82947339D01*
X169372741Y-82845606D01*
X169320080Y-82754394D01*
X169245606Y-82679920D01*
X169154394Y-82627259D01*
X169052661Y-82600000D01*
X169046448Y-82600000D01*
X169725472Y-81920974D01*
X169652478Y-81869863D01*
X169446331Y-81773735D01*
X169446317Y-81773730D01*
X169226610Y-81714860D01*
X169226599Y-81714858D01*
X169000002Y-81695034D01*
X168999998Y-81695034D01*
X168773400Y-81714858D01*
X168773389Y-81714860D01*
X168553682Y-81773730D01*
X168553673Y-81773734D01*
X168347516Y-81869866D01*
X168347512Y-81869868D01*
X168274526Y-81920973D01*
X168274526Y-81920974D01*
X168953553Y-82600000D01*
X168947339Y-82600000D01*
X168845606Y-82627259D01*
X168754394Y-82679920D01*
X168679920Y-82754394D01*
X168627259Y-82845606D01*
X168600000Y-82947339D01*
X168600000Y-82953552D01*
X167920974Y-82274526D01*
X167920973Y-82274526D01*
X167869868Y-82347512D01*
X167869866Y-82347516D01*
X167773734Y-82553673D01*
X167773730Y-82553682D01*
X167714860Y-82773389D01*
X167714858Y-82773400D01*
X167695034Y-82999997D01*
X167695034Y-83000002D01*
X165300500Y-83000002D01*
X165300499Y-82152128D01*
X165294091Y-82092517D01*
X165289781Y-82080962D01*
X165243797Y-81957671D01*
X165243793Y-81957664D01*
X165157547Y-81842455D01*
X165157544Y-81842452D01*
X165042335Y-81756206D01*
X165042328Y-81756202D01*
X164907482Y-81705908D01*
X164907483Y-81705908D01*
X164847883Y-81699501D01*
X164847881Y-81699500D01*
X164847873Y-81699500D01*
X164847864Y-81699500D01*
X163152129Y-81699500D01*
X163152123Y-81699501D01*
X163092515Y-81705909D01*
X162967831Y-81752412D01*
X162898139Y-81757396D01*
X162836817Y-81723910D01*
X162803332Y-81662587D01*
X162800499Y-81636238D01*
X162800499Y-80152128D01*
X162794091Y-80092517D01*
X162748415Y-79970054D01*
X162743797Y-79957671D01*
X162743793Y-79957664D01*
X162657547Y-79842455D01*
X162657544Y-79842452D01*
X162542335Y-79756206D01*
X162542328Y-79756202D01*
X162407482Y-79705908D01*
X162407483Y-79705908D01*
X162347883Y-79699501D01*
X162347881Y-79699500D01*
X162347873Y-79699500D01*
X162347864Y-79699500D01*
X160652129Y-79699500D01*
X160652123Y-79699501D01*
X160592516Y-79705908D01*
X160457671Y-79756202D01*
X160457664Y-79756206D01*
X160342455Y-79842452D01*
X160342452Y-79842455D01*
X160256206Y-79957664D01*
X160256202Y-79957671D01*
X160205908Y-80092517D01*
X160199501Y-80152116D01*
X160199501Y-80152123D01*
X160199500Y-80152135D01*
X160199500Y-81847870D01*
X151215475Y-81847870D01*
X151997141Y-81066204D01*
X151997159Y-81066189D01*
X152002523Y-81060825D01*
X152240825Y-80822523D01*
X152450946Y-80559039D01*
X152630246Y-80273686D01*
X152776469Y-79970051D01*
X152887776Y-79651954D01*
X152962767Y-79323394D01*
X153000500Y-78988504D01*
X153000500Y-78176286D01*
X153609500Y-78176286D01*
X153637021Y-78350051D01*
X153642754Y-78386243D01*
X153666719Y-78460000D01*
X153708444Y-78588414D01*
X153804951Y-78777820D01*
X153929890Y-78949786D01*
X154080213Y-79100109D01*
X154252179Y-79225048D01*
X154252181Y-79225049D01*
X154252184Y-79225051D01*
X154441588Y-79321557D01*
X154643757Y-79387246D01*
X154853713Y-79420500D01*
X154853714Y-79420500D01*
X155066286Y-79420500D01*
X155066287Y-79420500D01*
X155276243Y-79387246D01*
X155478412Y-79321557D01*
X155667816Y-79225051D01*
X155745362Y-79168711D01*
X155839784Y-79100110D01*
X155839784Y-79100109D01*
X155839792Y-79100104D01*
X155978967Y-78960928D01*
X156040286Y-78927446D01*
X156109978Y-78932430D01*
X156165912Y-78974301D01*
X156172184Y-78983515D01*
X156267684Y-79138345D01*
X156391654Y-79262315D01*
X156540875Y-79354356D01*
X156540880Y-79354358D01*
X156707302Y-79409505D01*
X156707309Y-79409506D01*
X156810019Y-79419999D01*
X157209999Y-79419999D01*
X157210000Y-79419998D01*
X157210000Y-78368482D01*
X157228409Y-78379111D01*
X157381009Y-78420000D01*
X157538991Y-78420000D01*
X157691591Y-78379111D01*
X157710000Y-78368482D01*
X157710000Y-79419999D01*
X158109972Y-79419999D01*
X158109986Y-79419998D01*
X158212697Y-79409505D01*
X158379119Y-79354358D01*
X158379124Y-79354356D01*
X158528345Y-79262315D01*
X158652315Y-79138345D01*
X158744356Y-78989124D01*
X158744358Y-78989119D01*
X158799505Y-78822697D01*
X158799506Y-78822690D01*
X158809999Y-78719986D01*
X158810000Y-78719973D01*
X158810000Y-78070000D01*
X158008482Y-78070000D01*
X158019111Y-78051591D01*
X158060000Y-77898991D01*
X158060000Y-77741009D01*
X158019111Y-77588409D01*
X158008482Y-77570000D01*
X158809999Y-77570000D01*
X158809999Y-76920028D01*
X158809998Y-76920013D01*
X158799505Y-76817302D01*
X158744358Y-76650880D01*
X158744356Y-76650875D01*
X158652315Y-76501654D01*
X158528345Y-76377684D01*
X158379124Y-76285643D01*
X158379119Y-76285641D01*
X158212697Y-76230494D01*
X158212690Y-76230493D01*
X158109986Y-76220000D01*
X157710000Y-76220000D01*
X157710000Y-77271517D01*
X157691591Y-77260889D01*
X157538991Y-77220000D01*
X157381009Y-77220000D01*
X157228409Y-77260889D01*
X157210000Y-77271517D01*
X157210000Y-76220000D01*
X156810028Y-76220000D01*
X156810012Y-76220001D01*
X156707302Y-76230494D01*
X156540880Y-76285641D01*
X156540875Y-76285643D01*
X156391654Y-76377684D01*
X156267683Y-76501655D01*
X156267680Y-76501659D01*
X156172183Y-76656484D01*
X156120235Y-76703209D01*
X156051273Y-76714430D01*
X155987191Y-76686587D01*
X155978964Y-76679068D01*
X155839786Y-76539890D01*
X155667820Y-76414951D01*
X155478414Y-76318444D01*
X155478413Y-76318443D01*
X155478412Y-76318443D01*
X155276243Y-76252754D01*
X155276241Y-76252753D01*
X155276240Y-76252753D01*
X155114957Y-76227208D01*
X155066287Y-76219500D01*
X154853713Y-76219500D01*
X154805042Y-76227208D01*
X154643760Y-76252753D01*
X154441585Y-76318444D01*
X154252179Y-76414951D01*
X154080213Y-76539890D01*
X153929890Y-76690213D01*
X153804951Y-76862179D01*
X153708444Y-77051585D01*
X153642753Y-77253760D01*
X153609500Y-77463713D01*
X153609500Y-78176286D01*
X153000500Y-78176286D01*
X153000500Y-73380001D01*
X160194532Y-73380001D01*
X160214364Y-73606686D01*
X160214366Y-73606697D01*
X160273258Y-73826488D01*
X160273261Y-73826497D01*
X160369431Y-74032732D01*
X160369432Y-74032734D01*
X160499954Y-74219141D01*
X160660858Y-74380045D01*
X160660861Y-74380047D01*
X160847266Y-74510568D01*
X161053504Y-74606739D01*
X161273308Y-74665635D01*
X161435230Y-74679801D01*
X161499998Y-74685468D01*
X161500000Y-74685468D01*
X161500002Y-74685468D01*
X161556673Y-74680509D01*
X161726692Y-74665635D01*
X161946496Y-74606739D01*
X162152734Y-74510568D01*
X162339139Y-74380047D01*
X162500047Y-74219139D01*
X162630568Y-74032734D01*
X162726739Y-73826496D01*
X162743009Y-73765774D01*
X162779373Y-73706115D01*
X162842220Y-73675585D01*
X162911596Y-73683879D01*
X162961738Y-73723142D01*
X163029017Y-73812234D01*
X163029019Y-73812237D01*
X163193437Y-73962123D01*
X163193439Y-73962125D01*
X163382595Y-74079245D01*
X163382596Y-74079245D01*
X163382599Y-74079247D01*
X163524898Y-74134374D01*
X163580298Y-74176946D01*
X163603889Y-74242713D01*
X163588178Y-74310793D01*
X163538154Y-74359572D01*
X163524906Y-74365622D01*
X163418693Y-74406769D01*
X163382601Y-74420752D01*
X163382595Y-74420754D01*
X163193439Y-74537874D01*
X163193437Y-74537876D01*
X163029020Y-74687761D01*
X162894943Y-74865308D01*
X162894938Y-74865316D01*
X162795775Y-75064461D01*
X162795769Y-75064476D01*
X162734885Y-75278462D01*
X162734884Y-75278464D01*
X162714357Y-75499999D01*
X162714357Y-75500000D01*
X162734884Y-75721535D01*
X162734885Y-75721537D01*
X162795769Y-75935523D01*
X162795775Y-75935538D01*
X162894938Y-76134683D01*
X162894943Y-76134691D01*
X163029020Y-76312238D01*
X163193437Y-76462123D01*
X163193439Y-76462125D01*
X163382595Y-76579245D01*
X163382596Y-76579245D01*
X163382599Y-76579247D01*
X163524898Y-76634374D01*
X163580298Y-76676946D01*
X163603889Y-76742713D01*
X163588178Y-76810793D01*
X163538154Y-76859572D01*
X163524906Y-76865622D01*
X163429865Y-76902442D01*
X163382601Y-76920752D01*
X163382595Y-76920754D01*
X163193439Y-77037874D01*
X163193437Y-77037876D01*
X163029020Y-77187761D01*
X162894943Y-77365308D01*
X162894938Y-77365316D01*
X162795775Y-77564461D01*
X162795769Y-77564476D01*
X162734885Y-77778462D01*
X162734884Y-77778464D01*
X162714357Y-77999999D01*
X162714357Y-78000000D01*
X162734884Y-78221535D01*
X162734885Y-78221537D01*
X162795769Y-78435523D01*
X162795775Y-78435538D01*
X162894938Y-78634683D01*
X162894943Y-78634691D01*
X163029020Y-78812238D01*
X163193437Y-78962123D01*
X163193439Y-78962125D01*
X163382595Y-79079245D01*
X163382596Y-79079245D01*
X163382599Y-79079247D01*
X163590060Y-79159618D01*
X163808757Y-79200500D01*
X163808759Y-79200500D01*
X164031242Y-79200500D01*
X164031243Y-79200500D01*
X164137044Y-79180721D01*
X164206556Y-79187750D01*
X164247509Y-79214928D01*
X165432589Y-80400008D01*
X165519992Y-80487411D01*
X165519993Y-80487412D01*
X165622760Y-80556079D01*
X165622773Y-80556086D01*
X165736960Y-80603383D01*
X165736965Y-80603385D01*
X165736969Y-80603385D01*
X165736970Y-80603386D01*
X165858194Y-80627500D01*
X165858197Y-80627500D01*
X168514202Y-80627500D01*
X168514203Y-80627499D01*
X168635433Y-80603386D01*
X168716182Y-80569937D01*
X168749631Y-80556083D01*
X168852406Y-80487411D01*
X168939809Y-80400008D01*
X171487411Y-77852406D01*
X171556083Y-77749631D01*
X171603385Y-77635433D01*
X171616401Y-77570000D01*
X171627500Y-77514203D01*
X171627500Y-72696465D01*
X171647185Y-72629426D01*
X171659343Y-72613500D01*
X171732533Y-72532216D01*
X171827179Y-72368284D01*
X171885674Y-72188256D01*
X171905460Y-72000000D01*
X171885674Y-71811744D01*
X171827179Y-71631716D01*
X171732533Y-71467784D01*
X171605871Y-71327112D01*
X171605870Y-71327111D01*
X171452734Y-71215851D01*
X171452729Y-71215848D01*
X171279807Y-71138857D01*
X171279802Y-71138855D01*
X171134001Y-71107865D01*
X171094646Y-71099500D01*
X170905354Y-71099500D01*
X170872897Y-71106398D01*
X170720197Y-71138855D01*
X170720192Y-71138857D01*
X170547270Y-71215848D01*
X170547265Y-71215851D01*
X170394129Y-71327111D01*
X170267466Y-71467785D01*
X170172821Y-71631715D01*
X170172818Y-71631722D01*
X170118304Y-71799500D01*
X170114326Y-71811744D01*
X170094540Y-72000000D01*
X170102821Y-72078795D01*
X170103897Y-72089024D01*
X170091327Y-72157753D01*
X170043595Y-72208777D01*
X169975855Y-72225895D01*
X169909614Y-72203673D01*
X169895516Y-72191298D01*
X169895218Y-72191626D01*
X169726562Y-72037876D01*
X169726560Y-72037874D01*
X169537404Y-71920754D01*
X169537398Y-71920752D01*
X169329940Y-71840382D01*
X169111243Y-71799500D01*
X168888757Y-71799500D01*
X168670060Y-71840382D01*
X168538864Y-71891207D01*
X168462601Y-71920752D01*
X168462595Y-71920754D01*
X168273439Y-72037874D01*
X168273437Y-72037876D01*
X168109020Y-72187761D01*
X167974943Y-72365308D01*
X167974938Y-72365316D01*
X167875775Y-72564461D01*
X167875769Y-72564476D01*
X167814885Y-72778462D01*
X167814884Y-72778464D01*
X167794357Y-72999999D01*
X167794357Y-73000000D01*
X167814884Y-73221535D01*
X167814885Y-73221537D01*
X167875769Y-73435523D01*
X167875775Y-73435538D01*
X167974938Y-73634683D01*
X167974943Y-73634691D01*
X168109020Y-73812238D01*
X168273437Y-73962123D01*
X168273439Y-73962125D01*
X168462595Y-74079245D01*
X168462596Y-74079245D01*
X168462599Y-74079247D01*
X168604898Y-74134374D01*
X168660298Y-74176946D01*
X168683889Y-74242713D01*
X168668178Y-74310793D01*
X168618154Y-74359572D01*
X168604906Y-74365622D01*
X168498693Y-74406769D01*
X168462601Y-74420752D01*
X168462595Y-74420754D01*
X168273439Y-74537874D01*
X168273437Y-74537876D01*
X168109020Y-74687761D01*
X167974943Y-74865308D01*
X167974938Y-74865316D01*
X167875775Y-75064461D01*
X167875769Y-75064476D01*
X167814885Y-75278462D01*
X167814884Y-75278464D01*
X167794357Y-75499999D01*
X167794357Y-75500000D01*
X167814884Y-75721535D01*
X167814885Y-75721537D01*
X167875769Y-75935523D01*
X167875775Y-75935538D01*
X167974938Y-76134683D01*
X167974943Y-76134691D01*
X168109020Y-76312238D01*
X168273437Y-76462123D01*
X168273439Y-76462125D01*
X168462595Y-76579245D01*
X168462596Y-76579245D01*
X168462599Y-76579247D01*
X168604898Y-76634374D01*
X168660298Y-76676946D01*
X168683889Y-76742713D01*
X168668178Y-76810793D01*
X168618154Y-76859572D01*
X168604906Y-76865622D01*
X168509865Y-76902442D01*
X168462601Y-76920752D01*
X168462595Y-76920754D01*
X168273439Y-77037874D01*
X168273437Y-77037876D01*
X168109020Y-77187761D01*
X167974943Y-77365308D01*
X167974938Y-77365316D01*
X167875775Y-77564461D01*
X167875769Y-77564476D01*
X167814885Y-77778462D01*
X167814884Y-77778464D01*
X167794357Y-77999999D01*
X167794357Y-78000000D01*
X167814884Y-78221535D01*
X167814885Y-78221537D01*
X167875769Y-78435523D01*
X167875775Y-78435538D01*
X167974938Y-78634683D01*
X167974943Y-78634691D01*
X168109020Y-78812238D01*
X168273437Y-78962123D01*
X168273439Y-78962125D01*
X168343785Y-79005681D01*
X168390421Y-79057708D01*
X168401525Y-79126690D01*
X168373572Y-79190725D01*
X168366196Y-79198781D01*
X168228796Y-79336182D01*
X168167476Y-79369666D01*
X168141117Y-79372500D01*
X166231281Y-79372500D01*
X166164242Y-79352815D01*
X166143600Y-79336181D01*
X165139338Y-78331919D01*
X165105853Y-78270596D01*
X165105216Y-78227303D01*
X165104586Y-78227245D01*
X165125643Y-78000000D01*
X165125643Y-77999999D01*
X165105115Y-77778464D01*
X165105114Y-77778462D01*
X165095967Y-77746314D01*
X165044229Y-77564472D01*
X165019197Y-77514201D01*
X164945061Y-77365316D01*
X164945056Y-77365308D01*
X164810979Y-77187761D01*
X164646562Y-77037876D01*
X164646560Y-77037874D01*
X164457404Y-76920754D01*
X164457395Y-76920750D01*
X164385560Y-76892921D01*
X164315101Y-76865625D01*
X164259701Y-76823054D01*
X164236110Y-76757288D01*
X164251821Y-76689207D01*
X164301844Y-76640428D01*
X164315093Y-76634377D01*
X164457401Y-76579247D01*
X164646562Y-76462124D01*
X164786282Y-76334751D01*
X164810979Y-76312238D01*
X164831065Y-76285641D01*
X164945058Y-76134689D01*
X165044229Y-75935528D01*
X165105115Y-75721536D01*
X165125643Y-75500000D01*
X165105115Y-75278464D01*
X165044229Y-75064472D01*
X165044224Y-75064461D01*
X164945061Y-74865316D01*
X164945056Y-74865308D01*
X164810979Y-74687761D01*
X164646562Y-74537876D01*
X164646560Y-74537874D01*
X164457404Y-74420754D01*
X164457395Y-74420750D01*
X164385560Y-74392921D01*
X164315101Y-74365625D01*
X164259701Y-74323054D01*
X164236110Y-74257288D01*
X164251821Y-74189207D01*
X164301844Y-74140428D01*
X164315093Y-74134377D01*
X164457401Y-74079247D01*
X164646562Y-73962124D01*
X164786282Y-73834751D01*
X164810979Y-73812238D01*
X164810983Y-73812234D01*
X164945058Y-73634689D01*
X165044229Y-73435528D01*
X165105115Y-73221536D01*
X165125643Y-73000000D01*
X165105115Y-72778464D01*
X165044229Y-72564472D01*
X165040603Y-72557190D01*
X164945061Y-72365316D01*
X164945056Y-72365308D01*
X164810979Y-72187761D01*
X164646562Y-72037876D01*
X164646560Y-72037874D01*
X164457404Y-71920754D01*
X164457398Y-71920752D01*
X164249940Y-71840382D01*
X164031243Y-71799500D01*
X163808757Y-71799500D01*
X163590060Y-71840382D01*
X163458864Y-71891207D01*
X163382601Y-71920752D01*
X163382595Y-71920754D01*
X163193439Y-72037874D01*
X163193437Y-72037876D01*
X163029020Y-72187761D01*
X162894943Y-72365308D01*
X162894938Y-72365316D01*
X162795775Y-72564461D01*
X162795770Y-72564474D01*
X162786435Y-72597285D01*
X162749155Y-72656378D01*
X162685845Y-72685935D01*
X162616606Y-72676573D01*
X162565594Y-72634473D01*
X162500045Y-72540858D01*
X162339141Y-72379954D01*
X162152734Y-72249432D01*
X162152732Y-72249431D01*
X161946497Y-72153261D01*
X161946488Y-72153258D01*
X161726697Y-72094366D01*
X161726693Y-72094365D01*
X161726692Y-72094365D01*
X161726691Y-72094364D01*
X161726686Y-72094364D01*
X161500002Y-72074532D01*
X161499998Y-72074532D01*
X161273313Y-72094364D01*
X161273302Y-72094366D01*
X161053511Y-72153258D01*
X161053502Y-72153261D01*
X160847267Y-72249431D01*
X160847265Y-72249432D01*
X160660858Y-72379954D01*
X160499954Y-72540858D01*
X160369432Y-72727265D01*
X160369431Y-72727267D01*
X160273261Y-72933502D01*
X160273258Y-72933511D01*
X160214366Y-73153302D01*
X160214364Y-73153313D01*
X160194532Y-73379998D01*
X160194532Y-73380001D01*
X153000500Y-73380001D01*
X153000500Y-70831496D01*
X152962767Y-70496606D01*
X152887776Y-70168046D01*
X152776469Y-69849949D01*
X152630246Y-69546314D01*
X152450946Y-69260961D01*
X152240825Y-68997477D01*
X152002523Y-68759175D01*
X151739039Y-68549054D01*
X151453686Y-68369754D01*
X151453683Y-68369752D01*
X151150054Y-68223532D01*
X150831965Y-68112227D01*
X150831953Y-68112223D01*
X150503397Y-68037233D01*
X150503381Y-68037231D01*
X150168508Y-67999500D01*
X150168504Y-67999500D01*
X149831496Y-67999500D01*
X149831491Y-67999500D01*
X149496618Y-68037231D01*
X149496602Y-68037233D01*
X149168046Y-68112223D01*
X149168034Y-68112227D01*
X148849945Y-68223532D01*
X148546316Y-68369752D01*
X148260962Y-68549053D01*
X147997477Y-68759174D01*
X147759174Y-68997477D01*
X147549053Y-69260962D01*
X147369752Y-69546316D01*
X147223532Y-69849945D01*
X147112227Y-70168034D01*
X147112223Y-70168046D01*
X147037233Y-70496602D01*
X147037231Y-70496618D01*
X146999500Y-70831491D01*
X146999500Y-77525790D01*
X146979815Y-77592829D01*
X146963181Y-77613471D01*
X142759175Y-81817476D01*
X142549053Y-82080962D01*
X142369752Y-82366316D01*
X142223532Y-82669945D01*
X142112227Y-82988034D01*
X142112223Y-82988046D01*
X142037233Y-83316602D01*
X142037231Y-83316618D01*
X141999500Y-83651490D01*
X141999500Y-83988509D01*
X140680195Y-83988509D01*
X140700000Y-83888944D01*
X140700000Y-83751056D01*
X140673099Y-83615818D01*
X140654121Y-83570000D01*
X141500000Y-83570000D01*
X141500000Y-82901947D01*
X141463065Y-82668752D01*
X141390102Y-82444197D01*
X141282914Y-82233828D01*
X141144133Y-82042813D01*
X140977186Y-81875866D01*
X140786171Y-81737085D01*
X140575802Y-81629897D01*
X140351247Y-81556934D01*
X140250000Y-81540897D01*
X140250000Y-83165879D01*
X140204182Y-83146901D01*
X140068944Y-83120000D01*
X139931056Y-83120000D01*
X139795818Y-83146901D01*
X139750000Y-83165879D01*
X139750000Y-81540897D01*
X139648752Y-81556934D01*
X139424197Y-81629897D01*
X139213828Y-81737085D01*
X139022813Y-81875866D01*
X138855866Y-82042813D01*
X138717085Y-82233828D01*
X138609897Y-82444197D01*
X138536934Y-82668752D01*
X138500000Y-82901947D01*
X138500000Y-83570000D01*
X139345879Y-83570000D01*
X139326901Y-83615818D01*
X139300000Y-83751056D01*
X139300000Y-83888944D01*
X139326901Y-84024182D01*
X139345879Y-84070000D01*
X138500000Y-84070000D01*
X138500000Y-84738052D01*
X137857649Y-84738052D01*
X137887776Y-84651954D01*
X137962767Y-84323394D01*
X138000500Y-83988504D01*
X138000500Y-80494210D01*
X138020185Y-80427171D01*
X138036819Y-80406529D01*
X138600896Y-79842452D01*
X139240824Y-79202524D01*
X139275041Y-79159618D01*
X139432536Y-78962125D01*
X139450943Y-78939043D01*
X139450944Y-78939041D01*
X139450946Y-78939039D01*
X139630246Y-78653686D01*
X139776469Y-78350051D01*
X139887776Y-78031954D01*
X139962767Y-77703394D01*
X139970425Y-77635433D01*
X139990083Y-77460961D01*
X139990083Y-77460960D01*
X140000500Y-77368505D01*
X140000500Y-77031495D01*
X140000500Y-72247844D01*
X143300000Y-72247844D01*
X143306401Y-72307372D01*
X143306403Y-72307379D01*
X143356645Y-72442086D01*
X143356649Y-72442093D01*
X143442809Y-72557187D01*
X143442812Y-72557190D01*
X143557906Y-72643350D01*
X143557913Y-72643354D01*
X143692620Y-72693596D01*
X143692627Y-72693598D01*
X143752155Y-72699999D01*
X143752172Y-72700000D01*
X144750000Y-72700000D01*
X144750000Y-71548482D01*
X144768409Y-71559111D01*
X144921009Y-71600000D01*
X145078991Y-71600000D01*
X145231591Y-71559111D01*
X145250000Y-71548482D01*
X145250000Y-72700000D01*
X146247828Y-72700000D01*
X146247844Y-72699999D01*
X146307372Y-72693598D01*
X146307379Y-72693596D01*
X146442086Y-72643354D01*
X146442093Y-72643350D01*
X146557187Y-72557190D01*
X146557190Y-72557187D01*
X146643350Y-72442093D01*
X146643354Y-72442086D01*
X146693596Y-72307379D01*
X146693598Y-72307372D01*
X146699999Y-72247844D01*
X146700000Y-72247827D01*
X146700000Y-71250000D01*
X145548482Y-71250000D01*
X145559111Y-71231591D01*
X145600000Y-71078991D01*
X145600000Y-70921009D01*
X145559111Y-70768409D01*
X145548482Y-70750000D01*
X146700000Y-70750000D01*
X146700000Y-69752172D01*
X146699999Y-69752155D01*
X146693598Y-69692627D01*
X146693596Y-69692620D01*
X146643354Y-69557913D01*
X146643350Y-69557906D01*
X146557190Y-69442812D01*
X146557187Y-69442809D01*
X146442093Y-69356649D01*
X146442086Y-69356645D01*
X146307379Y-69306403D01*
X146307372Y-69306401D01*
X146247844Y-69300000D01*
X145250000Y-69300000D01*
X145250000Y-70451517D01*
X145231591Y-70440889D01*
X145078991Y-70400000D01*
X144921009Y-70400000D01*
X144768409Y-70440889D01*
X144750000Y-70451517D01*
X144750000Y-69300000D01*
X143752155Y-69300000D01*
X143692627Y-69306401D01*
X143692620Y-69306403D01*
X143557913Y-69356645D01*
X143557906Y-69356649D01*
X143442812Y-69442809D01*
X143442809Y-69442812D01*
X143356649Y-69557906D01*
X143356645Y-69557913D01*
X143306403Y-69692620D01*
X143306401Y-69692627D01*
X143300000Y-69752155D01*
X143300000Y-70750000D01*
X144451518Y-70750000D01*
X144440889Y-70768409D01*
X144400000Y-70921009D01*
X144400000Y-71078991D01*
X144440889Y-71231591D01*
X144451518Y-71250000D01*
X143300000Y-71250000D01*
X143300000Y-72247844D01*
X140000500Y-72247844D01*
X140000500Y-70831496D01*
X139962767Y-70496606D01*
X139887776Y-70168046D01*
X139776469Y-69849949D01*
X139630246Y-69546314D01*
X139450946Y-69260961D01*
X139240825Y-68997477D01*
X139002523Y-68759175D01*
X138739039Y-68549054D01*
X138453686Y-68369754D01*
X138453683Y-68369752D01*
X138150054Y-68223532D01*
X137831965Y-68112227D01*
X137831953Y-68112223D01*
X137503397Y-68037233D01*
X137503377Y-68037230D01*
X137500607Y-68036918D01*
X137499973Y-68036651D01*
X137499957Y-68036649D01*
X137499957Y-68036645D01*
X137436195Y-68009846D01*
X137396644Y-67952249D01*
X137390500Y-67913699D01*
X137390500Y-63597351D01*
X155695034Y-63597351D01*
X155714858Y-63823948D01*
X155714860Y-63823959D01*
X155773730Y-64043666D01*
X155773735Y-64043680D01*
X155869863Y-64249827D01*
X155920974Y-64322821D01*
X156600000Y-63643795D01*
X156600000Y-63650010D01*
X156627259Y-63751743D01*
X156679920Y-63842955D01*
X156754394Y-63917429D01*
X156845606Y-63970090D01*
X156947339Y-63997349D01*
X156953553Y-63997349D01*
X156274526Y-64676374D01*
X156347513Y-64727481D01*
X156347521Y-64727485D01*
X156553668Y-64823613D01*
X156553682Y-64823618D01*
X156773389Y-64882488D01*
X156773400Y-64882490D01*
X156999998Y-64902315D01*
X157000002Y-64902315D01*
X157226599Y-64882490D01*
X157226610Y-64882488D01*
X157446317Y-64823618D01*
X157446331Y-64823613D01*
X157652478Y-64727485D01*
X157725471Y-64676373D01*
X157046447Y-63997349D01*
X157052661Y-63997349D01*
X157154394Y-63970090D01*
X157245606Y-63917429D01*
X157320080Y-63842955D01*
X157372741Y-63751743D01*
X157400000Y-63650010D01*
X157400000Y-63643796D01*
X158079024Y-64322820D01*
X158130136Y-64249827D01*
X158226264Y-64043680D01*
X158226269Y-64043666D01*
X158285139Y-63823959D01*
X158285141Y-63823948D01*
X158304966Y-63597351D01*
X158304966Y-63597346D01*
X158285141Y-63370749D01*
X158285139Y-63370738D01*
X158226269Y-63151031D01*
X158226264Y-63151017D01*
X158130136Y-62944870D01*
X158130132Y-62944862D01*
X158079025Y-62871875D01*
X157400000Y-63550900D01*
X157400000Y-63544688D01*
X157372741Y-63442955D01*
X157320080Y-63351743D01*
X157245606Y-63277269D01*
X157154394Y-63224608D01*
X157052661Y-63197349D01*
X157046448Y-63197349D01*
X157725472Y-62518323D01*
X157652478Y-62467212D01*
X157446331Y-62371084D01*
X157446317Y-62371079D01*
X157226610Y-62312209D01*
X157226599Y-62312207D01*
X157000002Y-62292383D01*
X156999998Y-62292383D01*
X156773400Y-62312207D01*
X156773389Y-62312209D01*
X156553682Y-62371079D01*
X156553673Y-62371083D01*
X156347516Y-62467215D01*
X156347512Y-62467217D01*
X156274526Y-62518322D01*
X156274526Y-62518323D01*
X156953553Y-63197349D01*
X156947339Y-63197349D01*
X156845606Y-63224608D01*
X156754394Y-63277269D01*
X156679920Y-63351743D01*
X156627259Y-63442955D01*
X156600000Y-63544688D01*
X156600000Y-63550901D01*
X155920974Y-62871875D01*
X155920973Y-62871875D01*
X155869868Y-62944861D01*
X155869866Y-62944865D01*
X155773734Y-63151022D01*
X155773730Y-63151031D01*
X155714860Y-63370738D01*
X155714858Y-63370749D01*
X155695034Y-63597346D01*
X155695034Y-63597351D01*
X137390500Y-63597351D01*
X137390500Y-61198097D01*
X140499500Y-61198097D01*
X140536446Y-61431368D01*
X140609433Y-61655996D01*
X140693039Y-61820080D01*
X140716657Y-61866433D01*
X140855483Y-62057510D01*
X141022490Y-62224517D01*
X141213567Y-62363343D01*
X141228758Y-62371083D01*
X141424003Y-62470566D01*
X141424005Y-62470566D01*
X141424008Y-62470568D01*
X141514729Y-62500045D01*
X141648631Y-62543553D01*
X141881903Y-62580500D01*
X141881908Y-62580500D01*
X143538097Y-62580500D01*
X143771368Y-62543553D01*
X143995992Y-62470568D01*
X144206434Y-62363343D01*
X144397510Y-62224517D01*
X145423930Y-61198097D01*
X146499500Y-61198097D01*
X146536446Y-61431368D01*
X146609433Y-61655996D01*
X146693039Y-61820080D01*
X146716657Y-61866433D01*
X146855483Y-62057510D01*
X147022490Y-62224517D01*
X147213567Y-62363343D01*
X147228758Y-62371083D01*
X147424003Y-62470566D01*
X147424005Y-62470566D01*
X147424008Y-62470568D01*
X147514729Y-62500045D01*
X147648631Y-62543553D01*
X147881903Y-62580500D01*
X147881908Y-62580500D01*
X149538097Y-62580500D01*
X149771368Y-62543553D01*
X149995992Y-62470568D01*
X150206434Y-62363343D01*
X150397510Y-62224517D01*
X152144517Y-60477510D01*
X152283343Y-60286434D01*
X152390568Y-60075993D01*
X152463552Y-59851369D01*
X152483493Y-59725468D01*
X152500499Y-59618097D01*
X152500499Y-59381903D01*
X152475902Y-59226610D01*
X152463552Y-59148632D01*
X152390568Y-58924008D01*
X152390568Y-58924007D01*
X152318602Y-58782767D01*
X152283343Y-58713567D01*
X152144517Y-58522490D01*
X151977510Y-58355483D01*
X151786433Y-58216657D01*
X151575992Y-58109431D01*
X151575989Y-58109430D01*
X151351369Y-58036448D01*
X151118096Y-57999501D01*
X151118091Y-57999501D01*
X150881908Y-57999501D01*
X150881903Y-57999501D01*
X150648629Y-58036448D01*
X150424009Y-58109430D01*
X150424006Y-58109431D01*
X150213565Y-58216657D01*
X150022488Y-58355484D01*
X150022487Y-58355485D01*
X148834792Y-59543181D01*
X148773469Y-59576666D01*
X148747111Y-59579500D01*
X147881903Y-59579500D01*
X147648631Y-59616446D01*
X147424003Y-59689433D01*
X147213566Y-59796657D01*
X147138261Y-59851370D01*
X147022490Y-59935483D01*
X147022488Y-59935485D01*
X147022487Y-59935485D01*
X146855485Y-60102487D01*
X146855485Y-60102488D01*
X146855483Y-60102490D01*
X146776092Y-60211762D01*
X146731067Y-60273734D01*
X146716657Y-60293567D01*
X146713124Y-60300501D01*
X146609433Y-60504003D01*
X146536446Y-60728631D01*
X146499500Y-60961902D01*
X146499500Y-61198097D01*
X145423930Y-61198097D01*
X146144517Y-60477510D01*
X146283343Y-60286434D01*
X146390568Y-60075993D01*
X146463552Y-59851369D01*
X146483493Y-59725468D01*
X146500499Y-59618097D01*
X146500499Y-59381903D01*
X146475902Y-59226610D01*
X146463552Y-59148632D01*
X146390568Y-58924008D01*
X146390568Y-58924007D01*
X146318602Y-58782767D01*
X146283343Y-58713567D01*
X146144517Y-58522490D01*
X145977510Y-58355483D01*
X145786433Y-58216657D01*
X145575992Y-58109431D01*
X145575989Y-58109430D01*
X145351369Y-58036448D01*
X145118096Y-57999501D01*
X145118091Y-57999501D01*
X144881908Y-57999501D01*
X144881903Y-57999501D01*
X144648629Y-58036448D01*
X144424009Y-58109430D01*
X144424006Y-58109431D01*
X144213565Y-58216657D01*
X144022488Y-58355484D01*
X144022487Y-58355485D01*
X142834792Y-59543181D01*
X142773469Y-59576666D01*
X142747111Y-59579500D01*
X141881903Y-59579500D01*
X141648631Y-59616446D01*
X141424003Y-59689433D01*
X141213566Y-59796657D01*
X141138261Y-59851370D01*
X141022490Y-59935483D01*
X141022488Y-59935485D01*
X141022487Y-59935485D01*
X140855485Y-60102487D01*
X140855485Y-60102488D01*
X140855483Y-60102490D01*
X140776092Y-60211762D01*
X140731067Y-60273734D01*
X140716657Y-60293567D01*
X140713124Y-60300501D01*
X140609433Y-60504003D01*
X140536446Y-60728631D01*
X140499500Y-60961902D01*
X140499500Y-61198097D01*
X137390500Y-61198097D01*
X137390500Y-59807309D01*
X137410185Y-59740270D01*
X137426819Y-59719628D01*
X138100000Y-59046447D01*
X138100000Y-59052661D01*
X138127259Y-59154394D01*
X138179920Y-59245606D01*
X138254394Y-59320080D01*
X138345606Y-59372741D01*
X138447339Y-59400000D01*
X138453553Y-59400000D01*
X137774526Y-60079025D01*
X137847513Y-60130132D01*
X137847521Y-60130136D01*
X138053668Y-60226264D01*
X138053682Y-60226269D01*
X138273389Y-60285139D01*
X138273400Y-60285141D01*
X138499998Y-60304966D01*
X138500002Y-60304966D01*
X138726599Y-60285141D01*
X138726610Y-60285139D01*
X138946317Y-60226269D01*
X138946331Y-60226264D01*
X139152478Y-60130136D01*
X139225471Y-60079024D01*
X138546447Y-59400000D01*
X138552661Y-59400000D01*
X138654394Y-59372741D01*
X138745606Y-59320080D01*
X138820080Y-59245606D01*
X138872741Y-59154394D01*
X138900000Y-59052661D01*
X138900000Y-59046447D01*
X139579024Y-59725471D01*
X139630136Y-59652478D01*
X139726264Y-59446331D01*
X139726269Y-59446317D01*
X139785139Y-59226610D01*
X139785141Y-59226599D01*
X139804966Y-59000002D01*
X139804966Y-58999997D01*
X139785141Y-58773400D01*
X139785139Y-58773389D01*
X139726269Y-58553682D01*
X139726264Y-58553668D01*
X139630136Y-58347521D01*
X139630132Y-58347513D01*
X139579025Y-58274526D01*
X138900000Y-58953551D01*
X138900000Y-58947339D01*
X138872741Y-58845606D01*
X138820080Y-58754394D01*
X138745606Y-58679920D01*
X138654394Y-58627259D01*
X138552661Y-58600000D01*
X138546448Y-58600000D01*
X139225472Y-57920974D01*
X139152478Y-57869863D01*
X138946331Y-57773735D01*
X138946317Y-57773730D01*
X138726610Y-57714860D01*
X138726599Y-57714858D01*
X138500002Y-57695034D01*
X138499998Y-57695034D01*
X138273400Y-57714858D01*
X138273389Y-57714860D01*
X138053682Y-57773730D01*
X138053673Y-57773734D01*
X137847516Y-57869866D01*
X137847512Y-57869868D01*
X137774526Y-57920973D01*
X137774526Y-57920974D01*
X138453553Y-58600000D01*
X138447339Y-58600000D01*
X138345606Y-58627259D01*
X138254394Y-58679920D01*
X138179920Y-58754394D01*
X138127259Y-58845606D01*
X138100000Y-58947339D01*
X138100000Y-58953552D01*
X137426819Y-58280371D01*
X137393334Y-58219048D01*
X137390500Y-58192690D01*
X137390500Y-54500002D01*
X143695034Y-54500002D01*
X143714858Y-54726599D01*
X143714860Y-54726610D01*
X143773730Y-54946317D01*
X143773735Y-54946331D01*
X143869863Y-55152478D01*
X143920974Y-55225472D01*
X144600000Y-54546446D01*
X144600000Y-54552661D01*
X144627259Y-54654394D01*
X144679920Y-54745606D01*
X144754394Y-54820080D01*
X144845606Y-54872741D01*
X144947339Y-54900000D01*
X144953553Y-54900000D01*
X144274526Y-55579025D01*
X144347513Y-55630132D01*
X144347521Y-55630136D01*
X144553668Y-55726264D01*
X144553682Y-55726269D01*
X144773389Y-55785139D01*
X144773400Y-55785141D01*
X144999998Y-55804966D01*
X145000002Y-55804966D01*
X145226599Y-55785141D01*
X145226610Y-55785139D01*
X145446317Y-55726269D01*
X145446331Y-55726264D01*
X145652478Y-55630136D01*
X145725471Y-55579024D01*
X145046447Y-54900000D01*
X145052661Y-54900000D01*
X145154394Y-54872741D01*
X145245606Y-54820080D01*
X145320080Y-54745606D01*
X145372741Y-54654394D01*
X145400000Y-54552661D01*
X145400000Y-54546447D01*
X146079024Y-55225471D01*
X146130136Y-55152478D01*
X146226264Y-54946331D01*
X146226269Y-54946317D01*
X146285139Y-54726610D01*
X146285141Y-54726599D01*
X146304966Y-54500002D01*
X146304966Y-54499997D01*
X146285141Y-54273400D01*
X146285139Y-54273389D01*
X146226269Y-54053682D01*
X146226264Y-54053668D01*
X146130136Y-53847521D01*
X146130132Y-53847513D01*
X146079025Y-53774526D01*
X145400000Y-54453551D01*
X145400000Y-54447339D01*
X145372741Y-54345606D01*
X145320080Y-54254394D01*
X145245606Y-54179920D01*
X145154394Y-54127259D01*
X145052661Y-54100000D01*
X145046448Y-54100000D01*
X145725472Y-53420974D01*
X145652478Y-53369863D01*
X145446331Y-53273735D01*
X145446317Y-53273730D01*
X145226610Y-53214860D01*
X145226599Y-53214858D01*
X145000002Y-53195034D01*
X144999998Y-53195034D01*
X144773400Y-53214858D01*
X144773389Y-53214860D01*
X144553682Y-53273730D01*
X144553673Y-53273734D01*
X144347516Y-53369866D01*
X144347512Y-53369868D01*
X144274526Y-53420973D01*
X144274526Y-53420974D01*
X144953553Y-54100000D01*
X144947339Y-54100000D01*
X144845606Y-54127259D01*
X144754394Y-54179920D01*
X144679920Y-54254394D01*
X144627259Y-54345606D01*
X144600000Y-54447339D01*
X144600000Y-54453552D01*
X143920974Y-53774526D01*
X143920973Y-53774526D01*
X143869868Y-53847512D01*
X143869866Y-53847516D01*
X143773734Y-54053673D01*
X143773730Y-54053682D01*
X143714860Y-54273389D01*
X143714858Y-54273400D01*
X143695034Y-54499997D01*
X143695034Y-54500002D01*
X137390500Y-54500002D01*
X137390500Y-51162811D01*
X137410185Y-51095772D01*
X137462989Y-51050017D01*
X137532147Y-51040073D01*
X137595703Y-51069098D01*
X137624984Y-51106515D01*
X137716657Y-51286433D01*
X137855483Y-51477510D01*
X138022490Y-51644517D01*
X138213567Y-51783343D01*
X138275700Y-51815001D01*
X138326496Y-51862975D01*
X138343291Y-51930796D01*
X138320754Y-51996931D01*
X138284685Y-52030911D01*
X138273441Y-52037872D01*
X138273437Y-52037876D01*
X138109020Y-52187761D01*
X137974943Y-52365308D01*
X137974938Y-52365316D01*
X137875775Y-52564461D01*
X137875769Y-52564476D01*
X137814885Y-52778462D01*
X137814884Y-52778464D01*
X137794357Y-52999999D01*
X137794357Y-53000000D01*
X137814884Y-53221535D01*
X137814885Y-53221537D01*
X137875769Y-53435523D01*
X137875775Y-53435538D01*
X137974938Y-53634683D01*
X137974943Y-53634691D01*
X138109020Y-53812238D01*
X138273437Y-53962123D01*
X138273439Y-53962125D01*
X138462595Y-54079245D01*
X138462596Y-54079245D01*
X138462599Y-54079247D01*
X138670060Y-54159618D01*
X138888757Y-54200500D01*
X138888759Y-54200500D01*
X139111241Y-54200500D01*
X139111243Y-54200500D01*
X139329940Y-54159618D01*
X139537401Y-54079247D01*
X139726562Y-53962124D01*
X139890981Y-53812236D01*
X140025058Y-53634689D01*
X140124229Y-53435528D01*
X140185115Y-53221536D01*
X140205643Y-53000000D01*
X140185115Y-52778464D01*
X140124229Y-52564472D01*
X140118576Y-52553119D01*
X140025061Y-52365316D01*
X140025056Y-52365308D01*
X139947384Y-52262454D01*
X139899636Y-52199225D01*
X139874945Y-52133866D01*
X139889510Y-52065531D01*
X139938707Y-52015918D01*
X139998591Y-52000500D01*
X140907110Y-52000500D01*
X140974149Y-52020185D01*
X140994791Y-52036819D01*
X141022490Y-52064518D01*
X141208228Y-52199464D01*
X141213566Y-52203342D01*
X141213567Y-52203343D01*
X141424003Y-52310566D01*
X141424005Y-52310566D01*
X141424008Y-52310568D01*
X141515766Y-52340382D01*
X141648631Y-52383553D01*
X141881903Y-52420500D01*
X141881908Y-52420500D01*
X142118097Y-52420500D01*
X142247690Y-52399973D01*
X142351369Y-52383553D01*
X142575992Y-52310568D01*
X142786434Y-52203343D01*
X142977510Y-52064518D01*
X143144518Y-51897510D01*
X143283343Y-51706434D01*
X143390568Y-51495992D01*
X143463553Y-51271369D01*
X143484632Y-51138281D01*
X143500500Y-51038097D01*
X143500500Y-44296500D01*
X143520185Y-44229461D01*
X143572989Y-44183706D01*
X143624500Y-44172500D01*
X144499111Y-44172500D01*
X144566150Y-44192185D01*
X144586791Y-44208818D01*
X144963182Y-44585210D01*
X144996666Y-44646531D01*
X144999500Y-44672889D01*
X144999500Y-45600001D01*
X144999501Y-45600019D01*
X145010000Y-45702796D01*
X145010001Y-45702799D01*
X145034759Y-45777512D01*
X145065186Y-45869334D01*
X145157288Y-46018656D01*
X145281344Y-46142712D01*
X145430666Y-46234814D01*
X145597203Y-46289999D01*
X145699991Y-46300500D01*
X145748500Y-46300499D01*
X145815537Y-46320182D01*
X145861293Y-46372985D01*
X145872500Y-46424499D01*
X145872500Y-47561807D01*
X145896612Y-47683027D01*
X145896614Y-47683035D01*
X145925181Y-47752001D01*
X145943913Y-47797226D01*
X145943921Y-47797241D01*
X145992387Y-47869773D01*
X145992388Y-47869775D01*
X146012590Y-47900010D01*
X146012593Y-47900013D01*
X146890353Y-48777772D01*
X146923838Y-48839095D01*
X146925992Y-48852487D01*
X146943308Y-49017238D01*
X146943309Y-49017241D01*
X147001800Y-49197259D01*
X147001803Y-49197266D01*
X147096449Y-49361198D01*
X147150072Y-49420752D01*
X147178956Y-49452831D01*
X147209186Y-49515822D01*
X147200561Y-49585158D01*
X147174488Y-49623484D01*
X146855482Y-49942491D01*
X146716657Y-50133565D01*
X146609433Y-50344003D01*
X146536446Y-50568631D01*
X146499500Y-50801902D01*
X146499500Y-51038097D01*
X146536446Y-51271368D01*
X146609433Y-51495996D01*
X146679940Y-51634373D01*
X146716657Y-51706434D01*
X146855483Y-51897510D01*
X147022490Y-52064517D01*
X147106987Y-52125908D01*
X147213567Y-52203344D01*
X147260598Y-52227307D01*
X147304795Y-52249826D01*
X147355590Y-52297798D01*
X147372500Y-52360310D01*
X147372500Y-53811807D01*
X147396612Y-53933028D01*
X147396613Y-53933032D01*
X147396614Y-53933035D01*
X147408664Y-53962125D01*
X147419138Y-53987411D01*
X147419138Y-53987412D01*
X147443915Y-54047230D01*
X147443916Y-54047232D01*
X147443917Y-54047233D01*
X147479175Y-54100000D01*
X147481436Y-54103383D01*
X147481436Y-54103384D01*
X147512590Y-54150010D01*
X147512593Y-54150013D01*
X149512589Y-56150008D01*
X149588845Y-56226264D01*
X149599993Y-56237412D01*
X149702760Y-56306079D01*
X149702773Y-56306086D01*
X149816960Y-56353383D01*
X149816965Y-56353385D01*
X149816969Y-56353385D01*
X149816970Y-56353386D01*
X149938194Y-56377500D01*
X149938197Y-56377500D01*
X150061803Y-56377500D01*
X153577768Y-56377500D01*
X153644807Y-56397185D01*
X153676722Y-56426773D01*
X153779020Y-56562238D01*
X153943433Y-56712120D01*
X153943435Y-56712121D01*
X153943438Y-56712124D01*
X153983777Y-56737101D01*
X154030412Y-56789127D01*
X154042500Y-56842527D01*
X154042500Y-58481807D01*
X154066612Y-58603027D01*
X154066614Y-58603035D01*
X154098491Y-58679992D01*
X154113915Y-58717229D01*
X154113920Y-58717239D01*
X154169578Y-58800536D01*
X154169577Y-58800536D01*
X154182586Y-58820005D01*
X154182594Y-58820014D01*
X155486938Y-60124357D01*
X155549400Y-60186819D01*
X155574343Y-60211762D01*
X155574345Y-60211763D01*
X155677105Y-60280425D01*
X155677109Y-60280427D01*
X155677116Y-60280432D01*
X155725565Y-60300500D01*
X155725566Y-60300500D01*
X155725567Y-60300501D01*
X155791309Y-60327732D01*
X155791314Y-60327734D01*
X155791318Y-60327734D01*
X155791319Y-60327735D01*
X155912543Y-60351849D01*
X155912546Y-60351849D01*
X161587455Y-60351849D01*
X161587456Y-60351848D01*
X161708686Y-60327735D01*
X161791175Y-60293566D01*
X161822884Y-60280432D01*
X161925659Y-60211760D01*
X161925662Y-60211757D01*
X161950601Y-60186819D01*
X162011924Y-60153334D01*
X162038282Y-60150500D01*
X162094644Y-60150500D01*
X162094646Y-60150500D01*
X162279803Y-60111144D01*
X162279805Y-60111142D01*
X162285987Y-60109135D01*
X162286524Y-60110788D01*
X162347292Y-60102629D01*
X162410574Y-60132246D01*
X162447798Y-60191374D01*
X162452500Y-60225197D01*
X162452500Y-60287212D01*
X162432815Y-60354251D01*
X162399623Y-60388787D01*
X162240858Y-60499954D01*
X162079954Y-60660858D01*
X161949432Y-60847265D01*
X161949431Y-60847267D01*
X161853261Y-61053502D01*
X161853258Y-61053511D01*
X161794366Y-61273302D01*
X161794364Y-61273313D01*
X161774532Y-61499998D01*
X161774532Y-61500001D01*
X161794364Y-61726686D01*
X161794366Y-61726697D01*
X161853258Y-61946488D01*
X161853261Y-61946497D01*
X161949431Y-62152732D01*
X161949432Y-62152734D01*
X162079954Y-62339141D01*
X162240858Y-62500045D01*
X162240861Y-62500047D01*
X162353654Y-62579025D01*
X162399623Y-62611212D01*
X162443248Y-62665788D01*
X162452500Y-62712787D01*
X162452500Y-62857938D01*
X162432815Y-62924977D01*
X162393777Y-62963365D01*
X162273439Y-63037874D01*
X162273437Y-63037876D01*
X162109020Y-63187761D01*
X161974943Y-63365308D01*
X161974938Y-63365316D01*
X161875775Y-63564461D01*
X161875769Y-63564476D01*
X161814885Y-63778462D01*
X161814884Y-63778464D01*
X161794357Y-63999999D01*
X161794357Y-64000000D01*
X161814884Y-64221535D01*
X161814885Y-64221537D01*
X161875769Y-64435523D01*
X161875775Y-64435538D01*
X161974938Y-64634683D01*
X161974943Y-64634691D01*
X162109020Y-64812238D01*
X162273437Y-64962123D01*
X162273439Y-64962125D01*
X162462595Y-65079245D01*
X162462596Y-65079245D01*
X162462599Y-65079247D01*
X162670060Y-65159618D01*
X162888757Y-65200500D01*
X162888759Y-65200500D01*
X163111241Y-65200500D01*
X163111243Y-65200500D01*
X163329940Y-65159618D01*
X163537401Y-65079247D01*
X163654278Y-65006880D01*
X167426672Y-65006880D01*
X167542821Y-65078797D01*
X167542822Y-65078798D01*
X167750195Y-65159134D01*
X167968807Y-65200000D01*
X168191193Y-65200000D01*
X168409809Y-65159133D01*
X168617168Y-65078801D01*
X168617181Y-65078795D01*
X168733326Y-65006879D01*
X168080001Y-64353553D01*
X168080000Y-64353553D01*
X167426672Y-65006879D01*
X167426672Y-65006880D01*
X163654278Y-65006880D01*
X163726562Y-64962124D01*
X163890981Y-64812236D01*
X164025058Y-64634689D01*
X164124229Y-64435528D01*
X164185115Y-64221536D01*
X164205643Y-64000000D01*
X166874859Y-64000000D01*
X166895378Y-64221439D01*
X166956240Y-64435350D01*
X167055369Y-64634428D01*
X167071137Y-64655308D01*
X167071138Y-64655308D01*
X167680369Y-64046078D01*
X167730000Y-64046078D01*
X167753852Y-64135095D01*
X167799930Y-64214905D01*
X167865095Y-64280070D01*
X167944905Y-64326148D01*
X168033922Y-64350000D01*
X168126078Y-64350000D01*
X168215095Y-64326148D01*
X168294905Y-64280070D01*
X168360070Y-64214905D01*
X168406148Y-64135095D01*
X168430000Y-64046078D01*
X168430000Y-64000000D01*
X168433553Y-64000000D01*
X169088861Y-64655308D01*
X169104631Y-64634425D01*
X169104633Y-64634422D01*
X169203759Y-64435350D01*
X169264621Y-64221439D01*
X169285141Y-64000000D01*
X169285141Y-63999999D01*
X169264621Y-63778560D01*
X169203759Y-63564649D01*
X169104635Y-63365580D01*
X169104630Y-63365572D01*
X169088860Y-63344690D01*
X168433553Y-63999999D01*
X168433553Y-64000000D01*
X168430000Y-64000000D01*
X168430000Y-63953922D01*
X168406148Y-63864905D01*
X168360070Y-63785095D01*
X168294905Y-63719930D01*
X168215095Y-63673852D01*
X168126078Y-63650000D01*
X168033922Y-63650000D01*
X167944905Y-63673852D01*
X167865095Y-63719930D01*
X167799930Y-63785095D01*
X167753852Y-63864905D01*
X167730000Y-63953922D01*
X167730000Y-64046078D01*
X167680369Y-64046078D01*
X167726447Y-64000000D01*
X167071138Y-63344691D01*
X167071137Y-63344691D01*
X167055368Y-63365574D01*
X166956240Y-63564649D01*
X166895378Y-63778560D01*
X166874859Y-63999999D01*
X166874859Y-64000000D01*
X164205643Y-64000000D01*
X164202871Y-63970090D01*
X164185115Y-63778464D01*
X164185114Y-63778462D01*
X164168460Y-63719930D01*
X164124229Y-63564472D01*
X164114378Y-63544688D01*
X164025061Y-63365316D01*
X164025056Y-63365308D01*
X163890979Y-63187761D01*
X163747962Y-63057384D01*
X163711680Y-62997673D01*
X163707500Y-62965747D01*
X163707500Y-62712787D01*
X163727185Y-62645748D01*
X163760377Y-62611212D01*
X163804239Y-62580500D01*
X163919139Y-62500047D01*
X164080047Y-62339139D01*
X164210568Y-62152734D01*
X164306739Y-61946496D01*
X164365635Y-61726692D01*
X164385468Y-61500002D01*
X166775034Y-61500002D01*
X166794858Y-61726599D01*
X166794860Y-61726610D01*
X166853730Y-61946317D01*
X166853735Y-61946331D01*
X166949863Y-62152478D01*
X167000974Y-62225472D01*
X167680000Y-61546446D01*
X167680000Y-61552661D01*
X167707259Y-61654394D01*
X167759920Y-61745606D01*
X167834394Y-61820080D01*
X167925606Y-61872741D01*
X168027339Y-61900000D01*
X168033553Y-61900000D01*
X167354526Y-62579025D01*
X167427513Y-62630132D01*
X167427517Y-62630134D01*
X167557159Y-62690587D01*
X167609598Y-62736759D01*
X167628750Y-62803953D01*
X167608534Y-62870834D01*
X167555369Y-62916168D01*
X167549550Y-62918595D01*
X167542827Y-62921199D01*
X167542823Y-62921201D01*
X167426671Y-62993119D01*
X168080000Y-63646447D01*
X168080001Y-63646447D01*
X168733327Y-62993119D01*
X168617178Y-62921202D01*
X168617174Y-62921200D01*
X168610452Y-62918596D01*
X168555050Y-62876024D01*
X168531459Y-62810257D01*
X168547170Y-62742176D01*
X168597193Y-62693397D01*
X168602841Y-62690587D01*
X168732478Y-62630136D01*
X168805471Y-62579024D01*
X168126447Y-61900000D01*
X168132661Y-61900000D01*
X168234394Y-61872741D01*
X168325606Y-61820080D01*
X168400080Y-61745606D01*
X168452741Y-61654394D01*
X168480000Y-61552661D01*
X168480000Y-61546447D01*
X169159024Y-62225471D01*
X169210136Y-62152478D01*
X169306264Y-61946331D01*
X169306269Y-61946317D01*
X169365139Y-61726610D01*
X169365141Y-61726599D01*
X169384966Y-61500002D01*
X169384966Y-61499997D01*
X169365141Y-61273400D01*
X169365139Y-61273389D01*
X169306269Y-61053682D01*
X169306264Y-61053668D01*
X169210136Y-60847521D01*
X169210132Y-60847513D01*
X169159025Y-60774526D01*
X168480000Y-61453551D01*
X168480000Y-61447339D01*
X168452741Y-61345606D01*
X168400080Y-61254394D01*
X168325606Y-61179920D01*
X168234394Y-61127259D01*
X168132661Y-61100000D01*
X168126448Y-61100000D01*
X168805472Y-60420974D01*
X168732478Y-60369863D01*
X168526331Y-60273735D01*
X168526317Y-60273730D01*
X168306610Y-60214860D01*
X168306599Y-60214858D01*
X168080002Y-60195034D01*
X168079998Y-60195034D01*
X167853400Y-60214858D01*
X167853389Y-60214860D01*
X167633682Y-60273730D01*
X167633673Y-60273734D01*
X167427516Y-60369866D01*
X167427512Y-60369868D01*
X167354526Y-60420973D01*
X167354526Y-60420974D01*
X168033553Y-61100000D01*
X168027339Y-61100000D01*
X167925606Y-61127259D01*
X167834394Y-61179920D01*
X167759920Y-61254394D01*
X167707259Y-61345606D01*
X167680000Y-61447339D01*
X167680000Y-61453552D01*
X167000974Y-60774526D01*
X167000973Y-60774526D01*
X166949868Y-60847512D01*
X166949866Y-60847516D01*
X166853734Y-61053673D01*
X166853730Y-61053682D01*
X166794860Y-61273389D01*
X166794858Y-61273400D01*
X166775034Y-61499997D01*
X166775034Y-61500002D01*
X164385468Y-61500002D01*
X164385468Y-61500000D01*
X164365635Y-61273308D01*
X164306739Y-61053504D01*
X164210568Y-60847266D01*
X164080047Y-60660861D01*
X164080045Y-60660858D01*
X163919141Y-60499954D01*
X163760377Y-60388787D01*
X163716752Y-60334210D01*
X163707500Y-60287212D01*
X163707500Y-59018194D01*
X163683386Y-58896970D01*
X163683385Y-58896969D01*
X163683385Y-58896965D01*
X163670765Y-58866497D01*
X163636086Y-58782773D01*
X163636079Y-58782760D01*
X163567411Y-58679992D01*
X163533866Y-58646447D01*
X163480008Y-58592589D01*
X161953819Y-57066400D01*
X161920334Y-57005077D01*
X161917500Y-56978719D01*
X161917500Y-56500001D01*
X163694532Y-56500001D01*
X163714364Y-56726686D01*
X163714366Y-56726697D01*
X163773258Y-56946488D01*
X163773261Y-56946497D01*
X163869431Y-57152732D01*
X163869432Y-57152734D01*
X163999954Y-57339141D01*
X164160858Y-57500045D01*
X164160861Y-57500047D01*
X164347266Y-57630568D01*
X164553504Y-57726739D01*
X164773308Y-57785635D01*
X164935230Y-57799801D01*
X164999998Y-57805468D01*
X165000000Y-57805468D01*
X165000002Y-57805468D01*
X165056673Y-57800509D01*
X165226692Y-57785635D01*
X165446496Y-57726739D01*
X165652734Y-57630568D01*
X165839139Y-57500047D01*
X166000047Y-57339139D01*
X166130568Y-57152734D01*
X166226739Y-56946496D01*
X166285635Y-56726692D01*
X166305468Y-56500000D01*
X166285635Y-56273308D01*
X166226739Y-56053504D01*
X166130568Y-55847266D01*
X166003811Y-55666236D01*
X166000045Y-55660858D01*
X165839141Y-55499954D01*
X165652734Y-55369432D01*
X165652732Y-55369431D01*
X165446497Y-55273261D01*
X165446488Y-55273258D01*
X165226697Y-55214366D01*
X165226693Y-55214365D01*
X165226692Y-55214365D01*
X165226691Y-55214364D01*
X165226686Y-55214364D01*
X165000002Y-55194532D01*
X164999998Y-55194532D01*
X164773313Y-55214364D01*
X164773302Y-55214366D01*
X164553511Y-55273258D01*
X164553502Y-55273261D01*
X164347267Y-55369431D01*
X164347265Y-55369432D01*
X164160858Y-55499954D01*
X163999954Y-55660858D01*
X163869432Y-55847265D01*
X163869431Y-55847267D01*
X163773261Y-56053502D01*
X163773258Y-56053511D01*
X163714366Y-56273302D01*
X163714364Y-56273313D01*
X163694532Y-56499998D01*
X163694532Y-56500001D01*
X161917500Y-56500001D01*
X161917500Y-55000002D01*
X172695034Y-55000002D01*
X172714858Y-55226599D01*
X172714860Y-55226610D01*
X172773730Y-55446317D01*
X172773735Y-55446331D01*
X172869863Y-55652478D01*
X172920974Y-55725472D01*
X173600000Y-55046446D01*
X173600000Y-55052661D01*
X173627259Y-55154394D01*
X173679920Y-55245606D01*
X173754394Y-55320080D01*
X173845606Y-55372741D01*
X173947339Y-55400000D01*
X173953553Y-55400000D01*
X173274526Y-56079025D01*
X173347513Y-56130132D01*
X173347521Y-56130136D01*
X173553668Y-56226264D01*
X173553682Y-56226269D01*
X173773389Y-56285139D01*
X173773400Y-56285141D01*
X173999998Y-56304966D01*
X174000002Y-56304966D01*
X174226599Y-56285141D01*
X174226610Y-56285139D01*
X174446317Y-56226269D01*
X174446331Y-56226264D01*
X174652478Y-56130136D01*
X174725471Y-56079024D01*
X174046447Y-55400000D01*
X174052661Y-55400000D01*
X174154394Y-55372741D01*
X174245606Y-55320080D01*
X174320080Y-55245606D01*
X174372741Y-55154394D01*
X174400000Y-55052661D01*
X174400000Y-55046447D01*
X175079024Y-55725471D01*
X175130136Y-55652478D01*
X175226264Y-55446331D01*
X175226269Y-55446317D01*
X175285139Y-55226610D01*
X175285141Y-55226599D01*
X175304966Y-55000002D01*
X175695034Y-55000002D01*
X175714858Y-55226599D01*
X175714860Y-55226610D01*
X175773730Y-55446317D01*
X175773735Y-55446331D01*
X175869863Y-55652478D01*
X175920974Y-55725472D01*
X176600000Y-55046446D01*
X176600000Y-55052661D01*
X176627259Y-55154394D01*
X176679920Y-55245606D01*
X176754394Y-55320080D01*
X176845606Y-55372741D01*
X176947339Y-55400000D01*
X176953553Y-55400000D01*
X176274526Y-56079025D01*
X176347513Y-56130132D01*
X176347521Y-56130136D01*
X176553668Y-56226264D01*
X176553682Y-56226269D01*
X176773389Y-56285139D01*
X176773400Y-56285141D01*
X176999998Y-56304966D01*
X177000002Y-56304966D01*
X177226599Y-56285141D01*
X177226610Y-56285139D01*
X177446317Y-56226269D01*
X177446331Y-56226264D01*
X177652478Y-56130136D01*
X177725471Y-56079024D01*
X177046447Y-55400000D01*
X177052661Y-55400000D01*
X177154394Y-55372741D01*
X177245606Y-55320080D01*
X177320080Y-55245606D01*
X177372741Y-55154394D01*
X177400000Y-55052661D01*
X177400000Y-55046447D01*
X178079024Y-55725471D01*
X178130136Y-55652478D01*
X178226264Y-55446331D01*
X178226269Y-55446317D01*
X178285139Y-55226610D01*
X178285141Y-55226599D01*
X178304966Y-55000002D01*
X178304966Y-54999997D01*
X178285141Y-54773400D01*
X178285139Y-54773389D01*
X178226269Y-54553682D01*
X178226264Y-54553668D01*
X178130136Y-54347521D01*
X178130132Y-54347513D01*
X178079025Y-54274526D01*
X177400000Y-54953551D01*
X177400000Y-54947339D01*
X177372741Y-54845606D01*
X177320080Y-54754394D01*
X177245606Y-54679920D01*
X177154394Y-54627259D01*
X177052661Y-54600000D01*
X177046448Y-54600000D01*
X177725472Y-53920974D01*
X177652478Y-53869863D01*
X177446331Y-53773735D01*
X177446317Y-53773730D01*
X177226610Y-53714860D01*
X177226599Y-53714858D01*
X177000002Y-53695034D01*
X176999998Y-53695034D01*
X176773400Y-53714858D01*
X176773389Y-53714860D01*
X176553682Y-53773730D01*
X176553673Y-53773734D01*
X176347516Y-53869866D01*
X176347512Y-53869868D01*
X176274526Y-53920973D01*
X176274526Y-53920974D01*
X176953553Y-54600000D01*
X176947339Y-54600000D01*
X176845606Y-54627259D01*
X176754394Y-54679920D01*
X176679920Y-54754394D01*
X176627259Y-54845606D01*
X176600000Y-54947339D01*
X176600000Y-54953552D01*
X175920974Y-54274526D01*
X175920973Y-54274526D01*
X175869868Y-54347512D01*
X175869866Y-54347516D01*
X175773734Y-54553673D01*
X175773730Y-54553682D01*
X175714860Y-54773389D01*
X175714858Y-54773400D01*
X175695034Y-54999997D01*
X175695034Y-55000002D01*
X175304966Y-55000002D01*
X175304966Y-54999997D01*
X175285141Y-54773400D01*
X175285139Y-54773389D01*
X175226269Y-54553682D01*
X175226264Y-54553668D01*
X175130136Y-54347521D01*
X175130132Y-54347513D01*
X175079025Y-54274526D01*
X174400000Y-54953551D01*
X174400000Y-54947339D01*
X174372741Y-54845606D01*
X174320080Y-54754394D01*
X174245606Y-54679920D01*
X174154394Y-54627259D01*
X174052661Y-54600000D01*
X174046448Y-54600000D01*
X174725472Y-53920974D01*
X174652478Y-53869863D01*
X174446331Y-53773735D01*
X174446317Y-53773730D01*
X174226610Y-53714860D01*
X174226599Y-53714858D01*
X174000002Y-53695034D01*
X173999998Y-53695034D01*
X173773400Y-53714858D01*
X173773389Y-53714860D01*
X173553682Y-53773730D01*
X173553673Y-53773734D01*
X173347516Y-53869866D01*
X173347512Y-53869868D01*
X173274526Y-53920973D01*
X173274526Y-53920974D01*
X173953553Y-54600000D01*
X173947339Y-54600000D01*
X173845606Y-54627259D01*
X173754394Y-54679920D01*
X173679920Y-54754394D01*
X173627259Y-54845606D01*
X173600000Y-54947339D01*
X173600000Y-54953552D01*
X172920974Y-54274526D01*
X172920973Y-54274526D01*
X172869868Y-54347512D01*
X172869866Y-54347516D01*
X172773734Y-54553673D01*
X172773730Y-54553682D01*
X172714860Y-54773389D01*
X172714858Y-54773400D01*
X172695034Y-54999997D01*
X172695034Y-55000002D01*
X161917500Y-55000002D01*
X161917500Y-49604281D01*
X161937185Y-49537242D01*
X161989989Y-49491487D01*
X162059147Y-49481543D01*
X162122703Y-49510568D01*
X162129181Y-49516600D01*
X163663181Y-51050600D01*
X163696666Y-51111923D01*
X163699500Y-51138281D01*
X163699500Y-52347870D01*
X163699501Y-52347876D01*
X163705908Y-52407483D01*
X163756202Y-52542328D01*
X163756206Y-52542335D01*
X163842452Y-52657544D01*
X163842455Y-52657547D01*
X163957664Y-52743793D01*
X163957671Y-52743797D01*
X164092517Y-52794091D01*
X164092516Y-52794091D01*
X164099444Y-52794835D01*
X164152127Y-52800500D01*
X165847872Y-52800499D01*
X165907483Y-52794091D01*
X166042331Y-52743796D01*
X166157546Y-52657546D01*
X166243796Y-52542331D01*
X166294091Y-52407483D01*
X166300500Y-52347873D01*
X166300499Y-50652128D01*
X166294091Y-50592517D01*
X166285182Y-50568632D01*
X166243797Y-50457671D01*
X166243793Y-50457664D01*
X166157547Y-50342455D01*
X166157544Y-50342452D01*
X166042335Y-50256206D01*
X166042328Y-50256202D01*
X165907482Y-50205908D01*
X165907483Y-50205908D01*
X165847883Y-50199501D01*
X165847881Y-50199500D01*
X165847873Y-50199500D01*
X165847865Y-50199500D01*
X164638281Y-50199500D01*
X164571242Y-50179815D01*
X164550600Y-50163181D01*
X163751600Y-49364181D01*
X163718115Y-49302858D01*
X163723099Y-49233166D01*
X163764971Y-49177233D01*
X163830435Y-49152816D01*
X163839281Y-49152500D01*
X163946048Y-49152500D01*
X163946049Y-49152500D01*
X164174981Y-49114298D01*
X164394503Y-49038936D01*
X164598626Y-48928470D01*
X164622583Y-48909824D01*
X164713455Y-48839095D01*
X164781784Y-48785913D01*
X164938979Y-48615153D01*
X164938980Y-48615150D01*
X164938983Y-48615148D01*
X164942131Y-48611104D01*
X164943836Y-48612431D01*
X164989990Y-48573002D01*
X165059216Y-48563543D01*
X165122567Y-48593012D01*
X165141027Y-48613267D01*
X165225483Y-48729510D01*
X165392490Y-48896517D01*
X165583567Y-49035343D01*
X165682991Y-49086002D01*
X165794003Y-49142566D01*
X165794005Y-49142566D01*
X165794008Y-49142568D01*
X165900696Y-49177233D01*
X166018631Y-49215553D01*
X166251903Y-49252500D01*
X166251908Y-49252500D01*
X166488097Y-49252500D01*
X166721368Y-49215553D01*
X166754253Y-49204868D01*
X166945992Y-49142568D01*
X167156433Y-49035343D01*
X167347510Y-48896517D01*
X167514517Y-48729510D01*
X167598971Y-48613268D01*
X167654301Y-48570603D01*
X167723914Y-48564624D01*
X167785709Y-48597230D01*
X167797420Y-48611441D01*
X167797863Y-48611097D01*
X167801011Y-48615141D01*
X167801018Y-48615149D01*
X167801021Y-48615153D01*
X167958216Y-48785913D01*
X167958219Y-48785915D01*
X167958222Y-48785918D01*
X168141365Y-48928464D01*
X168141371Y-48928468D01*
X168141374Y-48928470D01*
X168282499Y-49004843D01*
X168343534Y-49037874D01*
X168345497Y-49038936D01*
X168458867Y-49077856D01*
X168565015Y-49114297D01*
X168565017Y-49114297D01*
X168565019Y-49114298D01*
X168793951Y-49152500D01*
X168793952Y-49152500D01*
X169026048Y-49152500D01*
X169026049Y-49152500D01*
X169254981Y-49114298D01*
X169474503Y-49038936D01*
X169678626Y-48928470D01*
X169702583Y-48909824D01*
X169793455Y-48839095D01*
X169861784Y-48785913D01*
X170018979Y-48615153D01*
X170076191Y-48527582D01*
X170129337Y-48482226D01*
X170198568Y-48472802D01*
X170261904Y-48502304D01*
X170283809Y-48527583D01*
X170341016Y-48615147D01*
X170341019Y-48615151D01*
X170341021Y-48615153D01*
X170498216Y-48785913D01*
X170498219Y-48785915D01*
X170498222Y-48785918D01*
X170681365Y-48928464D01*
X170681371Y-48928468D01*
X170681374Y-48928470D01*
X170822499Y-49004843D01*
X170883534Y-49037874D01*
X170885497Y-49038936D01*
X170998867Y-49077856D01*
X171105015Y-49114297D01*
X171105017Y-49114297D01*
X171105019Y-49114298D01*
X171333951Y-49152500D01*
X171333952Y-49152500D01*
X171566048Y-49152500D01*
X171566049Y-49152500D01*
X171794981Y-49114298D01*
X172014503Y-49038936D01*
X172218626Y-48928470D01*
X172242583Y-48909824D01*
X172333455Y-48839095D01*
X172401784Y-48785913D01*
X172558979Y-48615153D01*
X172558980Y-48615150D01*
X172558983Y-48615148D01*
X172562131Y-48611104D01*
X172563836Y-48612431D01*
X172609990Y-48573002D01*
X172679216Y-48563543D01*
X172742567Y-48593012D01*
X172761027Y-48613267D01*
X172845483Y-48729510D01*
X173012490Y-48896517D01*
X173040877Y-48917141D01*
X173083542Y-48972472D01*
X173089521Y-49042085D01*
X173056915Y-49103880D01*
X173055673Y-49105140D01*
X172999951Y-49160862D01*
X172869432Y-49347265D01*
X172869431Y-49347267D01*
X172773261Y-49553502D01*
X172773258Y-49553511D01*
X172714366Y-49773302D01*
X172714364Y-49773313D01*
X172694532Y-49999998D01*
X172694532Y-50000001D01*
X172714364Y-50226686D01*
X172714366Y-50226697D01*
X172773258Y-50446488D01*
X172773261Y-50446497D01*
X172869431Y-50652732D01*
X172869432Y-50652734D01*
X172999954Y-50839141D01*
X173160858Y-51000045D01*
X173160861Y-51000047D01*
X173347266Y-51130568D01*
X173553504Y-51226739D01*
X173773308Y-51285635D01*
X173935230Y-51299801D01*
X173999998Y-51305468D01*
X174000000Y-51305468D01*
X174000002Y-51305468D01*
X174056673Y-51300509D01*
X174226692Y-51285635D01*
X174446496Y-51226739D01*
X174652734Y-51130568D01*
X174839139Y-51000047D01*
X175000047Y-50839139D01*
X175130568Y-50652734D01*
X175226739Y-50446496D01*
X175285635Y-50226692D01*
X175305468Y-50000000D01*
X175285635Y-49773308D01*
X175226739Y-49553504D01*
X175130568Y-49347266D01*
X175000047Y-49160861D01*
X175000045Y-49160858D01*
X174935911Y-49096724D01*
X174902426Y-49035401D01*
X174907410Y-48965709D01*
X174949282Y-48909776D01*
X174950639Y-48908774D01*
X174967510Y-48896517D01*
X175134517Y-48729510D01*
X175218971Y-48613268D01*
X175274301Y-48570603D01*
X175343914Y-48564624D01*
X175405709Y-48597230D01*
X175417420Y-48611441D01*
X175417863Y-48611097D01*
X175421011Y-48615141D01*
X175421018Y-48615149D01*
X175421021Y-48615153D01*
X175578216Y-48785913D01*
X175578219Y-48785915D01*
X175578222Y-48785918D01*
X175761365Y-48928464D01*
X175761372Y-48928468D01*
X175761374Y-48928470D01*
X175910531Y-49009190D01*
X175930041Y-49019748D01*
X175979632Y-49068967D01*
X175994740Y-49137184D01*
X175972599Y-49199926D01*
X175869432Y-49347265D01*
X175869431Y-49347267D01*
X175773261Y-49553502D01*
X175773258Y-49553511D01*
X175714366Y-49773302D01*
X175714364Y-49773313D01*
X175694532Y-49999998D01*
X175694532Y-50000001D01*
X175714364Y-50226686D01*
X175714366Y-50226697D01*
X175773258Y-50446488D01*
X175773261Y-50446497D01*
X175869431Y-50652732D01*
X175869432Y-50652734D01*
X175999954Y-50839141D01*
X176160858Y-51000045D01*
X176160861Y-51000047D01*
X176347266Y-51130568D01*
X176553504Y-51226739D01*
X176773308Y-51285635D01*
X176935230Y-51299801D01*
X176999998Y-51305468D01*
X177000000Y-51305468D01*
X177000002Y-51305468D01*
X177056673Y-51300509D01*
X177226692Y-51285635D01*
X177446496Y-51226739D01*
X177652734Y-51130568D01*
X177839139Y-51000047D01*
X178000047Y-50839139D01*
X178130568Y-50652734D01*
X178226739Y-50446496D01*
X178285635Y-50226692D01*
X178305468Y-50000000D01*
X178285635Y-49773308D01*
X178226739Y-49553504D01*
X178130568Y-49347266D01*
X178000047Y-49160861D01*
X178000045Y-49160858D01*
X177839141Y-48999954D01*
X177652731Y-48869430D01*
X177652730Y-48869429D01*
X177632970Y-48860215D01*
X177580532Y-48814042D01*
X177561381Y-48746848D01*
X177581598Y-48679967D01*
X177594134Y-48663867D01*
X177638979Y-48615153D01*
X177765924Y-48420849D01*
X177859157Y-48208300D01*
X177916134Y-47983305D01*
X177925542Y-47869773D01*
X177935300Y-47752001D01*
X177935300Y-47751993D01*
X177916135Y-47520702D01*
X177916133Y-47520691D01*
X177859157Y-47295699D01*
X177765924Y-47083151D01*
X177638983Y-46888852D01*
X177638980Y-46888849D01*
X177638979Y-46888847D01*
X177481784Y-46718087D01*
X177481779Y-46718083D01*
X177481777Y-46718081D01*
X177298634Y-46575535D01*
X177298628Y-46575531D01*
X177094504Y-46465064D01*
X177094495Y-46465061D01*
X176874984Y-46389702D01*
X176681765Y-46357460D01*
X176646049Y-46351500D01*
X176413951Y-46351500D01*
X176391934Y-46355174D01*
X176185015Y-46389702D01*
X175965504Y-46465061D01*
X175965495Y-46465064D01*
X175761372Y-46575531D01*
X175690662Y-46630567D01*
X175625668Y-46656209D01*
X175557128Y-46642642D01*
X175506803Y-46594174D01*
X175490500Y-46532713D01*
X175490500Y-46361110D01*
X175453553Y-46127839D01*
X175403206Y-45972889D01*
X175380568Y-45903216D01*
X175380566Y-45903213D01*
X175380566Y-45903211D01*
X175351755Y-45846667D01*
X175273343Y-45692775D01*
X175273342Y-45692774D01*
X175134518Y-45501698D01*
X174140302Y-44507483D01*
X173949226Y-44368657D01*
X173738788Y-44261433D01*
X173514161Y-44188447D01*
X173370031Y-44165618D01*
X173306897Y-44135688D01*
X173269966Y-44076376D01*
X173270964Y-44006514D01*
X173309574Y-43948281D01*
X173330407Y-43934093D01*
X173488626Y-43848470D01*
X173489170Y-43848047D01*
X173587503Y-43771511D01*
X173671784Y-43705913D01*
X173828979Y-43535153D01*
X173828980Y-43535150D01*
X173828983Y-43535148D01*
X173832131Y-43531104D01*
X173833836Y-43532431D01*
X173879990Y-43493002D01*
X173949216Y-43483543D01*
X174012567Y-43513012D01*
X174031027Y-43533267D01*
X174115483Y-43649510D01*
X174282490Y-43816517D01*
X174473567Y-43955343D01*
X174558721Y-43998731D01*
X174684003Y-44062566D01*
X174684005Y-44062566D01*
X174684008Y-44062568D01*
X174769223Y-44090256D01*
X174908631Y-44135553D01*
X175141903Y-44172500D01*
X175141908Y-44172500D01*
X175378097Y-44172500D01*
X175611368Y-44135553D01*
X175622872Y-44131815D01*
X175835992Y-44062568D01*
X176046433Y-43955343D01*
X176237510Y-43816517D01*
X176404517Y-43649510D01*
X176543343Y-43458433D01*
X176650568Y-43247992D01*
X176723553Y-43023368D01*
X176730579Y-42979007D01*
X176760500Y-42790097D01*
X176760500Y-41281110D01*
X176723553Y-41047839D01*
X176675679Y-40900500D01*
X176650568Y-40823216D01*
X176650566Y-40823213D01*
X176650566Y-40823211D01*
X176573972Y-40672888D01*
X176573971Y-40672887D01*
X176548434Y-40622767D01*
X176543343Y-40612774D01*
X176404517Y-40421698D01*
X174838302Y-38855483D01*
X174647226Y-38716657D01*
X174436788Y-38609433D01*
X174212160Y-38536446D01*
X173978889Y-38499500D01*
X173978884Y-38499500D01*
X154118092Y-38499500D01*
X153881908Y-38499500D01*
X153881903Y-38499500D01*
X153648631Y-38536446D01*
X153424003Y-38609433D01*
X153213566Y-38716657D01*
X153104550Y-38795862D01*
X153022490Y-38855483D01*
X153022488Y-38855485D01*
X153022487Y-38855485D01*
X150355484Y-41522488D01*
X150216657Y-41713565D01*
X150129019Y-41885566D01*
X150109433Y-41924003D01*
X150036446Y-42148631D01*
X149999500Y-42381902D01*
X149999500Y-43327109D01*
X149979815Y-43394148D01*
X149963182Y-43414789D01*
X149855486Y-43522486D01*
X149855484Y-43522488D01*
X149716657Y-43713565D01*
X149621410Y-43900500D01*
X149621409Y-43900501D01*
X149609434Y-43924001D01*
X149536446Y-44148631D01*
X149499500Y-44381902D01*
X149499500Y-47247110D01*
X149479815Y-47314149D01*
X149463181Y-47334791D01*
X148625337Y-48172634D01*
X148564014Y-48206119D01*
X148494322Y-48201135D01*
X148445507Y-48167926D01*
X148434853Y-48156094D01*
X148434846Y-48156088D01*
X148281716Y-48044833D01*
X148281711Y-48044830D01*
X148108789Y-47967839D01*
X148108784Y-47967837D01*
X147962983Y-47936847D01*
X147923628Y-47928482D01*
X147923627Y-47928482D01*
X147867263Y-47928482D01*
X147800224Y-47908797D01*
X147779582Y-47892163D01*
X147163819Y-47276400D01*
X147130334Y-47215077D01*
X147127500Y-47188719D01*
X147127500Y-46424499D01*
X147147185Y-46357460D01*
X147199989Y-46311705D01*
X147251500Y-46300499D01*
X147300002Y-46300499D01*
X147300008Y-46300499D01*
X147402797Y-46289999D01*
X147569334Y-46234814D01*
X147718656Y-46142712D01*
X147842712Y-46018656D01*
X147934814Y-45869334D01*
X147989999Y-45702797D01*
X148000500Y-45600009D01*
X148000500Y-44000500D01*
X148000500Y-43881908D01*
X148000500Y-43874313D01*
X148000499Y-43874295D01*
X148000499Y-42399998D01*
X148000498Y-42399981D01*
X147989999Y-42297203D01*
X147989998Y-42297200D01*
X147981615Y-42271901D01*
X147934814Y-42130666D01*
X147842712Y-41981344D01*
X147718656Y-41857288D01*
X147569334Y-41765186D01*
X147402797Y-41710001D01*
X147402795Y-41710000D01*
X147300016Y-41699500D01*
X147300009Y-41699500D01*
X146372889Y-41699500D01*
X146305850Y-41679815D01*
X146285208Y-41663181D01*
X146149511Y-41527484D01*
X146142637Y-41522490D01*
X145958434Y-41388657D01*
X145951376Y-41385061D01*
X145747996Y-41281433D01*
X145523368Y-41208446D01*
X145290097Y-41171500D01*
X145290092Y-41171500D01*
X142118092Y-41171500D01*
X137041908Y-41171500D01*
X137041903Y-41171500D01*
X136808631Y-41208446D01*
X136584003Y-41281433D01*
X136373566Y-41388657D01*
X136264550Y-41467862D01*
X136182490Y-41527483D01*
X136182488Y-41527485D01*
X136182487Y-41527485D01*
X136015485Y-41694487D01*
X136015485Y-41694488D01*
X136015483Y-41694490D01*
X135932398Y-41808847D01*
X135931028Y-41810732D01*
X135875698Y-41853397D01*
X135806084Y-41859376D01*
X135744289Y-41826770D01*
X135732583Y-41812555D01*
X135732137Y-41812903D01*
X135728988Y-41808858D01*
X135728981Y-41808851D01*
X135728979Y-41808847D01*
X135571784Y-41638087D01*
X135571779Y-41638083D01*
X135571777Y-41638081D01*
X135388634Y-41495535D01*
X135388628Y-41495531D01*
X135184504Y-41385064D01*
X135184495Y-41385061D01*
X134964984Y-41309702D01*
X134793282Y-41281050D01*
X134736049Y-41271500D01*
X134503951Y-41271500D01*
X134458164Y-41279140D01*
X134275015Y-41309702D01*
X134055504Y-41385061D01*
X134055495Y-41385064D01*
X133851371Y-41495531D01*
X133851365Y-41495535D01*
X133668222Y-41638081D01*
X133668219Y-41638084D01*
X133668216Y-41638086D01*
X133668216Y-41638087D01*
X133629803Y-41679815D01*
X133511016Y-41808852D01*
X133453809Y-41896416D01*
X133400662Y-41941773D01*
X133331431Y-41951197D01*
X133268095Y-41921695D01*
X133246191Y-41896416D01*
X133188983Y-41808852D01*
X133188980Y-41808849D01*
X133188979Y-41808847D01*
X133031784Y-41638087D01*
X133031779Y-41638083D01*
X133031777Y-41638081D01*
X132848634Y-41495535D01*
X132848623Y-41495528D01*
X132772481Y-41454321D01*
X132722891Y-41405101D01*
X132707500Y-41345267D01*
X132707500Y-41231281D01*
X132727185Y-41164242D01*
X132743819Y-41143600D01*
X132950600Y-40936819D01*
X133011923Y-40903334D01*
X133038281Y-40900500D01*
X133094644Y-40900500D01*
X133094646Y-40900500D01*
X133279803Y-40861144D01*
X133452730Y-40784151D01*
X133605871Y-40672888D01*
X133732533Y-40532216D01*
X133827179Y-40368284D01*
X133885674Y-40188256D01*
X133905460Y-40000000D01*
X133885674Y-39811744D01*
X133827179Y-39631716D01*
X133732533Y-39467784D01*
X133605871Y-39327112D01*
X133605870Y-39327111D01*
X133452734Y-39215851D01*
X133452729Y-39215848D01*
X133279807Y-39138857D01*
X133279802Y-39138855D01*
X133134001Y-39107865D01*
X133094646Y-39099500D01*
X132905354Y-39099500D01*
X132872897Y-39106398D01*
X132720197Y-39138855D01*
X132720192Y-39138857D01*
X132547270Y-39215848D01*
X132547265Y-39215851D01*
X132394129Y-39327111D01*
X132267466Y-39467785D01*
X132172821Y-39631715D01*
X132172818Y-39631722D01*
X132114327Y-39811740D01*
X132114326Y-39811744D01*
X132098203Y-39965143D01*
X132097011Y-39976489D01*
X132070426Y-40041103D01*
X132061371Y-40051208D01*
X131924324Y-40188256D01*
X131679992Y-40432589D01*
X131636289Y-40476292D01*
X131592586Y-40519994D01*
X131592585Y-40519996D01*
X131523233Y-40623789D01*
X131521586Y-40628393D01*
X131476614Y-40736964D01*
X131476614Y-40736965D01*
X131459458Y-40823216D01*
X131459458Y-40823217D01*
X131452500Y-40858195D01*
X131452500Y-41345267D01*
X131432815Y-41412306D01*
X131387519Y-41454321D01*
X131311376Y-41495528D01*
X131311365Y-41495535D01*
X131128222Y-41638081D01*
X131128219Y-41638084D01*
X131128216Y-41638086D01*
X131128216Y-41638087D01*
X131089803Y-41679815D01*
X130971016Y-41808852D01*
X130913809Y-41896416D01*
X130860662Y-41941773D01*
X130791431Y-41951197D01*
X130728095Y-41921695D01*
X130706191Y-41896416D01*
X130648983Y-41808852D01*
X130648980Y-41808849D01*
X130648979Y-41808847D01*
X130491784Y-41638087D01*
X130491779Y-41638083D01*
X130491777Y-41638081D01*
X130308634Y-41495535D01*
X130308628Y-41495531D01*
X130104504Y-41385064D01*
X130104495Y-41385061D01*
X129884984Y-41309702D01*
X129713282Y-41281050D01*
X129656049Y-41271500D01*
X129423951Y-41271500D01*
X129378164Y-41279140D01*
X129195015Y-41309702D01*
X128975504Y-41385061D01*
X128975495Y-41385064D01*
X128771371Y-41495531D01*
X128771365Y-41495535D01*
X128588222Y-41638081D01*
X128588219Y-41638084D01*
X128588216Y-41638086D01*
X128588216Y-41638087D01*
X128549803Y-41679815D01*
X128431016Y-41808852D01*
X128373809Y-41896416D01*
X128320662Y-41941773D01*
X128251431Y-41951197D01*
X128188095Y-41921695D01*
X128166191Y-41896416D01*
X128108983Y-41808852D01*
X128108980Y-41808849D01*
X128108979Y-41808847D01*
X127951784Y-41638087D01*
X127951779Y-41638083D01*
X127951777Y-41638081D01*
X127768634Y-41495535D01*
X127768628Y-41495531D01*
X127564504Y-41385064D01*
X127564495Y-41385061D01*
X127344984Y-41309702D01*
X127173282Y-41281050D01*
X127116049Y-41271500D01*
X126883951Y-41271500D01*
X126838164Y-41279140D01*
X126655015Y-41309702D01*
X126435504Y-41385061D01*
X126435495Y-41385064D01*
X126231371Y-41495531D01*
X126231365Y-41495535D01*
X126048222Y-41638081D01*
X126048219Y-41638084D01*
X126048216Y-41638086D01*
X126048216Y-41638087D01*
X125983413Y-41708483D01*
X125891015Y-41808854D01*
X125833509Y-41896874D01*
X125780363Y-41942230D01*
X125711132Y-41951654D01*
X125647796Y-41922152D01*
X125625892Y-41896873D01*
X125568585Y-41809157D01*
X125411441Y-41638454D01*
X125411437Y-41638451D01*
X125228355Y-41495952D01*
X125228351Y-41495949D01*
X125024302Y-41385523D01*
X125024293Y-41385520D01*
X124804861Y-41310188D01*
X124710000Y-41294359D01*
X124710000Y-42238988D01*
X124652993Y-42206075D01*
X124525826Y-42172000D01*
X124394174Y-42172000D01*
X124267007Y-42206075D01*
X124210000Y-42238988D01*
X124210000Y-41294359D01*
X124209999Y-41294359D01*
X124115138Y-41310188D01*
X123895706Y-41385520D01*
X123895697Y-41385523D01*
X123691648Y-41495949D01*
X123691644Y-41495952D01*
X123508562Y-41638451D01*
X123508558Y-41638454D01*
X123351413Y-41809159D01*
X123294106Y-41896874D01*
X123240960Y-41942231D01*
X123171728Y-41951654D01*
X123108393Y-41922152D01*
X123086489Y-41896873D01*
X123086190Y-41896416D01*
X123040689Y-41826770D01*
X123028983Y-41808852D01*
X123028980Y-41808849D01*
X123028979Y-41808847D01*
X122871784Y-41638087D01*
X122871779Y-41638083D01*
X122871777Y-41638081D01*
X122688634Y-41495535D01*
X122688628Y-41495531D01*
X122484504Y-41385064D01*
X122484495Y-41385061D01*
X122264984Y-41309702D01*
X122093282Y-41281050D01*
X122036049Y-41271500D01*
X121803951Y-41271500D01*
X121758164Y-41279140D01*
X121575015Y-41309702D01*
X121355504Y-41385061D01*
X121355495Y-41385064D01*
X121151371Y-41495531D01*
X121151365Y-41495535D01*
X120968222Y-41638081D01*
X120968219Y-41638084D01*
X120968216Y-41638086D01*
X120968216Y-41638087D01*
X120929803Y-41679815D01*
X120811016Y-41808852D01*
X120684075Y-42003151D01*
X120590842Y-42215699D01*
X120533866Y-42440691D01*
X120533864Y-42440702D01*
X120514700Y-42671993D01*
X120514700Y-42672006D01*
X120533864Y-42903297D01*
X120533866Y-42903308D01*
X120590842Y-43128300D01*
X120684075Y-43340848D01*
X120811016Y-43535147D01*
X120811019Y-43535151D01*
X120811021Y-43535153D01*
X120968216Y-43705913D01*
X120968219Y-43705915D01*
X120968222Y-43705918D01*
X121151365Y-43848464D01*
X121151371Y-43848468D01*
X121151374Y-43848470D01*
X121199128Y-43874313D01*
X121354652Y-43958479D01*
X121355497Y-43958936D01*
X121469487Y-43998068D01*
X121575015Y-44034297D01*
X121575017Y-44034297D01*
X121575019Y-44034298D01*
X121803951Y-44072500D01*
X121803952Y-44072500D01*
X122036048Y-44072500D01*
X122036049Y-44072500D01*
X122264981Y-44034298D01*
X122484503Y-43958936D01*
X122688626Y-43848470D01*
X122689170Y-43848047D01*
X122787503Y-43771511D01*
X122871784Y-43705913D01*
X123028979Y-43535153D01*
X123086490Y-43447124D01*
X123139635Y-43401769D01*
X123208866Y-43392345D01*
X123272202Y-43421846D01*
X123294107Y-43447126D01*
X123351414Y-43534842D01*
X123508558Y-43705545D01*
X123508562Y-43705548D01*
X123691644Y-43848047D01*
X123691648Y-43848050D01*
X123895697Y-43958476D01*
X123895706Y-43958479D01*
X124115139Y-44033811D01*
X124209999Y-44049640D01*
X124210000Y-44049639D01*
X124210000Y-43105012D01*
X124267007Y-43137925D01*
X124394174Y-43172000D01*
X124525826Y-43172000D01*
X124652993Y-43137925D01*
X124710000Y-43105012D01*
X124710000Y-44023217D01*
X124690315Y-44090256D01*
X124673681Y-44110898D01*
X124199373Y-44585208D01*
X124102992Y-44681589D01*
X124059289Y-44725292D01*
X124015586Y-44768994D01*
X124015585Y-44768996D01*
X123946233Y-44872789D01*
X123944586Y-44877393D01*
X123899615Y-44985962D01*
X123899614Y-44985964D01*
X123891500Y-45026761D01*
X123891499Y-45026762D01*
X123875500Y-45107192D01*
X123875500Y-46332929D01*
X123855815Y-46399968D01*
X123803011Y-46445723D01*
X123733853Y-46455667D01*
X123711237Y-46450210D01*
X123534984Y-46389702D01*
X123341765Y-46357460D01*
X123306049Y-46351500D01*
X123073951Y-46351500D01*
X123051934Y-46355174D01*
X122845015Y-46389702D01*
X122625504Y-46465061D01*
X122625495Y-46465064D01*
X122421371Y-46575531D01*
X122421365Y-46575535D01*
X122238222Y-46718081D01*
X122238215Y-46718087D01*
X122229484Y-46727572D01*
X122169595Y-46763561D01*
X122099757Y-46761458D01*
X122042143Y-46721932D01*
X122022075Y-46686918D01*
X121993355Y-46609915D01*
X121993350Y-46609906D01*
X121907190Y-46494812D01*
X121907187Y-46494809D01*
X121792093Y-46408649D01*
X121792086Y-46408645D01*
X121657379Y-46358403D01*
X121657372Y-46358401D01*
X121597844Y-46352000D01*
X120900000Y-46352000D01*
X120900000Y-47318988D01*
X120842993Y-47286075D01*
X120715826Y-47252000D01*
X120584174Y-47252000D01*
X120457007Y-47286075D01*
X120400000Y-47318988D01*
X120400000Y-46352000D01*
X119702155Y-46352000D01*
X119642627Y-46358401D01*
X119642620Y-46358403D01*
X119507913Y-46408645D01*
X119507906Y-46408649D01*
X119392812Y-46494809D01*
X119392809Y-46494812D01*
X119306649Y-46609906D01*
X119306645Y-46609913D01*
X119256403Y-46744620D01*
X119256401Y-46744627D01*
X119250000Y-46804155D01*
X119250000Y-47502000D01*
X120216988Y-47502000D01*
X120184075Y-47559007D01*
X120150000Y-47686174D01*
X120150000Y-47817826D01*
X120184075Y-47944993D01*
X120216988Y-48002000D01*
X119250000Y-48002000D01*
X119250000Y-48699844D01*
X118000000Y-48699844D01*
X118000000Y-38124000D01*
X118019685Y-38056961D01*
X118072489Y-38011206D01*
X118124000Y-38000000D01*
X178876000Y-38000000D01*
X178943039Y-38019685D01*
G37*
%TD.AperFunction*%
%TD*%
M02*
