%TF.GenerationSoftware,KiCad,Pcbnew,7.0.1*%
%TF.CreationDate,2024-02-27T21:29:27+01:00*%
%TF.ProjectId,PresenceDetection,50726573-656e-4636-9544-657465637469,rev?*%
%TF.SameCoordinates,Original*%
%TF.FileFunction,Legend,Bot*%
%TF.FilePolarity,Positive*%
%FSLAX46Y46*%
G04 Gerber Fmt 4.6, Leading zero omitted, Abs format (unit mm)*
G04 Created by KiCad (PCBNEW 7.0.1) date 2024-02-27 21:29:27*
%MOMM*%
%LPD*%
G01*
G04 APERTURE LIST*
%ADD10C,0.150000*%
%ADD11C,0.120000*%
G04 APERTURE END LIST*
D10*
%TO.C,J3*%
X159283333Y-128227619D02*
X159283333Y-128941904D01*
X159283333Y-128941904D02*
X159330952Y-129084761D01*
X159330952Y-129084761D02*
X159426190Y-129180000D01*
X159426190Y-129180000D02*
X159569047Y-129227619D01*
X159569047Y-129227619D02*
X159664285Y-129227619D01*
X158902380Y-128227619D02*
X158283333Y-128227619D01*
X158283333Y-128227619D02*
X158616666Y-128608571D01*
X158616666Y-128608571D02*
X158473809Y-128608571D01*
X158473809Y-128608571D02*
X158378571Y-128656190D01*
X158378571Y-128656190D02*
X158330952Y-128703809D01*
X158330952Y-128703809D02*
X158283333Y-128799047D01*
X158283333Y-128799047D02*
X158283333Y-129037142D01*
X158283333Y-129037142D02*
X158330952Y-129132380D01*
X158330952Y-129132380D02*
X158378571Y-129180000D01*
X158378571Y-129180000D02*
X158473809Y-129227619D01*
X158473809Y-129227619D02*
X158759523Y-129227619D01*
X158759523Y-129227619D02*
X158854761Y-129180000D01*
X158854761Y-129180000D02*
X158902380Y-129132380D01*
D11*
X162040000Y-129830000D02*
X160715000Y-129830000D01*
X160715000Y-129765000D02*
X160715000Y-129830000D01*
X160715000Y-129765000D02*
X157185000Y-129765000D01*
X160715000Y-133630000D02*
X160715000Y-133695000D01*
X160715000Y-133695000D02*
X157185000Y-133695000D01*
X157185000Y-129765000D02*
X157185000Y-129830000D01*
X157185000Y-133630000D02*
X157185000Y-133695000D01*
%TD*%
M02*
