%TF.GenerationSoftware,KiCad,Pcbnew,7.0.1*%
%TF.CreationDate,2024-02-27T21:29:27+01:00*%
%TF.ProjectId,PresenceDetection,50726573-656e-4636-9544-657465637469,rev?*%
%TF.SameCoordinates,Original*%
%TF.FileFunction,Paste,Top*%
%TF.FilePolarity,Positive*%
%FSLAX46Y46*%
G04 Gerber Fmt 4.6, Leading zero omitted, Abs format (unit mm)*
G04 Created by KiCad (PCBNEW 7.0.1) date 2024-02-27 21:29:27*
%MOMM*%
%LPD*%
G01*
G04 APERTURE LIST*
G04 Aperture macros list*
%AMRoundRect*
0 Rectangle with rounded corners*
0 $1 Rounding radius*
0 $2 $3 $4 $5 $6 $7 $8 $9 X,Y pos of 4 corners*
0 Add a 4 corners polygon primitive as box body*
4,1,4,$2,$3,$4,$5,$6,$7,$8,$9,$2,$3,0*
0 Add four circle primitives for the rounded corners*
1,1,$1+$1,$2,$3*
1,1,$1+$1,$4,$5*
1,1,$1+$1,$6,$7*
1,1,$1+$1,$8,$9*
0 Add four rect primitives between the rounded corners*
20,1,$1+$1,$2,$3,$4,$5,0*
20,1,$1+$1,$4,$5,$6,$7,0*
20,1,$1+$1,$6,$7,$8,$9,0*
20,1,$1+$1,$8,$9,$2,$3,0*%
G04 Aperture macros list end*
%ADD10RoundRect,0.250000X-0.325000X-0.650000X0.325000X-0.650000X0.325000X0.650000X-0.325000X0.650000X0*%
%ADD11R,1.550000X4.500000*%
%ADD12RoundRect,0.200000X-0.275000X0.200000X-0.275000X-0.200000X0.275000X-0.200000X0.275000X0.200000X0*%
%ADD13RoundRect,0.250000X-0.250000X-0.475000X0.250000X-0.475000X0.250000X0.475000X-0.250000X0.475000X0*%
%ADD14RoundRect,0.225000X-0.250000X0.225000X-0.250000X-0.225000X0.250000X-0.225000X0.250000X0.225000X0*%
%ADD15R,0.300000X0.850000*%
%ADD16RoundRect,0.200000X-0.200000X-0.275000X0.200000X-0.275000X0.200000X0.275000X-0.200000X0.275000X0*%
%ADD17RoundRect,0.225000X-0.225000X-0.250000X0.225000X-0.250000X0.225000X0.250000X-0.225000X0.250000X0*%
%ADD18RoundRect,0.250000X0.262500X0.450000X-0.262500X0.450000X-0.262500X-0.450000X0.262500X-0.450000X0*%
%ADD19RoundRect,0.250000X-0.650000X0.325000X-0.650000X-0.325000X0.650000X-0.325000X0.650000X0.325000X0*%
%ADD20RoundRect,0.250000X0.325000X0.650000X-0.325000X0.650000X-0.325000X-0.650000X0.325000X-0.650000X0*%
%ADD21RoundRect,0.200000X0.200000X0.275000X-0.200000X0.275000X-0.200000X-0.275000X0.200000X-0.275000X0*%
%ADD22R,0.900000X1.500000*%
%ADD23R,1.500000X0.900000*%
%ADD24R,0.900000X0.900000*%
G04 APERTURE END LIST*
D10*
%TO.C,C5*%
X132000000Y-121000000D03*
X134950000Y-121000000D03*
%TD*%
D11*
%TO.C,L1*%
X128650000Y-111450000D03*
X132500000Y-111450000D03*
%TD*%
D12*
%TO.C,R4*%
X135100000Y-117500000D03*
X135100000Y-119150000D03*
%TD*%
D10*
%TO.C,C2*%
X155050000Y-100000000D03*
X158000000Y-100000000D03*
%TD*%
D13*
%TO.C,C1*%
X143100000Y-124000000D03*
X145000000Y-124000000D03*
%TD*%
D14*
%TO.C,R8*%
X135100000Y-111550000D03*
X135100000Y-113100000D03*
%TD*%
D15*
%TO.C,IC1*%
X132200000Y-117650000D03*
X132700000Y-117650000D03*
X133200000Y-117650000D03*
X133700000Y-117650000D03*
X133700000Y-115750000D03*
X133200000Y-115750000D03*
X132700000Y-115750000D03*
X132200000Y-115750000D03*
%TD*%
D16*
%TO.C,R3*%
X151850000Y-101100000D03*
X153500000Y-101100000D03*
%TD*%
D17*
%TO.C,R6*%
X131850000Y-119100000D03*
X133400000Y-119100000D03*
%TD*%
D18*
%TO.C,R10*%
X145000000Y-126000000D03*
X143175000Y-126000000D03*
%TD*%
D16*
%TO.C,R1*%
X145850000Y-101100000D03*
X147500000Y-101100000D03*
%TD*%
D19*
%TO.C,C6*%
X128700000Y-117450000D03*
X128700000Y-120400000D03*
%TD*%
D20*
%TO.C,C7*%
X133500000Y-106800000D03*
X130550000Y-106800000D03*
%TD*%
D21*
%TO.C,R2*%
X144500000Y-101100000D03*
X142850000Y-101100000D03*
%TD*%
D14*
%TO.C,R7*%
X130700000Y-115900000D03*
X130700000Y-117450000D03*
%TD*%
D16*
%TO.C,R5*%
X138150000Y-122300000D03*
X139800000Y-122300000D03*
%TD*%
D22*
%TO.C,U2*%
X154680000Y-102900000D03*
X153410000Y-102900000D03*
X152140000Y-102900000D03*
X150870000Y-102900000D03*
X149600000Y-102900000D03*
X148330000Y-102900000D03*
X147060000Y-102900000D03*
X145790000Y-102900000D03*
X144520000Y-102900000D03*
X143250000Y-102900000D03*
X141980000Y-102900000D03*
X140710000Y-102900000D03*
X139440000Y-102900000D03*
X138170000Y-102900000D03*
D23*
X136920000Y-105930000D03*
X136920000Y-107200000D03*
X136920000Y-108470000D03*
X136920000Y-109740000D03*
X136920000Y-111010000D03*
X136920000Y-112280000D03*
X136920000Y-113550000D03*
X136920000Y-114820000D03*
X136920000Y-116090000D03*
X136920000Y-117360000D03*
D22*
X138170000Y-120400000D03*
X139440000Y-120400000D03*
X140710000Y-120400000D03*
X141980000Y-120400000D03*
X143250000Y-120400000D03*
X144520000Y-120400000D03*
X145790000Y-120400000D03*
X147060000Y-120400000D03*
X148330000Y-120400000D03*
X149600000Y-120400000D03*
X150870000Y-120400000D03*
X152140000Y-120400000D03*
X153410000Y-120400000D03*
X154680000Y-120400000D03*
D24*
X148360000Y-108750000D03*
X146960000Y-108750000D03*
X145560000Y-108750000D03*
X148360000Y-110150000D03*
X146960000Y-110150000D03*
X145560000Y-110150000D03*
X148360000Y-111550000D03*
X146960000Y-111550000D03*
X145560000Y-111550000D03*
%TD*%
D14*
%TO.C,R9*%
X135100000Y-114550000D03*
X135100000Y-116100000D03*
%TD*%
M02*
