%TF.GenerationSoftware,KiCad,Pcbnew,7.0.1*%
%TF.CreationDate,2024-02-27T21:29:27+01:00*%
%TF.ProjectId,PresenceDetection,50726573-656e-4636-9544-657465637469,rev?*%
%TF.SameCoordinates,Original*%
%TF.FileFunction,Copper,L1,Top*%
%TF.FilePolarity,Positive*%
%FSLAX46Y46*%
G04 Gerber Fmt 4.6, Leading zero omitted, Abs format (unit mm)*
G04 Created by KiCad (PCBNEW 7.0.1) date 2024-02-27 21:29:27*
%MOMM*%
%LPD*%
G01*
G04 APERTURE LIST*
G04 Aperture macros list*
%AMRoundRect*
0 Rectangle with rounded corners*
0 $1 Rounding radius*
0 $2 $3 $4 $5 $6 $7 $8 $9 X,Y pos of 4 corners*
0 Add a 4 corners polygon primitive as box body*
4,1,4,$2,$3,$4,$5,$6,$7,$8,$9,$2,$3,0*
0 Add four circle primitives for the rounded corners*
1,1,$1+$1,$2,$3*
1,1,$1+$1,$4,$5*
1,1,$1+$1,$6,$7*
1,1,$1+$1,$8,$9*
0 Add four rect primitives between the rounded corners*
20,1,$1+$1,$2,$3,$4,$5,0*
20,1,$1+$1,$4,$5,$6,$7,0*
20,1,$1+$1,$6,$7,$8,$9,0*
20,1,$1+$1,$8,$9,$2,$3,0*%
G04 Aperture macros list end*
%TA.AperFunction,ComponentPad*%
%ADD10R,2.000000X1.905000*%
%TD*%
%TA.AperFunction,ComponentPad*%
%ADD11O,2.000000X1.905000*%
%TD*%
%TA.AperFunction,SMDPad,CuDef*%
%ADD12RoundRect,0.250000X-0.325000X-0.650000X0.325000X-0.650000X0.325000X0.650000X-0.325000X0.650000X0*%
%TD*%
%TA.AperFunction,SMDPad,CuDef*%
%ADD13R,1.550000X4.500000*%
%TD*%
%TA.AperFunction,SMDPad,CuDef*%
%ADD14RoundRect,0.200000X-0.275000X0.200000X-0.275000X-0.200000X0.275000X-0.200000X0.275000X0.200000X0*%
%TD*%
%TA.AperFunction,ComponentPad*%
%ADD15C,1.560000*%
%TD*%
%TA.AperFunction,SMDPad,CuDef*%
%ADD16RoundRect,0.250000X-0.250000X-0.475000X0.250000X-0.475000X0.250000X0.475000X-0.250000X0.475000X0*%
%TD*%
%TA.AperFunction,SMDPad,CuDef*%
%ADD17RoundRect,0.225000X-0.250000X0.225000X-0.250000X-0.225000X0.250000X-0.225000X0.250000X0.225000X0*%
%TD*%
%TA.AperFunction,SMDPad,CuDef*%
%ADD18R,0.300000X0.850000*%
%TD*%
%TA.AperFunction,SMDPad,CuDef*%
%ADD19RoundRect,0.200000X-0.200000X-0.275000X0.200000X-0.275000X0.200000X0.275000X-0.200000X0.275000X0*%
%TD*%
%TA.AperFunction,ComponentPad*%
%ADD20RoundRect,0.250000X-0.750000X-1.550000X0.750000X-1.550000X0.750000X1.550000X-0.750000X1.550000X0*%
%TD*%
%TA.AperFunction,ComponentPad*%
%ADD21O,2.000000X3.600000*%
%TD*%
%TA.AperFunction,SMDPad,CuDef*%
%ADD22RoundRect,0.225000X-0.225000X-0.250000X0.225000X-0.250000X0.225000X0.250000X-0.225000X0.250000X0*%
%TD*%
%TA.AperFunction,SMDPad,CuDef*%
%ADD23RoundRect,0.250000X0.262500X0.450000X-0.262500X0.450000X-0.262500X-0.450000X0.262500X-0.450000X0*%
%TD*%
%TA.AperFunction,SMDPad,CuDef*%
%ADD24RoundRect,0.250000X-0.650000X0.325000X-0.650000X-0.325000X0.650000X-0.325000X0.650000X0.325000X0*%
%TD*%
%TA.AperFunction,SMDPad,CuDef*%
%ADD25RoundRect,0.250000X0.325000X0.650000X-0.325000X0.650000X-0.325000X-0.650000X0.325000X-0.650000X0*%
%TD*%
%TA.AperFunction,SMDPad,CuDef*%
%ADD26RoundRect,0.200000X0.200000X0.275000X-0.200000X0.275000X-0.200000X-0.275000X0.200000X-0.275000X0*%
%TD*%
%TA.AperFunction,ComponentPad*%
%ADD27R,1.200000X1.200000*%
%TD*%
%TA.AperFunction,ComponentPad*%
%ADD28C,1.200000*%
%TD*%
%TA.AperFunction,SMDPad,CuDef*%
%ADD29R,0.900000X1.500000*%
%TD*%
%TA.AperFunction,SMDPad,CuDef*%
%ADD30R,1.500000X0.900000*%
%TD*%
%TA.AperFunction,SMDPad,CuDef*%
%ADD31R,0.900000X0.900000*%
%TD*%
%TA.AperFunction,ViaPad*%
%ADD32C,0.800000*%
%TD*%
%TA.AperFunction,Conductor*%
%ADD33C,0.127000*%
%TD*%
%TA.AperFunction,Conductor*%
%ADD34C,0.250000*%
%TD*%
%TA.AperFunction,Conductor*%
%ADD35C,1.000000*%
%TD*%
%TA.AperFunction,Conductor*%
%ADD36C,0.500000*%
%TD*%
%TA.AperFunction,Conductor*%
%ADD37C,0.254000*%
%TD*%
G04 APERTURE END LIST*
D10*
%TO.P,Q1,1,G*%
%TO.N,/ESP32/GPIO5*%
X152955000Y-129360000D03*
D11*
%TO.P,Q1,2,D*%
%TO.N,Net-(J1-Pin_4)*%
X152955000Y-131900000D03*
%TO.P,Q1,3,S*%
%TO.N,GND*%
X152955000Y-134440000D03*
%TD*%
D12*
%TO.P,C5,1*%
%TO.N,/Power/Vin*%
X132000000Y-121000000D03*
%TO.P,C5,2*%
%TO.N,GND*%
X134950000Y-121000000D03*
%TD*%
D13*
%TO.P,L1,1,1*%
%TO.N,Net-(IC1-LX)*%
X128650000Y-111450000D03*
%TO.P,L1,2,2*%
%TO.N,+3.3V*%
X132500000Y-111450000D03*
%TD*%
D14*
%TO.P,R4,1*%
%TO.N,/ESP32/GPIO2*%
X135100000Y-117500000D03*
%TO.P,R4,2*%
%TO.N,+3.3V*%
X135100000Y-119150000D03*
%TD*%
D12*
%TO.P,C2,1*%
%TO.N,+3.3V*%
X155050000Y-100000000D03*
%TO.P,C2,2*%
%TO.N,GND*%
X158000000Y-100000000D03*
%TD*%
D15*
%TO.P,F1,1*%
%TO.N,Net-(J1-Pin_1)*%
X131900000Y-125100000D03*
%TO.P,F1,2*%
%TO.N,/Power/Vin*%
X137000000Y-127000000D03*
%TD*%
D16*
%TO.P,C1,1*%
%TO.N,Net-(C1-Pad1)*%
X143100000Y-124000000D03*
%TO.P,C1,2*%
%TO.N,GND*%
X145000000Y-124000000D03*
%TD*%
D17*
%TO.P,R8,1*%
%TO.N,+3.3V*%
X135100000Y-111550000D03*
%TO.P,R8,2*%
%TO.N,Net-(IC1-FB{slash}VOUT)*%
X135100000Y-113100000D03*
%TD*%
D18*
%TO.P,IC1,1,VIN*%
%TO.N,/Power/Vin*%
X132200000Y-117650000D03*
%TO.P,IC1,2,EN/UVLO*%
%TO.N,Net-(IC1-EN{slash}UVLO)*%
X132700000Y-117650000D03*
%TO.P,IC1,3,VCC*%
%TO.N,VAA*%
X133200000Y-117650000D03*
%TO.P,IC1,4,FB/VOUT*%
%TO.N,Net-(IC1-FB{slash}VOUT)*%
X133700000Y-117650000D03*
%TO.P,IC1,5,MODE*%
%TO.N,GND*%
X133700000Y-115750000D03*
%TO.P,IC1,6,~{RESET}*%
%TO.N,Net-(IC1-~{RESET})*%
X133200000Y-115750000D03*
%TO.P,IC1,7,GND*%
%TO.N,GND*%
X132700000Y-115750000D03*
%TO.P,IC1,8,LX*%
%TO.N,Net-(IC1-LX)*%
X132200000Y-115750000D03*
%TD*%
D19*
%TO.P,R3,1*%
%TO.N,EN*%
X151850000Y-101100000D03*
%TO.P,R3,2*%
%TO.N,+3.3V*%
X153500000Y-101100000D03*
%TD*%
D20*
%TO.P,J1,1,Pin_1*%
%TO.N,Net-(J1-Pin_1)*%
X131850000Y-134000000D03*
D21*
%TO.P,J1,2,Pin_2*%
%TO.N,GND*%
X136850000Y-134000000D03*
%TO.P,J1,3,Pin_3*%
%TO.N,/Power/Vin*%
X141850000Y-134000000D03*
%TO.P,J1,4,Pin_4*%
%TO.N,Net-(J1-Pin_4)*%
X146850000Y-134000000D03*
%TD*%
D22*
%TO.P,R6,1*%
%TO.N,/Power/Vin*%
X131850000Y-119100000D03*
%TO.P,R6,2*%
%TO.N,Net-(IC1-EN{slash}UVLO)*%
X133400000Y-119100000D03*
%TD*%
D23*
%TO.P,R10,1*%
%TO.N,Net-(J1-Pin_4)*%
X145000000Y-126000000D03*
%TO.P,R10,2*%
%TO.N,Net-(C1-Pad1)*%
X143175000Y-126000000D03*
%TD*%
D19*
%TO.P,R1,1*%
%TO.N,/ESP32/SCL*%
X145850000Y-101100000D03*
%TO.P,R1,2*%
%TO.N,+3.3V*%
X147500000Y-101100000D03*
%TD*%
D24*
%TO.P,C6,1*%
%TO.N,VAA*%
X128700000Y-117450000D03*
%TO.P,C6,2*%
%TO.N,GND*%
X128700000Y-120400000D03*
%TD*%
D25*
%TO.P,C7,1*%
%TO.N,+3.3V*%
X133500000Y-106800000D03*
%TO.P,C7,2*%
%TO.N,GND*%
X130550000Y-106800000D03*
%TD*%
D26*
%TO.P,R2,1*%
%TO.N,/ESP32/SDA*%
X144500000Y-101100000D03*
%TO.P,R2,2*%
%TO.N,+3.3V*%
X142850000Y-101100000D03*
%TD*%
D27*
%TO.P,J2,1,Pin_1*%
%TO.N,UTX*%
X144860000Y-98700000D03*
D28*
%TO.P,J2,2,Pin_2*%
%TO.N,URX*%
X142860000Y-98700000D03*
%TO.P,J2,3,Pin_3*%
%TO.N,GND*%
X140860000Y-98700000D03*
%TO.P,J2,4,Pin_4*%
%TO.N,+3.3V*%
X138860000Y-98700000D03*
D27*
%TO.P,J2,A*%
%TO.N,N/C*%
X153800000Y-85000000D03*
D28*
X155800000Y-85000000D03*
X157800000Y-85000000D03*
X159800000Y-85000000D03*
%TD*%
D17*
%TO.P,R7,1*%
%TO.N,Net-(IC1-~{RESET})*%
X130700000Y-115900000D03*
%TO.P,R7,2*%
%TO.N,VAA*%
X130700000Y-117450000D03*
%TD*%
D19*
%TO.P,R5,1*%
%TO.N,D0*%
X138150000Y-122300000D03*
%TO.P,R5,2*%
%TO.N,+3.3V*%
X139800000Y-122300000D03*
%TD*%
D29*
%TO.P,U2,1,GND*%
%TO.N,GND*%
X154680000Y-102900000D03*
%TO.P,U2,2,3V3*%
%TO.N,+3.3V*%
X153410000Y-102900000D03*
%TO.P,U2,3,EN/CHIP_PU*%
%TO.N,EN*%
X152140000Y-102900000D03*
%TO.P,U2,4,SENSOR_VP/GPIO36/ADC1_CH0*%
%TO.N,/ESP32/A4*%
X150870000Y-102900000D03*
%TO.P,U2,5,SENSOR_VN/GPIO39/ADC1_CH3*%
%TO.N,/ESP32/A3*%
X149600000Y-102900000D03*
%TO.P,U2,6,GPIO34/ADC1_CH6*%
%TO.N,unconnected-(U2-GPIO34{slash}ADC1_CH6-Pad6)*%
X148330000Y-102900000D03*
%TO.P,U2,7,GPIO35/ADC1_CH7*%
%TO.N,unconnected-(U2-GPIO35{slash}ADC1_CH7-Pad7)*%
X147060000Y-102900000D03*
%TO.P,U2,8,32K_XP/GPIO32/ADC1_CH4*%
%TO.N,/ESP32/SCL*%
X145790000Y-102900000D03*
%TO.P,U2,9,32K_XN/GPIO33/ADC1_CH5*%
%TO.N,/ESP32/SDA*%
X144520000Y-102900000D03*
%TO.P,U2,10,DAC_1/ADC2_CH8/GPIO25*%
%TO.N,/ESP32/A1*%
X143250000Y-102900000D03*
%TO.P,U2,11,DAC_2/ADC2_CH9/GPIO26*%
%TO.N,/ESP32/A0*%
X141980000Y-102900000D03*
%TO.P,U2,12,ADC2_CH7/GPIO27*%
%TO.N,unconnected-(U2-ADC2_CH7{slash}GPIO27-Pad12)*%
X140710000Y-102900000D03*
%TO.P,U2,13,MTMS/GPIO14/ADC2_CH6*%
%TO.N,unconnected-(U2-MTMS{slash}GPIO14{slash}ADC2_CH6-Pad13)*%
X139440000Y-102900000D03*
%TO.P,U2,14,MTDI/GPIO12/ADC2_CH5*%
%TO.N,unconnected-(U2-MTDI{slash}GPIO12{slash}ADC2_CH5-Pad14)*%
X138170000Y-102900000D03*
D30*
%TO.P,U2,15,GND*%
%TO.N,GND*%
X136920000Y-105930000D03*
%TO.P,U2,16,MTCK/GPIO13/ADC2_CH4*%
%TO.N,unconnected-(U2-MTCK{slash}GPIO13{slash}ADC2_CH4-Pad16)*%
X136920000Y-107200000D03*
%TO.P,U2,17*%
%TO.N,N/C*%
X136920000Y-108470000D03*
%TO.P,U2,18*%
X136920000Y-109740000D03*
%TO.P,U2,19*%
X136920000Y-111010000D03*
%TO.P,U2,20*%
X136920000Y-112280000D03*
%TO.P,U2,21*%
X136920000Y-113550000D03*
%TO.P,U2,22*%
X136920000Y-114820000D03*
%TO.P,U2,23,MTDO/GPIO15/ADC2_CH3*%
%TO.N,/ESP32/GPIO15*%
X136920000Y-116090000D03*
%TO.P,U2,24,ADC2_CH2/GPIO2*%
%TO.N,/ESP32/GPIO2*%
X136920000Y-117360000D03*
D29*
%TO.P,U2,25,GPIO0/BOOT/ADC2_CH1*%
%TO.N,D0*%
X138170000Y-120400000D03*
%TO.P,U2,26,ADC2_CH0/GPIO4*%
%TO.N,/ESP32/GPIO4*%
X139440000Y-120400000D03*
%TO.P,U2,27,GPIO16*%
%TO.N,UTX*%
X140710000Y-120400000D03*
%TO.P,U2,28,GPIO17*%
%TO.N,URX*%
X141980000Y-120400000D03*
%TO.P,U2,29,GPIO5*%
%TO.N,/ESP32/GPIO5*%
X143250000Y-120400000D03*
%TO.P,U2,30,GPIO18*%
%TO.N,/ESP32/SCK*%
X144520000Y-120400000D03*
%TO.P,U2,31,GPIO19*%
%TO.N,/ESP32/MISO*%
X145790000Y-120400000D03*
%TO.P,U2,32*%
%TO.N,N/C*%
X147060000Y-120400000D03*
%TO.P,U2,33,GPIO21*%
%TO.N,unconnected-(U2-GPIO21-Pad33)*%
X148330000Y-120400000D03*
%TO.P,U2,34,U0RXD/GPIO3*%
%TO.N,RX*%
X149600000Y-120400000D03*
%TO.P,U2,35,U0TXD/GPIO1*%
%TO.N,TX*%
X150870000Y-120400000D03*
%TO.P,U2,36,GPIO22*%
%TO.N,unconnected-(U2-GPIO22-Pad36)*%
X152140000Y-120400000D03*
%TO.P,U2,37,GPIO23*%
%TO.N,/ESP32/MOSI*%
X153410000Y-120400000D03*
%TO.P,U2,38,GND*%
%TO.N,GND*%
X154680000Y-120400000D03*
D31*
%TO.P,U2,39,GND_THERMAL*%
X148360000Y-108750000D03*
X146960000Y-108750000D03*
X145560000Y-108750000D03*
X148360000Y-110150000D03*
X146960000Y-110150000D03*
X145560000Y-110150000D03*
X148360000Y-111550000D03*
X146960000Y-111550000D03*
X145560000Y-111550000D03*
%TD*%
D17*
%TO.P,R9,1*%
%TO.N,Net-(IC1-FB{slash}VOUT)*%
X135100000Y-114550000D03*
%TO.P,R9,2*%
%TO.N,GND*%
X135100000Y-116100000D03*
%TD*%
D32*
%TO.N,EN*%
X159000000Y-130400000D03*
%TO.N,TX*%
X159100000Y-131700000D03*
%TO.N,RX*%
X160600000Y-134200000D03*
%TO.N,GND*%
X137000000Y-131000000D03*
X130000000Y-104000000D03*
X138000000Y-131000000D03*
X139000000Y-107000000D03*
X132000000Y-104000000D03*
X135574807Y-115568261D03*
X131000000Y-104000000D03*
X133760042Y-114863733D03*
X139000000Y-106000000D03*
X135000000Y-131000000D03*
X136000000Y-131000000D03*
%TO.N,URX*%
X142100000Y-119000000D03*
%TO.N,UTX*%
X140700000Y-119000000D03*
%TO.N,+3.3V*%
X153600000Y-104600000D03*
X154500000Y-118300000D03*
%TO.N,D0*%
X138150000Y-121500000D03*
%TD*%
D33*
%TO.N,EN*%
X155500000Y-126900000D02*
X159000000Y-130400000D01*
X155500000Y-114600000D02*
X155500000Y-126900000D01*
D34*
%TO.N,TX*%
X156150000Y-133750000D02*
X158700000Y-133750000D01*
X158950000Y-131850000D02*
X159100000Y-131700000D01*
X155400000Y-133000000D02*
X156150000Y-133750000D01*
X155400000Y-128566104D02*
X155400000Y-133000000D01*
X158950000Y-133750000D02*
X158950000Y-131850000D01*
X150870000Y-124036104D02*
X155400000Y-128566104D01*
X150870000Y-120400000D02*
X150870000Y-124036104D01*
X158700000Y-133750000D02*
X158950000Y-133750000D01*
%TO.N,RX*%
X155800000Y-134200000D02*
X160600000Y-134200000D01*
X154900000Y-133300000D02*
X155800000Y-134200000D01*
X154900000Y-128702500D02*
X154900000Y-133300000D01*
X150032249Y-123834749D02*
X154900000Y-128702500D01*
X150032249Y-120832249D02*
X150032249Y-123834749D01*
X149600000Y-120400000D02*
X150032249Y-120832249D01*
D33*
%TO.N,/ESP32/GPIO5*%
X152955000Y-129255000D02*
X152955000Y-129360000D01*
X144173000Y-122200000D02*
X145900000Y-122200000D01*
X143250000Y-121277000D02*
X144173000Y-122200000D01*
X143250000Y-120400000D02*
X143250000Y-121277000D01*
X145900000Y-122200000D02*
X152955000Y-129255000D01*
D35*
%TO.N,Net-(J1-Pin_4)*%
X146850000Y-127050000D02*
X145800000Y-126000000D01*
X146850000Y-134000000D02*
X146850000Y-127050000D01*
X145800000Y-126000000D02*
X145000000Y-126000000D01*
%TO.N,/Power/Vin*%
X141850000Y-131850000D02*
X137000000Y-127000000D01*
D36*
X131850000Y-119100000D02*
X131850000Y-120850000D01*
X137000000Y-127000000D02*
X132000000Y-122000000D01*
D37*
X132200000Y-118750000D02*
X131850000Y-119100000D01*
D36*
X131850000Y-120850000D02*
X132000000Y-121000000D01*
D37*
X132200000Y-117650000D02*
X132200000Y-118750000D01*
D36*
X132000000Y-122000000D02*
X132000000Y-121000000D01*
D35*
X141850000Y-134000000D02*
X141850000Y-131850000D01*
D37*
%TO.N,GND*%
X135100000Y-116100000D02*
X135100000Y-116043068D01*
X133700000Y-115021000D02*
X133677000Y-114998000D01*
X133677000Y-114998000D02*
X132702000Y-114998000D01*
X135100000Y-116043068D02*
X135574807Y-115568261D01*
X132702000Y-114998000D02*
X132700000Y-115000000D01*
X133700000Y-115750000D02*
X133700000Y-114923775D01*
X133700000Y-115750000D02*
X133700000Y-115021000D01*
X132700000Y-115000000D02*
X132700000Y-115750000D01*
X133700000Y-114923775D02*
X133760042Y-114863733D01*
D33*
%TO.N,URX*%
X141980000Y-119120000D02*
X141980000Y-120400000D01*
X142100000Y-119000000D02*
X141980000Y-119120000D01*
%TO.N,UTX*%
X140700000Y-119000000D02*
X140710000Y-119010000D01*
X140710000Y-119010000D02*
X140710000Y-120400000D01*
D37*
%TO.N,+3.3V*%
X152698000Y-100298000D02*
X153500000Y-101100000D01*
X153500000Y-101100000D02*
X153500000Y-102810000D01*
X137423000Y-122793291D02*
X137829709Y-123200000D01*
X153600000Y-103090000D02*
X153410000Y-102900000D01*
X135000000Y-111450000D02*
X135100000Y-111550000D01*
D35*
X153000000Y-99000000D02*
X153000000Y-100600000D01*
X153600000Y-100000000D02*
X155050000Y-100000000D01*
X133500000Y-106800000D02*
X133500000Y-100600000D01*
D37*
X146698000Y-100298000D02*
X146200000Y-100298000D01*
X135100000Y-119150000D02*
X135977000Y-118273000D01*
X154473000Y-118273000D02*
X154500000Y-118300000D01*
X147500000Y-101100000D02*
X148302000Y-100298000D01*
D35*
X140160000Y-97400000D02*
X151400000Y-97400000D01*
D37*
X135100000Y-119150000D02*
X137423000Y-121473000D01*
X146200000Y-100298000D02*
X143652000Y-100298000D01*
X137829709Y-123200000D02*
X138900000Y-123200000D01*
X135977000Y-118273000D02*
X154473000Y-118273000D01*
D35*
X133500000Y-100600000D02*
X135400000Y-98700000D01*
X133500000Y-110450000D02*
X132500000Y-111450000D01*
D37*
X137423000Y-121473000D02*
X137423000Y-122793291D01*
D35*
X133500000Y-106800000D02*
X133500000Y-110450000D01*
X153000000Y-100600000D02*
X153500000Y-101100000D01*
X135400000Y-98700000D02*
X138860000Y-98700000D01*
D37*
X153500000Y-102810000D02*
X153410000Y-102900000D01*
X147500000Y-101100000D02*
X146698000Y-100298000D01*
X148302000Y-100298000D02*
X152698000Y-100298000D01*
X132500000Y-111450000D02*
X135000000Y-111450000D01*
D35*
X138860000Y-98700000D02*
X140160000Y-97400000D01*
X153000000Y-100600000D02*
X153600000Y-100000000D01*
D37*
X138900000Y-123200000D02*
X139800000Y-122300000D01*
X143652000Y-100298000D02*
X142850000Y-101100000D01*
X153600000Y-104600000D02*
X153600000Y-103090000D01*
D35*
X151400000Y-97400000D02*
X153000000Y-99000000D01*
%TO.N,Net-(C1-Pad1)*%
X143100000Y-124000000D02*
X143100000Y-125925000D01*
X143100000Y-125925000D02*
X143175000Y-126000000D01*
D37*
%TO.N,/ESP32/GPIO2*%
X135240000Y-117360000D02*
X135100000Y-117500000D01*
X136920000Y-117360000D02*
X135240000Y-117360000D01*
D35*
%TO.N,Net-(J1-Pin_1)*%
X131850000Y-134000000D02*
X131850000Y-125150000D01*
X131850000Y-125150000D02*
X131900000Y-125100000D01*
D37*
%TO.N,/ESP32/SDA*%
X144520000Y-101120000D02*
X144500000Y-101100000D01*
X144520000Y-102900000D02*
X144520000Y-101120000D01*
%TO.N,/ESP32/SCL*%
X145850000Y-102840000D02*
X145790000Y-102900000D01*
X145850000Y-101100000D02*
X145850000Y-102840000D01*
D33*
%TO.N,VAA*%
X131188500Y-116961500D02*
X130700000Y-117450000D01*
X133200000Y-117048000D02*
X133113500Y-116961500D01*
X133200000Y-117650000D02*
X133200000Y-117048000D01*
X133113500Y-116961500D02*
X131188500Y-116961500D01*
D37*
X128700000Y-117450000D02*
X130700000Y-117450000D01*
%TO.N,Net-(IC1-EN{slash}UVLO)*%
X132700000Y-118900000D02*
X132900000Y-119100000D01*
X132700000Y-117650000D02*
X132700000Y-118900000D01*
X132900000Y-119100000D02*
X133400000Y-119100000D01*
D33*
%TO.N,Net-(IC1-~{RESET})*%
X132834500Y-116634500D02*
X133200000Y-116269000D01*
X131434500Y-116634500D02*
X132834500Y-116634500D01*
X130700000Y-115900000D02*
X131434500Y-116634500D01*
X133200000Y-116269000D02*
X133200000Y-115750000D01*
D37*
%TO.N,Net-(IC1-FB{slash}VOUT)*%
X134298000Y-117052000D02*
X133700000Y-117650000D01*
X134298000Y-115352000D02*
X134298000Y-117052000D01*
X135100000Y-114550000D02*
X134298000Y-115352000D01*
X135100000Y-114550000D02*
X135100000Y-113100000D01*
%TO.N,EN*%
X151850000Y-101100000D02*
X151850000Y-102610000D01*
D33*
X155500000Y-114600000D02*
X152140000Y-111240000D01*
X152140000Y-111240000D02*
X152140000Y-102900000D01*
D37*
X151850000Y-102610000D02*
X152140000Y-102900000D01*
D34*
%TO.N,Net-(IC1-LX)*%
X131450000Y-115000000D02*
X130000000Y-115000000D01*
X130000000Y-115000000D02*
X128650000Y-113650000D01*
X128650000Y-113650000D02*
X128650000Y-111450000D01*
X132200000Y-115750000D02*
X131450000Y-115000000D01*
D37*
%TO.N,D0*%
X138150000Y-121500000D02*
X138150000Y-120420000D01*
X138150000Y-120420000D02*
X138170000Y-120400000D01*
X138150000Y-122300000D02*
X138150000Y-121500000D01*
%TD*%
%TA.AperFunction,Conductor*%
%TO.N,GND*%
G36*
X162937500Y-83017113D02*
G01*
X162982887Y-83062500D01*
X162999500Y-83124500D01*
X162999500Y-101876000D01*
X162982887Y-101938000D01*
X162937500Y-101983387D01*
X162875500Y-102000000D01*
X156000000Y-102000000D01*
X156000000Y-114003021D01*
X155986485Y-114059316D01*
X155948885Y-114103339D01*
X155895398Y-114125494D01*
X155837682Y-114120952D01*
X155788319Y-114090702D01*
X152740319Y-111042702D01*
X152713439Y-111002474D01*
X152704000Y-110955021D01*
X152704000Y-105273699D01*
X152718111Y-105216250D01*
X152757231Y-105171877D01*
X152812458Y-105150677D01*
X152871223Y-105157476D01*
X152920150Y-105190726D01*
X152994132Y-105272891D01*
X153147269Y-105384151D01*
X153320197Y-105461144D01*
X153505352Y-105500500D01*
X153505354Y-105500500D01*
X153694646Y-105500500D01*
X153694648Y-105500500D01*
X153858641Y-105465642D01*
X153879803Y-105461144D01*
X154052730Y-105384151D01*
X154205871Y-105272888D01*
X154332533Y-105132216D01*
X154427179Y-104968284D01*
X154485674Y-104788256D01*
X154505460Y-104600000D01*
X154485674Y-104411744D01*
X154431311Y-104244435D01*
X154428671Y-104177164D01*
X154430000Y-104174791D01*
X154430000Y-103150000D01*
X154930000Y-103150000D01*
X154930000Y-104150000D01*
X155177824Y-104150000D01*
X155237375Y-104143597D01*
X155372089Y-104093352D01*
X155487188Y-104007188D01*
X155573352Y-103892089D01*
X155623597Y-103757375D01*
X155630000Y-103697824D01*
X155630000Y-103150000D01*
X154930000Y-103150000D01*
X154430000Y-103150000D01*
X154430000Y-101650000D01*
X154930000Y-101650000D01*
X154930000Y-102650000D01*
X155630000Y-102650000D01*
X155630000Y-102102176D01*
X155623597Y-102042624D01*
X155573352Y-101907910D01*
X155487188Y-101792811D01*
X155372089Y-101706647D01*
X155237375Y-101656402D01*
X155177824Y-101650000D01*
X154930000Y-101650000D01*
X154430000Y-101650000D01*
X154430000Y-101647372D01*
X154407609Y-101613398D01*
X154398802Y-101564260D01*
X154410086Y-101515630D01*
X154410708Y-101514277D01*
X154435458Y-101460410D01*
X154465797Y-101419464D01*
X154510049Y-101394178D01*
X154560734Y-101388827D01*
X154572201Y-101389998D01*
X154572203Y-101389999D01*
X154674991Y-101400500D01*
X155425008Y-101400499D01*
X155527797Y-101389999D01*
X155694334Y-101334814D01*
X155843656Y-101242712D01*
X155967712Y-101118656D01*
X156059814Y-100969334D01*
X156114999Y-100802797D01*
X156125500Y-100700009D01*
X156125500Y-100250000D01*
X156925001Y-100250000D01*
X156925001Y-100699979D01*
X156935493Y-100802695D01*
X156990642Y-100969122D01*
X157082683Y-101118345D01*
X157206654Y-101242316D01*
X157355877Y-101334357D01*
X157522303Y-101389506D01*
X157625021Y-101400000D01*
X157750000Y-101400000D01*
X157750000Y-100250000D01*
X158250000Y-100250000D01*
X158250000Y-101399999D01*
X158374979Y-101399999D01*
X158477695Y-101389506D01*
X158644122Y-101334357D01*
X158793345Y-101242316D01*
X158917316Y-101118345D01*
X159009357Y-100969122D01*
X159064506Y-100802696D01*
X159075000Y-100699979D01*
X159075000Y-100250000D01*
X158250000Y-100250000D01*
X157750000Y-100250000D01*
X156925001Y-100250000D01*
X156125500Y-100250000D01*
X156125499Y-99750000D01*
X156925000Y-99750000D01*
X157750000Y-99750000D01*
X157750000Y-98600001D01*
X157625021Y-98600001D01*
X157522304Y-98610493D01*
X157355877Y-98665642D01*
X157206654Y-98757683D01*
X157082683Y-98881654D01*
X156990642Y-99030877D01*
X156935493Y-99197303D01*
X156925000Y-99300021D01*
X156925000Y-99750000D01*
X156125499Y-99750000D01*
X156125499Y-99299992D01*
X156114999Y-99197203D01*
X156059814Y-99030666D01*
X155967712Y-98881344D01*
X155967711Y-98881342D01*
X155843657Y-98757288D01*
X155694334Y-98665186D01*
X155527797Y-98610000D01*
X155429904Y-98600000D01*
X158250000Y-98600000D01*
X158250000Y-99750000D01*
X159074999Y-99750000D01*
X159074999Y-99300021D01*
X159064506Y-99197304D01*
X159009357Y-99030877D01*
X158917316Y-98881654D01*
X158793345Y-98757683D01*
X158644122Y-98665642D01*
X158477696Y-98610493D01*
X158374979Y-98600000D01*
X158250000Y-98600000D01*
X155429904Y-98600000D01*
X155425009Y-98599500D01*
X154674991Y-98599500D01*
X154572203Y-98610000D01*
X154405665Y-98665186D01*
X154256344Y-98757287D01*
X154184964Y-98828667D01*
X154130640Y-98860414D01*
X154067728Y-98861411D01*
X154012426Y-98831402D01*
X153978972Y-98778112D01*
X153975966Y-98768533D01*
X153972224Y-98753291D01*
X153966858Y-98723348D01*
X153944975Y-98668563D01*
X153941815Y-98659686D01*
X153924159Y-98603412D01*
X153909398Y-98576817D01*
X153902663Y-98562636D01*
X153891378Y-98534384D01*
X153891378Y-98534383D01*
X153858901Y-98485106D01*
X153854040Y-98477082D01*
X153825409Y-98425498D01*
X153825408Y-98425496D01*
X153805593Y-98402415D01*
X153796144Y-98389883D01*
X153779402Y-98364481D01*
X153737699Y-98322779D01*
X153731292Y-98315866D01*
X153692865Y-98271103D01*
X153668802Y-98252477D01*
X153657022Y-98242102D01*
X152117567Y-96702647D01*
X152115412Y-96700438D01*
X152055059Y-96636947D01*
X152006640Y-96603246D01*
X151999118Y-96597575D01*
X151953405Y-96560300D01*
X151926440Y-96546215D01*
X151913019Y-96538084D01*
X151888049Y-96520705D01*
X151888048Y-96520704D01*
X151888046Y-96520703D01*
X151833845Y-96497443D01*
X151825336Y-96493402D01*
X151773053Y-96466092D01*
X151767126Y-96464396D01*
X151743798Y-96457721D01*
X151729020Y-96452459D01*
X151701058Y-96440460D01*
X151643272Y-96428583D01*
X151634128Y-96426338D01*
X151577421Y-96410113D01*
X151547075Y-96407802D01*
X151531534Y-96405622D01*
X151501742Y-96399500D01*
X151501741Y-96399500D01*
X151442758Y-96399500D01*
X151433344Y-96399142D01*
X151408392Y-96397242D01*
X151374524Y-96394663D01*
X151374523Y-96394663D01*
X151344349Y-96398506D01*
X151328683Y-96399500D01*
X140174279Y-96399500D01*
X140171137Y-96399460D01*
X140083637Y-96397242D01*
X140025580Y-96407648D01*
X140016251Y-96408957D01*
X139957558Y-96414926D01*
X139928528Y-96424034D01*
X139913288Y-96427775D01*
X139883346Y-96433141D01*
X139828572Y-96455020D01*
X139819702Y-96458178D01*
X139763409Y-96475841D01*
X139736818Y-96490600D01*
X139722648Y-96497330D01*
X139694383Y-96508621D01*
X139645121Y-96541087D01*
X139637066Y-96545967D01*
X139585495Y-96574591D01*
X139562406Y-96594412D01*
X139549883Y-96603855D01*
X139524484Y-96620596D01*
X139482782Y-96662297D01*
X139475875Y-96668698D01*
X139431104Y-96707134D01*
X139412480Y-96731194D01*
X139402107Y-96742971D01*
X138495333Y-97649745D01*
X138452451Y-97677688D01*
X138417762Y-97691127D01*
X138372972Y-97699500D01*
X135414279Y-97699500D01*
X135411137Y-97699460D01*
X135323637Y-97697242D01*
X135265580Y-97707648D01*
X135256251Y-97708957D01*
X135197562Y-97714926D01*
X135168527Y-97724035D01*
X135153290Y-97727774D01*
X135123346Y-97733141D01*
X135068568Y-97755021D01*
X135059698Y-97758179D01*
X135003414Y-97775839D01*
X134976819Y-97790601D01*
X134962641Y-97797334D01*
X134934385Y-97808620D01*
X134885122Y-97841087D01*
X134877066Y-97845967D01*
X134825495Y-97874591D01*
X134802406Y-97894412D01*
X134789883Y-97903855D01*
X134764484Y-97920596D01*
X134722782Y-97962297D01*
X134715875Y-97968698D01*
X134671104Y-98007134D01*
X134652480Y-98031194D01*
X134642107Y-98042971D01*
X132802646Y-99882432D01*
X132800399Y-99884623D01*
X132736948Y-99944939D01*
X132703244Y-99993362D01*
X132697573Y-100000882D01*
X132660301Y-100046593D01*
X132646210Y-100073566D01*
X132638082Y-100086983D01*
X132620705Y-100111950D01*
X132597439Y-100166165D01*
X132593399Y-100174671D01*
X132566090Y-100226952D01*
X132557720Y-100256201D01*
X132552459Y-100270978D01*
X132540460Y-100298942D01*
X132528587Y-100356713D01*
X132526342Y-100365860D01*
X132510113Y-100422580D01*
X132507802Y-100452925D01*
X132505622Y-100468466D01*
X132499500Y-100498259D01*
X132499500Y-100557242D01*
X132499142Y-100566656D01*
X132494663Y-100625477D01*
X132498506Y-100655651D01*
X132499500Y-100671317D01*
X132499500Y-105782548D01*
X132493206Y-105821552D01*
X132435000Y-105997202D01*
X132424500Y-106099990D01*
X132424500Y-107500008D01*
X132435000Y-107602796D01*
X132493206Y-107778448D01*
X132499500Y-107817452D01*
X132499500Y-108575501D01*
X132482887Y-108637501D01*
X132437500Y-108682888D01*
X132375500Y-108699501D01*
X131677128Y-108699501D01*
X131647322Y-108702704D01*
X131617515Y-108705909D01*
X131482669Y-108756204D01*
X131367454Y-108842454D01*
X131281204Y-108957668D01*
X131230909Y-109092515D01*
X131230909Y-109092517D01*
X131224909Y-109148328D01*
X131224500Y-109152130D01*
X131224500Y-113747869D01*
X131230909Y-113807484D01*
X131237442Y-113824999D01*
X131281204Y-113942331D01*
X131367454Y-114057546D01*
X131482669Y-114143796D01*
X131482671Y-114143796D01*
X131492196Y-114150927D01*
X131529686Y-114196561D01*
X131541815Y-114254361D01*
X131525831Y-114311215D01*
X131485361Y-114354228D01*
X131429584Y-114373641D01*
X131426355Y-114373947D01*
X131414656Y-114374500D01*
X130310453Y-114374500D01*
X130263000Y-114365061D01*
X130222772Y-114338181D01*
X129913769Y-114029178D01*
X129887462Y-113990309D01*
X129877485Y-113944447D01*
X129885268Y-113898166D01*
X129919091Y-113807483D01*
X129925500Y-113747873D01*
X129925499Y-109152128D01*
X129919091Y-109092517D01*
X129868796Y-108957669D01*
X129782546Y-108842454D01*
X129667331Y-108756204D01*
X129532483Y-108705909D01*
X129472873Y-108699500D01*
X129472869Y-108699500D01*
X127827130Y-108699500D01*
X127767515Y-108705909D01*
X127632669Y-108756204D01*
X127517454Y-108842454D01*
X127431204Y-108957668D01*
X127380909Y-109092515D01*
X127380909Y-109092517D01*
X127374909Y-109148328D01*
X127374500Y-109152130D01*
X127374500Y-113747869D01*
X127380909Y-113807484D01*
X127387442Y-113824999D01*
X127431204Y-113942331D01*
X127517454Y-114057546D01*
X127632669Y-114143796D01*
X127767517Y-114194091D01*
X127827127Y-114200500D01*
X128264547Y-114200499D01*
X128312000Y-114209938D01*
X128352227Y-114236817D01*
X128930470Y-114815061D01*
X129499196Y-115383787D01*
X129512096Y-115399888D01*
X129563223Y-115447900D01*
X129566019Y-115450610D01*
X129585529Y-115470120D01*
X129588711Y-115472588D01*
X129597571Y-115480155D01*
X129629418Y-115510062D01*
X129646970Y-115519711D01*
X129663238Y-115530397D01*
X129676503Y-115540687D01*
X129711856Y-115584113D01*
X129724500Y-115638664D01*
X129724500Y-116173346D01*
X129735180Y-116277897D01*
X129726209Y-116338368D01*
X129689435Y-116387204D01*
X129633798Y-116412534D01*
X129572819Y-116408203D01*
X129502798Y-116385000D01*
X129400009Y-116374500D01*
X127999991Y-116374500D01*
X127897203Y-116385000D01*
X127730665Y-116440186D01*
X127581342Y-116532288D01*
X127457288Y-116656342D01*
X127365186Y-116805665D01*
X127310000Y-116972202D01*
X127299500Y-117074990D01*
X127299500Y-117825008D01*
X127310000Y-117927796D01*
X127365186Y-118094334D01*
X127457288Y-118243657D01*
X127581342Y-118367711D01*
X127634502Y-118400500D01*
X127730666Y-118459814D01*
X127842016Y-118496712D01*
X127897202Y-118514999D01*
X127907702Y-118516071D01*
X127999991Y-118525500D01*
X129400008Y-118525499D01*
X129502797Y-118514999D01*
X129669334Y-118459814D01*
X129818656Y-118367712D01*
X129891410Y-118294957D01*
X129937811Y-118265712D01*
X129992290Y-118259344D01*
X130044186Y-118277100D01*
X130141303Y-118337003D01*
X130302292Y-118390349D01*
X130401655Y-118400500D01*
X130837935Y-118400499D01*
X130894389Y-118414096D01*
X130938463Y-118451905D01*
X130960491Y-118505635D01*
X130955640Y-118563502D01*
X130909650Y-118702290D01*
X130899500Y-118801655D01*
X130899500Y-119398344D01*
X130909650Y-119497707D01*
X130962997Y-119658699D01*
X131051155Y-119801623D01*
X131069617Y-119866719D01*
X131051156Y-119931816D01*
X130990186Y-120030665D01*
X130935000Y-120197202D01*
X130924500Y-120299990D01*
X130924500Y-121700008D01*
X130935000Y-121802796D01*
X130990186Y-121969334D01*
X131082286Y-122118654D01*
X131082287Y-122118655D01*
X131082288Y-122118656D01*
X131206344Y-122242712D01*
X131277117Y-122286364D01*
X131308155Y-122313583D01*
X131316057Y-122327502D01*
X131316802Y-122327013D01*
X131365979Y-122401784D01*
X131367889Y-122404782D01*
X131407288Y-122468656D01*
X131407952Y-122469732D01*
X131420253Y-122484830D01*
X131421168Y-122485693D01*
X131421170Y-122485696D01*
X131475708Y-122537150D01*
X131478295Y-122539663D01*
X132817230Y-123878598D01*
X132848340Y-123930715D01*
X132850987Y-123991354D01*
X132824539Y-124045985D01*
X132775331Y-124081518D01*
X132715154Y-124089441D01*
X132658426Y-124067854D01*
X132542696Y-123986819D01*
X132339631Y-123892128D01*
X132123203Y-123834136D01*
X131900000Y-123814608D01*
X131676796Y-123834136D01*
X131460368Y-123892128D01*
X131257304Y-123986819D01*
X131073766Y-124115333D01*
X130915333Y-124273766D01*
X130786819Y-124457304D01*
X130692128Y-124660368D01*
X130634136Y-124876796D01*
X130614608Y-125100000D01*
X130634136Y-125323203D01*
X130692128Y-125539631D01*
X130786819Y-125742697D01*
X130827075Y-125800188D01*
X130843761Y-125834024D01*
X130849500Y-125871311D01*
X130849500Y-131653522D01*
X130833777Y-131713954D01*
X130790596Y-131759061D01*
X130631342Y-131857288D01*
X130507288Y-131981342D01*
X130415186Y-132130665D01*
X130360000Y-132297202D01*
X130349500Y-132399990D01*
X130349500Y-135600008D01*
X130360000Y-135702796D01*
X130415186Y-135869334D01*
X130507288Y-136018657D01*
X130631342Y-136142711D01*
X130631344Y-136142712D01*
X130780666Y-136234814D01*
X130855375Y-136259570D01*
X130947202Y-136289999D01*
X130957703Y-136291071D01*
X131049991Y-136300500D01*
X132650008Y-136300499D01*
X132752797Y-136289999D01*
X132919334Y-136234814D01*
X133068656Y-136142712D01*
X133192712Y-136018656D01*
X133284814Y-135869334D01*
X133339999Y-135702797D01*
X133350500Y-135600009D01*
X133350499Y-134250000D01*
X135350000Y-134250000D01*
X135350000Y-134862049D01*
X135365386Y-135047732D01*
X135426413Y-135288721D01*
X135526266Y-135516365D01*
X135662233Y-135724477D01*
X135830596Y-135907368D01*
X136026766Y-136060053D01*
X136245393Y-136178368D01*
X136480508Y-136259083D01*
X136599999Y-136279023D01*
X136600000Y-136279023D01*
X136600000Y-134250000D01*
X137100000Y-134250000D01*
X137100000Y-136279023D01*
X137219491Y-136259083D01*
X137454606Y-136178368D01*
X137673233Y-136060053D01*
X137869403Y-135907368D01*
X138037766Y-135724477D01*
X138173733Y-135516365D01*
X138273586Y-135288721D01*
X138334613Y-135047732D01*
X138350000Y-134862049D01*
X138350000Y-134250000D01*
X137100000Y-134250000D01*
X136600000Y-134250000D01*
X135350000Y-134250000D01*
X133350499Y-134250000D01*
X133350499Y-133750000D01*
X135350000Y-133750000D01*
X136600000Y-133750000D01*
X136600000Y-131720978D01*
X136599999Y-131720976D01*
X137100000Y-131720976D01*
X137100000Y-133750000D01*
X138350000Y-133750000D01*
X138350000Y-133137951D01*
X138334613Y-132952267D01*
X138273586Y-132711278D01*
X138173733Y-132483634D01*
X138037766Y-132275522D01*
X137869403Y-132092631D01*
X137673233Y-131939946D01*
X137454606Y-131821631D01*
X137219491Y-131740916D01*
X137100000Y-131720976D01*
X136599999Y-131720976D01*
X136480508Y-131740916D01*
X136245393Y-131821631D01*
X136026766Y-131939946D01*
X135830596Y-132092631D01*
X135662233Y-132275522D01*
X135526266Y-132483634D01*
X135426413Y-132711278D01*
X135365386Y-132952267D01*
X135350000Y-133137951D01*
X135350000Y-133750000D01*
X133350499Y-133750000D01*
X133350499Y-132399992D01*
X133339999Y-132297203D01*
X133284814Y-132130666D01*
X133192712Y-131981344D01*
X133192711Y-131981342D01*
X133068657Y-131857288D01*
X132909404Y-131759061D01*
X132866223Y-131713954D01*
X132850500Y-131653522D01*
X132850500Y-126011762D01*
X132859939Y-125964309D01*
X132879124Y-125935595D01*
X132878444Y-125935119D01*
X132884663Y-125926236D01*
X132884667Y-125926233D01*
X133013181Y-125742696D01*
X133107872Y-125539630D01*
X133165863Y-125323206D01*
X133185391Y-125100000D01*
X133165863Y-124876794D01*
X133107872Y-124660370D01*
X133013181Y-124457305D01*
X132932143Y-124341571D01*
X132910557Y-124284844D01*
X132918480Y-124224667D01*
X132954013Y-124175459D01*
X133008644Y-124149011D01*
X133069283Y-124151658D01*
X133121400Y-124182768D01*
X135691744Y-126753112D01*
X135720585Y-126798382D01*
X135727591Y-126851600D01*
X135714608Y-126999999D01*
X135734136Y-127223203D01*
X135792128Y-127439631D01*
X135827638Y-127515782D01*
X135886819Y-127642696D01*
X136015333Y-127826233D01*
X136173767Y-127984667D01*
X136357304Y-128113181D01*
X136560370Y-128207872D01*
X136776794Y-128265863D01*
X136813089Y-128269038D01*
X136854686Y-128280183D01*
X136889964Y-128304885D01*
X140672831Y-132087752D01*
X140704471Y-132141692D01*
X140705764Y-132204213D01*
X140676381Y-132259415D01*
X140661837Y-132275213D01*
X140525825Y-132483395D01*
X140473622Y-132602408D01*
X140425937Y-132711119D01*
X140381256Y-132887560D01*
X140364891Y-132952183D01*
X140349500Y-133137927D01*
X140349500Y-134862073D01*
X140364891Y-135047816D01*
X140364891Y-135047819D01*
X140364892Y-135047821D01*
X140425937Y-135288881D01*
X140470960Y-135391523D01*
X140525825Y-135516604D01*
X140525827Y-135516607D01*
X140661836Y-135724785D01*
X140830256Y-135907738D01*
X140830259Y-135907740D01*
X141026485Y-136060470D01*
X141026487Y-136060471D01*
X141026491Y-136060474D01*
X141245190Y-136178828D01*
X141480386Y-136259571D01*
X141725665Y-136300500D01*
X141974335Y-136300500D01*
X142219614Y-136259571D01*
X142454810Y-136178828D01*
X142673509Y-136060474D01*
X142869744Y-135907738D01*
X143038164Y-135724785D01*
X143174173Y-135516607D01*
X143274063Y-135288881D01*
X143335108Y-135047821D01*
X143342104Y-134963387D01*
X143350500Y-134862073D01*
X143350500Y-133137927D01*
X143335108Y-132952183D01*
X143335108Y-132952179D01*
X143274063Y-132711119D01*
X143174173Y-132483393D01*
X143038164Y-132275215D01*
X142883268Y-132106953D01*
X142858983Y-132068048D01*
X142850500Y-132022973D01*
X142850500Y-131864279D01*
X142850540Y-131861137D01*
X142852757Y-131773638D01*
X142842350Y-131715574D01*
X142841041Y-131706242D01*
X142840406Y-131700000D01*
X142835074Y-131647562D01*
X142825964Y-131618528D01*
X142822227Y-131603305D01*
X142816858Y-131573347D01*
X142794969Y-131518549D01*
X142791816Y-131509689D01*
X142774160Y-131453415D01*
X142774159Y-131453414D01*
X142774159Y-131453412D01*
X142759396Y-131426816D01*
X142752663Y-131412636D01*
X142741379Y-131384385D01*
X142741378Y-131384383D01*
X142708901Y-131335106D01*
X142704040Y-131327082D01*
X142675409Y-131275498D01*
X142675408Y-131275496D01*
X142655593Y-131252415D01*
X142646144Y-131239883D01*
X142629402Y-131214481D01*
X142587699Y-131172779D01*
X142581292Y-131165866D01*
X142542865Y-131121103D01*
X142518802Y-131102477D01*
X142507022Y-131092102D01*
X138304885Y-126889965D01*
X138280183Y-126854687D01*
X138269038Y-126813088D01*
X138268180Y-126803286D01*
X138265863Y-126776794D01*
X138207872Y-126560370D01*
X138113181Y-126357305D01*
X137984667Y-126173767D01*
X137826233Y-126015333D01*
X137642696Y-125886819D01*
X137549069Y-125843160D01*
X137439631Y-125792128D01*
X137223203Y-125734136D01*
X136999999Y-125714608D01*
X136851599Y-125727591D01*
X136798381Y-125720585D01*
X136753111Y-125691744D01*
X133069095Y-122007727D01*
X133036118Y-121948641D01*
X133039071Y-121881040D01*
X133064999Y-121802797D01*
X133065515Y-121797750D01*
X133075500Y-121700009D01*
X133075500Y-121250000D01*
X133875001Y-121250000D01*
X133875001Y-121699979D01*
X133885493Y-121802695D01*
X133940642Y-121969122D01*
X134032683Y-122118345D01*
X134156654Y-122242316D01*
X134305877Y-122334357D01*
X134472303Y-122389506D01*
X134575021Y-122400000D01*
X134700000Y-122400000D01*
X134700000Y-121250000D01*
X133875001Y-121250000D01*
X133075500Y-121250000D01*
X133075499Y-120299992D01*
X133066520Y-120212097D01*
X133078533Y-120144925D01*
X133124270Y-120094277D01*
X133189874Y-120075499D01*
X133673344Y-120075499D01*
X133748877Y-120067783D01*
X133803039Y-120074314D01*
X133849158Y-120103460D01*
X133878304Y-120149578D01*
X133884835Y-120203742D01*
X133875000Y-120300019D01*
X133875000Y-120750000D01*
X135076000Y-120750000D01*
X135138000Y-120766613D01*
X135183387Y-120812000D01*
X135200000Y-120874000D01*
X135200000Y-122399999D01*
X135324979Y-122399999D01*
X135427695Y-122389506D01*
X135594122Y-122334357D01*
X135743345Y-122242316D01*
X135867316Y-122118345D01*
X135959357Y-121969122D01*
X136014506Y-121802696D01*
X136024999Y-121699979D01*
X136024999Y-121261780D01*
X136038514Y-121205485D01*
X136076113Y-121161462D01*
X136129601Y-121139307D01*
X136187317Y-121143849D01*
X136236680Y-121174099D01*
X136759181Y-121696600D01*
X136786061Y-121736828D01*
X136795500Y-121784281D01*
X136795500Y-122710325D01*
X136793229Y-122730892D01*
X136795439Y-122801210D01*
X136795500Y-122805104D01*
X136795500Y-122832767D01*
X136796006Y-122836775D01*
X136796921Y-122848409D01*
X136798298Y-122892234D01*
X136803916Y-122911569D01*
X136807861Y-122930619D01*
X136810383Y-122950584D01*
X136826519Y-122991340D01*
X136830302Y-123002389D01*
X136842530Y-123044478D01*
X136842531Y-123044480D01*
X136842532Y-123044482D01*
X136852779Y-123061808D01*
X136861338Y-123079280D01*
X136868747Y-123097996D01*
X136894511Y-123133456D01*
X136900925Y-123143220D01*
X136923237Y-123180947D01*
X136937475Y-123195185D01*
X136950108Y-123209977D01*
X136961936Y-123226257D01*
X136995705Y-123254193D01*
X137004346Y-123262056D01*
X137327333Y-123585043D01*
X137340271Y-123601192D01*
X137391554Y-123649350D01*
X137394352Y-123652062D01*
X137413913Y-123671623D01*
X137417094Y-123674090D01*
X137425991Y-123681688D01*
X137457939Y-123711691D01*
X137457941Y-123711692D01*
X137457942Y-123711693D01*
X137475587Y-123721393D01*
X137491844Y-123732072D01*
X137507747Y-123744408D01*
X137547611Y-123761658D01*
X137547967Y-123761812D01*
X137558458Y-123766951D01*
X137596875Y-123788072D01*
X137616384Y-123793081D01*
X137634770Y-123799376D01*
X137653250Y-123807373D01*
X137696553Y-123814231D01*
X137707956Y-123816592D01*
X137750437Y-123827500D01*
X137770574Y-123827500D01*
X137789971Y-123829026D01*
X137809842Y-123832174D01*
X137853470Y-123828049D01*
X137865139Y-123827500D01*
X138817034Y-123827500D01*
X138837601Y-123829770D01*
X138840475Y-123829679D01*
X138840477Y-123829680D01*
X138907918Y-123827561D01*
X138911813Y-123827500D01*
X138939474Y-123827500D01*
X138939476Y-123827500D01*
X138943470Y-123826995D01*
X138955114Y-123826077D01*
X138998943Y-123824701D01*
X139018280Y-123819082D01*
X139037321Y-123815138D01*
X139057293Y-123812616D01*
X139098055Y-123796476D01*
X139109092Y-123792698D01*
X139151191Y-123780468D01*
X139168510Y-123770224D01*
X139185994Y-123761659D01*
X139204703Y-123754253D01*
X139240168Y-123728485D01*
X139249915Y-123722081D01*
X139287656Y-123699763D01*
X139301892Y-123685526D01*
X139316679Y-123672896D01*
X139332967Y-123661063D01*
X139360904Y-123627290D01*
X139368746Y-123618671D01*
X139675602Y-123311816D01*
X139715828Y-123284939D01*
X139763281Y-123275500D01*
X140056617Y-123275500D01*
X140074261Y-123273896D01*
X140127196Y-123269086D01*
X140289606Y-123218478D01*
X140435185Y-123130472D01*
X140555472Y-123010185D01*
X140643478Y-122864606D01*
X140694086Y-122702196D01*
X140700500Y-122631616D01*
X140700500Y-121968384D01*
X140699160Y-121953644D01*
X140694086Y-121897806D01*
X140694086Y-121897804D01*
X140667157Y-121811386D01*
X140663252Y-121753991D01*
X140685668Y-121701009D01*
X140729583Y-121663845D01*
X140785544Y-121650499D01*
X141207870Y-121650499D01*
X141207872Y-121650499D01*
X141267483Y-121644091D01*
X141301665Y-121631341D01*
X141344999Y-121623523D01*
X141388332Y-121631340D01*
X141422517Y-121644091D01*
X141482127Y-121650500D01*
X142477872Y-121650499D01*
X142537483Y-121644091D01*
X142571665Y-121631341D01*
X142614999Y-121623523D01*
X142658332Y-121631340D01*
X142692517Y-121644091D01*
X142752127Y-121650500D01*
X142768188Y-121650499D01*
X142808045Y-121657079D01*
X142843675Y-121676123D01*
X142870885Y-121697002D01*
X142883080Y-121707697D01*
X143742299Y-122566915D01*
X143752994Y-122579110D01*
X143770749Y-122602250D01*
X143836279Y-122652532D01*
X143872838Y-122699348D01*
X143921954Y-122706482D01*
X144025766Y-122749483D01*
X144152997Y-122766233D01*
X144164477Y-122767745D01*
X144226956Y-122794831D01*
X144265710Y-122850825D01*
X144269052Y-122918841D01*
X144235973Y-122978365D01*
X144157681Y-123056657D01*
X144155830Y-123059659D01*
X144110721Y-123102838D01*
X144050289Y-123118559D01*
X143989857Y-123102834D01*
X143944752Y-123059652D01*
X143942905Y-123056657D01*
X143942712Y-123056344D01*
X143942710Y-123056342D01*
X143942709Y-123056340D01*
X143818657Y-122932288D01*
X143809406Y-122926582D01*
X143766967Y-122882783D01*
X143764192Y-122872861D01*
X143755085Y-122874777D01*
X143695698Y-122856447D01*
X143669334Y-122840186D01*
X143669333Y-122840185D01*
X143669332Y-122840185D01*
X143502797Y-122785000D01*
X143409535Y-122775473D01*
X143400008Y-122774500D01*
X142799991Y-122774500D01*
X142697203Y-122785000D01*
X142530665Y-122840186D01*
X142381342Y-122932288D01*
X142257288Y-123056342D01*
X142165186Y-123205665D01*
X142110000Y-123372202D01*
X142099500Y-123474991D01*
X142099500Y-125910721D01*
X142099460Y-125913863D01*
X142097242Y-126001362D01*
X142107648Y-126059420D01*
X142108957Y-126068749D01*
X142114926Y-126127438D01*
X142124033Y-126156467D01*
X142127772Y-126171702D01*
X142133141Y-126201652D01*
X142153153Y-126251751D01*
X142162000Y-126297747D01*
X142162000Y-126500008D01*
X142172500Y-126602796D01*
X142227686Y-126769334D01*
X142319788Y-126918657D01*
X142443842Y-127042711D01*
X142451175Y-127047234D01*
X142593166Y-127134814D01*
X142703382Y-127171336D01*
X142759702Y-127189999D01*
X142769229Y-127190972D01*
X142862491Y-127200500D01*
X143487508Y-127200499D01*
X143590297Y-127189999D01*
X143756834Y-127134814D01*
X143906156Y-127042712D01*
X143999820Y-126949047D01*
X144055406Y-126916955D01*
X144119594Y-126916955D01*
X144175179Y-126949047D01*
X144226131Y-126999999D01*
X144268845Y-127042713D01*
X144276175Y-127047234D01*
X144418166Y-127134814D01*
X144528382Y-127171336D01*
X144584702Y-127189999D01*
X144594229Y-127190972D01*
X144687491Y-127200500D01*
X145312508Y-127200499D01*
X145415297Y-127189999D01*
X145462709Y-127174287D01*
X145530308Y-127171336D01*
X145589393Y-127204313D01*
X145813181Y-127428101D01*
X145840061Y-127468329D01*
X145849500Y-127515782D01*
X145849500Y-132022973D01*
X145841017Y-132068048D01*
X145816731Y-132106953D01*
X145661836Y-132275215D01*
X145647471Y-132297202D01*
X145525825Y-132483395D01*
X145473622Y-132602408D01*
X145425937Y-132711119D01*
X145381256Y-132887560D01*
X145364891Y-132952183D01*
X145349500Y-133137927D01*
X145349500Y-134862073D01*
X145364891Y-135047816D01*
X145364891Y-135047819D01*
X145364892Y-135047821D01*
X145425937Y-135288881D01*
X145470960Y-135391523D01*
X145525825Y-135516604D01*
X145525827Y-135516607D01*
X145661836Y-135724785D01*
X145830256Y-135907738D01*
X145830259Y-135907740D01*
X146026485Y-136060470D01*
X146026487Y-136060471D01*
X146026491Y-136060474D01*
X146245190Y-136178828D01*
X146480386Y-136259571D01*
X146725665Y-136300500D01*
X146974335Y-136300500D01*
X147219614Y-136259571D01*
X147454810Y-136178828D01*
X147673509Y-136060474D01*
X147869744Y-135907738D01*
X148038164Y-135724785D01*
X148174173Y-135516607D01*
X148274063Y-135288881D01*
X148335108Y-135047821D01*
X148342104Y-134963387D01*
X148350500Y-134862073D01*
X148350500Y-134690000D01*
X151476633Y-134690000D01*
X151494619Y-134797792D01*
X151572780Y-135025460D01*
X151687348Y-135237164D01*
X151835201Y-135427126D01*
X152012292Y-135590151D01*
X152213819Y-135721815D01*
X152434255Y-135818506D01*
X152667606Y-135877599D01*
X152705000Y-135880697D01*
X152705000Y-134690000D01*
X153205000Y-134690000D01*
X153205000Y-135880697D01*
X153242393Y-135877599D01*
X153475744Y-135818506D01*
X153696180Y-135721815D01*
X153897707Y-135590151D01*
X154074798Y-135427126D01*
X154222651Y-135237164D01*
X154337219Y-135025460D01*
X154415380Y-134797792D01*
X154433367Y-134690000D01*
X153205000Y-134690000D01*
X152705000Y-134690000D01*
X151476633Y-134690000D01*
X148350500Y-134690000D01*
X148350500Y-133137927D01*
X148335108Y-132952183D01*
X148335108Y-132952179D01*
X148274063Y-132711119D01*
X148174173Y-132483393D01*
X148038164Y-132275215D01*
X147883268Y-132106953D01*
X147858983Y-132068048D01*
X147850500Y-132022973D01*
X147850500Y-127064239D01*
X147850540Y-127061097D01*
X147852756Y-126973638D01*
X147842902Y-126918657D01*
X147842349Y-126915576D01*
X147841042Y-126906253D01*
X147839386Y-126889965D01*
X147835074Y-126847562D01*
X147825967Y-126818537D01*
X147822223Y-126803286D01*
X147821344Y-126798382D01*
X147816858Y-126773347D01*
X147816857Y-126773345D01*
X147816857Y-126773343D01*
X147794976Y-126718565D01*
X147791816Y-126709689D01*
X147789056Y-126700892D01*
X147774159Y-126653412D01*
X147759395Y-126626812D01*
X147752660Y-126612631D01*
X147748732Y-126602797D01*
X147741377Y-126584383D01*
X147708917Y-126535131D01*
X147704036Y-126527074D01*
X147689013Y-126500008D01*
X147675409Y-126475498D01*
X147655582Y-126452403D01*
X147646146Y-126439888D01*
X147629402Y-126414481D01*
X147629400Y-126414479D01*
X147629399Y-126414477D01*
X147587693Y-126372772D01*
X147581287Y-126365860D01*
X147542864Y-126321102D01*
X147518804Y-126302478D01*
X147507026Y-126292105D01*
X146517567Y-125302647D01*
X146515374Y-125300398D01*
X146455059Y-125236946D01*
X146406642Y-125203247D01*
X146399119Y-125197575D01*
X146353405Y-125160300D01*
X146326440Y-125146215D01*
X146313019Y-125138084D01*
X146288049Y-125120705D01*
X146288048Y-125120704D01*
X146288046Y-125120703D01*
X146233845Y-125097443D01*
X146225336Y-125093402D01*
X146173053Y-125066092D01*
X146167126Y-125064396D01*
X146143798Y-125057721D01*
X146129020Y-125052459D01*
X146101058Y-125040460D01*
X146043272Y-125028583D01*
X146034128Y-125026339D01*
X146014328Y-125020674D01*
X145984920Y-125012259D01*
X145935432Y-124984625D01*
X145903411Y-124937852D01*
X145895551Y-124881715D01*
X145913494Y-124827946D01*
X145934358Y-124794120D01*
X145989506Y-124627696D01*
X146000000Y-124524979D01*
X146000000Y-124250000D01*
X144874000Y-124250000D01*
X144812000Y-124233387D01*
X144766613Y-124188000D01*
X144750000Y-124126000D01*
X144750000Y-123874000D01*
X144766613Y-123812000D01*
X144812000Y-123766613D01*
X144874000Y-123750000D01*
X145999999Y-123750000D01*
X145999999Y-123475022D01*
X145992480Y-123401419D01*
X146001140Y-123341697D01*
X146036965Y-123293135D01*
X146091470Y-123267235D01*
X146151747Y-123270130D01*
X146203519Y-123301136D01*
X151418181Y-128515798D01*
X151445061Y-128556026D01*
X151454500Y-128603479D01*
X151454500Y-130360369D01*
X151458761Y-130400000D01*
X151460909Y-130419983D01*
X151511204Y-130554831D01*
X151597454Y-130670046D01*
X151712669Y-130756296D01*
X151743314Y-130767726D01*
X151791130Y-130799838D01*
X151819279Y-130850091D01*
X151821687Y-130907640D01*
X151797833Y-130960069D01*
X151686929Y-131102559D01*
X151572319Y-131314340D01*
X151494134Y-131542084D01*
X151454500Y-131779601D01*
X151454500Y-132020399D01*
X151494134Y-132257915D01*
X151553373Y-132430471D01*
X151572321Y-132485664D01*
X151686928Y-132697439D01*
X151834829Y-132887463D01*
X152011990Y-133050551D01*
X152036387Y-133066490D01*
X152077619Y-133111280D01*
X152092564Y-133170297D01*
X152077619Y-133229314D01*
X152036387Y-133274106D01*
X152012294Y-133289846D01*
X151835201Y-133452873D01*
X151687348Y-133642835D01*
X151572780Y-133854539D01*
X151494619Y-134082207D01*
X151476633Y-134189999D01*
X151476634Y-134190000D01*
X154433366Y-134190000D01*
X154433366Y-134189999D01*
X154415380Y-134082209D01*
X154389590Y-134007087D01*
X154385510Y-133941377D01*
X154415641Y-133882840D01*
X154471489Y-133847978D01*
X154537311Y-133846617D01*
X154594551Y-133879141D01*
X154965409Y-134250000D01*
X155299196Y-134583787D01*
X155312096Y-134599888D01*
X155363223Y-134647900D01*
X155366019Y-134650610D01*
X155385529Y-134670120D01*
X155388711Y-134672588D01*
X155397571Y-134680155D01*
X155408054Y-134690000D01*
X155429418Y-134710062D01*
X155446970Y-134719711D01*
X155463238Y-134730397D01*
X155479064Y-134742673D01*
X155519146Y-134760017D01*
X155529633Y-134765155D01*
X155567907Y-134786197D01*
X155576410Y-134788379D01*
X155587308Y-134791178D01*
X155605713Y-134797478D01*
X155624104Y-134805437D01*
X155667250Y-134812270D01*
X155678668Y-134814635D01*
X155720981Y-134825500D01*
X155741016Y-134825500D01*
X155760415Y-134827027D01*
X155780196Y-134830160D01*
X155823674Y-134826050D01*
X155835344Y-134825500D01*
X159896253Y-134825500D01*
X159946688Y-134836220D01*
X159988401Y-134866526D01*
X159994129Y-134872888D01*
X160147270Y-134984151D01*
X160147271Y-134984151D01*
X160147272Y-134984152D01*
X160320197Y-135061144D01*
X160505352Y-135100500D01*
X160505354Y-135100500D01*
X160694646Y-135100500D01*
X160694648Y-135100500D01*
X160818084Y-135074262D01*
X160879803Y-135061144D01*
X161052730Y-134984151D01*
X161205871Y-134872888D01*
X161332533Y-134732216D01*
X161427179Y-134568284D01*
X161485674Y-134388256D01*
X161505460Y-134200000D01*
X161485674Y-134011744D01*
X161427179Y-133831716D01*
X161427179Y-133831715D01*
X161332533Y-133667783D01*
X161205870Y-133527110D01*
X161052730Y-133415848D01*
X160879802Y-133338855D01*
X160694648Y-133299500D01*
X160694646Y-133299500D01*
X160505354Y-133299500D01*
X160505352Y-133299500D01*
X160320197Y-133338855D01*
X160147272Y-133415847D01*
X160065031Y-133475599D01*
X159994129Y-133527112D01*
X159988401Y-133533473D01*
X159946688Y-133563780D01*
X159896253Y-133574500D01*
X159699500Y-133574500D01*
X159637500Y-133557887D01*
X159592113Y-133512500D01*
X159575500Y-133450500D01*
X159575500Y-132530789D01*
X159589015Y-132474494D01*
X159626615Y-132430471D01*
X159705870Y-132372889D01*
X159832533Y-132232216D01*
X159927179Y-132068284D01*
X159927256Y-132068048D01*
X159985674Y-131888256D01*
X160005460Y-131700000D01*
X159985674Y-131511744D01*
X159944292Y-131384383D01*
X159927179Y-131331715D01*
X159832533Y-131167784D01*
X159749016Y-131075029D01*
X159723235Y-131030375D01*
X159717845Y-130979095D01*
X159733779Y-130930057D01*
X159743895Y-130912537D01*
X159827179Y-130768284D01*
X159885674Y-130588256D01*
X159905460Y-130400000D01*
X159885674Y-130211744D01*
X159827179Y-130031716D01*
X159827179Y-130031715D01*
X159732533Y-129867783D01*
X159605870Y-129727110D01*
X159452730Y-129615848D01*
X159279802Y-129538855D01*
X159094648Y-129499500D01*
X159094646Y-129499500D01*
X158948478Y-129499500D01*
X158901025Y-129490061D01*
X158860797Y-129463181D01*
X156100319Y-126702702D01*
X156073439Y-126662474D01*
X156064000Y-126615021D01*
X156064000Y-121124000D01*
X156080613Y-121062000D01*
X156126000Y-121016613D01*
X156188000Y-121000000D01*
X162875500Y-121000000D01*
X162937500Y-121016613D01*
X162982887Y-121062000D01*
X162999500Y-121124000D01*
X162999500Y-137875500D01*
X162982887Y-137937500D01*
X162937500Y-137982887D01*
X162875500Y-137999500D01*
X128000099Y-137999500D01*
X127000099Y-137999500D01*
X126124500Y-137999500D01*
X126062500Y-137982887D01*
X126017113Y-137937500D01*
X126000500Y-137875500D01*
X126000500Y-120650000D01*
X127300001Y-120650000D01*
X127300001Y-120774979D01*
X127310493Y-120877695D01*
X127365642Y-121044122D01*
X127457683Y-121193345D01*
X127581654Y-121317316D01*
X127730877Y-121409357D01*
X127897303Y-121464506D01*
X128000021Y-121475000D01*
X128450000Y-121475000D01*
X128450000Y-120650000D01*
X128950000Y-120650000D01*
X128950000Y-121474999D01*
X129399979Y-121474999D01*
X129502695Y-121464506D01*
X129669122Y-121409357D01*
X129818345Y-121317316D01*
X129942316Y-121193345D01*
X130034357Y-121044122D01*
X130089506Y-120877696D01*
X130100000Y-120774979D01*
X130100000Y-120650000D01*
X128950000Y-120650000D01*
X128450000Y-120650000D01*
X127300001Y-120650000D01*
X126000500Y-120650000D01*
X126000500Y-120150000D01*
X127300000Y-120150000D01*
X128450000Y-120150000D01*
X128450000Y-119325001D01*
X128000021Y-119325001D01*
X127897304Y-119335493D01*
X127730877Y-119390642D01*
X127581654Y-119482683D01*
X127457683Y-119606654D01*
X127365642Y-119755877D01*
X127310493Y-119922303D01*
X127300000Y-120025021D01*
X127300000Y-120150000D01*
X126000500Y-120150000D01*
X126000500Y-119325000D01*
X128950000Y-119325000D01*
X128950000Y-120150000D01*
X130099999Y-120150000D01*
X130099999Y-120025021D01*
X130089506Y-119922304D01*
X130034357Y-119755877D01*
X129942316Y-119606654D01*
X129818345Y-119482683D01*
X129669122Y-119390642D01*
X129502696Y-119335493D01*
X129399979Y-119325000D01*
X128950000Y-119325000D01*
X126000500Y-119325000D01*
X126000500Y-107050000D01*
X129475001Y-107050000D01*
X129475001Y-107499979D01*
X129485493Y-107602695D01*
X129540642Y-107769122D01*
X129632683Y-107918345D01*
X129756654Y-108042316D01*
X129905877Y-108134357D01*
X130072303Y-108189506D01*
X130175021Y-108200000D01*
X130300000Y-108200000D01*
X130300000Y-107050000D01*
X130800000Y-107050000D01*
X130800000Y-108199999D01*
X130924979Y-108199999D01*
X131027695Y-108189506D01*
X131194122Y-108134357D01*
X131343345Y-108042316D01*
X131467316Y-107918345D01*
X131559357Y-107769122D01*
X131614506Y-107602696D01*
X131625000Y-107499979D01*
X131625000Y-107050000D01*
X130800000Y-107050000D01*
X130300000Y-107050000D01*
X129475001Y-107050000D01*
X126000500Y-107050000D01*
X126000500Y-106550000D01*
X129475000Y-106550000D01*
X130300000Y-106550000D01*
X130300000Y-105400001D01*
X130175021Y-105400001D01*
X130072304Y-105410493D01*
X129905877Y-105465642D01*
X129756654Y-105557683D01*
X129632683Y-105681654D01*
X129540642Y-105830877D01*
X129485493Y-105997303D01*
X129475000Y-106100021D01*
X129475000Y-106550000D01*
X126000500Y-106550000D01*
X126000500Y-105400000D01*
X130800000Y-105400000D01*
X130800000Y-106550000D01*
X131624999Y-106550000D01*
X131624999Y-106100021D01*
X131614506Y-105997304D01*
X131559357Y-105830877D01*
X131467316Y-105681654D01*
X131343345Y-105557683D01*
X131194122Y-105465642D01*
X131027696Y-105410493D01*
X130924979Y-105400000D01*
X130800000Y-105400000D01*
X126000500Y-105400000D01*
X126000500Y-85647869D01*
X152699500Y-85647869D01*
X152705909Y-85707484D01*
X152719745Y-85744579D01*
X152756204Y-85842331D01*
X152842454Y-85957546D01*
X152957669Y-86043796D01*
X153092517Y-86094091D01*
X153152127Y-86100500D01*
X154447872Y-86100499D01*
X154507483Y-86094091D01*
X154642331Y-86043796D01*
X154757546Y-85957546D01*
X154843796Y-85842331D01*
X154843796Y-85842328D01*
X154854480Y-85828058D01*
X154854736Y-85828250D01*
X154876161Y-85797006D01*
X154929292Y-85769247D01*
X154989236Y-85769655D01*
X155041983Y-85798134D01*
X155133958Y-85881981D01*
X155307361Y-85989347D01*
X155307363Y-85989348D01*
X155497544Y-86063024D01*
X155698024Y-86100500D01*
X155901974Y-86100500D01*
X155901976Y-86100500D01*
X156102456Y-86063024D01*
X156292637Y-85989348D01*
X156466041Y-85881981D01*
X156616764Y-85744579D01*
X156701044Y-85632972D01*
X156744728Y-85596698D01*
X156800000Y-85583698D01*
X156855272Y-85596698D01*
X156898954Y-85632972D01*
X156983234Y-85744578D01*
X157133958Y-85881981D01*
X157307361Y-85989347D01*
X157307363Y-85989348D01*
X157497544Y-86063024D01*
X157698024Y-86100500D01*
X157901974Y-86100500D01*
X157901976Y-86100500D01*
X158102456Y-86063024D01*
X158292637Y-85989348D01*
X158466041Y-85881981D01*
X158616764Y-85744579D01*
X158701044Y-85632972D01*
X158744728Y-85596698D01*
X158800000Y-85583698D01*
X158855272Y-85596698D01*
X158898954Y-85632972D01*
X158983234Y-85744578D01*
X159133958Y-85881981D01*
X159307361Y-85989347D01*
X159307363Y-85989348D01*
X159497544Y-86063024D01*
X159698024Y-86100500D01*
X159901974Y-86100500D01*
X159901976Y-86100500D01*
X160102456Y-86063024D01*
X160292637Y-85989348D01*
X160466041Y-85881981D01*
X160589257Y-85769655D01*
X160616763Y-85744580D01*
X160644777Y-85707484D01*
X160739673Y-85581821D01*
X160739673Y-85581819D01*
X160739675Y-85581818D01*
X160800000Y-85460667D01*
X160830582Y-85399250D01*
X160886397Y-85203083D01*
X160905215Y-85000000D01*
X160886397Y-84796917D01*
X160830582Y-84600750D01*
X160800000Y-84539332D01*
X160739675Y-84418181D01*
X160616763Y-84255419D01*
X160466041Y-84118018D01*
X160292638Y-84010652D01*
X160102457Y-83936976D01*
X160035629Y-83924483D01*
X159901976Y-83899500D01*
X159698024Y-83899500D01*
X159597784Y-83918237D01*
X159497542Y-83936976D01*
X159307361Y-84010652D01*
X159133958Y-84118018D01*
X158983236Y-84255419D01*
X158898954Y-84367028D01*
X158855271Y-84403301D01*
X158800000Y-84416301D01*
X158744729Y-84403301D01*
X158701046Y-84367028D01*
X158616763Y-84255419D01*
X158466041Y-84118018D01*
X158292638Y-84010652D01*
X158102457Y-83936976D01*
X158035629Y-83924483D01*
X157901976Y-83899500D01*
X157698024Y-83899500D01*
X157597784Y-83918237D01*
X157497542Y-83936976D01*
X157307361Y-84010652D01*
X157133958Y-84118018D01*
X156983236Y-84255419D01*
X156898954Y-84367028D01*
X156855271Y-84403301D01*
X156800000Y-84416301D01*
X156744729Y-84403301D01*
X156701046Y-84367028D01*
X156616763Y-84255419D01*
X156466041Y-84118018D01*
X156292638Y-84010652D01*
X156102457Y-83936976D01*
X156035629Y-83924483D01*
X155901976Y-83899500D01*
X155698024Y-83899500D01*
X155597784Y-83918237D01*
X155497542Y-83936976D01*
X155307361Y-84010652D01*
X155133958Y-84118019D01*
X155041983Y-84201865D01*
X154989236Y-84230344D01*
X154929293Y-84230753D01*
X154876163Y-84202995D01*
X154854736Y-84171749D01*
X154854480Y-84171942D01*
X154843796Y-84157671D01*
X154843796Y-84157669D01*
X154757546Y-84042454D01*
X154642331Y-83956204D01*
X154507483Y-83905909D01*
X154447873Y-83899500D01*
X154447869Y-83899500D01*
X153152130Y-83899500D01*
X153092515Y-83905909D01*
X152957669Y-83956204D01*
X152842454Y-84042454D01*
X152756204Y-84157668D01*
X152705909Y-84292516D01*
X152699500Y-84352130D01*
X152699500Y-85647869D01*
X126000500Y-85647869D01*
X126000500Y-83124500D01*
X126017113Y-83062500D01*
X126062500Y-83017113D01*
X126124500Y-83000500D01*
X162875500Y-83000500D01*
X162937500Y-83017113D01*
G37*
%TD.AperFunction*%
%TA.AperFunction,Conductor*%
G36*
X154868000Y-120166613D02*
G01*
X154913387Y-120212000D01*
X154930000Y-120274000D01*
X154930000Y-121677198D01*
X154936000Y-121707362D01*
X154936000Y-126854906D01*
X154934939Y-126871092D01*
X154929002Y-126916186D01*
X154928691Y-126916145D01*
X154923676Y-126958507D01*
X154888443Y-127008358D01*
X154833693Y-127035356D01*
X154772695Y-127032958D01*
X154720233Y-127001746D01*
X151531819Y-123813332D01*
X151504939Y-123773104D01*
X151495500Y-123725651D01*
X151495500Y-121772782D01*
X151514394Y-121706989D01*
X151565319Y-121661245D01*
X151632753Y-121649492D01*
X151642127Y-121650500D01*
X152637872Y-121650499D01*
X152697483Y-121644091D01*
X152731665Y-121631341D01*
X152774999Y-121623523D01*
X152818332Y-121631340D01*
X152852517Y-121644091D01*
X152912127Y-121650500D01*
X153907872Y-121650499D01*
X153967483Y-121644091D01*
X154002384Y-121631073D01*
X154045712Y-121623256D01*
X154089048Y-121631075D01*
X154122621Y-121643597D01*
X154182176Y-121650000D01*
X154430000Y-121650000D01*
X154430000Y-120274000D01*
X154446613Y-120212000D01*
X154492000Y-120166613D01*
X154554000Y-120150000D01*
X154806000Y-120150000D01*
X154868000Y-120166613D01*
G37*
%TD.AperFunction*%
%TA.AperFunction,Conductor*%
G36*
X140910144Y-98409939D02*
G01*
X140950372Y-98436819D01*
X141797466Y-99283913D01*
X141848668Y-99280360D01*
X141908646Y-99291214D01*
X141956207Y-99329335D01*
X142043236Y-99444580D01*
X142193958Y-99581981D01*
X142367361Y-99689347D01*
X142367363Y-99689348D01*
X142557544Y-99763024D01*
X142758024Y-99800500D01*
X142758026Y-99800500D01*
X142962719Y-99800500D01*
X143019014Y-99814015D01*
X143063037Y-99851615D01*
X143085192Y-99905102D01*
X143080650Y-99962818D01*
X143050400Y-100012181D01*
X142974400Y-100088181D01*
X142934172Y-100115061D01*
X142886719Y-100124500D01*
X142593383Y-100124500D01*
X142522806Y-100130913D01*
X142441598Y-100156218D01*
X142360394Y-100181522D01*
X142360392Y-100181522D01*
X142360392Y-100181523D01*
X142214813Y-100269528D01*
X142094528Y-100389813D01*
X142028971Y-100498259D01*
X142006522Y-100535394D01*
X141996781Y-100566656D01*
X141955913Y-100697806D01*
X141949500Y-100768383D01*
X141949500Y-101431617D01*
X141957012Y-101514277D01*
X141944456Y-101580902D01*
X141898737Y-101630965D01*
X141833521Y-101649500D01*
X141482130Y-101649500D01*
X141422516Y-101655909D01*
X141388331Y-101668659D01*
X141345000Y-101676476D01*
X141301668Y-101668658D01*
X141267486Y-101655909D01*
X141241935Y-101653162D01*
X141207873Y-101649500D01*
X141207869Y-101649500D01*
X140212130Y-101649500D01*
X140152516Y-101655909D01*
X140118331Y-101668659D01*
X140075000Y-101676476D01*
X140031668Y-101668658D01*
X139997486Y-101655909D01*
X139971935Y-101653162D01*
X139937873Y-101649500D01*
X139937869Y-101649500D01*
X138942130Y-101649500D01*
X138882516Y-101655909D01*
X138848331Y-101668659D01*
X138805000Y-101676476D01*
X138761668Y-101668658D01*
X138727486Y-101655909D01*
X138701935Y-101653162D01*
X138667873Y-101649500D01*
X138667869Y-101649500D01*
X137672130Y-101649500D01*
X137612515Y-101655909D01*
X137477669Y-101706204D01*
X137362454Y-101792454D01*
X137276204Y-101907668D01*
X137225909Y-102042516D01*
X137219500Y-102102130D01*
X137219500Y-103697869D01*
X137225897Y-103757375D01*
X137225909Y-103757483D01*
X137276204Y-103892331D01*
X137362454Y-104007546D01*
X137477669Y-104093796D01*
X137612517Y-104144091D01*
X137672127Y-104150500D01*
X138667872Y-104150499D01*
X138727483Y-104144091D01*
X138761665Y-104131341D01*
X138804999Y-104123523D01*
X138848332Y-104131340D01*
X138882517Y-104144091D01*
X138942127Y-104150500D01*
X139937872Y-104150499D01*
X139997483Y-104144091D01*
X140031665Y-104131341D01*
X140074999Y-104123523D01*
X140118332Y-104131340D01*
X140152517Y-104144091D01*
X140212127Y-104150500D01*
X141207872Y-104150499D01*
X141267483Y-104144091D01*
X141301665Y-104131341D01*
X141344999Y-104123523D01*
X141388332Y-104131340D01*
X141422517Y-104144091D01*
X141482127Y-104150500D01*
X142477872Y-104150499D01*
X142537483Y-104144091D01*
X142571665Y-104131341D01*
X142614999Y-104123523D01*
X142658332Y-104131340D01*
X142692517Y-104144091D01*
X142752127Y-104150500D01*
X143747872Y-104150499D01*
X143807483Y-104144091D01*
X143841665Y-104131341D01*
X143884999Y-104123523D01*
X143928332Y-104131340D01*
X143962517Y-104144091D01*
X144022127Y-104150500D01*
X145017872Y-104150499D01*
X145077483Y-104144091D01*
X145111665Y-104131341D01*
X145154999Y-104123523D01*
X145198332Y-104131340D01*
X145232517Y-104144091D01*
X145292127Y-104150500D01*
X146287872Y-104150499D01*
X146347483Y-104144091D01*
X146381665Y-104131341D01*
X146424999Y-104123523D01*
X146468332Y-104131340D01*
X146502517Y-104144091D01*
X146562127Y-104150500D01*
X147557872Y-104150499D01*
X147617483Y-104144091D01*
X147651665Y-104131341D01*
X147694999Y-104123523D01*
X147738332Y-104131340D01*
X147772517Y-104144091D01*
X147832127Y-104150500D01*
X148827872Y-104150499D01*
X148887483Y-104144091D01*
X148921665Y-104131341D01*
X148964999Y-104123523D01*
X149008332Y-104131340D01*
X149042517Y-104144091D01*
X149102127Y-104150500D01*
X150097872Y-104150499D01*
X150157483Y-104144091D01*
X150191665Y-104131341D01*
X150234999Y-104123523D01*
X150278332Y-104131340D01*
X150312517Y-104144091D01*
X150372127Y-104150500D01*
X151367872Y-104150499D01*
X151427483Y-104144091D01*
X151427483Y-104144090D01*
X151438747Y-104142880D01*
X151506182Y-104154634D01*
X151557106Y-104200377D01*
X151576000Y-104266170D01*
X151576000Y-111194906D01*
X151574939Y-111211092D01*
X151571133Y-111240000D01*
X151576000Y-111276967D01*
X151590517Y-111387234D01*
X151647347Y-111524433D01*
X151737749Y-111642249D01*
X151760883Y-111660000D01*
X151773079Y-111670696D01*
X154899681Y-114797298D01*
X154926561Y-114837526D01*
X154936000Y-114884979D01*
X154936000Y-117318929D01*
X154923921Y-117372312D01*
X154890036Y-117415295D01*
X154840948Y-117439503D01*
X154786219Y-117440219D01*
X154594648Y-117399500D01*
X154594646Y-117399500D01*
X154405354Y-117399500D01*
X154405352Y-117399500D01*
X154220197Y-117438855D01*
X154047269Y-117515848D01*
X153901415Y-117621818D01*
X153866848Y-117639431D01*
X153828530Y-117645500D01*
X138294500Y-117645500D01*
X138232500Y-117628887D01*
X138187113Y-117583500D01*
X138170500Y-117521500D01*
X138170499Y-116862130D01*
X138170499Y-116862128D01*
X138164091Y-116802517D01*
X138151340Y-116768331D01*
X138143523Y-116725000D01*
X138151342Y-116681665D01*
X138164090Y-116647485D01*
X138164089Y-116647485D01*
X138164091Y-116647483D01*
X138170500Y-116587873D01*
X138170499Y-115592128D01*
X138164091Y-115532517D01*
X138151340Y-115498331D01*
X138143523Y-115454999D01*
X138151342Y-115411665D01*
X138164090Y-115377485D01*
X138164089Y-115377485D01*
X138164091Y-115377483D01*
X138170500Y-115317873D01*
X138170499Y-114322128D01*
X138164091Y-114262517D01*
X138151340Y-114228331D01*
X138143523Y-114184999D01*
X138151342Y-114141665D01*
X138164090Y-114107485D01*
X138164089Y-114107485D01*
X138164091Y-114107483D01*
X138170500Y-114047873D01*
X138170499Y-113052128D01*
X138164091Y-112992517D01*
X138151340Y-112958331D01*
X138143523Y-112915000D01*
X138151342Y-112871665D01*
X138164090Y-112837485D01*
X138164089Y-112837485D01*
X138164091Y-112837483D01*
X138170500Y-112777873D01*
X138170499Y-111800000D01*
X144610000Y-111800000D01*
X144610000Y-112047824D01*
X144616402Y-112107375D01*
X144666647Y-112242089D01*
X144752811Y-112357188D01*
X144867910Y-112443352D01*
X145002624Y-112493597D01*
X145062176Y-112500000D01*
X145310000Y-112500000D01*
X145310000Y-111800000D01*
X145810000Y-111800000D01*
X145810000Y-112500000D01*
X146057824Y-112500000D01*
X146117378Y-112493597D01*
X146216665Y-112456565D01*
X146259999Y-112448746D01*
X146303333Y-112456564D01*
X146402624Y-112493597D01*
X146462176Y-112500000D01*
X146710000Y-112500000D01*
X146710000Y-111800000D01*
X147210000Y-111800000D01*
X147210000Y-112500000D01*
X147457824Y-112500000D01*
X147517378Y-112493597D01*
X147616665Y-112456565D01*
X147659999Y-112448746D01*
X147703333Y-112456564D01*
X147802624Y-112493597D01*
X147862176Y-112500000D01*
X148110000Y-112500000D01*
X148110000Y-111800000D01*
X148610000Y-111800000D01*
X148610000Y-112500000D01*
X148857824Y-112500000D01*
X148917375Y-112493597D01*
X149052089Y-112443352D01*
X149167188Y-112357188D01*
X149253352Y-112242089D01*
X149303597Y-112107375D01*
X149310000Y-112047824D01*
X149310000Y-111800000D01*
X148610000Y-111800000D01*
X148110000Y-111800000D01*
X147210000Y-111800000D01*
X146710000Y-111800000D01*
X145810000Y-111800000D01*
X145310000Y-111800000D01*
X144610000Y-111800000D01*
X138170499Y-111800000D01*
X138170499Y-111782128D01*
X138164091Y-111722517D01*
X138151340Y-111688331D01*
X138143523Y-111645000D01*
X138151342Y-111601665D01*
X138164090Y-111567485D01*
X138164089Y-111567485D01*
X138164091Y-111567483D01*
X138170500Y-111507873D01*
X138170499Y-110512128D01*
X138164091Y-110452517D01*
X138151340Y-110418331D01*
X138148033Y-110400000D01*
X144610000Y-110400000D01*
X144610000Y-110647824D01*
X144616402Y-110707377D01*
X144653435Y-110806667D01*
X144661253Y-110850000D01*
X144653435Y-110893333D01*
X144616402Y-110992622D01*
X144610000Y-111052176D01*
X144610000Y-111300000D01*
X145310000Y-111300000D01*
X145310000Y-110400000D01*
X145810000Y-110400000D01*
X145810000Y-111300000D01*
X146710000Y-111300000D01*
X146710000Y-110400000D01*
X147210000Y-110400000D01*
X147210000Y-111300000D01*
X148110000Y-111300000D01*
X148110000Y-110400000D01*
X148610000Y-110400000D01*
X148610000Y-111300000D01*
X149310000Y-111300000D01*
X149310000Y-111052176D01*
X149303597Y-110992624D01*
X149266564Y-110893334D01*
X149258746Y-110850000D01*
X149266564Y-110806666D01*
X149303597Y-110707375D01*
X149310000Y-110647824D01*
X149310000Y-110400000D01*
X148610000Y-110400000D01*
X148110000Y-110400000D01*
X147210000Y-110400000D01*
X146710000Y-110400000D01*
X145810000Y-110400000D01*
X145310000Y-110400000D01*
X144610000Y-110400000D01*
X138148033Y-110400000D01*
X138143523Y-110374999D01*
X138151342Y-110331665D01*
X138164090Y-110297485D01*
X138164089Y-110297485D01*
X138164091Y-110297483D01*
X138170500Y-110237873D01*
X138170499Y-109242128D01*
X138164091Y-109182517D01*
X138151340Y-109148331D01*
X138143523Y-109105000D01*
X138151342Y-109061665D01*
X138164090Y-109027485D01*
X138164089Y-109027485D01*
X138164091Y-109027483D01*
X138167046Y-109000000D01*
X144610000Y-109000000D01*
X144610000Y-109247824D01*
X144616402Y-109307377D01*
X144653435Y-109406667D01*
X144661253Y-109450000D01*
X144653435Y-109493333D01*
X144616402Y-109592622D01*
X144610000Y-109652176D01*
X144610000Y-109900000D01*
X145310000Y-109900000D01*
X145310000Y-109000000D01*
X145810000Y-109000000D01*
X145810000Y-109900000D01*
X146710000Y-109900000D01*
X146710000Y-109000000D01*
X147210000Y-109000000D01*
X147210000Y-109900000D01*
X148110000Y-109900000D01*
X148110000Y-109000000D01*
X148610000Y-109000000D01*
X148610000Y-109900000D01*
X149310000Y-109900000D01*
X149310000Y-109652176D01*
X149303597Y-109592624D01*
X149266564Y-109493333D01*
X149258746Y-109449999D01*
X149266565Y-109406665D01*
X149303597Y-109307378D01*
X149310000Y-109247824D01*
X149310000Y-109000000D01*
X148610000Y-109000000D01*
X148110000Y-109000000D01*
X147210000Y-109000000D01*
X146710000Y-109000000D01*
X145810000Y-109000000D01*
X145310000Y-109000000D01*
X144610000Y-109000000D01*
X138167046Y-109000000D01*
X138170500Y-108967873D01*
X138170500Y-108500000D01*
X144610000Y-108500000D01*
X145310000Y-108500000D01*
X145310000Y-107800000D01*
X145810000Y-107800000D01*
X145810000Y-108500000D01*
X146710000Y-108500000D01*
X146710000Y-107800000D01*
X147210000Y-107800000D01*
X147210000Y-108500000D01*
X148110000Y-108500000D01*
X148110000Y-107800000D01*
X148610000Y-107800000D01*
X148610000Y-108500000D01*
X149310000Y-108500000D01*
X149310000Y-108252176D01*
X149303597Y-108192624D01*
X149253352Y-108057910D01*
X149167188Y-107942811D01*
X149052089Y-107856647D01*
X148917375Y-107806402D01*
X148857824Y-107800000D01*
X148610000Y-107800000D01*
X148110000Y-107800000D01*
X147862176Y-107800000D01*
X147802622Y-107806402D01*
X147703333Y-107843435D01*
X147660000Y-107851253D01*
X147616667Y-107843435D01*
X147517377Y-107806402D01*
X147457824Y-107800000D01*
X147210000Y-107800000D01*
X146710000Y-107800000D01*
X146462176Y-107800000D01*
X146402622Y-107806402D01*
X146303333Y-107843435D01*
X146260000Y-107851253D01*
X146216667Y-107843435D01*
X146117377Y-107806402D01*
X146057824Y-107800000D01*
X145810000Y-107800000D01*
X145310000Y-107800000D01*
X145062176Y-107800000D01*
X145002624Y-107806402D01*
X144867910Y-107856647D01*
X144752811Y-107942811D01*
X144666647Y-108057910D01*
X144616402Y-108192624D01*
X144610000Y-108252176D01*
X144610000Y-108500000D01*
X138170500Y-108500000D01*
X138170499Y-107972128D01*
X138164091Y-107912517D01*
X138151340Y-107878330D01*
X138143523Y-107835000D01*
X138151342Y-107791665D01*
X138164090Y-107757485D01*
X138164089Y-107757485D01*
X138164091Y-107757483D01*
X138170500Y-107697873D01*
X138170499Y-106702128D01*
X138164091Y-106642517D01*
X138151075Y-106607619D01*
X138143256Y-106564284D01*
X138151075Y-106520949D01*
X138163597Y-106487376D01*
X138170000Y-106427824D01*
X138170000Y-106180000D01*
X135670000Y-106180000D01*
X135670000Y-106427824D01*
X135676402Y-106487377D01*
X135688925Y-106520952D01*
X135696743Y-106564285D01*
X135688925Y-106607617D01*
X135675909Y-106642513D01*
X135669500Y-106702130D01*
X135669500Y-107697869D01*
X135675909Y-107757485D01*
X135688658Y-107791667D01*
X135696476Y-107834999D01*
X135688659Y-107878330D01*
X135675909Y-107912515D01*
X135669500Y-107972130D01*
X135669500Y-108967869D01*
X135675909Y-109027485D01*
X135688658Y-109061666D01*
X135696476Y-109104997D01*
X135688659Y-109148328D01*
X135675909Y-109182513D01*
X135669500Y-109242130D01*
X135669500Y-110237869D01*
X135675909Y-110297485D01*
X135688658Y-110331666D01*
X135696476Y-110374997D01*
X135688659Y-110418328D01*
X135675908Y-110452517D01*
X135669891Y-110508478D01*
X135652118Y-110560355D01*
X135613710Y-110599493D01*
X135562178Y-110618240D01*
X135507599Y-110612928D01*
X135497709Y-110609650D01*
X135406772Y-110600361D01*
X135398344Y-110599500D01*
X134801655Y-110599500D01*
X134702292Y-110609650D01*
X134663504Y-110622504D01*
X134605637Y-110627355D01*
X134551907Y-110605328D01*
X134514097Y-110561254D01*
X134500500Y-110504798D01*
X134500500Y-110492757D01*
X134500858Y-110483343D01*
X134503205Y-110452516D01*
X134505337Y-110424523D01*
X134501493Y-110394347D01*
X134500500Y-110378682D01*
X134500500Y-107817452D01*
X134506794Y-107778448D01*
X134564999Y-107602797D01*
X134565009Y-107602695D01*
X134575500Y-107500009D01*
X134575499Y-106099992D01*
X134564999Y-105997203D01*
X134509814Y-105830666D01*
X134506794Y-105821552D01*
X134500500Y-105782548D01*
X134500500Y-105680000D01*
X135670000Y-105680000D01*
X136670000Y-105680000D01*
X136670000Y-104980000D01*
X137170000Y-104980000D01*
X137170000Y-105680000D01*
X138170000Y-105680000D01*
X138170000Y-105432176D01*
X138163597Y-105372624D01*
X138113352Y-105237910D01*
X138027188Y-105122811D01*
X137912089Y-105036647D01*
X137777375Y-104986402D01*
X137717824Y-104980000D01*
X137170000Y-104980000D01*
X136670000Y-104980000D01*
X136122176Y-104980000D01*
X136062624Y-104986402D01*
X135927910Y-105036647D01*
X135812811Y-105122811D01*
X135726647Y-105237910D01*
X135676402Y-105372624D01*
X135670000Y-105432176D01*
X135670000Y-105680000D01*
X134500500Y-105680000D01*
X134500500Y-101065783D01*
X134509939Y-101018330D01*
X134536819Y-100978102D01*
X135778102Y-99736819D01*
X135818330Y-99709939D01*
X135865783Y-99700500D01*
X138372970Y-99700500D01*
X138417763Y-99708873D01*
X138420515Y-99709939D01*
X138557544Y-99763024D01*
X138758024Y-99800500D01*
X138961974Y-99800500D01*
X138961976Y-99800500D01*
X139162456Y-99763024D01*
X139352637Y-99689348D01*
X139441640Y-99634240D01*
X140279310Y-99634240D01*
X140367588Y-99688899D01*
X140557679Y-99762540D01*
X140758072Y-99800000D01*
X140961928Y-99800000D01*
X141162320Y-99762540D01*
X141352411Y-99688899D01*
X141440688Y-99634240D01*
X140860001Y-99053553D01*
X140860000Y-99053553D01*
X140279310Y-99634240D01*
X139441640Y-99634240D01*
X139526041Y-99581981D01*
X139676764Y-99444579D01*
X139676765Y-99444578D01*
X139763797Y-99329329D01*
X139811365Y-99291203D01*
X139871353Y-99280354D01*
X139922533Y-99283912D01*
X140769628Y-98436819D01*
X140809856Y-98409939D01*
X140857309Y-98400500D01*
X140862691Y-98400500D01*
X140910144Y-98409939D01*
G37*
%TD.AperFunction*%
%TA.AperFunction,Conductor*%
G36*
X134175400Y-112093222D02*
G01*
X134220506Y-112136403D01*
X134277031Y-112228044D01*
X134286306Y-112237319D01*
X134318400Y-112292906D01*
X134318400Y-112357094D01*
X134286306Y-112412681D01*
X134277031Y-112421955D01*
X134187997Y-112566300D01*
X134134650Y-112727292D01*
X134124500Y-112826655D01*
X134124500Y-113373344D01*
X134134650Y-113472707D01*
X134187997Y-113633699D01*
X134265841Y-113759902D01*
X134284303Y-113824999D01*
X134265842Y-113890096D01*
X134187996Y-114016303D01*
X134134650Y-114177292D01*
X134124500Y-114276655D01*
X134124500Y-114586718D01*
X134115061Y-114634171D01*
X134088183Y-114674396D01*
X133974399Y-114788181D01*
X133973898Y-114788682D01*
X133933669Y-114815561D01*
X133886217Y-114825000D01*
X133850000Y-114825000D01*
X133850000Y-114826372D01*
X133831495Y-114891539D01*
X133781504Y-114937256D01*
X133714947Y-114949878D01*
X133651689Y-114925639D01*
X133599689Y-114886712D01*
X133563116Y-114842949D01*
X133561620Y-114836620D01*
X133550000Y-114825000D01*
X133502172Y-114825000D01*
X133465598Y-114828931D01*
X133439095Y-114828931D01*
X133401857Y-114824928D01*
X133397872Y-114824500D01*
X133002126Y-114824500D01*
X132960904Y-114828931D01*
X132934403Y-114828931D01*
X132897829Y-114825000D01*
X132850000Y-114825000D01*
X132838379Y-114836620D01*
X132836884Y-114842950D01*
X132800310Y-114886713D01*
X132774310Y-114906176D01*
X132726358Y-114928074D01*
X132673642Y-114928074D01*
X132625690Y-114906176D01*
X132599690Y-114886713D01*
X132563116Y-114842950D01*
X132561620Y-114836620D01*
X132550000Y-114825000D01*
X132502172Y-114825000D01*
X132465598Y-114828931D01*
X132439095Y-114828931D01*
X132401857Y-114824928D01*
X132397873Y-114824500D01*
X132397872Y-114824500D01*
X132210453Y-114824500D01*
X132163000Y-114815061D01*
X132122772Y-114788181D01*
X131950802Y-114616211D01*
X131937906Y-114600113D01*
X131886775Y-114552098D01*
X131883978Y-114549387D01*
X131864470Y-114529879D01*
X131861290Y-114527412D01*
X131852424Y-114519839D01*
X131820582Y-114489938D01*
X131803024Y-114480285D01*
X131786764Y-114469604D01*
X131770936Y-114457327D01*
X131730851Y-114439980D01*
X131720332Y-114434825D01*
X131717278Y-114433145D01*
X131670697Y-114388267D01*
X131653054Y-114326038D01*
X131669148Y-114263389D01*
X131714600Y-114217369D01*
X131777040Y-114200499D01*
X133322872Y-114200499D01*
X133382483Y-114194091D01*
X133517331Y-114143796D01*
X133632546Y-114057546D01*
X133718796Y-113942331D01*
X133769091Y-113807483D01*
X133775500Y-113747873D01*
X133775500Y-112201500D01*
X133792113Y-112139500D01*
X133837500Y-112094113D01*
X133899500Y-112077500D01*
X134114968Y-112077500D01*
X134175400Y-112093222D01*
G37*
%TD.AperFunction*%
%TD*%
M02*
