%TF.GenerationSoftware,KiCad,Pcbnew,7.0.1*%
%TF.CreationDate,2024-02-27T21:29:27+01:00*%
%TF.ProjectId,PresenceDetection,50726573-656e-4636-9544-657465637469,rev?*%
%TF.SameCoordinates,Original*%
%TF.FileFunction,Copper,L2,Bot*%
%TF.FilePolarity,Positive*%
%FSLAX46Y46*%
G04 Gerber Fmt 4.6, Leading zero omitted, Abs format (unit mm)*
G04 Created by KiCad (PCBNEW 7.0.1) date 2024-02-27 21:29:27*
%MOMM*%
%LPD*%
G01*
G04 APERTURE LIST*
G04 Aperture macros list*
%AMRoundRect*
0 Rectangle with rounded corners*
0 $1 Rounding radius*
0 $2 $3 $4 $5 $6 $7 $8 $9 X,Y pos of 4 corners*
0 Add a 4 corners polygon primitive as box body*
4,1,4,$2,$3,$4,$5,$6,$7,$8,$9,$2,$3,0*
0 Add four circle primitives for the rounded corners*
1,1,$1+$1,$2,$3*
1,1,$1+$1,$4,$5*
1,1,$1+$1,$6,$7*
1,1,$1+$1,$8,$9*
0 Add four rect primitives between the rounded corners*
20,1,$1+$1,$2,$3,$4,$5,0*
20,1,$1+$1,$4,$5,$6,$7,0*
20,1,$1+$1,$6,$7,$8,$9,0*
20,1,$1+$1,$8,$9,$2,$3,0*%
G04 Aperture macros list end*
%TA.AperFunction,ComponentPad*%
%ADD10R,2.000000X1.905000*%
%TD*%
%TA.AperFunction,ComponentPad*%
%ADD11O,2.000000X1.905000*%
%TD*%
%TA.AperFunction,ComponentPad*%
%ADD12C,1.560000*%
%TD*%
%TA.AperFunction,ComponentPad*%
%ADD13RoundRect,0.250000X-0.750000X-1.550000X0.750000X-1.550000X0.750000X1.550000X-0.750000X1.550000X0*%
%TD*%
%TA.AperFunction,ComponentPad*%
%ADD14O,2.000000X3.600000*%
%TD*%
%TA.AperFunction,ComponentPad*%
%ADD15R,1.200000X1.200000*%
%TD*%
%TA.AperFunction,ComponentPad*%
%ADD16C,1.200000*%
%TD*%
%TA.AperFunction,SMDPad,CuDef*%
%ADD17R,2.400000X0.740000*%
%TD*%
%TA.AperFunction,ViaPad*%
%ADD18C,0.800000*%
%TD*%
%TA.AperFunction,Conductor*%
%ADD19C,0.127000*%
%TD*%
%TA.AperFunction,Conductor*%
%ADD20C,0.250000*%
%TD*%
%TA.AperFunction,Conductor*%
%ADD21C,1.000000*%
%TD*%
%TA.AperFunction,Conductor*%
%ADD22C,0.254000*%
%TD*%
G04 APERTURE END LIST*
D10*
%TO.P,Q1,1,G*%
%TO.N,/ESP32/GPIO5*%
X152955000Y-129360000D03*
D11*
%TO.P,Q1,2,D*%
%TO.N,Net-(J1-Pin_4)*%
X152955000Y-131900000D03*
%TO.P,Q1,3,S*%
%TO.N,GND*%
X152955000Y-134440000D03*
%TD*%
D12*
%TO.P,F1,1*%
%TO.N,Net-(J1-Pin_1)*%
X131900000Y-125100000D03*
%TO.P,F1,2*%
%TO.N,/Power/Vin*%
X137000000Y-127000000D03*
%TD*%
D13*
%TO.P,J1,1,Pin_1*%
%TO.N,Net-(J1-Pin_1)*%
X131850000Y-134000000D03*
D14*
%TO.P,J1,2,Pin_2*%
%TO.N,GND*%
X136850000Y-134000000D03*
%TO.P,J1,3,Pin_3*%
%TO.N,/Power/Vin*%
X141850000Y-134000000D03*
%TO.P,J1,4,Pin_4*%
%TO.N,Net-(J1-Pin_4)*%
X146850000Y-134000000D03*
%TD*%
D15*
%TO.P,J2,1,Pin_1*%
%TO.N,UTX*%
X144860000Y-98700000D03*
D16*
%TO.P,J2,2,Pin_2*%
%TO.N,URX*%
X142860000Y-98700000D03*
%TO.P,J2,3,Pin_3*%
%TO.N,GND*%
X140860000Y-98700000D03*
%TO.P,J2,4,Pin_4*%
%TO.N,+3.3V*%
X138860000Y-98700000D03*
D15*
%TO.P,J2,A*%
%TO.N,N/C*%
X153800000Y-85000000D03*
D16*
X155800000Y-85000000D03*
X157800000Y-85000000D03*
X159800000Y-85000000D03*
%TD*%
D17*
%TO.P,J3,1,Pin_1*%
%TO.N,EN*%
X160900000Y-130460000D03*
%TO.P,J3,2,Pin_2*%
%TO.N,+3.3V*%
X157000000Y-130460000D03*
%TO.P,J3,3,Pin_3*%
%TO.N,TX*%
X160900000Y-131730000D03*
%TO.P,J3,4,Pin_4*%
%TO.N,GND*%
X157000000Y-131730000D03*
%TO.P,J3,5,Pin_5*%
%TO.N,RX*%
X160900000Y-133000000D03*
%TO.P,J3,6,Pin_6*%
%TO.N,D0*%
X157000000Y-133000000D03*
%TD*%
D18*
%TO.N,EN*%
X159000000Y-130400000D03*
%TO.N,TX*%
X159100000Y-131700000D03*
%TO.N,RX*%
X160600000Y-134200000D03*
%TO.N,GND*%
X137000000Y-131000000D03*
X130000000Y-104000000D03*
X138000000Y-131000000D03*
X139000000Y-107000000D03*
X132000000Y-104000000D03*
X135574807Y-115568261D03*
X131000000Y-104000000D03*
X133760042Y-114863733D03*
X139000000Y-106000000D03*
X135000000Y-131000000D03*
X136000000Y-131000000D03*
%TO.N,URX*%
X142100000Y-119000000D03*
%TO.N,UTX*%
X140700000Y-119000000D03*
%TO.N,+3.3V*%
X153600000Y-104600000D03*
X154500000Y-118300000D03*
%TO.N,D0*%
X138150000Y-121500000D03*
%TD*%
D19*
%TO.N,D0*%
X156170000Y-133000000D02*
X157000000Y-133000000D01*
X155300000Y-127914624D02*
X155300000Y-132130000D01*
X148885376Y-121500000D02*
X155300000Y-127914624D01*
X138150000Y-121500000D02*
X148885376Y-121500000D01*
X155300000Y-132130000D02*
X156170000Y-133000000D01*
%TO.N,EN*%
X159000000Y-130400000D02*
X159060000Y-130460000D01*
X159060000Y-130460000D02*
X160900000Y-130460000D01*
D20*
%TO.N,TX*%
X160870000Y-131700000D02*
X160900000Y-131730000D01*
X159100000Y-131700000D02*
X160870000Y-131700000D01*
%TO.N,RX*%
X160600000Y-133300000D02*
X160900000Y-133000000D01*
X160600000Y-134200000D02*
X160600000Y-133300000D01*
D21*
%TO.N,Net-(J1-Pin_4)*%
X150600000Y-131900000D02*
X152955000Y-131900000D01*
X148500000Y-134000000D02*
X150600000Y-131900000D01*
X146850000Y-134000000D02*
X148500000Y-134000000D01*
D22*
%TO.N,+3.3V*%
X157000000Y-127100000D02*
X157000000Y-130460000D01*
X155000000Y-125100000D02*
X157000000Y-127100000D01*
D19*
%TO.N,URX*%
X142860000Y-98700000D02*
X142860000Y-118240000D01*
X142860000Y-118240000D02*
X142100000Y-119000000D01*
%TO.N,UTX*%
X141723500Y-117976500D02*
X140700000Y-119000000D01*
X142063500Y-97836500D02*
X141723500Y-98176500D01*
X144860000Y-98700000D02*
X143996500Y-97836500D01*
X141723500Y-98176500D02*
X141723500Y-117976500D01*
X143996500Y-97836500D02*
X142063500Y-97836500D01*
D22*
%TO.N,+3.3V*%
X155000000Y-106000000D02*
X153600000Y-104600000D01*
X154900000Y-118300000D02*
X155000000Y-118200000D01*
X155000000Y-118200000D02*
X155000000Y-106000000D01*
X155000000Y-125100000D02*
X155000000Y-118200000D01*
X154500000Y-118300000D02*
X154900000Y-118300000D01*
%TD*%
%TA.AperFunction,Conductor*%
%TO.N,GND*%
G36*
X162937500Y-83017113D02*
G01*
X162982887Y-83062500D01*
X162999500Y-83124500D01*
X162999500Y-101876000D01*
X162982887Y-101938000D01*
X162937500Y-101983387D01*
X162875500Y-102000000D01*
X156000000Y-102000000D01*
X156000000Y-121000000D01*
X162875500Y-121000000D01*
X162937500Y-121016613D01*
X162982887Y-121062000D01*
X162999500Y-121124000D01*
X162999500Y-137875500D01*
X162982887Y-137937500D01*
X162937500Y-137982887D01*
X162875500Y-137999500D01*
X128000099Y-137999500D01*
X127000099Y-137999500D01*
X126124500Y-137999500D01*
X126062500Y-137982887D01*
X126017113Y-137937500D01*
X126000500Y-137875500D01*
X126000500Y-135600008D01*
X130349500Y-135600008D01*
X130360000Y-135702796D01*
X130415186Y-135869334D01*
X130507288Y-136018657D01*
X130631342Y-136142711D01*
X130631344Y-136142712D01*
X130780666Y-136234814D01*
X130855375Y-136259570D01*
X130947202Y-136289999D01*
X130957703Y-136291071D01*
X131049991Y-136300500D01*
X132650008Y-136300499D01*
X132752797Y-136289999D01*
X132919334Y-136234814D01*
X133068656Y-136142712D01*
X133192712Y-136018656D01*
X133284814Y-135869334D01*
X133339999Y-135702797D01*
X133350500Y-135600009D01*
X133350499Y-134250000D01*
X135350000Y-134250000D01*
X135350000Y-134862049D01*
X135365386Y-135047732D01*
X135426413Y-135288721D01*
X135526266Y-135516365D01*
X135662233Y-135724477D01*
X135830596Y-135907368D01*
X136026766Y-136060053D01*
X136245393Y-136178368D01*
X136480508Y-136259083D01*
X136599999Y-136279023D01*
X136600000Y-136279023D01*
X136600000Y-134250000D01*
X137100000Y-134250000D01*
X137100000Y-136279023D01*
X137219491Y-136259083D01*
X137454606Y-136178368D01*
X137673233Y-136060053D01*
X137869403Y-135907368D01*
X138037766Y-135724477D01*
X138173733Y-135516365D01*
X138273586Y-135288721D01*
X138334613Y-135047732D01*
X138349998Y-134862073D01*
X140349500Y-134862073D01*
X140364891Y-135047816D01*
X140364891Y-135047819D01*
X140364892Y-135047821D01*
X140425937Y-135288881D01*
X140425938Y-135288883D01*
X140525825Y-135516604D01*
X140525827Y-135516607D01*
X140661836Y-135724785D01*
X140830256Y-135907738D01*
X140830259Y-135907740D01*
X141026485Y-136060470D01*
X141026487Y-136060471D01*
X141026491Y-136060474D01*
X141245190Y-136178828D01*
X141480386Y-136259571D01*
X141725665Y-136300500D01*
X141974335Y-136300500D01*
X142219614Y-136259571D01*
X142454810Y-136178828D01*
X142673509Y-136060474D01*
X142869744Y-135907738D01*
X143038164Y-135724785D01*
X143174173Y-135516607D01*
X143274063Y-135288881D01*
X143335108Y-135047821D01*
X143345355Y-134924159D01*
X143350500Y-134862073D01*
X143350500Y-133137927D01*
X143335108Y-132952183D01*
X143335108Y-132952179D01*
X143274063Y-132711119D01*
X143174173Y-132483393D01*
X143038164Y-132275215D01*
X142869744Y-132092262D01*
X142777415Y-132020399D01*
X142673514Y-131939529D01*
X142673510Y-131939526D01*
X142673509Y-131939526D01*
X142454810Y-131821172D01*
X142454806Y-131821170D01*
X142454805Y-131821170D01*
X142219615Y-131740429D01*
X141974335Y-131699500D01*
X141725665Y-131699500D01*
X141480384Y-131740429D01*
X141245194Y-131821170D01*
X141245190Y-131821171D01*
X141245190Y-131821172D01*
X141157710Y-131868513D01*
X141026485Y-131939529D01*
X140830259Y-132092259D01*
X140830256Y-132092261D01*
X140830256Y-132092262D01*
X140661836Y-132275215D01*
X140660517Y-132277234D01*
X140525825Y-132483395D01*
X140474459Y-132600500D01*
X140425937Y-132711119D01*
X140380436Y-132890798D01*
X140364891Y-132952183D01*
X140349500Y-133137927D01*
X140349500Y-134862073D01*
X138349998Y-134862073D01*
X138350000Y-134862049D01*
X138350000Y-134250000D01*
X137100000Y-134250000D01*
X136600000Y-134250000D01*
X135350000Y-134250000D01*
X133350499Y-134250000D01*
X133350499Y-133750000D01*
X135350000Y-133750000D01*
X136600000Y-133750000D01*
X136600000Y-131720978D01*
X136599999Y-131720976D01*
X137100000Y-131720976D01*
X137100000Y-133750000D01*
X138350000Y-133750000D01*
X138350000Y-133137951D01*
X138334613Y-132952267D01*
X138273586Y-132711278D01*
X138173733Y-132483634D01*
X138037766Y-132275522D01*
X137869403Y-132092631D01*
X137673233Y-131939946D01*
X137454606Y-131821631D01*
X137219491Y-131740916D01*
X137100000Y-131720976D01*
X136599999Y-131720976D01*
X136480508Y-131740916D01*
X136245393Y-131821631D01*
X136026766Y-131939946D01*
X135830596Y-132092631D01*
X135662233Y-132275522D01*
X135526266Y-132483634D01*
X135426413Y-132711278D01*
X135365386Y-132952267D01*
X135350000Y-133137951D01*
X135350000Y-133750000D01*
X133350499Y-133750000D01*
X133350499Y-132399992D01*
X133339999Y-132297203D01*
X133284814Y-132130666D01*
X133192712Y-131981344D01*
X133192711Y-131981342D01*
X133068657Y-131857288D01*
X132919334Y-131765186D01*
X132752797Y-131710000D01*
X132650009Y-131699500D01*
X131049991Y-131699500D01*
X130947203Y-131710000D01*
X130780665Y-131765186D01*
X130631342Y-131857288D01*
X130507288Y-131981342D01*
X130415186Y-132130665D01*
X130360000Y-132297202D01*
X130349500Y-132399990D01*
X130349500Y-135600008D01*
X126000500Y-135600008D01*
X126000500Y-126999999D01*
X135714608Y-126999999D01*
X135734136Y-127223203D01*
X135792128Y-127439631D01*
X135815462Y-127489671D01*
X135886819Y-127642696D01*
X136015333Y-127826233D01*
X136173767Y-127984667D01*
X136357304Y-128113181D01*
X136560370Y-128207872D01*
X136776794Y-128265863D01*
X137000000Y-128285391D01*
X137223206Y-128265863D01*
X137439630Y-128207872D01*
X137642696Y-128113181D01*
X137826233Y-127984667D01*
X137984667Y-127826233D01*
X138113181Y-127642696D01*
X138207872Y-127439630D01*
X138265863Y-127223206D01*
X138285391Y-127000000D01*
X138283792Y-126981729D01*
X138265863Y-126776796D01*
X138265863Y-126776794D01*
X138207872Y-126560370D01*
X138113181Y-126357305D01*
X137984667Y-126173767D01*
X137826233Y-126015333D01*
X137642696Y-125886819D01*
X137549069Y-125843160D01*
X137439631Y-125792128D01*
X137223203Y-125734136D01*
X137000000Y-125714608D01*
X136776796Y-125734136D01*
X136560368Y-125792128D01*
X136357304Y-125886819D01*
X136173766Y-126015333D01*
X136015333Y-126173766D01*
X135886819Y-126357304D01*
X135792128Y-126560368D01*
X135734136Y-126776796D01*
X135714608Y-126999999D01*
X126000500Y-126999999D01*
X126000500Y-125100000D01*
X130614608Y-125100000D01*
X130634136Y-125323203D01*
X130692128Y-125539631D01*
X130743160Y-125649069D01*
X130786819Y-125742696D01*
X130915333Y-125926233D01*
X131073767Y-126084667D01*
X131257304Y-126213181D01*
X131460370Y-126307872D01*
X131676794Y-126365863D01*
X131900000Y-126385391D01*
X132123206Y-126365863D01*
X132339630Y-126307872D01*
X132542696Y-126213181D01*
X132726233Y-126084667D01*
X132884667Y-125926233D01*
X133013181Y-125742696D01*
X133107872Y-125539630D01*
X133165863Y-125323206D01*
X133185391Y-125100000D01*
X133165863Y-124876794D01*
X133107872Y-124660370D01*
X133013181Y-124457305D01*
X132884667Y-124273767D01*
X132726233Y-124115333D01*
X132542696Y-123986819D01*
X132449069Y-123943160D01*
X132339631Y-123892128D01*
X132123203Y-123834136D01*
X131900000Y-123814608D01*
X131676796Y-123834136D01*
X131460368Y-123892128D01*
X131257304Y-123986819D01*
X131073766Y-124115333D01*
X130915333Y-124273766D01*
X130786819Y-124457304D01*
X130692128Y-124660368D01*
X130634136Y-124876796D01*
X130614608Y-125100000D01*
X126000500Y-125100000D01*
X126000500Y-121500000D01*
X137244540Y-121500000D01*
X137264326Y-121688257D01*
X137322820Y-121868284D01*
X137417466Y-122032216D01*
X137544129Y-122172889D01*
X137697269Y-122284151D01*
X137870197Y-122361144D01*
X138055352Y-122400500D01*
X138055354Y-122400500D01*
X138244646Y-122400500D01*
X138244648Y-122400500D01*
X138368083Y-122374262D01*
X138429803Y-122361144D01*
X138602730Y-122284151D01*
X138755871Y-122172888D01*
X138816972Y-122105027D01*
X138858686Y-122074720D01*
X138909122Y-122064000D01*
X148600397Y-122064000D01*
X148647850Y-122073439D01*
X148688078Y-122100319D01*
X151687759Y-125100000D01*
X154379981Y-127792221D01*
X154411277Y-127844967D01*
X154413466Y-127906260D01*
X154386013Y-127961105D01*
X154335634Y-127996084D01*
X154274653Y-128002640D01*
X154217990Y-127979169D01*
X154197333Y-127963705D01*
X154197331Y-127963704D01*
X154062483Y-127913409D01*
X154002873Y-127907000D01*
X154002869Y-127907000D01*
X151907130Y-127907000D01*
X151847515Y-127913409D01*
X151712669Y-127963704D01*
X151597454Y-128049954D01*
X151511204Y-128165168D01*
X151460909Y-128300016D01*
X151454500Y-128359630D01*
X151454500Y-130360369D01*
X151460909Y-130419983D01*
X151511204Y-130554831D01*
X151597454Y-130670046D01*
X151597455Y-130670047D01*
X151605718Y-130676233D01*
X151644202Y-130723989D01*
X151655092Y-130784346D01*
X151635723Y-130842539D01*
X151590835Y-130884332D01*
X151531408Y-130899500D01*
X150614238Y-130899500D01*
X150611096Y-130899460D01*
X150523635Y-130897243D01*
X150465581Y-130907648D01*
X150456253Y-130908957D01*
X150397561Y-130914926D01*
X150368527Y-130924035D01*
X150353288Y-130927775D01*
X150323345Y-130933142D01*
X150268568Y-130955021D01*
X150259698Y-130958179D01*
X150203410Y-130975841D01*
X150176809Y-130990605D01*
X150162639Y-130997335D01*
X150134385Y-131008622D01*
X150085121Y-131041087D01*
X150077070Y-131045964D01*
X150025498Y-131074590D01*
X150002414Y-131094407D01*
X149989887Y-131103853D01*
X149964481Y-131120598D01*
X149922775Y-131162303D01*
X149915868Y-131168704D01*
X149871103Y-131207135D01*
X149852480Y-131231193D01*
X149842108Y-131242969D01*
X148432854Y-132652223D01*
X148381781Y-132683015D01*
X148322240Y-132686403D01*
X148268003Y-132661603D01*
X148231617Y-132614352D01*
X148174174Y-132483395D01*
X148129119Y-132414433D01*
X148038164Y-132275215D01*
X147869744Y-132092262D01*
X147777415Y-132020399D01*
X147673514Y-131939529D01*
X147673510Y-131939526D01*
X147673509Y-131939526D01*
X147454810Y-131821172D01*
X147454806Y-131821170D01*
X147454805Y-131821170D01*
X147219615Y-131740429D01*
X146974335Y-131699500D01*
X146725665Y-131699500D01*
X146480384Y-131740429D01*
X146245194Y-131821170D01*
X146245190Y-131821171D01*
X146245190Y-131821172D01*
X146157710Y-131868513D01*
X146026485Y-131939529D01*
X145830259Y-132092259D01*
X145830256Y-132092261D01*
X145830256Y-132092262D01*
X145661836Y-132275215D01*
X145660517Y-132277234D01*
X145525825Y-132483395D01*
X145474459Y-132600500D01*
X145425937Y-132711119D01*
X145380436Y-132890798D01*
X145364891Y-132952183D01*
X145349500Y-133137927D01*
X145349500Y-134862073D01*
X145364891Y-135047816D01*
X145364891Y-135047819D01*
X145364892Y-135047821D01*
X145425937Y-135288881D01*
X145425938Y-135288883D01*
X145525825Y-135516604D01*
X145525827Y-135516607D01*
X145661836Y-135724785D01*
X145830256Y-135907738D01*
X145830259Y-135907740D01*
X146026485Y-136060470D01*
X146026487Y-136060471D01*
X146026491Y-136060474D01*
X146245190Y-136178828D01*
X146480386Y-136259571D01*
X146725665Y-136300500D01*
X146974335Y-136300500D01*
X147219614Y-136259571D01*
X147454810Y-136178828D01*
X147673509Y-136060474D01*
X147869744Y-135907738D01*
X148038164Y-135724785D01*
X148174173Y-135516607D01*
X148274063Y-135288881D01*
X148323399Y-135094057D01*
X148347886Y-135045670D01*
X148390684Y-135012360D01*
X148443604Y-135000500D01*
X148485721Y-135000500D01*
X148488862Y-135000539D01*
X148576363Y-135002757D01*
X148634432Y-134992348D01*
X148643736Y-134991043D01*
X148702438Y-134985074D01*
X148731467Y-134975965D01*
X148746700Y-134972226D01*
X148776653Y-134966858D01*
X148831426Y-134944978D01*
X148840301Y-134941819D01*
X148857675Y-134936367D01*
X148896588Y-134924159D01*
X148923194Y-134909390D01*
X148937362Y-134902662D01*
X148965617Y-134891377D01*
X149014879Y-134858909D01*
X149022910Y-134854043D01*
X149074502Y-134825409D01*
X149097587Y-134805589D01*
X149110114Y-134796144D01*
X149135519Y-134779402D01*
X149177251Y-134737668D01*
X149184123Y-134731300D01*
X149228895Y-134692866D01*
X149231113Y-134690000D01*
X151476633Y-134690000D01*
X151494619Y-134797792D01*
X151572780Y-135025460D01*
X151687348Y-135237164D01*
X151835201Y-135427126D01*
X152012292Y-135590151D01*
X152213819Y-135721815D01*
X152434255Y-135818506D01*
X152667606Y-135877599D01*
X152705000Y-135880697D01*
X152705000Y-134690000D01*
X153205000Y-134690000D01*
X153205000Y-135880697D01*
X153242393Y-135877599D01*
X153475744Y-135818506D01*
X153696180Y-135721815D01*
X153897707Y-135590151D01*
X154074798Y-135427126D01*
X154222651Y-135237164D01*
X154337219Y-135025460D01*
X154415380Y-134797792D01*
X154433367Y-134690000D01*
X153205000Y-134690000D01*
X152705000Y-134690000D01*
X151476633Y-134690000D01*
X149231113Y-134690000D01*
X149247519Y-134668803D01*
X149257880Y-134657039D01*
X150978101Y-132936819D01*
X151018330Y-132909939D01*
X151065783Y-132900500D01*
X151800606Y-132900500D01*
X151845681Y-132908983D01*
X151884588Y-132933269D01*
X152011990Y-133050551D01*
X152036387Y-133066490D01*
X152077619Y-133111280D01*
X152092564Y-133170297D01*
X152077619Y-133229314D01*
X152036387Y-133274106D01*
X152012294Y-133289846D01*
X151835201Y-133452873D01*
X151687348Y-133642835D01*
X151572780Y-133854539D01*
X151494619Y-134082207D01*
X151476633Y-134189999D01*
X151476634Y-134190000D01*
X154433366Y-134190000D01*
X154433366Y-134189999D01*
X154415380Y-134082207D01*
X154337219Y-133854539D01*
X154222651Y-133642835D01*
X154074798Y-133452873D01*
X153897704Y-133289846D01*
X153873614Y-133274107D01*
X153832380Y-133229315D01*
X153817435Y-133170297D01*
X153832381Y-133111279D01*
X153873612Y-133066490D01*
X153898010Y-133050551D01*
X154075171Y-132887463D01*
X154223072Y-132697439D01*
X154337679Y-132485664D01*
X154415866Y-132257913D01*
X154455500Y-132020399D01*
X154455500Y-131779601D01*
X154415866Y-131542087D01*
X154337679Y-131314336D01*
X154223072Y-131102561D01*
X154112165Y-130960067D01*
X154088312Y-130907641D01*
X154090720Y-130850091D01*
X154118870Y-130799838D01*
X154166685Y-130767726D01*
X154197331Y-130756296D01*
X154312546Y-130670046D01*
X154398796Y-130554831D01*
X154449091Y-130419983D01*
X154455500Y-130360373D01*
X154455499Y-128359628D01*
X154449091Y-128300017D01*
X154398796Y-128165169D01*
X154383329Y-128144508D01*
X154359859Y-128087846D01*
X154366415Y-128026866D01*
X154401394Y-127976486D01*
X154456239Y-127949033D01*
X154517532Y-127951222D01*
X154570278Y-127982518D01*
X154699681Y-128111921D01*
X154726561Y-128152149D01*
X154736000Y-128199602D01*
X154736000Y-132084906D01*
X154734939Y-132101092D01*
X154731133Y-132130000D01*
X154736000Y-132166967D01*
X154750517Y-132277234D01*
X154807347Y-132414433D01*
X154897749Y-132532249D01*
X154920883Y-132550000D01*
X154933079Y-132560696D01*
X155263181Y-132890798D01*
X155290061Y-132931026D01*
X155299500Y-132978479D01*
X155299500Y-133417869D01*
X155305909Y-133477483D01*
X155356204Y-133612331D01*
X155442454Y-133727546D01*
X155557669Y-133813796D01*
X155692517Y-133864091D01*
X155752127Y-133870500D01*
X158247872Y-133870499D01*
X158307483Y-133864091D01*
X158442331Y-133813796D01*
X158557546Y-133727546D01*
X158643796Y-133612331D01*
X158694091Y-133477483D01*
X158700500Y-133417873D01*
X158700499Y-132688828D01*
X158712578Y-132635446D01*
X158746463Y-132592463D01*
X158795551Y-132568255D01*
X158850280Y-132567539D01*
X159005352Y-132600500D01*
X159075500Y-132600500D01*
X159137500Y-132617113D01*
X159182887Y-132662500D01*
X159199500Y-132724500D01*
X159199500Y-133417869D01*
X159205909Y-133477483D01*
X159256204Y-133612331D01*
X159342454Y-133727546D01*
X159457669Y-133813796D01*
X159592517Y-133864091D01*
X159605312Y-133865466D01*
X159665102Y-133888552D01*
X159705378Y-133938409D01*
X159715380Y-134001717D01*
X159694540Y-134199999D01*
X159714326Y-134388257D01*
X159772820Y-134568284D01*
X159867466Y-134732216D01*
X159994129Y-134872889D01*
X160147269Y-134984151D01*
X160320197Y-135061144D01*
X160505352Y-135100500D01*
X160505354Y-135100500D01*
X160694646Y-135100500D01*
X160694648Y-135100500D01*
X160818084Y-135074262D01*
X160879803Y-135061144D01*
X161052730Y-134984151D01*
X161076533Y-134966857D01*
X161205870Y-134872889D01*
X161215631Y-134862049D01*
X161332533Y-134732216D01*
X161427179Y-134568284D01*
X161485674Y-134388256D01*
X161505460Y-134200000D01*
X161485674Y-134011744D01*
X161485672Y-134011740D01*
X161485223Y-134007461D01*
X161497094Y-133940141D01*
X161542834Y-133889341D01*
X161608544Y-133870499D01*
X162147870Y-133870499D01*
X162147872Y-133870499D01*
X162207483Y-133864091D01*
X162342331Y-133813796D01*
X162457546Y-133727546D01*
X162543796Y-133612331D01*
X162594091Y-133477483D01*
X162600500Y-133417873D01*
X162600499Y-132582128D01*
X162594091Y-132522517D01*
X162551502Y-132408332D01*
X162543685Y-132365000D01*
X162551502Y-132321668D01*
X162594091Y-132207483D01*
X162600500Y-132147873D01*
X162600499Y-131312128D01*
X162594091Y-131252517D01*
X162551502Y-131138332D01*
X162543685Y-131095000D01*
X162551502Y-131051668D01*
X162594091Y-130937483D01*
X162600500Y-130877873D01*
X162600499Y-130042128D01*
X162594091Y-129982517D01*
X162543796Y-129847669D01*
X162457546Y-129732454D01*
X162342331Y-129646204D01*
X162207483Y-129595909D01*
X162147873Y-129589500D01*
X162147869Y-129589500D01*
X159652130Y-129589500D01*
X159592514Y-129595909D01*
X159539557Y-129615661D01*
X159492388Y-129623420D01*
X159445789Y-129612758D01*
X159279802Y-129538855D01*
X159094648Y-129499500D01*
X159094646Y-129499500D01*
X158905354Y-129499500D01*
X158905352Y-129499500D01*
X158720197Y-129538855D01*
X158547271Y-129615847D01*
X158537914Y-129622646D01*
X158481800Y-129645187D01*
X158421698Y-129638508D01*
X158307485Y-129595909D01*
X158287612Y-129593772D01*
X158247873Y-129589500D01*
X158247869Y-129589500D01*
X157751500Y-129589500D01*
X157689500Y-129572887D01*
X157644113Y-129527500D01*
X157627500Y-129465500D01*
X157627500Y-127182966D01*
X157629770Y-127162399D01*
X157627561Y-127092095D01*
X157627500Y-127088200D01*
X157627500Y-127060525D01*
X157626993Y-127056513D01*
X157626076Y-127044861D01*
X157624700Y-127001057D01*
X157619082Y-126981723D01*
X157615139Y-126962682D01*
X157612616Y-126942707D01*
X157596480Y-126901953D01*
X157592697Y-126890904D01*
X157580468Y-126848809D01*
X157570222Y-126831485D01*
X157561661Y-126814009D01*
X157554253Y-126795297D01*
X157540811Y-126776796D01*
X157528485Y-126759832D01*
X157522074Y-126750070D01*
X157499763Y-126712344D01*
X157485530Y-126698111D01*
X157472893Y-126683316D01*
X157461063Y-126667033D01*
X157461060Y-126667031D01*
X157461060Y-126667030D01*
X157427287Y-126639090D01*
X157418647Y-126631228D01*
X155663819Y-124876400D01*
X155636939Y-124836172D01*
X155627500Y-124788719D01*
X155627500Y-118259135D01*
X155629027Y-118239736D01*
X155632174Y-118219867D01*
X155628049Y-118176238D01*
X155627500Y-118164570D01*
X155627500Y-106082966D01*
X155629770Y-106062398D01*
X155627561Y-105992081D01*
X155627500Y-105988187D01*
X155627500Y-105960525D01*
X155626994Y-105956521D01*
X155626077Y-105944869D01*
X155624701Y-105901057D01*
X155619083Y-105881722D01*
X155615138Y-105862679D01*
X155612616Y-105842707D01*
X155596481Y-105801955D01*
X155592698Y-105790907D01*
X155580468Y-105748809D01*
X155570222Y-105731485D01*
X155561661Y-105714009D01*
X155554253Y-105695297D01*
X155528489Y-105659837D01*
X155522074Y-105650070D01*
X155499763Y-105612344D01*
X155485530Y-105598111D01*
X155472893Y-105583316D01*
X155461063Y-105567033D01*
X155461060Y-105567031D01*
X155461060Y-105567030D01*
X155427287Y-105539090D01*
X155418647Y-105531228D01*
X154538628Y-104651209D01*
X154514388Y-104616911D01*
X154502989Y-104576494D01*
X154485674Y-104411744D01*
X154427179Y-104231716D01*
X154427179Y-104231715D01*
X154332533Y-104067783D01*
X154205870Y-103927110D01*
X154052730Y-103815848D01*
X153879802Y-103738855D01*
X153694648Y-103699500D01*
X153694646Y-103699500D01*
X153505354Y-103699500D01*
X153505352Y-103699500D01*
X153320197Y-103738855D01*
X153147269Y-103815848D01*
X152994129Y-103927110D01*
X152867466Y-104067783D01*
X152772820Y-104231715D01*
X152714326Y-104411742D01*
X152694540Y-104599999D01*
X152714326Y-104788257D01*
X152772820Y-104968284D01*
X152867466Y-105132216D01*
X152994129Y-105272889D01*
X153147269Y-105384151D01*
X153320197Y-105461144D01*
X153505352Y-105500500D01*
X153505354Y-105500500D01*
X153561719Y-105500500D01*
X153609172Y-105509939D01*
X153649400Y-105536819D01*
X154336181Y-106223600D01*
X154363061Y-106263828D01*
X154372500Y-106311281D01*
X154372500Y-117306070D01*
X154359950Y-117360428D01*
X154324841Y-117403784D01*
X154274282Y-117427359D01*
X154220197Y-117438856D01*
X154220196Y-117438856D01*
X154220193Y-117438857D01*
X154047269Y-117515848D01*
X153894129Y-117627110D01*
X153767466Y-117767783D01*
X153672820Y-117931715D01*
X153614326Y-118111742D01*
X153594540Y-118300000D01*
X153614326Y-118488257D01*
X153672820Y-118668284D01*
X153767466Y-118832216D01*
X153894129Y-118972889D01*
X154047269Y-119084151D01*
X154163168Y-119135752D01*
X154220197Y-119161144D01*
X154274282Y-119172640D01*
X154324841Y-119196216D01*
X154359950Y-119239572D01*
X154372500Y-119293930D01*
X154372500Y-125017034D01*
X154370229Y-125037601D01*
X154372439Y-125107919D01*
X154372500Y-125111813D01*
X154372500Y-125139476D01*
X154373006Y-125143484D01*
X154373921Y-125155118D01*
X154375298Y-125198943D01*
X154380916Y-125218278D01*
X154384861Y-125237328D01*
X154387383Y-125257293D01*
X154403519Y-125298049D01*
X154407302Y-125309098D01*
X154419530Y-125351187D01*
X154419531Y-125351189D01*
X154419532Y-125351191D01*
X154429779Y-125368517D01*
X154438338Y-125385989D01*
X154445747Y-125404705D01*
X154471511Y-125440165D01*
X154477925Y-125449929D01*
X154500237Y-125487656D01*
X154514475Y-125501894D01*
X154527107Y-125516685D01*
X154538937Y-125532967D01*
X154572705Y-125560902D01*
X154581346Y-125568765D01*
X156336181Y-127323600D01*
X156363061Y-127363828D01*
X156372500Y-127411281D01*
X156372500Y-129465501D01*
X156355887Y-129527501D01*
X156310500Y-129572888D01*
X156248500Y-129589501D01*
X155988000Y-129589501D01*
X155926000Y-129572888D01*
X155880613Y-129527501D01*
X155864000Y-129465501D01*
X155864000Y-127959718D01*
X155865061Y-127943532D01*
X155868867Y-127914623D01*
X155857230Y-127826236D01*
X155849483Y-127767390D01*
X155792653Y-127630191D01*
X155749870Y-127574435D01*
X155702250Y-127512374D01*
X155679104Y-127494613D01*
X155666912Y-127483920D01*
X149316072Y-121133079D01*
X149305376Y-121120883D01*
X149287625Y-121097749D01*
X149169809Y-121007347D01*
X149032610Y-120950517D01*
X149032609Y-120950516D01*
X148922344Y-120936000D01*
X148885376Y-120931133D01*
X148856465Y-120934939D01*
X148840282Y-120936000D01*
X138909122Y-120936000D01*
X138858686Y-120925280D01*
X138816972Y-120894972D01*
X138755869Y-120827110D01*
X138602730Y-120715848D01*
X138429802Y-120638855D01*
X138244648Y-120599500D01*
X138244646Y-120599500D01*
X138055354Y-120599500D01*
X138055352Y-120599500D01*
X137870197Y-120638855D01*
X137697269Y-120715848D01*
X137544129Y-120827110D01*
X137417466Y-120967783D01*
X137322820Y-121131715D01*
X137264326Y-121311742D01*
X137244540Y-121500000D01*
X126000500Y-121500000D01*
X126000500Y-119000000D01*
X139794540Y-119000000D01*
X139814326Y-119188257D01*
X139872820Y-119368284D01*
X139967466Y-119532216D01*
X140094129Y-119672889D01*
X140247269Y-119784151D01*
X140420197Y-119861144D01*
X140605352Y-119900500D01*
X140605354Y-119900500D01*
X140794646Y-119900500D01*
X140794648Y-119900500D01*
X140918084Y-119874262D01*
X140979803Y-119861144D01*
X141152730Y-119784151D01*
X141305871Y-119672888D01*
X141307848Y-119670691D01*
X141315327Y-119666018D01*
X141316415Y-119665228D01*
X141316470Y-119665304D01*
X141365820Y-119634466D01*
X141434180Y-119634466D01*
X141483529Y-119665304D01*
X141483585Y-119665228D01*
X141484672Y-119666018D01*
X141492152Y-119670692D01*
X141494131Y-119672890D01*
X141647269Y-119784151D01*
X141820197Y-119861144D01*
X142005352Y-119900500D01*
X142005354Y-119900500D01*
X142194646Y-119900500D01*
X142194648Y-119900500D01*
X142318084Y-119874262D01*
X142379803Y-119861144D01*
X142552730Y-119784151D01*
X142552729Y-119784151D01*
X142705870Y-119672889D01*
X142832533Y-119532216D01*
X142927179Y-119368284D01*
X142969000Y-119239572D01*
X142985674Y-119188256D01*
X143005460Y-119000000D01*
X143001385Y-118961230D01*
X143007818Y-118906878D01*
X143037023Y-118860591D01*
X143226920Y-118670694D01*
X143239110Y-118660005D01*
X143262250Y-118642250D01*
X143352653Y-118524433D01*
X143409483Y-118387234D01*
X143424000Y-118276968D01*
X143428867Y-118240000D01*
X143425060Y-118211089D01*
X143424000Y-118194906D01*
X143424000Y-99714230D01*
X143439671Y-99653891D01*
X143482722Y-99608803D01*
X143484674Y-99607594D01*
X143526041Y-99581981D01*
X143618019Y-99498131D01*
X143670761Y-99469655D01*
X143730703Y-99469246D01*
X143783833Y-99497001D01*
X143805263Y-99528250D01*
X143805520Y-99528058D01*
X143816203Y-99542328D01*
X143816204Y-99542331D01*
X143902454Y-99657546D01*
X144017669Y-99743796D01*
X144152517Y-99794091D01*
X144212127Y-99800500D01*
X145507872Y-99800499D01*
X145567483Y-99794091D01*
X145702331Y-99743796D01*
X145817546Y-99657546D01*
X145903796Y-99542331D01*
X145954091Y-99407483D01*
X145960500Y-99347873D01*
X145960499Y-98052128D01*
X145954091Y-97992517D01*
X145903796Y-97857669D01*
X145817546Y-97742454D01*
X145702331Y-97656204D01*
X145567483Y-97605909D01*
X145507873Y-97599500D01*
X145507869Y-97599500D01*
X144608479Y-97599500D01*
X144561026Y-97590061D01*
X144520798Y-97563181D01*
X144427196Y-97469579D01*
X144416500Y-97457383D01*
X144398749Y-97434249D01*
X144280933Y-97343847D01*
X144143734Y-97287017D01*
X144126621Y-97284764D01*
X144033468Y-97272500D01*
X143996500Y-97267633D01*
X143967589Y-97271439D01*
X143951406Y-97272500D01*
X142108601Y-97272500D01*
X142092415Y-97271439D01*
X142063500Y-97267632D01*
X142063499Y-97267632D01*
X141933373Y-97284764D01*
X141916266Y-97287016D01*
X141876081Y-97303661D01*
X141779068Y-97343845D01*
X141758538Y-97359598D01*
X141690832Y-97411551D01*
X141661250Y-97434250D01*
X141661249Y-97434251D01*
X141643493Y-97457390D01*
X141632801Y-97469580D01*
X141437560Y-97664820D01*
X141398213Y-97691331D01*
X141351789Y-97701124D01*
X141305086Y-97692766D01*
X141162320Y-97637460D01*
X140961928Y-97600000D01*
X140758072Y-97600000D01*
X140557679Y-97637459D01*
X140367589Y-97711100D01*
X140279310Y-97765758D01*
X140860000Y-98346447D01*
X141123181Y-98609628D01*
X141150061Y-98649856D01*
X141159500Y-98697309D01*
X141159500Y-98702691D01*
X141150061Y-98750144D01*
X141123181Y-98790372D01*
X140279310Y-99634240D01*
X140367588Y-99688899D01*
X140557679Y-99762540D01*
X140758072Y-99800000D01*
X140961928Y-99800000D01*
X141012715Y-99790506D01*
X141066670Y-99792377D01*
X141114717Y-99816997D01*
X141147747Y-99859702D01*
X141159500Y-99912395D01*
X141159500Y-117691521D01*
X141150061Y-117738974D01*
X141123181Y-117779202D01*
X140839201Y-118063181D01*
X140798973Y-118090061D01*
X140751520Y-118099500D01*
X140605352Y-118099500D01*
X140420197Y-118138855D01*
X140247269Y-118215848D01*
X140094129Y-118327110D01*
X139967466Y-118467783D01*
X139872820Y-118631715D01*
X139814326Y-118811742D01*
X139794540Y-119000000D01*
X126000500Y-119000000D01*
X126000500Y-98700000D01*
X137754785Y-98700000D01*
X137773602Y-98903083D01*
X137829418Y-99099251D01*
X137920324Y-99281818D01*
X138043236Y-99444580D01*
X138193958Y-99581981D01*
X138367361Y-99689347D01*
X138367363Y-99689348D01*
X138557544Y-99763024D01*
X138758024Y-99800500D01*
X138961974Y-99800500D01*
X138961976Y-99800500D01*
X139162456Y-99763024D01*
X139352637Y-99689348D01*
X139526041Y-99581981D01*
X139676764Y-99444579D01*
X139749796Y-99347869D01*
X139763797Y-99329329D01*
X139811365Y-99291203D01*
X139871353Y-99280354D01*
X139922533Y-99283912D01*
X140506447Y-98700001D01*
X140506447Y-98700000D01*
X139922533Y-98116085D01*
X139871368Y-98119648D01*
X139811374Y-98108802D01*
X139763800Y-98070675D01*
X139676763Y-97955419D01*
X139526041Y-97818018D01*
X139352638Y-97710652D01*
X139162457Y-97636976D01*
X139095629Y-97624483D01*
X138961976Y-97599500D01*
X138758024Y-97599500D01*
X138657784Y-97618237D01*
X138557542Y-97636976D01*
X138367361Y-97710652D01*
X138193958Y-97818018D01*
X138043236Y-97955419D01*
X137920324Y-98118181D01*
X137829418Y-98300748D01*
X137773602Y-98496916D01*
X137754785Y-98700000D01*
X126000500Y-98700000D01*
X126000500Y-85647869D01*
X152699500Y-85647869D01*
X152705909Y-85707484D01*
X152719745Y-85744579D01*
X152756204Y-85842331D01*
X152842454Y-85957546D01*
X152957669Y-86043796D01*
X153092517Y-86094091D01*
X153152127Y-86100500D01*
X154447872Y-86100499D01*
X154507483Y-86094091D01*
X154642331Y-86043796D01*
X154757546Y-85957546D01*
X154843796Y-85842331D01*
X154843796Y-85842328D01*
X154854480Y-85828058D01*
X154854736Y-85828250D01*
X154876161Y-85797006D01*
X154929292Y-85769247D01*
X154989236Y-85769655D01*
X155041983Y-85798134D01*
X155133958Y-85881981D01*
X155307361Y-85989347D01*
X155307363Y-85989348D01*
X155497544Y-86063024D01*
X155698024Y-86100500D01*
X155901974Y-86100500D01*
X155901976Y-86100500D01*
X156102456Y-86063024D01*
X156292637Y-85989348D01*
X156466041Y-85881981D01*
X156616764Y-85744579D01*
X156701044Y-85632972D01*
X156744728Y-85596698D01*
X156800000Y-85583698D01*
X156855272Y-85596698D01*
X156898954Y-85632972D01*
X156983234Y-85744578D01*
X157133958Y-85881981D01*
X157307361Y-85989347D01*
X157307363Y-85989348D01*
X157497544Y-86063024D01*
X157698024Y-86100500D01*
X157901974Y-86100500D01*
X157901976Y-86100500D01*
X158102456Y-86063024D01*
X158292637Y-85989348D01*
X158466041Y-85881981D01*
X158616764Y-85744579D01*
X158701044Y-85632972D01*
X158744728Y-85596698D01*
X158800000Y-85583698D01*
X158855272Y-85596698D01*
X158898954Y-85632972D01*
X158983234Y-85744578D01*
X159133958Y-85881981D01*
X159307361Y-85989347D01*
X159307363Y-85989348D01*
X159497544Y-86063024D01*
X159698024Y-86100500D01*
X159901974Y-86100500D01*
X159901976Y-86100500D01*
X160102456Y-86063024D01*
X160292637Y-85989348D01*
X160466041Y-85881981D01*
X160589257Y-85769655D01*
X160616763Y-85744580D01*
X160644777Y-85707484D01*
X160739673Y-85581821D01*
X160739673Y-85581819D01*
X160739675Y-85581818D01*
X160800000Y-85460667D01*
X160830582Y-85399250D01*
X160886397Y-85203083D01*
X160905215Y-85000000D01*
X160886397Y-84796917D01*
X160830582Y-84600750D01*
X160800000Y-84539332D01*
X160739675Y-84418181D01*
X160616763Y-84255419D01*
X160466041Y-84118018D01*
X160292638Y-84010652D01*
X160102457Y-83936976D01*
X160035629Y-83924483D01*
X159901976Y-83899500D01*
X159698024Y-83899500D01*
X159597784Y-83918237D01*
X159497542Y-83936976D01*
X159307361Y-84010652D01*
X159133958Y-84118018D01*
X158983236Y-84255419D01*
X158898954Y-84367028D01*
X158855271Y-84403301D01*
X158800000Y-84416301D01*
X158744729Y-84403301D01*
X158701046Y-84367028D01*
X158616763Y-84255419D01*
X158466041Y-84118018D01*
X158292638Y-84010652D01*
X158102457Y-83936976D01*
X158035629Y-83924483D01*
X157901976Y-83899500D01*
X157698024Y-83899500D01*
X157597784Y-83918237D01*
X157497542Y-83936976D01*
X157307361Y-84010652D01*
X157133958Y-84118018D01*
X156983236Y-84255419D01*
X156898954Y-84367028D01*
X156855271Y-84403301D01*
X156800000Y-84416301D01*
X156744729Y-84403301D01*
X156701046Y-84367028D01*
X156616763Y-84255419D01*
X156466041Y-84118018D01*
X156292638Y-84010652D01*
X156102457Y-83936976D01*
X156035629Y-83924483D01*
X155901976Y-83899500D01*
X155698024Y-83899500D01*
X155597784Y-83918237D01*
X155497542Y-83936976D01*
X155307361Y-84010652D01*
X155133958Y-84118019D01*
X155041983Y-84201865D01*
X154989236Y-84230344D01*
X154929293Y-84230753D01*
X154876163Y-84202995D01*
X154854736Y-84171749D01*
X154854480Y-84171942D01*
X154843796Y-84157671D01*
X154843796Y-84157669D01*
X154757546Y-84042454D01*
X154642331Y-83956204D01*
X154507483Y-83905909D01*
X154447873Y-83899500D01*
X154447869Y-83899500D01*
X153152130Y-83899500D01*
X153092515Y-83905909D01*
X152957669Y-83956204D01*
X152842454Y-84042454D01*
X152756204Y-84157668D01*
X152705909Y-84292516D01*
X152699500Y-84352130D01*
X152699500Y-85647869D01*
X126000500Y-85647869D01*
X126000500Y-83124500D01*
X126017113Y-83062500D01*
X126062500Y-83017113D01*
X126124500Y-83000500D01*
X162875500Y-83000500D01*
X162937500Y-83017113D01*
G37*
%TD.AperFunction*%
%TD*%
M02*
