%TF.GenerationSoftware,KiCad,Pcbnew,7.0.1*%
%TF.CreationDate,2024-02-27T21:29:27+01:00*%
%TF.ProjectId,PresenceDetection,50726573-656e-4636-9544-657465637469,rev?*%
%TF.SameCoordinates,Original*%
%TF.FileFunction,Legend,Top*%
%TF.FilePolarity,Positive*%
%FSLAX46Y46*%
G04 Gerber Fmt 4.6, Leading zero omitted, Abs format (unit mm)*
G04 Created by KiCad (PCBNEW 7.0.1) date 2024-02-27 21:29:27*
%MOMM*%
%LPD*%
G01*
G04 APERTURE LIST*
%ADD10C,0.150000*%
%ADD11C,0.254000*%
%ADD12C,0.120000*%
%ADD13C,0.100000*%
%ADD14C,0.200000*%
%ADD15C,0.250000*%
G04 APERTURE END LIST*
D10*
%TO.C,Q1*%
X157782857Y-131995238D02*
X157735238Y-132090476D01*
X157735238Y-132090476D02*
X157640000Y-132185714D01*
X157640000Y-132185714D02*
X157497142Y-132328571D01*
X157497142Y-132328571D02*
X157449523Y-132423809D01*
X157449523Y-132423809D02*
X157449523Y-132519047D01*
X157687619Y-132471428D02*
X157640000Y-132566666D01*
X157640000Y-132566666D02*
X157544761Y-132661904D01*
X157544761Y-132661904D02*
X157354285Y-132709523D01*
X157354285Y-132709523D02*
X157020952Y-132709523D01*
X157020952Y-132709523D02*
X156830476Y-132661904D01*
X156830476Y-132661904D02*
X156735238Y-132566666D01*
X156735238Y-132566666D02*
X156687619Y-132471428D01*
X156687619Y-132471428D02*
X156687619Y-132280952D01*
X156687619Y-132280952D02*
X156735238Y-132185714D01*
X156735238Y-132185714D02*
X156830476Y-132090476D01*
X156830476Y-132090476D02*
X157020952Y-132042857D01*
X157020952Y-132042857D02*
X157354285Y-132042857D01*
X157354285Y-132042857D02*
X157544761Y-132090476D01*
X157544761Y-132090476D02*
X157640000Y-132185714D01*
X157640000Y-132185714D02*
X157687619Y-132280952D01*
X157687619Y-132280952D02*
X157687619Y-132471428D01*
X157687619Y-131090476D02*
X157687619Y-131661904D01*
X157687619Y-131376190D02*
X156687619Y-131376190D01*
X156687619Y-131376190D02*
X156830476Y-131471428D01*
X156830476Y-131471428D02*
X156925714Y-131566666D01*
X156925714Y-131566666D02*
X156973333Y-131661904D01*
%TO.C,C5*%
X133308333Y-119517380D02*
X133260714Y-119565000D01*
X133260714Y-119565000D02*
X133117857Y-119612619D01*
X133117857Y-119612619D02*
X133022619Y-119612619D01*
X133022619Y-119612619D02*
X132879762Y-119565000D01*
X132879762Y-119565000D02*
X132784524Y-119469761D01*
X132784524Y-119469761D02*
X132736905Y-119374523D01*
X132736905Y-119374523D02*
X132689286Y-119184047D01*
X132689286Y-119184047D02*
X132689286Y-119041190D01*
X132689286Y-119041190D02*
X132736905Y-118850714D01*
X132736905Y-118850714D02*
X132784524Y-118755476D01*
X132784524Y-118755476D02*
X132879762Y-118660238D01*
X132879762Y-118660238D02*
X133022619Y-118612619D01*
X133022619Y-118612619D02*
X133117857Y-118612619D01*
X133117857Y-118612619D02*
X133260714Y-118660238D01*
X133260714Y-118660238D02*
X133308333Y-118707857D01*
X134213095Y-118612619D02*
X133736905Y-118612619D01*
X133736905Y-118612619D02*
X133689286Y-119088809D01*
X133689286Y-119088809D02*
X133736905Y-119041190D01*
X133736905Y-119041190D02*
X133832143Y-118993571D01*
X133832143Y-118993571D02*
X134070238Y-118993571D01*
X134070238Y-118993571D02*
X134165476Y-119041190D01*
X134165476Y-119041190D02*
X134213095Y-119088809D01*
X134213095Y-119088809D02*
X134260714Y-119184047D01*
X134260714Y-119184047D02*
X134260714Y-119422142D01*
X134260714Y-119422142D02*
X134213095Y-119517380D01*
X134213095Y-119517380D02*
X134165476Y-119565000D01*
X134165476Y-119565000D02*
X134070238Y-119612619D01*
X134070238Y-119612619D02*
X133832143Y-119612619D01*
X133832143Y-119612619D02*
X133736905Y-119565000D01*
X133736905Y-119565000D02*
X133689286Y-119517380D01*
D11*
%TO.C,L1*%
X130363333Y-112037526D02*
X129758571Y-112037526D01*
X129758571Y-112037526D02*
X129758571Y-110767526D01*
X131451905Y-112037526D02*
X130726190Y-112037526D01*
X131089047Y-112037526D02*
X131089047Y-110767526D01*
X131089047Y-110767526D02*
X130968095Y-110948954D01*
X130968095Y-110948954D02*
X130847143Y-111069907D01*
X130847143Y-111069907D02*
X130726190Y-111130383D01*
D10*
%TO.C,R4*%
X136992619Y-118491666D02*
X136516428Y-118824999D01*
X136992619Y-119063094D02*
X135992619Y-119063094D01*
X135992619Y-119063094D02*
X135992619Y-118682142D01*
X135992619Y-118682142D02*
X136040238Y-118586904D01*
X136040238Y-118586904D02*
X136087857Y-118539285D01*
X136087857Y-118539285D02*
X136183095Y-118491666D01*
X136183095Y-118491666D02*
X136325952Y-118491666D01*
X136325952Y-118491666D02*
X136421190Y-118539285D01*
X136421190Y-118539285D02*
X136468809Y-118586904D01*
X136468809Y-118586904D02*
X136516428Y-118682142D01*
X136516428Y-118682142D02*
X136516428Y-119063094D01*
X136325952Y-117634523D02*
X136992619Y-117634523D01*
X135945000Y-117872618D02*
X136659285Y-118110713D01*
X136659285Y-118110713D02*
X136659285Y-117491666D01*
%TO.C,C2*%
X156358333Y-98517380D02*
X156310714Y-98565000D01*
X156310714Y-98565000D02*
X156167857Y-98612619D01*
X156167857Y-98612619D02*
X156072619Y-98612619D01*
X156072619Y-98612619D02*
X155929762Y-98565000D01*
X155929762Y-98565000D02*
X155834524Y-98469761D01*
X155834524Y-98469761D02*
X155786905Y-98374523D01*
X155786905Y-98374523D02*
X155739286Y-98184047D01*
X155739286Y-98184047D02*
X155739286Y-98041190D01*
X155739286Y-98041190D02*
X155786905Y-97850714D01*
X155786905Y-97850714D02*
X155834524Y-97755476D01*
X155834524Y-97755476D02*
X155929762Y-97660238D01*
X155929762Y-97660238D02*
X156072619Y-97612619D01*
X156072619Y-97612619D02*
X156167857Y-97612619D01*
X156167857Y-97612619D02*
X156310714Y-97660238D01*
X156310714Y-97660238D02*
X156358333Y-97707857D01*
X156739286Y-97707857D02*
X156786905Y-97660238D01*
X156786905Y-97660238D02*
X156882143Y-97612619D01*
X156882143Y-97612619D02*
X157120238Y-97612619D01*
X157120238Y-97612619D02*
X157215476Y-97660238D01*
X157215476Y-97660238D02*
X157263095Y-97707857D01*
X157263095Y-97707857D02*
X157310714Y-97803095D01*
X157310714Y-97803095D02*
X157310714Y-97898333D01*
X157310714Y-97898333D02*
X157263095Y-98041190D01*
X157263095Y-98041190D02*
X156691667Y-98612619D01*
X156691667Y-98612619D02*
X157310714Y-98612619D01*
%TO.C,F1*%
X134106666Y-122498809D02*
X133773333Y-122498809D01*
X133773333Y-123022619D02*
X133773333Y-122022619D01*
X133773333Y-122022619D02*
X134249523Y-122022619D01*
X135154285Y-123022619D02*
X134582857Y-123022619D01*
X134868571Y-123022619D02*
X134868571Y-122022619D01*
X134868571Y-122022619D02*
X134773333Y-122165476D01*
X134773333Y-122165476D02*
X134678095Y-122260714D01*
X134678095Y-122260714D02*
X134582857Y-122308333D01*
%TO.C,C1*%
X143883333Y-122687380D02*
X143835714Y-122735000D01*
X143835714Y-122735000D02*
X143692857Y-122782619D01*
X143692857Y-122782619D02*
X143597619Y-122782619D01*
X143597619Y-122782619D02*
X143454762Y-122735000D01*
X143454762Y-122735000D02*
X143359524Y-122639761D01*
X143359524Y-122639761D02*
X143311905Y-122544523D01*
X143311905Y-122544523D02*
X143264286Y-122354047D01*
X143264286Y-122354047D02*
X143264286Y-122211190D01*
X143264286Y-122211190D02*
X143311905Y-122020714D01*
X143311905Y-122020714D02*
X143359524Y-121925476D01*
X143359524Y-121925476D02*
X143454762Y-121830238D01*
X143454762Y-121830238D02*
X143597619Y-121782619D01*
X143597619Y-121782619D02*
X143692857Y-121782619D01*
X143692857Y-121782619D02*
X143835714Y-121830238D01*
X143835714Y-121830238D02*
X143883333Y-121877857D01*
X144835714Y-122782619D02*
X144264286Y-122782619D01*
X144550000Y-122782619D02*
X144550000Y-121782619D01*
X144550000Y-121782619D02*
X144454762Y-121925476D01*
X144454762Y-121925476D02*
X144359524Y-122020714D01*
X144359524Y-122020714D02*
X144264286Y-122068333D01*
%TO.C,R8*%
X136992619Y-112491666D02*
X136516428Y-112824999D01*
X136992619Y-113063094D02*
X135992619Y-113063094D01*
X135992619Y-113063094D02*
X135992619Y-112682142D01*
X135992619Y-112682142D02*
X136040238Y-112586904D01*
X136040238Y-112586904D02*
X136087857Y-112539285D01*
X136087857Y-112539285D02*
X136183095Y-112491666D01*
X136183095Y-112491666D02*
X136325952Y-112491666D01*
X136325952Y-112491666D02*
X136421190Y-112539285D01*
X136421190Y-112539285D02*
X136468809Y-112586904D01*
X136468809Y-112586904D02*
X136516428Y-112682142D01*
X136516428Y-112682142D02*
X136516428Y-113063094D01*
X136421190Y-111920237D02*
X136373571Y-112015475D01*
X136373571Y-112015475D02*
X136325952Y-112063094D01*
X136325952Y-112063094D02*
X136230714Y-112110713D01*
X136230714Y-112110713D02*
X136183095Y-112110713D01*
X136183095Y-112110713D02*
X136087857Y-112063094D01*
X136087857Y-112063094D02*
X136040238Y-112015475D01*
X136040238Y-112015475D02*
X135992619Y-111920237D01*
X135992619Y-111920237D02*
X135992619Y-111729761D01*
X135992619Y-111729761D02*
X136040238Y-111634523D01*
X136040238Y-111634523D02*
X136087857Y-111586904D01*
X136087857Y-111586904D02*
X136183095Y-111539285D01*
X136183095Y-111539285D02*
X136230714Y-111539285D01*
X136230714Y-111539285D02*
X136325952Y-111586904D01*
X136325952Y-111586904D02*
X136373571Y-111634523D01*
X136373571Y-111634523D02*
X136421190Y-111729761D01*
X136421190Y-111729761D02*
X136421190Y-111920237D01*
X136421190Y-111920237D02*
X136468809Y-112015475D01*
X136468809Y-112015475D02*
X136516428Y-112063094D01*
X136516428Y-112063094D02*
X136611666Y-112110713D01*
X136611666Y-112110713D02*
X136802142Y-112110713D01*
X136802142Y-112110713D02*
X136897380Y-112063094D01*
X136897380Y-112063094D02*
X136945000Y-112015475D01*
X136945000Y-112015475D02*
X136992619Y-111920237D01*
X136992619Y-111920237D02*
X136992619Y-111729761D01*
X136992619Y-111729761D02*
X136945000Y-111634523D01*
X136945000Y-111634523D02*
X136897380Y-111586904D01*
X136897380Y-111586904D02*
X136802142Y-111539285D01*
X136802142Y-111539285D02*
X136611666Y-111539285D01*
X136611666Y-111539285D02*
X136516428Y-111586904D01*
X136516428Y-111586904D02*
X136468809Y-111634523D01*
X136468809Y-111634523D02*
X136421190Y-111729761D01*
D11*
%TO.C,IC1*%
X133537526Y-117939762D02*
X132267526Y-117939762D01*
X133416573Y-116609285D02*
X133477050Y-116669761D01*
X133477050Y-116669761D02*
X133537526Y-116851190D01*
X133537526Y-116851190D02*
X133537526Y-116972142D01*
X133537526Y-116972142D02*
X133477050Y-117153571D01*
X133477050Y-117153571D02*
X133356097Y-117274523D01*
X133356097Y-117274523D02*
X133235145Y-117335000D01*
X133235145Y-117335000D02*
X132993240Y-117395476D01*
X132993240Y-117395476D02*
X132811811Y-117395476D01*
X132811811Y-117395476D02*
X132569907Y-117335000D01*
X132569907Y-117335000D02*
X132448954Y-117274523D01*
X132448954Y-117274523D02*
X132328002Y-117153571D01*
X132328002Y-117153571D02*
X132267526Y-116972142D01*
X132267526Y-116972142D02*
X132267526Y-116851190D01*
X132267526Y-116851190D02*
X132328002Y-116669761D01*
X132328002Y-116669761D02*
X132388478Y-116609285D01*
X133537526Y-115399761D02*
X133537526Y-116125476D01*
X133537526Y-115762619D02*
X132267526Y-115762619D01*
X132267526Y-115762619D02*
X132448954Y-115883571D01*
X132448954Y-115883571D02*
X132569907Y-116004523D01*
X132569907Y-116004523D02*
X132630383Y-116125476D01*
D10*
%TO.C,R3*%
X152508333Y-100132619D02*
X152175000Y-99656428D01*
X151936905Y-100132619D02*
X151936905Y-99132619D01*
X151936905Y-99132619D02*
X152317857Y-99132619D01*
X152317857Y-99132619D02*
X152413095Y-99180238D01*
X152413095Y-99180238D02*
X152460714Y-99227857D01*
X152460714Y-99227857D02*
X152508333Y-99323095D01*
X152508333Y-99323095D02*
X152508333Y-99465952D01*
X152508333Y-99465952D02*
X152460714Y-99561190D01*
X152460714Y-99561190D02*
X152413095Y-99608809D01*
X152413095Y-99608809D02*
X152317857Y-99656428D01*
X152317857Y-99656428D02*
X151936905Y-99656428D01*
X152841667Y-99132619D02*
X153460714Y-99132619D01*
X153460714Y-99132619D02*
X153127381Y-99513571D01*
X153127381Y-99513571D02*
X153270238Y-99513571D01*
X153270238Y-99513571D02*
X153365476Y-99561190D01*
X153365476Y-99561190D02*
X153413095Y-99608809D01*
X153413095Y-99608809D02*
X153460714Y-99704047D01*
X153460714Y-99704047D02*
X153460714Y-99942142D01*
X153460714Y-99942142D02*
X153413095Y-100037380D01*
X153413095Y-100037380D02*
X153365476Y-100085000D01*
X153365476Y-100085000D02*
X153270238Y-100132619D01*
X153270238Y-100132619D02*
X152984524Y-100132619D01*
X152984524Y-100132619D02*
X152889286Y-100085000D01*
X152889286Y-100085000D02*
X152841667Y-100037380D01*
%TO.C,J1*%
X139016666Y-127462619D02*
X139016666Y-128176904D01*
X139016666Y-128176904D02*
X138969047Y-128319761D01*
X138969047Y-128319761D02*
X138873809Y-128415000D01*
X138873809Y-128415000D02*
X138730952Y-128462619D01*
X138730952Y-128462619D02*
X138635714Y-128462619D01*
X140016666Y-128462619D02*
X139445238Y-128462619D01*
X139730952Y-128462619D02*
X139730952Y-127462619D01*
X139730952Y-127462619D02*
X139635714Y-127605476D01*
X139635714Y-127605476D02*
X139540476Y-127700714D01*
X139540476Y-127700714D02*
X139445238Y-127748333D01*
%TO.C,R6*%
X132458333Y-118132619D02*
X132125000Y-117656428D01*
X131886905Y-118132619D02*
X131886905Y-117132619D01*
X131886905Y-117132619D02*
X132267857Y-117132619D01*
X132267857Y-117132619D02*
X132363095Y-117180238D01*
X132363095Y-117180238D02*
X132410714Y-117227857D01*
X132410714Y-117227857D02*
X132458333Y-117323095D01*
X132458333Y-117323095D02*
X132458333Y-117465952D01*
X132458333Y-117465952D02*
X132410714Y-117561190D01*
X132410714Y-117561190D02*
X132363095Y-117608809D01*
X132363095Y-117608809D02*
X132267857Y-117656428D01*
X132267857Y-117656428D02*
X131886905Y-117656428D01*
X133315476Y-117132619D02*
X133125000Y-117132619D01*
X133125000Y-117132619D02*
X133029762Y-117180238D01*
X133029762Y-117180238D02*
X132982143Y-117227857D01*
X132982143Y-117227857D02*
X132886905Y-117370714D01*
X132886905Y-117370714D02*
X132839286Y-117561190D01*
X132839286Y-117561190D02*
X132839286Y-117942142D01*
X132839286Y-117942142D02*
X132886905Y-118037380D01*
X132886905Y-118037380D02*
X132934524Y-118085000D01*
X132934524Y-118085000D02*
X133029762Y-118132619D01*
X133029762Y-118132619D02*
X133220238Y-118132619D01*
X133220238Y-118132619D02*
X133315476Y-118085000D01*
X133315476Y-118085000D02*
X133363095Y-118037380D01*
X133363095Y-118037380D02*
X133410714Y-117942142D01*
X133410714Y-117942142D02*
X133410714Y-117704047D01*
X133410714Y-117704047D02*
X133363095Y-117608809D01*
X133363095Y-117608809D02*
X133315476Y-117561190D01*
X133315476Y-117561190D02*
X133220238Y-117513571D01*
X133220238Y-117513571D02*
X133029762Y-117513571D01*
X133029762Y-117513571D02*
X132934524Y-117561190D01*
X132934524Y-117561190D02*
X132886905Y-117608809D01*
X132886905Y-117608809D02*
X132839286Y-117704047D01*
%TO.C,R10*%
X143444642Y-128112619D02*
X143111309Y-127636428D01*
X142873214Y-128112619D02*
X142873214Y-127112619D01*
X142873214Y-127112619D02*
X143254166Y-127112619D01*
X143254166Y-127112619D02*
X143349404Y-127160238D01*
X143349404Y-127160238D02*
X143397023Y-127207857D01*
X143397023Y-127207857D02*
X143444642Y-127303095D01*
X143444642Y-127303095D02*
X143444642Y-127445952D01*
X143444642Y-127445952D02*
X143397023Y-127541190D01*
X143397023Y-127541190D02*
X143349404Y-127588809D01*
X143349404Y-127588809D02*
X143254166Y-127636428D01*
X143254166Y-127636428D02*
X142873214Y-127636428D01*
X144397023Y-128112619D02*
X143825595Y-128112619D01*
X144111309Y-128112619D02*
X144111309Y-127112619D01*
X144111309Y-127112619D02*
X144016071Y-127255476D01*
X144016071Y-127255476D02*
X143920833Y-127350714D01*
X143920833Y-127350714D02*
X143825595Y-127398333D01*
X145016071Y-127112619D02*
X145111309Y-127112619D01*
X145111309Y-127112619D02*
X145206547Y-127160238D01*
X145206547Y-127160238D02*
X145254166Y-127207857D01*
X145254166Y-127207857D02*
X145301785Y-127303095D01*
X145301785Y-127303095D02*
X145349404Y-127493571D01*
X145349404Y-127493571D02*
X145349404Y-127731666D01*
X145349404Y-127731666D02*
X145301785Y-127922142D01*
X145301785Y-127922142D02*
X145254166Y-128017380D01*
X145254166Y-128017380D02*
X145206547Y-128065000D01*
X145206547Y-128065000D02*
X145111309Y-128112619D01*
X145111309Y-128112619D02*
X145016071Y-128112619D01*
X145016071Y-128112619D02*
X144920833Y-128065000D01*
X144920833Y-128065000D02*
X144873214Y-128017380D01*
X144873214Y-128017380D02*
X144825595Y-127922142D01*
X144825595Y-127922142D02*
X144777976Y-127731666D01*
X144777976Y-127731666D02*
X144777976Y-127493571D01*
X144777976Y-127493571D02*
X144825595Y-127303095D01*
X144825595Y-127303095D02*
X144873214Y-127207857D01*
X144873214Y-127207857D02*
X144920833Y-127160238D01*
X144920833Y-127160238D02*
X145016071Y-127112619D01*
%TO.C,R1*%
X146508333Y-100132619D02*
X146175000Y-99656428D01*
X145936905Y-100132619D02*
X145936905Y-99132619D01*
X145936905Y-99132619D02*
X146317857Y-99132619D01*
X146317857Y-99132619D02*
X146413095Y-99180238D01*
X146413095Y-99180238D02*
X146460714Y-99227857D01*
X146460714Y-99227857D02*
X146508333Y-99323095D01*
X146508333Y-99323095D02*
X146508333Y-99465952D01*
X146508333Y-99465952D02*
X146460714Y-99561190D01*
X146460714Y-99561190D02*
X146413095Y-99608809D01*
X146413095Y-99608809D02*
X146317857Y-99656428D01*
X146317857Y-99656428D02*
X145936905Y-99656428D01*
X147460714Y-100132619D02*
X146889286Y-100132619D01*
X147175000Y-100132619D02*
X147175000Y-99132619D01*
X147175000Y-99132619D02*
X147079762Y-99275476D01*
X147079762Y-99275476D02*
X146984524Y-99370714D01*
X146984524Y-99370714D02*
X146889286Y-99418333D01*
%TO.C,C6*%
X130917380Y-119091666D02*
X130965000Y-119139285D01*
X130965000Y-119139285D02*
X131012619Y-119282142D01*
X131012619Y-119282142D02*
X131012619Y-119377380D01*
X131012619Y-119377380D02*
X130965000Y-119520237D01*
X130965000Y-119520237D02*
X130869761Y-119615475D01*
X130869761Y-119615475D02*
X130774523Y-119663094D01*
X130774523Y-119663094D02*
X130584047Y-119710713D01*
X130584047Y-119710713D02*
X130441190Y-119710713D01*
X130441190Y-119710713D02*
X130250714Y-119663094D01*
X130250714Y-119663094D02*
X130155476Y-119615475D01*
X130155476Y-119615475D02*
X130060238Y-119520237D01*
X130060238Y-119520237D02*
X130012619Y-119377380D01*
X130012619Y-119377380D02*
X130012619Y-119282142D01*
X130012619Y-119282142D02*
X130060238Y-119139285D01*
X130060238Y-119139285D02*
X130107857Y-119091666D01*
X130012619Y-118234523D02*
X130012619Y-118424999D01*
X130012619Y-118424999D02*
X130060238Y-118520237D01*
X130060238Y-118520237D02*
X130107857Y-118567856D01*
X130107857Y-118567856D02*
X130250714Y-118663094D01*
X130250714Y-118663094D02*
X130441190Y-118710713D01*
X130441190Y-118710713D02*
X130822142Y-118710713D01*
X130822142Y-118710713D02*
X130917380Y-118663094D01*
X130917380Y-118663094D02*
X130965000Y-118615475D01*
X130965000Y-118615475D02*
X131012619Y-118520237D01*
X131012619Y-118520237D02*
X131012619Y-118329761D01*
X131012619Y-118329761D02*
X130965000Y-118234523D01*
X130965000Y-118234523D02*
X130917380Y-118186904D01*
X130917380Y-118186904D02*
X130822142Y-118139285D01*
X130822142Y-118139285D02*
X130584047Y-118139285D01*
X130584047Y-118139285D02*
X130488809Y-118186904D01*
X130488809Y-118186904D02*
X130441190Y-118234523D01*
X130441190Y-118234523D02*
X130393571Y-118329761D01*
X130393571Y-118329761D02*
X130393571Y-118520237D01*
X130393571Y-118520237D02*
X130441190Y-118615475D01*
X130441190Y-118615475D02*
X130488809Y-118663094D01*
X130488809Y-118663094D02*
X130584047Y-118710713D01*
%TO.C,C7*%
X131858333Y-109017380D02*
X131810714Y-109065000D01*
X131810714Y-109065000D02*
X131667857Y-109112619D01*
X131667857Y-109112619D02*
X131572619Y-109112619D01*
X131572619Y-109112619D02*
X131429762Y-109065000D01*
X131429762Y-109065000D02*
X131334524Y-108969761D01*
X131334524Y-108969761D02*
X131286905Y-108874523D01*
X131286905Y-108874523D02*
X131239286Y-108684047D01*
X131239286Y-108684047D02*
X131239286Y-108541190D01*
X131239286Y-108541190D02*
X131286905Y-108350714D01*
X131286905Y-108350714D02*
X131334524Y-108255476D01*
X131334524Y-108255476D02*
X131429762Y-108160238D01*
X131429762Y-108160238D02*
X131572619Y-108112619D01*
X131572619Y-108112619D02*
X131667857Y-108112619D01*
X131667857Y-108112619D02*
X131810714Y-108160238D01*
X131810714Y-108160238D02*
X131858333Y-108207857D01*
X132191667Y-108112619D02*
X132858333Y-108112619D01*
X132858333Y-108112619D02*
X132429762Y-109112619D01*
%TO.C,R2*%
X143508333Y-102992619D02*
X143175000Y-102516428D01*
X142936905Y-102992619D02*
X142936905Y-101992619D01*
X142936905Y-101992619D02*
X143317857Y-101992619D01*
X143317857Y-101992619D02*
X143413095Y-102040238D01*
X143413095Y-102040238D02*
X143460714Y-102087857D01*
X143460714Y-102087857D02*
X143508333Y-102183095D01*
X143508333Y-102183095D02*
X143508333Y-102325952D01*
X143508333Y-102325952D02*
X143460714Y-102421190D01*
X143460714Y-102421190D02*
X143413095Y-102468809D01*
X143413095Y-102468809D02*
X143317857Y-102516428D01*
X143317857Y-102516428D02*
X142936905Y-102516428D01*
X143889286Y-102087857D02*
X143936905Y-102040238D01*
X143936905Y-102040238D02*
X144032143Y-101992619D01*
X144032143Y-101992619D02*
X144270238Y-101992619D01*
X144270238Y-101992619D02*
X144365476Y-102040238D01*
X144365476Y-102040238D02*
X144413095Y-102087857D01*
X144413095Y-102087857D02*
X144460714Y-102183095D01*
X144460714Y-102183095D02*
X144460714Y-102278333D01*
X144460714Y-102278333D02*
X144413095Y-102421190D01*
X144413095Y-102421190D02*
X143841667Y-102992619D01*
X143841667Y-102992619D02*
X144460714Y-102992619D01*
%TO.C,J2*%
X130966666Y-98962619D02*
X130966666Y-99676904D01*
X130966666Y-99676904D02*
X130919047Y-99819761D01*
X130919047Y-99819761D02*
X130823809Y-99915000D01*
X130823809Y-99915000D02*
X130680952Y-99962619D01*
X130680952Y-99962619D02*
X130585714Y-99962619D01*
X131395238Y-99057857D02*
X131442857Y-99010238D01*
X131442857Y-99010238D02*
X131538095Y-98962619D01*
X131538095Y-98962619D02*
X131776190Y-98962619D01*
X131776190Y-98962619D02*
X131871428Y-99010238D01*
X131871428Y-99010238D02*
X131919047Y-99057857D01*
X131919047Y-99057857D02*
X131966666Y-99153095D01*
X131966666Y-99153095D02*
X131966666Y-99248333D01*
X131966666Y-99248333D02*
X131919047Y-99391190D01*
X131919047Y-99391190D02*
X131347619Y-99962619D01*
X131347619Y-99962619D02*
X131966666Y-99962619D01*
%TO.C,R7*%
X132592619Y-116841666D02*
X132116428Y-117174999D01*
X132592619Y-117413094D02*
X131592619Y-117413094D01*
X131592619Y-117413094D02*
X131592619Y-117032142D01*
X131592619Y-117032142D02*
X131640238Y-116936904D01*
X131640238Y-116936904D02*
X131687857Y-116889285D01*
X131687857Y-116889285D02*
X131783095Y-116841666D01*
X131783095Y-116841666D02*
X131925952Y-116841666D01*
X131925952Y-116841666D02*
X132021190Y-116889285D01*
X132021190Y-116889285D02*
X132068809Y-116936904D01*
X132068809Y-116936904D02*
X132116428Y-117032142D01*
X132116428Y-117032142D02*
X132116428Y-117413094D01*
X131592619Y-116508332D02*
X131592619Y-115841666D01*
X131592619Y-115841666D02*
X132592619Y-116270237D01*
%TO.C,R5*%
X138808333Y-121332619D02*
X138475000Y-120856428D01*
X138236905Y-121332619D02*
X138236905Y-120332619D01*
X138236905Y-120332619D02*
X138617857Y-120332619D01*
X138617857Y-120332619D02*
X138713095Y-120380238D01*
X138713095Y-120380238D02*
X138760714Y-120427857D01*
X138760714Y-120427857D02*
X138808333Y-120523095D01*
X138808333Y-120523095D02*
X138808333Y-120665952D01*
X138808333Y-120665952D02*
X138760714Y-120761190D01*
X138760714Y-120761190D02*
X138713095Y-120808809D01*
X138713095Y-120808809D02*
X138617857Y-120856428D01*
X138617857Y-120856428D02*
X138236905Y-120856428D01*
X139713095Y-120332619D02*
X139236905Y-120332619D01*
X139236905Y-120332619D02*
X139189286Y-120808809D01*
X139189286Y-120808809D02*
X139236905Y-120761190D01*
X139236905Y-120761190D02*
X139332143Y-120713571D01*
X139332143Y-120713571D02*
X139570238Y-120713571D01*
X139570238Y-120713571D02*
X139665476Y-120761190D01*
X139665476Y-120761190D02*
X139713095Y-120808809D01*
X139713095Y-120808809D02*
X139760714Y-120904047D01*
X139760714Y-120904047D02*
X139760714Y-121142142D01*
X139760714Y-121142142D02*
X139713095Y-121237380D01*
X139713095Y-121237380D02*
X139665476Y-121285000D01*
X139665476Y-121285000D02*
X139570238Y-121332619D01*
X139570238Y-121332619D02*
X139332143Y-121332619D01*
X139332143Y-121332619D02*
X139236905Y-121285000D01*
X139236905Y-121285000D02*
X139189286Y-121237380D01*
%TO.C,U2*%
X162932619Y-112411904D02*
X163742142Y-112411904D01*
X163742142Y-112411904D02*
X163837380Y-112364285D01*
X163837380Y-112364285D02*
X163885000Y-112316666D01*
X163885000Y-112316666D02*
X163932619Y-112221428D01*
X163932619Y-112221428D02*
X163932619Y-112030952D01*
X163932619Y-112030952D02*
X163885000Y-111935714D01*
X163885000Y-111935714D02*
X163837380Y-111888095D01*
X163837380Y-111888095D02*
X163742142Y-111840476D01*
X163742142Y-111840476D02*
X162932619Y-111840476D01*
X163027857Y-111411904D02*
X162980238Y-111364285D01*
X162980238Y-111364285D02*
X162932619Y-111269047D01*
X162932619Y-111269047D02*
X162932619Y-111030952D01*
X162932619Y-111030952D02*
X162980238Y-110935714D01*
X162980238Y-110935714D02*
X163027857Y-110888095D01*
X163027857Y-110888095D02*
X163123095Y-110840476D01*
X163123095Y-110840476D02*
X163218333Y-110840476D01*
X163218333Y-110840476D02*
X163361190Y-110888095D01*
X163361190Y-110888095D02*
X163932619Y-111459523D01*
X163932619Y-111459523D02*
X163932619Y-110840476D01*
X159346904Y-116411905D02*
X159346904Y-115935715D01*
X159632619Y-116507143D02*
X158632619Y-116173810D01*
X158632619Y-116173810D02*
X159632619Y-115840477D01*
X158965952Y-115507143D02*
X159632619Y-115507143D01*
X159061190Y-115507143D02*
X159013571Y-115459524D01*
X159013571Y-115459524D02*
X158965952Y-115364286D01*
X158965952Y-115364286D02*
X158965952Y-115221429D01*
X158965952Y-115221429D02*
X159013571Y-115126191D01*
X159013571Y-115126191D02*
X159108809Y-115078572D01*
X159108809Y-115078572D02*
X159632619Y-115078572D01*
X158965952Y-114745238D02*
X158965952Y-114364286D01*
X158632619Y-114602381D02*
X159489761Y-114602381D01*
X159489761Y-114602381D02*
X159585000Y-114554762D01*
X159585000Y-114554762D02*
X159632619Y-114459524D01*
X159632619Y-114459524D02*
X159632619Y-114364286D01*
X159585000Y-113650000D02*
X159632619Y-113745238D01*
X159632619Y-113745238D02*
X159632619Y-113935714D01*
X159632619Y-113935714D02*
X159585000Y-114030952D01*
X159585000Y-114030952D02*
X159489761Y-114078571D01*
X159489761Y-114078571D02*
X159108809Y-114078571D01*
X159108809Y-114078571D02*
X159013571Y-114030952D01*
X159013571Y-114030952D02*
X158965952Y-113935714D01*
X158965952Y-113935714D02*
X158965952Y-113745238D01*
X158965952Y-113745238D02*
X159013571Y-113650000D01*
X159013571Y-113650000D02*
X159108809Y-113602381D01*
X159108809Y-113602381D02*
X159204047Y-113602381D01*
X159204047Y-113602381D02*
X159299285Y-114078571D01*
X158965952Y-113173809D02*
X159632619Y-113173809D01*
X159061190Y-113173809D02*
X159013571Y-113126190D01*
X159013571Y-113126190D02*
X158965952Y-113030952D01*
X158965952Y-113030952D02*
X158965952Y-112888095D01*
X158965952Y-112888095D02*
X159013571Y-112792857D01*
X159013571Y-112792857D02*
X159108809Y-112745238D01*
X159108809Y-112745238D02*
X159632619Y-112745238D01*
X158965952Y-112269047D02*
X159632619Y-112269047D01*
X159061190Y-112269047D02*
X159013571Y-112221428D01*
X159013571Y-112221428D02*
X158965952Y-112126190D01*
X158965952Y-112126190D02*
X158965952Y-111983333D01*
X158965952Y-111983333D02*
X159013571Y-111888095D01*
X159013571Y-111888095D02*
X159108809Y-111840476D01*
X159108809Y-111840476D02*
X159632619Y-111840476D01*
X159632619Y-110935714D02*
X159108809Y-110935714D01*
X159108809Y-110935714D02*
X159013571Y-110983333D01*
X159013571Y-110983333D02*
X158965952Y-111078571D01*
X158965952Y-111078571D02*
X158965952Y-111269047D01*
X158965952Y-111269047D02*
X159013571Y-111364285D01*
X159585000Y-110935714D02*
X159632619Y-111030952D01*
X159632619Y-111030952D02*
X159632619Y-111269047D01*
X159632619Y-111269047D02*
X159585000Y-111364285D01*
X159585000Y-111364285D02*
X159489761Y-111411904D01*
X159489761Y-111411904D02*
X159394523Y-111411904D01*
X159394523Y-111411904D02*
X159299285Y-111364285D01*
X159299285Y-111364285D02*
X159251666Y-111269047D01*
X159251666Y-111269047D02*
X159251666Y-111030952D01*
X159251666Y-111030952D02*
X159204047Y-110935714D01*
X159346904Y-109745237D02*
X159346904Y-109269047D01*
X159632619Y-109840475D02*
X158632619Y-109507142D01*
X158632619Y-109507142D02*
X159632619Y-109173809D01*
X159632619Y-108840475D02*
X158965952Y-108840475D01*
X159156428Y-108840475D02*
X159061190Y-108792856D01*
X159061190Y-108792856D02*
X159013571Y-108745237D01*
X159013571Y-108745237D02*
X158965952Y-108649999D01*
X158965952Y-108649999D02*
X158965952Y-108554761D01*
X159585000Y-107840475D02*
X159632619Y-107935713D01*
X159632619Y-107935713D02*
X159632619Y-108126189D01*
X159632619Y-108126189D02*
X159585000Y-108221427D01*
X159585000Y-108221427D02*
X159489761Y-108269046D01*
X159489761Y-108269046D02*
X159108809Y-108269046D01*
X159108809Y-108269046D02*
X159013571Y-108221427D01*
X159013571Y-108221427D02*
X158965952Y-108126189D01*
X158965952Y-108126189D02*
X158965952Y-107935713D01*
X158965952Y-107935713D02*
X159013571Y-107840475D01*
X159013571Y-107840475D02*
X159108809Y-107792856D01*
X159108809Y-107792856D02*
X159204047Y-107792856D01*
X159204047Y-107792856D02*
X159299285Y-108269046D01*
X159632619Y-106935713D02*
X159108809Y-106935713D01*
X159108809Y-106935713D02*
X159013571Y-106983332D01*
X159013571Y-106983332D02*
X158965952Y-107078570D01*
X158965952Y-107078570D02*
X158965952Y-107269046D01*
X158965952Y-107269046D02*
X159013571Y-107364284D01*
X159585000Y-106935713D02*
X159632619Y-107030951D01*
X159632619Y-107030951D02*
X159632619Y-107269046D01*
X159632619Y-107269046D02*
X159585000Y-107364284D01*
X159585000Y-107364284D02*
X159489761Y-107411903D01*
X159489761Y-107411903D02*
X159394523Y-107411903D01*
X159394523Y-107411903D02*
X159299285Y-107364284D01*
X159299285Y-107364284D02*
X159251666Y-107269046D01*
X159251666Y-107269046D02*
X159251666Y-107030951D01*
X159251666Y-107030951D02*
X159204047Y-106935713D01*
%TO.C,R9*%
X136992619Y-115491666D02*
X136516428Y-115824999D01*
X136992619Y-116063094D02*
X135992619Y-116063094D01*
X135992619Y-116063094D02*
X135992619Y-115682142D01*
X135992619Y-115682142D02*
X136040238Y-115586904D01*
X136040238Y-115586904D02*
X136087857Y-115539285D01*
X136087857Y-115539285D02*
X136183095Y-115491666D01*
X136183095Y-115491666D02*
X136325952Y-115491666D01*
X136325952Y-115491666D02*
X136421190Y-115539285D01*
X136421190Y-115539285D02*
X136468809Y-115586904D01*
X136468809Y-115586904D02*
X136516428Y-115682142D01*
X136516428Y-115682142D02*
X136516428Y-116063094D01*
X136992619Y-115015475D02*
X136992619Y-114824999D01*
X136992619Y-114824999D02*
X136945000Y-114729761D01*
X136945000Y-114729761D02*
X136897380Y-114682142D01*
X136897380Y-114682142D02*
X136754523Y-114586904D01*
X136754523Y-114586904D02*
X136564047Y-114539285D01*
X136564047Y-114539285D02*
X136183095Y-114539285D01*
X136183095Y-114539285D02*
X136087857Y-114586904D01*
X136087857Y-114586904D02*
X136040238Y-114634523D01*
X136040238Y-114634523D02*
X135992619Y-114729761D01*
X135992619Y-114729761D02*
X135992619Y-114920237D01*
X135992619Y-114920237D02*
X136040238Y-115015475D01*
X136040238Y-115015475D02*
X136087857Y-115063094D01*
X136087857Y-115063094D02*
X136183095Y-115110713D01*
X136183095Y-115110713D02*
X136421190Y-115110713D01*
X136421190Y-115110713D02*
X136516428Y-115063094D01*
X136516428Y-115063094D02*
X136564047Y-115015475D01*
X136564047Y-115015475D02*
X136611666Y-114920237D01*
X136611666Y-114920237D02*
X136611666Y-114729761D01*
X136611666Y-114729761D02*
X136564047Y-114634523D01*
X136564047Y-114634523D02*
X136516428Y-114586904D01*
X136516428Y-114586904D02*
X136421190Y-114539285D01*
D12*
%TO.C,Q1*%
X156225000Y-126780000D02*
X156225000Y-137020000D01*
X156225000Y-130050000D02*
X154715000Y-130050000D01*
X156225000Y-133751000D02*
X154715000Y-133751000D01*
X156225000Y-126780000D02*
X151584000Y-126780000D01*
X151584000Y-126780000D02*
X151584000Y-137020000D01*
X156225000Y-137020000D02*
X151584000Y-137020000D01*
X154715000Y-126780000D02*
X154715000Y-137020000D01*
%TO.C,C5*%
X132763748Y-120090000D02*
X134186252Y-120090000D01*
X132763748Y-121910000D02*
X134186252Y-121910000D01*
D13*
%TO.C,L1*%
X130075000Y-108950000D02*
X130075000Y-108950000D01*
X130075000Y-108950000D02*
X131075000Y-108950000D01*
X130075000Y-113950000D02*
X130075000Y-113950000D01*
X130075000Y-113950000D02*
X131075000Y-113950000D01*
X131075000Y-108950000D02*
X130075000Y-108950000D01*
X131075000Y-108950000D02*
X131075000Y-108950000D01*
X131075000Y-113950000D02*
X130075000Y-113950000D01*
X131075000Y-113950000D02*
X131075000Y-113950000D01*
D12*
%TO.C,R4*%
X135622500Y-118087742D02*
X135622500Y-118562258D01*
X134577500Y-118087742D02*
X134577500Y-118562258D01*
%TO.C,C2*%
X155813748Y-99090000D02*
X157236252Y-99090000D01*
X155813748Y-100910000D02*
X157236252Y-100910000D01*
%TO.C,F1*%
X128550000Y-123500000D02*
X128550000Y-128600000D01*
X128550000Y-123500000D02*
X140350000Y-123500000D01*
X128550000Y-128600000D02*
X140350000Y-128600000D01*
X140350000Y-123500000D02*
X140350000Y-128600000D01*
%TO.C,C1*%
X143788748Y-123265000D02*
X144311252Y-123265000D01*
X143788748Y-124735000D02*
X144311252Y-124735000D01*
%TO.C,R8*%
X135610000Y-112184420D02*
X135610000Y-112465580D01*
X134590000Y-112184420D02*
X134590000Y-112465580D01*
D14*
%TO.C,IC1*%
X131950000Y-116875000D02*
X131950000Y-116525000D01*
X133950000Y-116875000D02*
X131950000Y-116875000D01*
X131950000Y-116525000D02*
X133950000Y-116525000D01*
X133950000Y-116525000D02*
X133950000Y-116875000D01*
D15*
X131675000Y-118075000D02*
G75*
G03*
X131675000Y-118075000I-125000J0D01*
G01*
D12*
%TO.C,R3*%
X152437742Y-100577500D02*
X152912258Y-100577500D01*
X152437742Y-101622500D02*
X152912258Y-101622500D01*
%TO.C,J1*%
X128240000Y-129090000D02*
X128240000Y-137910000D01*
X128240000Y-129900000D02*
X130740000Y-129900000D01*
X128240000Y-137910000D02*
X150460000Y-137910000D01*
X129150000Y-130900000D02*
X149550000Y-130900000D01*
X129150000Y-136200000D02*
X129150000Y-130900000D01*
X129850000Y-136200000D02*
X129150000Y-136200000D01*
X130850000Y-129090000D02*
X132850000Y-129090000D01*
X130850000Y-130900000D02*
X130850000Y-129090000D01*
X131550000Y-128290000D02*
X132150000Y-128290000D01*
X131850000Y-128890000D02*
X131550000Y-128290000D01*
X132150000Y-128290000D02*
X131850000Y-128890000D01*
X132850000Y-129090000D02*
X132850000Y-130900000D01*
X132850000Y-129900000D02*
X135850000Y-129900000D01*
X132850000Y-130900000D02*
X130850000Y-130900000D01*
X133850000Y-136200000D02*
X134850000Y-136200000D01*
X135850000Y-129090000D02*
X137850000Y-129090000D01*
X135850000Y-130900000D02*
X135850000Y-129090000D01*
X137850000Y-129090000D02*
X137850000Y-130900000D01*
X137850000Y-129900000D02*
X140850000Y-129900000D01*
X137850000Y-130900000D02*
X135850000Y-130900000D01*
X138850000Y-136200000D02*
X139850000Y-136200000D01*
X140850000Y-129090000D02*
X142850000Y-129090000D01*
X140850000Y-130900000D02*
X140850000Y-129090000D01*
X142850000Y-129090000D02*
X142850000Y-130900000D01*
X142850000Y-129900000D02*
X145850000Y-129900000D01*
X142850000Y-130900000D02*
X140850000Y-130900000D01*
X143850000Y-136200000D02*
X144850000Y-136200000D01*
X145850000Y-129090000D02*
X147850000Y-129090000D01*
X145850000Y-130900000D02*
X145850000Y-129090000D01*
X147850000Y-129090000D02*
X147850000Y-130900000D01*
X147850000Y-130900000D02*
X145850000Y-130900000D01*
X149550000Y-130900000D02*
X149550000Y-136200000D01*
X149550000Y-136200000D02*
X148850000Y-136200000D01*
X150460000Y-129090000D02*
X128240000Y-129090000D01*
X150460000Y-129900000D02*
X147960000Y-129900000D01*
X150460000Y-137910000D02*
X150460000Y-129090000D01*
X129850000Y-136200000D02*
G75*
G03*
X133836842Y-136215821I2000000J1650000D01*
G01*
X134850000Y-136200000D02*
G75*
G03*
X138836842Y-136215821I2000000J1650000D01*
G01*
X139850000Y-136200000D02*
G75*
G03*
X143836842Y-136215821I2000000J1650000D01*
G01*
X144850000Y-136200000D02*
G75*
G03*
X148836842Y-136215821I2000000J1650000D01*
G01*
%TO.C,R6*%
X132484420Y-118590000D02*
X132765580Y-118590000D01*
X132484420Y-119610000D02*
X132765580Y-119610000D01*
%TO.C,R10*%
X144314564Y-126735000D02*
X143860436Y-126735000D01*
X144314564Y-125265000D02*
X143860436Y-125265000D01*
%TO.C,R1*%
X146437742Y-100577500D02*
X146912258Y-100577500D01*
X146437742Y-101622500D02*
X146912258Y-101622500D01*
%TO.C,C6*%
X129610000Y-118213748D02*
X129610000Y-119636252D01*
X127790000Y-118213748D02*
X127790000Y-119636252D01*
%TO.C,C7*%
X132736252Y-107710000D02*
X131313748Y-107710000D01*
X132736252Y-105890000D02*
X131313748Y-105890000D01*
%TO.C,R2*%
X143912258Y-101622500D02*
X143437742Y-101622500D01*
X143912258Y-100577500D02*
X143437742Y-100577500D01*
%TO.C,J2*%
X131300000Y-100000000D02*
X162300000Y-100000000D01*
X162300000Y-100000000D02*
X162300000Y-83750000D01*
X162300000Y-83750000D02*
X131300000Y-83750000D01*
X131300000Y-83750000D02*
X131300000Y-100000000D01*
%TO.C,R7*%
X131210000Y-116534420D02*
X131210000Y-116815580D01*
X130190000Y-116534420D02*
X130190000Y-116815580D01*
%TO.C,R5*%
X138737742Y-121777500D02*
X139212258Y-121777500D01*
X138737742Y-122822500D02*
X139212258Y-122822500D01*
%TO.C,U2*%
X162170000Y-102650000D02*
X155420000Y-102650000D01*
X162170000Y-102650000D02*
X162170000Y-120650000D01*
X137420000Y-102650000D02*
X136670000Y-102650000D01*
X136670000Y-102650000D02*
X136670000Y-103400000D01*
X136670000Y-103400000D02*
X136670000Y-105150000D01*
X136670000Y-119900000D02*
X136670000Y-118150000D01*
X162170000Y-120650000D02*
X155420000Y-120650000D01*
X156230000Y-120650000D02*
X156230000Y-102650000D01*
X137420000Y-120650000D02*
X136670000Y-120650000D01*
X136670000Y-120650000D02*
X136670000Y-119900000D01*
%TO.C,R9*%
X135610000Y-115184420D02*
X135610000Y-115465580D01*
X134590000Y-115184420D02*
X134590000Y-115465580D01*
%TD*%
M02*
