M48
; DRILL file {KiCad 7.0.1} date Tue Feb 27 21:29:31 2024
; FORMAT={-:-/ absolute / inch / decimal}
; #@! TF.CreationDate,2024-02-27T21:29:31+01:00
; #@! TF.GenerationSoftware,Kicad,Pcbnew,7.0.1
; #@! TF.FileFunction,Plated,1,2,PTH
FMAT,2
INCH
; #@! TA.AperFunction,Plated,PTH,ViaDrill
T1C0.0157
; #@! TA.AperFunction,Plated,PTH,ComponentDrill
T2C0.0236
; #@! TA.AperFunction,Plated,PTH,ComponentDrill
T3C0.0398
; #@! TA.AperFunction,Plated,PTH,ComponentDrill
T4C0.0433
; #@! TA.AperFunction,Plated,PTH,ComponentDrill
T5C0.0551
%
G90
G05
T1
X5.1181Y-4.0945
X5.1575Y-4.0945
X5.1969Y-4.0945
X5.2661Y-4.5222
X5.315Y-5.1575
X5.3376Y-4.5499
X5.3543Y-5.1575
X5.3937Y-5.1575
X5.4331Y-5.1575
X5.439Y-4.7835
X5.4724Y-4.1732
X5.4724Y-4.2126
X5.5394Y-4.685
X5.5945Y-4.685
X6.0472Y-4.1181
X6.0827Y-4.6575
X6.2598Y-5.1339
X6.2638Y-5.185
X6.3228Y-5.2835
T2
X5.4669Y-3.8858
X5.5457Y-3.8858
X5.6244Y-3.8858
X5.7031Y-3.8858
X6.0551Y-3.3465
X6.1339Y-3.3465
X6.2126Y-3.3465
X6.2913Y-3.3465
T3
X5.1929Y-4.9252
X5.3937Y-5.0
T4
X6.0219Y-5.0929
X6.0219Y-5.1929
X6.0219Y-5.2929
T5
X5.1909Y-5.2756
X5.3878Y-5.2756
X5.5846Y-5.2756
X5.7815Y-5.2756
T0
M30
