M48
; DRILL file {KiCad 8.0.1} date 2024-03-26T18:20:11+0100
; FORMAT={-:-/ absolute / inch / decimal}
; #@! TF.CreationDate,2024-03-26T18:20:11+01:00
; #@! TF.GenerationSoftware,Kicad,Pcbnew,8.0.1
; #@! TF.FileFunction,Plated,1,2,PTH
FMAT,2
INCH
; #@! TA.AperFunction,Plated,PTH,ViaDrill
T1C0.0157
; #@! TA.AperFunction,Plated,PTH,ComponentDrill
T2C0.0276
; #@! TA.AperFunction,Plated,PTH,ComponentDrill
T3C0.0315
; #@! TA.AperFunction,Plated,PTH,ComponentDrill
T4C0.0394
; #@! TA.AperFunction,Plated,PTH,ComponentDrill
T5C0.0472
; #@! TA.AperFunction,Plated,PTH,ComponentDrill
T6C0.0551
%
G90
G05
T1
X4.7244Y-2.0079
X4.7244Y-2.0472
X4.7244Y-2.0866
X4.7244Y-2.126
X4.7244Y-2.1654
X4.7244Y-2.2047
X4.7244Y-2.2441
X4.8425Y-2.0472
X4.8819Y-1.5354
X4.9213Y-1.5354
X4.9606Y-1.5354
X5.0Y-1.5354
X5.0394Y-1.5354
X5.0787Y-1.5354
X5.1181Y-1.5354
X5.2362Y-1.5748
X5.2362Y-2.5591
X5.2362Y-2.5984
X5.2362Y-2.6378
X5.2362Y-2.6772
X5.2756Y-2.5591
X5.2756Y-2.5984
X5.2756Y-2.6378
X5.2756Y-2.6772
X5.4331Y-2.5591
X5.4331Y-2.5984
X5.4331Y-2.6378
X5.4724Y-2.5984
X5.4724Y-2.6378
X5.4724Y-2.6772
X5.5118Y-2.6378
X5.5118Y-2.6772
X5.6299Y-1.5354
X5.6693Y-1.5354
X5.7087Y-1.5354
X5.748Y-1.5354
X5.748Y-2.5591
X5.7874Y-1.5354
X5.7874Y-2.5591
X5.82Y-1.9224
X5.8268Y-1.5354
X5.8268Y-2.5591
X5.8661Y-1.5354
X5.8661Y-2.5591
X5.9055Y-1.5354
X5.9055Y-2.5591
X5.9449Y-1.5354
X5.9449Y-2.5591
X5.9843Y-2.5591
X6.0236Y-2.5591
X6.063Y-1.6929
X6.063Y-1.8898
X6.1024Y-1.6535
X6.1024Y-1.8504
X6.1024Y-1.8898
X6.1417Y-1.6535
X6.1417Y-1.8898
X6.1811Y-1.6535
X6.1811Y-1.8256
X6.1811Y-2.0079
X6.2205Y-1.6535
X6.2697Y-2.2933
X6.2697Y-2.4016
X6.3091Y-2.2933
X6.3091Y-2.4016
X6.378Y-2.3327
X6.4075Y-2.0965
X6.4075Y-2.1358
X6.4469Y-2.0965
X6.4469Y-2.1358
X6.6339Y-2.5984
X6.6339Y-2.6378
X6.7323Y-2.1555
X6.7323Y-2.1949
X6.7323Y-2.2343
X6.7323Y-2.2736
X6.7323Y-2.8346
X6.9685Y-1.5256
X6.9685Y-1.565
X7.0079Y-1.5256
X7.0079Y-1.565
X7.0079Y-1.6043
T2
X4.7705Y-2.7953
X4.9705Y-2.7953
X5.2724Y-1.9882
X5.2724Y-2.0866
X5.4724Y-1.9882
X5.4724Y-2.0866
X6.0827Y-1.9685
X6.0894Y-2.1063
X6.0894Y-2.1949
X6.2827Y-1.9685
X6.2894Y-2.1063
X6.2894Y-2.1949
X6.4173Y-2.5197
X6.4535Y-2.874
X6.4535Y-2.9724
X6.4535Y-3.0709
X6.6173Y-2.5197
X6.6535Y-2.874
X6.6535Y-2.9724
X6.6535Y-3.0709
T3
X4.7736Y-2.9134
X4.9705Y-2.9134
X4.9954Y-2.1031
X4.9954Y-2.3
X5.2559Y-2.3228
X5.4528Y-2.3228
X5.5906Y-2.0047
X5.5906Y-2.4047
X5.7087Y-2.1457
X5.7087Y-2.3425
X5.8268Y-2.0047
X5.8268Y-2.4047
X5.9449Y-2.1457
X5.9449Y-2.3425
X6.1811Y-2.307
X6.1811Y-2.5038
X6.3583Y-2.889
X6.3583Y-3.189
X6.4205Y-2.4213
X6.4567Y-3.2677
X6.4961Y-2.0276
X6.4961Y-2.2244
X6.6173Y-2.4213
X6.6535Y-3.2677
X6.752Y-3.2677
X6.8504Y-1.9685
X6.8504Y-2.1654
X6.9488Y-3.2677
X6.9685Y-1.9685
X6.9685Y-2.1654
T4
X4.75Y-1.88
X4.8Y-1.68
X4.85Y-1.88
X4.9Y-1.68
X4.95Y-1.88
X5.0Y-1.68
X5.05Y-1.88
X5.1Y-1.68
X5.15Y-1.88
X5.2Y-1.68
X5.25Y-1.88
X5.3Y-1.68
X5.35Y-1.88
X5.4Y-1.68
X5.45Y-1.88
X6.25Y-1.88
X6.3Y-1.68
X6.35Y-1.88
X6.4Y-1.68
X6.45Y-1.88
X6.5Y-1.68
X6.55Y-1.88
X6.6Y-1.68
X6.65Y-1.88
X6.7Y-1.68
X6.75Y-1.88
X6.8Y-1.68
X6.85Y-1.88
X6.9Y-1.68
X6.95Y-1.88
T5
X4.8228Y-3.0654
X4.9213Y-3.0654
X5.1969Y-2.7953
X5.3937Y-2.7953
X5.7087Y-2.7953
X5.9055Y-2.7953
X6.1008Y-3.0638
X6.1992Y-3.0638
T6
X5.315Y-3.3
X5.5118Y-3.3
X5.7087Y-3.3
X5.7677Y-1.7323
X5.9646Y-1.7323
M30
