%TF.GenerationSoftware,KiCad,Pcbnew,8.0.1*%
%TF.CreationDate,2024-03-26T18:20:10+01:00*%
%TF.ProjectId,TDA7294V,54444137-3239-4345-962e-6b696361645f,rev?*%
%TF.SameCoordinates,Original*%
%TF.FileFunction,Drillmap*%
%TF.FilePolarity,Positive*%
%FSLAX45Y45*%
G04 Gerber Fmt 4.5, Leading zero omitted, Abs format (unit mm)*
G04 Created by KiCad (PCBNEW 8.0.1) date 2024-03-26 18:20:10*
%MOMM*%
%LPD*%
G01*
G04 APERTURE LIST*
%ADD10C,0.100000*%
%ADD11C,0.200000*%
%ADD12C,0.120000*%
%ADD13C,0.140000*%
G04 APERTURE END LIST*
D10*
X17900000Y-8800000D02*
X17900000Y-3800000D01*
X11800000Y-3800000D02*
X11800000Y-8800000D01*
X17900000Y-3800000D02*
X11800000Y-3800000D01*
X11800000Y-8800000D02*
X17900000Y-8800000D01*
D11*
D10*
X11980000Y-5080000D02*
X12020000Y-5120000D01*
X12020000Y-5080000D02*
X11980000Y-5120000D01*
X11980000Y-5180000D02*
X12020000Y-5220000D01*
X12020000Y-5180000D02*
X11980000Y-5220000D01*
X11980000Y-5280000D02*
X12020000Y-5320000D01*
X12020000Y-5280000D02*
X11980000Y-5320000D01*
X11980000Y-5380000D02*
X12020000Y-5420000D01*
X12020000Y-5380000D02*
X11980000Y-5420000D01*
X11980000Y-5480000D02*
X12020000Y-5520000D01*
X12020000Y-5480000D02*
X11980000Y-5520000D01*
X11980000Y-5580000D02*
X12020000Y-5620000D01*
X12020000Y-5580000D02*
X11980000Y-5620000D01*
X11980000Y-5680000D02*
X12020000Y-5720000D01*
X12020000Y-5680000D02*
X11980000Y-5720000D01*
X12280000Y-5180000D02*
X12320000Y-5220000D01*
X12320000Y-5180000D02*
X12280000Y-5220000D01*
X12380000Y-3880000D02*
X12420000Y-3920000D01*
X12420000Y-3880000D02*
X12380000Y-3920000D01*
X12480000Y-3880000D02*
X12520000Y-3920000D01*
X12520000Y-3880000D02*
X12480000Y-3920000D01*
X12580000Y-3880000D02*
X12620000Y-3920000D01*
X12620000Y-3880000D02*
X12580000Y-3920000D01*
X12680000Y-3880000D02*
X12720000Y-3920000D01*
X12720000Y-3880000D02*
X12680000Y-3920000D01*
X12780000Y-3880000D02*
X12820000Y-3920000D01*
X12820000Y-3880000D02*
X12780000Y-3920000D01*
X12880000Y-3880000D02*
X12920000Y-3920000D01*
X12920000Y-3880000D02*
X12880000Y-3920000D01*
X12980000Y-3880000D02*
X13020000Y-3920000D01*
X13020000Y-3880000D02*
X12980000Y-3920000D01*
X13280000Y-3980000D02*
X13320000Y-4020000D01*
X13320000Y-3980000D02*
X13280000Y-4020000D01*
X13280000Y-6480000D02*
X13320000Y-6520000D01*
X13320000Y-6480000D02*
X13280000Y-6520000D01*
X13280000Y-6580000D02*
X13320000Y-6620000D01*
X13320000Y-6580000D02*
X13280000Y-6620000D01*
X13280000Y-6680000D02*
X13320000Y-6720000D01*
X13320000Y-6680000D02*
X13280000Y-6720000D01*
X13280000Y-6780000D02*
X13320000Y-6820000D01*
X13320000Y-6780000D02*
X13280000Y-6820000D01*
X13380000Y-6480000D02*
X13420000Y-6520000D01*
X13420000Y-6480000D02*
X13380000Y-6520000D01*
X13380000Y-6580000D02*
X13420000Y-6620000D01*
X13420000Y-6580000D02*
X13380000Y-6620000D01*
X13380000Y-6680000D02*
X13420000Y-6720000D01*
X13420000Y-6680000D02*
X13380000Y-6720000D01*
X13380000Y-6780000D02*
X13420000Y-6820000D01*
X13420000Y-6780000D02*
X13380000Y-6820000D01*
X13780000Y-6480000D02*
X13820000Y-6520000D01*
X13820000Y-6480000D02*
X13780000Y-6520000D01*
X13780000Y-6580000D02*
X13820000Y-6620000D01*
X13820000Y-6580000D02*
X13780000Y-6620000D01*
X13780000Y-6680000D02*
X13820000Y-6720000D01*
X13820000Y-6680000D02*
X13780000Y-6720000D01*
X13880000Y-6580000D02*
X13920000Y-6620000D01*
X13920000Y-6580000D02*
X13880000Y-6620000D01*
X13880000Y-6680000D02*
X13920000Y-6720000D01*
X13920000Y-6680000D02*
X13880000Y-6720000D01*
X13880000Y-6780000D02*
X13920000Y-6820000D01*
X13920000Y-6780000D02*
X13880000Y-6820000D01*
X13980000Y-6680000D02*
X14020000Y-6720000D01*
X14020000Y-6680000D02*
X13980000Y-6720000D01*
X13980000Y-6780000D02*
X14020000Y-6820000D01*
X14020000Y-6780000D02*
X13980000Y-6820000D01*
X14280000Y-3880000D02*
X14320000Y-3920000D01*
X14320000Y-3880000D02*
X14280000Y-3920000D01*
X14380000Y-3880000D02*
X14420000Y-3920000D01*
X14420000Y-3880000D02*
X14380000Y-3920000D01*
X14480000Y-3880000D02*
X14520000Y-3920000D01*
X14520000Y-3880000D02*
X14480000Y-3920000D01*
X14580000Y-3880000D02*
X14620000Y-3920000D01*
X14620000Y-3880000D02*
X14580000Y-3920000D01*
X14580000Y-6480000D02*
X14620000Y-6520000D01*
X14620000Y-6480000D02*
X14580000Y-6520000D01*
X14680000Y-3880000D02*
X14720000Y-3920000D01*
X14720000Y-3880000D02*
X14680000Y-3920000D01*
X14680000Y-6480000D02*
X14720000Y-6520000D01*
X14720000Y-6480000D02*
X14680000Y-6520000D01*
X14762898Y-4862898D02*
X14802898Y-4902898D01*
X14802898Y-4862898D02*
X14762898Y-4902898D01*
X14780000Y-3880000D02*
X14820000Y-3920000D01*
X14820000Y-3880000D02*
X14780000Y-3920000D01*
X14780000Y-6480000D02*
X14820000Y-6520000D01*
X14820000Y-6480000D02*
X14780000Y-6520000D01*
X14880000Y-3880000D02*
X14920000Y-3920000D01*
X14920000Y-3880000D02*
X14880000Y-3920000D01*
X14880000Y-6480000D02*
X14920000Y-6520000D01*
X14920000Y-6480000D02*
X14880000Y-6520000D01*
X14980000Y-3880000D02*
X15020000Y-3920000D01*
X15020000Y-3880000D02*
X14980000Y-3920000D01*
X14980000Y-6480000D02*
X15020000Y-6520000D01*
X15020000Y-6480000D02*
X14980000Y-6520000D01*
X15080000Y-3880000D02*
X15120000Y-3920000D01*
X15120000Y-3880000D02*
X15080000Y-3920000D01*
X15080000Y-6480000D02*
X15120000Y-6520000D01*
X15120000Y-6480000D02*
X15080000Y-6520000D01*
X15180000Y-6480000D02*
X15220000Y-6520000D01*
X15220000Y-6480000D02*
X15180000Y-6520000D01*
X15280000Y-6480000D02*
X15320000Y-6520000D01*
X15320000Y-6480000D02*
X15280000Y-6520000D01*
X15380000Y-4280000D02*
X15420000Y-4320000D01*
X15420000Y-4280000D02*
X15380000Y-4320000D01*
X15380000Y-4780000D02*
X15420000Y-4820000D01*
X15420000Y-4780000D02*
X15380000Y-4820000D01*
X15480000Y-4180000D02*
X15520000Y-4220000D01*
X15520000Y-4180000D02*
X15480000Y-4220000D01*
X15480000Y-4680000D02*
X15520000Y-4720000D01*
X15520000Y-4680000D02*
X15480000Y-4720000D01*
X15480000Y-4780000D02*
X15520000Y-4820000D01*
X15520000Y-4780000D02*
X15480000Y-4820000D01*
X15580000Y-4180000D02*
X15620000Y-4220000D01*
X15620000Y-4180000D02*
X15580000Y-4220000D01*
X15580000Y-4780000D02*
X15620000Y-4820000D01*
X15620000Y-4780000D02*
X15580000Y-4820000D01*
X15680000Y-4180000D02*
X15720000Y-4220000D01*
X15720000Y-4180000D02*
X15680000Y-4220000D01*
X15680000Y-4617150D02*
X15720000Y-4657150D01*
X15720000Y-4617150D02*
X15680000Y-4657150D01*
X15680000Y-5080000D02*
X15720000Y-5120000D01*
X15720000Y-5080000D02*
X15680000Y-5120000D01*
X15780000Y-4180000D02*
X15820000Y-4220000D01*
X15820000Y-4180000D02*
X15780000Y-4220000D01*
X15905000Y-5805000D02*
X15945000Y-5845000D01*
X15945000Y-5805000D02*
X15905000Y-5845000D01*
X15905000Y-6080000D02*
X15945000Y-6120000D01*
X15945000Y-6080000D02*
X15905000Y-6120000D01*
X16005000Y-5805000D02*
X16045000Y-5845000D01*
X16045000Y-5805000D02*
X16005000Y-5845000D01*
X16005000Y-6080000D02*
X16045000Y-6120000D01*
X16045000Y-6080000D02*
X16005000Y-6120000D01*
X16180000Y-5905000D02*
X16220000Y-5945000D01*
X16220000Y-5905000D02*
X16180000Y-5945000D01*
X16255000Y-5305000D02*
X16295000Y-5345000D01*
X16295000Y-5305000D02*
X16255000Y-5345000D01*
X16255000Y-5405000D02*
X16295000Y-5445000D01*
X16295000Y-5405000D02*
X16255000Y-5445000D01*
X16355000Y-5305000D02*
X16395000Y-5345000D01*
X16395000Y-5305000D02*
X16355000Y-5345000D01*
X16355000Y-5405000D02*
X16395000Y-5445000D01*
X16395000Y-5405000D02*
X16355000Y-5445000D01*
X16830000Y-6580000D02*
X16870000Y-6620000D01*
X16870000Y-6580000D02*
X16830000Y-6620000D01*
X16830000Y-6680000D02*
X16870000Y-6720000D01*
X16870000Y-6680000D02*
X16830000Y-6720000D01*
X17080000Y-5455000D02*
X17120000Y-5495000D01*
X17120000Y-5455000D02*
X17080000Y-5495000D01*
X17080000Y-5555000D02*
X17120000Y-5595000D01*
X17120000Y-5555000D02*
X17080000Y-5595000D01*
X17080000Y-5655000D02*
X17120000Y-5695000D01*
X17120000Y-5655000D02*
X17080000Y-5695000D01*
X17080000Y-5755000D02*
X17120000Y-5795000D01*
X17120000Y-5755000D02*
X17080000Y-5795000D01*
X17080000Y-7180000D02*
X17120000Y-7220000D01*
X17120000Y-7180000D02*
X17080000Y-7220000D01*
X17680000Y-3855000D02*
X17720000Y-3895000D01*
X17720000Y-3855000D02*
X17680000Y-3895000D01*
X17680000Y-3955000D02*
X17720000Y-3995000D01*
X17720000Y-3955000D02*
X17680000Y-3995000D01*
X17780000Y-3855000D02*
X17820000Y-3895000D01*
X17820000Y-3855000D02*
X17780000Y-3895000D01*
X17780000Y-3955000D02*
X17820000Y-3995000D01*
X17820000Y-3955000D02*
X17780000Y-3995000D01*
X17780000Y-4055000D02*
X17820000Y-4095000D01*
X17820000Y-4055000D02*
X17780000Y-4095000D01*
X12152000Y-7100000D02*
G75*
G02*
X12082000Y-7100000I-35000J0D01*
G01*
X12082000Y-7100000D02*
G75*
G02*
X12152000Y-7100000I35000J0D01*
G01*
X12660000Y-7100000D02*
G75*
G02*
X12590000Y-7100000I-35000J0D01*
G01*
X12590000Y-7100000D02*
G75*
G02*
X12660000Y-7100000I35000J0D01*
G01*
X13427000Y-5050000D02*
G75*
G02*
X13357000Y-5050000I-35000J0D01*
G01*
X13357000Y-5050000D02*
G75*
G02*
X13427000Y-5050000I35000J0D01*
G01*
X13427000Y-5300000D02*
G75*
G02*
X13357000Y-5300000I-35000J0D01*
G01*
X13357000Y-5300000D02*
G75*
G02*
X13427000Y-5300000I35000J0D01*
G01*
X13935000Y-5050000D02*
G75*
G02*
X13865000Y-5050000I-35000J0D01*
G01*
X13865000Y-5050000D02*
G75*
G02*
X13935000Y-5050000I35000J0D01*
G01*
X13935000Y-5300000D02*
G75*
G02*
X13865000Y-5300000I-35000J0D01*
G01*
X13865000Y-5300000D02*
G75*
G02*
X13935000Y-5300000I35000J0D01*
G01*
X15485000Y-5000000D02*
G75*
G02*
X15415000Y-5000000I-35000J0D01*
G01*
X15415000Y-5000000D02*
G75*
G02*
X15485000Y-5000000I35000J0D01*
G01*
X15502000Y-5350000D02*
G75*
G02*
X15432000Y-5350000I-35000J0D01*
G01*
X15432000Y-5350000D02*
G75*
G02*
X15502000Y-5350000I35000J0D01*
G01*
X15502000Y-5575000D02*
G75*
G02*
X15432000Y-5575000I-35000J0D01*
G01*
X15432000Y-5575000D02*
G75*
G02*
X15502000Y-5575000I35000J0D01*
G01*
X15993000Y-5000000D02*
G75*
G02*
X15923000Y-5000000I-35000J0D01*
G01*
X15923000Y-5000000D02*
G75*
G02*
X15993000Y-5000000I35000J0D01*
G01*
X16010000Y-5350000D02*
G75*
G02*
X15940000Y-5350000I-35000J0D01*
G01*
X15940000Y-5350000D02*
G75*
G02*
X16010000Y-5350000I35000J0D01*
G01*
X16010000Y-5575000D02*
G75*
G02*
X15940000Y-5575000I-35000J0D01*
G01*
X15940000Y-5575000D02*
G75*
G02*
X16010000Y-5575000I35000J0D01*
G01*
X16335000Y-6400000D02*
G75*
G02*
X16265000Y-6400000I-35000J0D01*
G01*
X16265000Y-6400000D02*
G75*
G02*
X16335000Y-6400000I35000J0D01*
G01*
X16427000Y-7300000D02*
G75*
G02*
X16357000Y-7300000I-35000J0D01*
G01*
X16357000Y-7300000D02*
G75*
G02*
X16427000Y-7300000I35000J0D01*
G01*
X16427000Y-7550000D02*
G75*
G02*
X16357000Y-7550000I-35000J0D01*
G01*
X16357000Y-7550000D02*
G75*
G02*
X16427000Y-7550000I35000J0D01*
G01*
X16427000Y-7800000D02*
G75*
G02*
X16357000Y-7800000I-35000J0D01*
G01*
X16357000Y-7800000D02*
G75*
G02*
X16427000Y-7800000I35000J0D01*
G01*
X16843000Y-6400000D02*
G75*
G02*
X16773000Y-6400000I-35000J0D01*
G01*
X16773000Y-6400000D02*
G75*
G02*
X16843000Y-6400000I35000J0D01*
G01*
X16935000Y-7300000D02*
G75*
G02*
X16865000Y-7300000I-35000J0D01*
G01*
X16865000Y-7300000D02*
G75*
G02*
X16935000Y-7300000I35000J0D01*
G01*
X16935000Y-7550000D02*
G75*
G02*
X16865000Y-7550000I-35000J0D01*
G01*
X16865000Y-7550000D02*
G75*
G02*
X16935000Y-7550000I35000J0D01*
G01*
X16935000Y-7800000D02*
G75*
G02*
X16865000Y-7800000I-35000J0D01*
G01*
X16865000Y-7800000D02*
G75*
G02*
X16935000Y-7800000I35000J0D01*
G01*
X12125000Y-7360000D02*
X12125000Y-7440000D01*
X12085000Y-7400000D02*
X12165000Y-7400000D01*
X12625000Y-7360000D02*
X12625000Y-7440000D01*
X12585000Y-7400000D02*
X12665000Y-7400000D01*
X12688335Y-5302000D02*
X12688335Y-5382000D01*
X12648335Y-5342000D02*
X12728335Y-5342000D01*
X12688335Y-5802000D02*
X12688335Y-5882000D01*
X12648335Y-5842000D02*
X12728335Y-5842000D01*
X13350000Y-5860000D02*
X13350000Y-5940000D01*
X13310000Y-5900000D02*
X13390000Y-5900000D01*
X13850000Y-5860000D02*
X13850000Y-5940000D01*
X13810000Y-5900000D02*
X13890000Y-5900000D01*
X14200000Y-5052000D02*
X14200000Y-5132000D01*
X14160000Y-5092000D02*
X14240000Y-5092000D01*
X14200000Y-6068000D02*
X14200000Y-6148000D01*
X14160000Y-6108000D02*
X14240000Y-6108000D01*
X14500000Y-5410000D02*
X14500000Y-5490000D01*
X14460000Y-5450000D02*
X14540000Y-5450000D01*
X14500000Y-5910000D02*
X14500000Y-5990000D01*
X14460000Y-5950000D02*
X14540000Y-5950000D01*
X14800000Y-5052000D02*
X14800000Y-5132000D01*
X14760000Y-5092000D02*
X14840000Y-5092000D01*
X14800000Y-6068000D02*
X14800000Y-6148000D01*
X14760000Y-6108000D02*
X14840000Y-6108000D01*
X15100000Y-5410000D02*
X15100000Y-5490000D01*
X15060000Y-5450000D02*
X15140000Y-5450000D01*
X15100000Y-5910000D02*
X15100000Y-5990000D01*
X15060000Y-5950000D02*
X15140000Y-5950000D01*
X15700000Y-5819735D02*
X15700000Y-5899735D01*
X15660000Y-5859735D02*
X15740000Y-5859735D01*
X15700000Y-6319735D02*
X15700000Y-6399735D01*
X15660000Y-6359735D02*
X15740000Y-6359735D01*
X16150000Y-7298000D02*
X16150000Y-7378000D01*
X16110000Y-7338000D02*
X16190000Y-7338000D01*
X16150000Y-8060000D02*
X16150000Y-8140000D01*
X16110000Y-8100000D02*
X16190000Y-8100000D01*
X16308000Y-6110000D02*
X16308000Y-6190000D01*
X16268000Y-6150000D02*
X16348000Y-6150000D01*
X16400000Y-8260000D02*
X16400000Y-8340000D01*
X16360000Y-8300000D02*
X16440000Y-8300000D01*
X16500000Y-5110000D02*
X16500000Y-5190000D01*
X16460000Y-5150000D02*
X16540000Y-5150000D01*
X16500000Y-5610000D02*
X16500000Y-5690000D01*
X16460000Y-5650000D02*
X16540000Y-5650000D01*
X16808000Y-6110000D02*
X16808000Y-6190000D01*
X16768000Y-6150000D02*
X16848000Y-6150000D01*
X16900000Y-8260000D02*
X16900000Y-8340000D01*
X16860000Y-8300000D02*
X16940000Y-8300000D01*
X17150000Y-8260000D02*
X17150000Y-8340000D01*
X17110000Y-8300000D02*
X17190000Y-8300000D01*
X17400000Y-4960000D02*
X17400000Y-5040000D01*
X17360000Y-5000000D02*
X17440000Y-5000000D01*
X17400000Y-5460000D02*
X17400000Y-5540000D01*
X17360000Y-5500000D02*
X17440000Y-5500000D01*
X17650000Y-8260000D02*
X17650000Y-8340000D01*
X17610000Y-8300000D02*
X17690000Y-8300000D01*
X17700000Y-4960000D02*
X17700000Y-5040000D01*
X17660000Y-5000000D02*
X17740000Y-5000000D01*
X17700000Y-5460000D02*
X17700000Y-5540000D01*
X17660000Y-5500000D02*
X17740000Y-5500000D01*
X12100356Y-4810556D02*
X12100356Y-4739844D01*
X12029644Y-4739844D01*
X12029644Y-4810556D01*
X12100356Y-4810556D01*
X12227356Y-4302556D02*
X12227356Y-4231844D01*
X12156644Y-4231844D01*
X12156644Y-4302556D01*
X12227356Y-4302556D01*
X12354356Y-4810556D02*
X12354356Y-4739844D01*
X12283644Y-4739844D01*
X12283644Y-4810556D01*
X12354356Y-4810556D01*
X12481356Y-4302556D02*
X12481356Y-4231844D01*
X12410644Y-4231844D01*
X12410644Y-4302556D01*
X12481356Y-4302556D01*
X12608356Y-4810556D02*
X12608356Y-4739844D01*
X12537644Y-4739844D01*
X12537644Y-4810556D01*
X12608356Y-4810556D01*
X12735356Y-4302556D02*
X12735356Y-4231844D01*
X12664644Y-4231844D01*
X12664644Y-4302556D01*
X12735356Y-4302556D01*
X12862356Y-4810556D02*
X12862356Y-4739844D01*
X12791644Y-4739844D01*
X12791644Y-4810556D01*
X12862356Y-4810556D01*
X12989356Y-4302556D02*
X12989356Y-4231844D01*
X12918644Y-4231844D01*
X12918644Y-4302556D01*
X12989356Y-4302556D01*
X13116356Y-4810556D02*
X13116356Y-4739844D01*
X13045644Y-4739844D01*
X13045644Y-4810556D01*
X13116356Y-4810556D01*
X13243356Y-4302556D02*
X13243356Y-4231844D01*
X13172644Y-4231844D01*
X13172644Y-4302556D01*
X13243356Y-4302556D01*
X13370356Y-4810556D02*
X13370356Y-4739844D01*
X13299644Y-4739844D01*
X13299644Y-4810556D01*
X13370356Y-4810556D01*
X13497356Y-4302556D02*
X13497356Y-4231844D01*
X13426644Y-4231844D01*
X13426644Y-4302556D01*
X13497356Y-4302556D01*
X13624356Y-4810556D02*
X13624356Y-4739844D01*
X13553644Y-4739844D01*
X13553644Y-4810556D01*
X13624356Y-4810556D01*
X13751356Y-4302556D02*
X13751356Y-4231844D01*
X13680644Y-4231844D01*
X13680644Y-4302556D01*
X13751356Y-4302556D01*
X13878356Y-4810556D02*
X13878356Y-4739844D01*
X13807644Y-4739844D01*
X13807644Y-4810556D01*
X13878356Y-4810556D01*
X15910356Y-4810556D02*
X15910356Y-4739844D01*
X15839644Y-4739844D01*
X15839644Y-4810556D01*
X15910356Y-4810556D01*
X16037356Y-4302556D02*
X16037356Y-4231844D01*
X15966644Y-4231844D01*
X15966644Y-4302556D01*
X16037356Y-4302556D01*
X16164356Y-4810556D02*
X16164356Y-4739844D01*
X16093644Y-4739844D01*
X16093644Y-4810556D01*
X16164356Y-4810556D01*
X16291356Y-4302556D02*
X16291356Y-4231844D01*
X16220644Y-4231844D01*
X16220644Y-4302556D01*
X16291356Y-4302556D01*
X16418356Y-4810556D02*
X16418356Y-4739844D01*
X16347644Y-4739844D01*
X16347644Y-4810556D01*
X16418356Y-4810556D01*
X16545356Y-4302556D02*
X16545356Y-4231844D01*
X16474644Y-4231844D01*
X16474644Y-4302556D01*
X16545356Y-4302556D01*
X16672356Y-4810556D02*
X16672356Y-4739844D01*
X16601644Y-4739844D01*
X16601644Y-4810556D01*
X16672356Y-4810556D01*
X16799356Y-4302556D02*
X16799356Y-4231844D01*
X16728644Y-4231844D01*
X16728644Y-4302556D01*
X16799356Y-4302556D01*
X16926356Y-4810556D02*
X16926356Y-4739844D01*
X16855644Y-4739844D01*
X16855644Y-4810556D01*
X16926356Y-4810556D01*
X17053356Y-4302556D02*
X17053356Y-4231844D01*
X16982644Y-4231844D01*
X16982644Y-4302556D01*
X17053356Y-4302556D01*
X17180356Y-4810556D02*
X17180356Y-4739844D01*
X17109644Y-4739844D01*
X17109644Y-4810556D01*
X17180356Y-4810556D01*
X17307356Y-4302556D02*
X17307356Y-4231844D01*
X17236644Y-4231844D01*
X17236644Y-4302556D01*
X17307356Y-4302556D01*
X17434356Y-4810556D02*
X17434356Y-4739844D01*
X17363644Y-4739844D01*
X17363644Y-4810556D01*
X17434356Y-4810556D01*
X17561356Y-4302556D02*
X17561356Y-4231844D01*
X17490644Y-4231844D01*
X17490644Y-4302556D01*
X17561356Y-4302556D01*
X17688356Y-4810556D02*
X17688356Y-4739844D01*
X17617644Y-4739844D01*
X17617644Y-4810556D01*
X17688356Y-4810556D01*
D12*
X12250000Y-7846000D02*
X12310000Y-7786000D01*
X12250000Y-7726000D01*
X12190000Y-7786000D01*
X12250000Y-7846000D01*
X12500000Y-7846000D02*
X12560000Y-7786000D01*
X12500000Y-7726000D01*
X12440000Y-7786000D01*
X12500000Y-7846000D01*
X13200000Y-7160000D02*
X13260000Y-7100000D01*
X13200000Y-7040000D01*
X13140000Y-7100000D01*
X13200000Y-7160000D01*
X13700000Y-7160000D02*
X13760000Y-7100000D01*
X13700000Y-7040000D01*
X13640000Y-7100000D01*
X13700000Y-7160000D01*
X14500000Y-7160000D02*
X14560000Y-7100000D01*
X14500000Y-7040000D01*
X14440000Y-7100000D01*
X14500000Y-7160000D01*
X15000000Y-7160000D02*
X15060000Y-7100000D01*
X15000000Y-7040000D01*
X14940000Y-7100000D01*
X15000000Y-7160000D01*
X15496000Y-7842000D02*
X15556000Y-7782000D01*
X15496000Y-7722000D01*
X15436000Y-7782000D01*
X15496000Y-7842000D01*
X15746000Y-7842000D02*
X15806000Y-7782000D01*
X15746000Y-7722000D01*
X15686000Y-7782000D01*
X15746000Y-7842000D01*
D13*
X13430000Y-8312000D02*
X13570000Y-8452000D01*
X13570000Y-8312000D02*
X13430000Y-8452000D01*
X13570000Y-8382000D02*
G75*
G02*
X13430000Y-8382000I-70000J0D01*
G01*
X13430000Y-8382000D02*
G75*
G02*
X13570000Y-8382000I70000J0D01*
G01*
X13930000Y-8312000D02*
X14070000Y-8452000D01*
X14070000Y-8312000D02*
X13930000Y-8452000D01*
X14070000Y-8382000D02*
G75*
G02*
X13930000Y-8382000I-70000J0D01*
G01*
X13930000Y-8382000D02*
G75*
G02*
X14070000Y-8382000I70000J0D01*
G01*
X14430000Y-8312000D02*
X14570000Y-8452000D01*
X14570000Y-8312000D02*
X14430000Y-8452000D01*
X14570000Y-8382000D02*
G75*
G02*
X14430000Y-8382000I-70000J0D01*
G01*
X14430000Y-8382000D02*
G75*
G02*
X14570000Y-8382000I70000J0D01*
G01*
X14580000Y-4330000D02*
X14720000Y-4470000D01*
X14720000Y-4330000D02*
X14580000Y-4470000D01*
X14720000Y-4400000D02*
G75*
G02*
X14580000Y-4400000I-70000J0D01*
G01*
X14580000Y-4400000D02*
G75*
G02*
X14720000Y-4400000I70000J0D01*
G01*
X15080000Y-4330000D02*
X15220000Y-4470000D01*
X15220000Y-4330000D02*
X15080000Y-4470000D01*
X15220000Y-4400000D02*
G75*
G02*
X15080000Y-4400000I-70000J0D01*
G01*
X15080000Y-4400000D02*
G75*
G02*
X15220000Y-4400000I70000J0D01*
G01*
D11*
X12055777Y-9116484D02*
X12055777Y-8916484D01*
X12055777Y-8916484D02*
X12103396Y-8916484D01*
X12103396Y-8916484D02*
X12131967Y-8926008D01*
X12131967Y-8926008D02*
X12151015Y-8945055D01*
X12151015Y-8945055D02*
X12160539Y-8964103D01*
X12160539Y-8964103D02*
X12170062Y-9002198D01*
X12170062Y-9002198D02*
X12170062Y-9030770D01*
X12170062Y-9030770D02*
X12160539Y-9068865D01*
X12160539Y-9068865D02*
X12151015Y-9087912D01*
X12151015Y-9087912D02*
X12131967Y-9106960D01*
X12131967Y-9106960D02*
X12103396Y-9116484D01*
X12103396Y-9116484D02*
X12055777Y-9116484D01*
X12255777Y-9116484D02*
X12255777Y-8983150D01*
X12255777Y-9021246D02*
X12265301Y-9002198D01*
X12265301Y-9002198D02*
X12274824Y-8992674D01*
X12274824Y-8992674D02*
X12293872Y-8983150D01*
X12293872Y-8983150D02*
X12312920Y-8983150D01*
X12379586Y-9116484D02*
X12379586Y-8983150D01*
X12379586Y-8916484D02*
X12370062Y-8926008D01*
X12370062Y-8926008D02*
X12379586Y-8935531D01*
X12379586Y-8935531D02*
X12389110Y-8926008D01*
X12389110Y-8926008D02*
X12379586Y-8916484D01*
X12379586Y-8916484D02*
X12379586Y-8935531D01*
X12503396Y-9116484D02*
X12484348Y-9106960D01*
X12484348Y-9106960D02*
X12474824Y-9087912D01*
X12474824Y-9087912D02*
X12474824Y-8916484D01*
X12608158Y-9116484D02*
X12589110Y-9106960D01*
X12589110Y-9106960D02*
X12579586Y-9087912D01*
X12579586Y-9087912D02*
X12579586Y-8916484D01*
X12836729Y-9116484D02*
X12836729Y-8916484D01*
X12836729Y-8916484D02*
X12903396Y-9059341D01*
X12903396Y-9059341D02*
X12970062Y-8916484D01*
X12970062Y-8916484D02*
X12970062Y-9116484D01*
X13151015Y-9116484D02*
X13151015Y-9011722D01*
X13151015Y-9011722D02*
X13141491Y-8992674D01*
X13141491Y-8992674D02*
X13122443Y-8983150D01*
X13122443Y-8983150D02*
X13084348Y-8983150D01*
X13084348Y-8983150D02*
X13065301Y-8992674D01*
X13151015Y-9106960D02*
X13131967Y-9116484D01*
X13131967Y-9116484D02*
X13084348Y-9116484D01*
X13084348Y-9116484D02*
X13065301Y-9106960D01*
X13065301Y-9106960D02*
X13055777Y-9087912D01*
X13055777Y-9087912D02*
X13055777Y-9068865D01*
X13055777Y-9068865D02*
X13065301Y-9049817D01*
X13065301Y-9049817D02*
X13084348Y-9040293D01*
X13084348Y-9040293D02*
X13131967Y-9040293D01*
X13131967Y-9040293D02*
X13151015Y-9030770D01*
X13246253Y-8983150D02*
X13246253Y-9183150D01*
X13246253Y-8992674D02*
X13265301Y-8983150D01*
X13265301Y-8983150D02*
X13303396Y-8983150D01*
X13303396Y-8983150D02*
X13322443Y-8992674D01*
X13322443Y-8992674D02*
X13331967Y-9002198D01*
X13331967Y-9002198D02*
X13341491Y-9021246D01*
X13341491Y-9021246D02*
X13341491Y-9078389D01*
X13341491Y-9078389D02*
X13331967Y-9097436D01*
X13331967Y-9097436D02*
X13322443Y-9106960D01*
X13322443Y-9106960D02*
X13303396Y-9116484D01*
X13303396Y-9116484D02*
X13265301Y-9116484D01*
X13265301Y-9116484D02*
X13246253Y-9106960D01*
X13427205Y-9097436D02*
X13436729Y-9106960D01*
X13436729Y-9106960D02*
X13427205Y-9116484D01*
X13427205Y-9116484D02*
X13417682Y-9106960D01*
X13417682Y-9106960D02*
X13427205Y-9097436D01*
X13427205Y-9097436D02*
X13427205Y-9116484D01*
X13427205Y-8992674D02*
X13436729Y-9002198D01*
X13436729Y-9002198D02*
X13427205Y-9011722D01*
X13427205Y-9011722D02*
X13417682Y-9002198D01*
X13417682Y-9002198D02*
X13427205Y-8992674D01*
X13427205Y-8992674D02*
X13427205Y-9011722D01*
D10*
X11755000Y-9425000D02*
X11795000Y-9465000D01*
X11795000Y-9425000D02*
X11755000Y-9465000D01*
D11*
X12093872Y-9336484D02*
X12112920Y-9336484D01*
X12112920Y-9336484D02*
X12131967Y-9346008D01*
X12131967Y-9346008D02*
X12141491Y-9355531D01*
X12141491Y-9355531D02*
X12151015Y-9374579D01*
X12151015Y-9374579D02*
X12160539Y-9412674D01*
X12160539Y-9412674D02*
X12160539Y-9460293D01*
X12160539Y-9460293D02*
X12151015Y-9498389D01*
X12151015Y-9498389D02*
X12141491Y-9517436D01*
X12141491Y-9517436D02*
X12131967Y-9526960D01*
X12131967Y-9526960D02*
X12112920Y-9536484D01*
X12112920Y-9536484D02*
X12093872Y-9536484D01*
X12093872Y-9536484D02*
X12074824Y-9526960D01*
X12074824Y-9526960D02*
X12065301Y-9517436D01*
X12065301Y-9517436D02*
X12055777Y-9498389D01*
X12055777Y-9498389D02*
X12046253Y-9460293D01*
X12046253Y-9460293D02*
X12046253Y-9412674D01*
X12046253Y-9412674D02*
X12055777Y-9374579D01*
X12055777Y-9374579D02*
X12065301Y-9355531D01*
X12065301Y-9355531D02*
X12074824Y-9346008D01*
X12074824Y-9346008D02*
X12093872Y-9336484D01*
X12246253Y-9517436D02*
X12255777Y-9526960D01*
X12255777Y-9526960D02*
X12246253Y-9536484D01*
X12246253Y-9536484D02*
X12236729Y-9526960D01*
X12236729Y-9526960D02*
X12246253Y-9517436D01*
X12246253Y-9517436D02*
X12246253Y-9536484D01*
X12427205Y-9403150D02*
X12427205Y-9536484D01*
X12379586Y-9326960D02*
X12331967Y-9469817D01*
X12331967Y-9469817D02*
X12455777Y-9469817D01*
X12570062Y-9336484D02*
X12589110Y-9336484D01*
X12589110Y-9336484D02*
X12608158Y-9346008D01*
X12608158Y-9346008D02*
X12617682Y-9355531D01*
X12617682Y-9355531D02*
X12627205Y-9374579D01*
X12627205Y-9374579D02*
X12636729Y-9412674D01*
X12636729Y-9412674D02*
X12636729Y-9460293D01*
X12636729Y-9460293D02*
X12627205Y-9498389D01*
X12627205Y-9498389D02*
X12617682Y-9517436D01*
X12617682Y-9517436D02*
X12608158Y-9526960D01*
X12608158Y-9526960D02*
X12589110Y-9536484D01*
X12589110Y-9536484D02*
X12570062Y-9536484D01*
X12570062Y-9536484D02*
X12551015Y-9526960D01*
X12551015Y-9526960D02*
X12541491Y-9517436D01*
X12541491Y-9517436D02*
X12531967Y-9498389D01*
X12531967Y-9498389D02*
X12522443Y-9460293D01*
X12522443Y-9460293D02*
X12522443Y-9412674D01*
X12522443Y-9412674D02*
X12531967Y-9374579D01*
X12531967Y-9374579D02*
X12541491Y-9355531D01*
X12541491Y-9355531D02*
X12551015Y-9346008D01*
X12551015Y-9346008D02*
X12570062Y-9336484D01*
X12760539Y-9336484D02*
X12779586Y-9336484D01*
X12779586Y-9336484D02*
X12798634Y-9346008D01*
X12798634Y-9346008D02*
X12808158Y-9355531D01*
X12808158Y-9355531D02*
X12817682Y-9374579D01*
X12817682Y-9374579D02*
X12827205Y-9412674D01*
X12827205Y-9412674D02*
X12827205Y-9460293D01*
X12827205Y-9460293D02*
X12817682Y-9498389D01*
X12817682Y-9498389D02*
X12808158Y-9517436D01*
X12808158Y-9517436D02*
X12798634Y-9526960D01*
X12798634Y-9526960D02*
X12779586Y-9536484D01*
X12779586Y-9536484D02*
X12760539Y-9536484D01*
X12760539Y-9536484D02*
X12741491Y-9526960D01*
X12741491Y-9526960D02*
X12731967Y-9517436D01*
X12731967Y-9517436D02*
X12722443Y-9498389D01*
X12722443Y-9498389D02*
X12712920Y-9460293D01*
X12712920Y-9460293D02*
X12712920Y-9412674D01*
X12712920Y-9412674D02*
X12722443Y-9374579D01*
X12722443Y-9374579D02*
X12731967Y-9355531D01*
X12731967Y-9355531D02*
X12741491Y-9346008D01*
X12741491Y-9346008D02*
X12760539Y-9336484D01*
X12912920Y-9536484D02*
X12912920Y-9403150D01*
X12912920Y-9422198D02*
X12922443Y-9412674D01*
X12922443Y-9412674D02*
X12941491Y-9403150D01*
X12941491Y-9403150D02*
X12970063Y-9403150D01*
X12970063Y-9403150D02*
X12989110Y-9412674D01*
X12989110Y-9412674D02*
X12998634Y-9431722D01*
X12998634Y-9431722D02*
X12998634Y-9536484D01*
X12998634Y-9431722D02*
X13008158Y-9412674D01*
X13008158Y-9412674D02*
X13027205Y-9403150D01*
X13027205Y-9403150D02*
X13055777Y-9403150D01*
X13055777Y-9403150D02*
X13074824Y-9412674D01*
X13074824Y-9412674D02*
X13084348Y-9431722D01*
X13084348Y-9431722D02*
X13084348Y-9536484D01*
X13179586Y-9536484D02*
X13179586Y-9403150D01*
X13179586Y-9422198D02*
X13189110Y-9412674D01*
X13189110Y-9412674D02*
X13208158Y-9403150D01*
X13208158Y-9403150D02*
X13236729Y-9403150D01*
X13236729Y-9403150D02*
X13255777Y-9412674D01*
X13255777Y-9412674D02*
X13265301Y-9431722D01*
X13265301Y-9431722D02*
X13265301Y-9536484D01*
X13265301Y-9431722D02*
X13274824Y-9412674D01*
X13274824Y-9412674D02*
X13293872Y-9403150D01*
X13293872Y-9403150D02*
X13322443Y-9403150D01*
X13322443Y-9403150D02*
X13341491Y-9412674D01*
X13341491Y-9412674D02*
X13351015Y-9431722D01*
X13351015Y-9431722D02*
X13351015Y-9536484D01*
X13741491Y-9326960D02*
X13570063Y-9584103D01*
X13998634Y-9336484D02*
X14017682Y-9336484D01*
X14017682Y-9336484D02*
X14036729Y-9346008D01*
X14036729Y-9346008D02*
X14046253Y-9355531D01*
X14046253Y-9355531D02*
X14055777Y-9374579D01*
X14055777Y-9374579D02*
X14065301Y-9412674D01*
X14065301Y-9412674D02*
X14065301Y-9460293D01*
X14065301Y-9460293D02*
X14055777Y-9498389D01*
X14055777Y-9498389D02*
X14046253Y-9517436D01*
X14046253Y-9517436D02*
X14036729Y-9526960D01*
X14036729Y-9526960D02*
X14017682Y-9536484D01*
X14017682Y-9536484D02*
X13998634Y-9536484D01*
X13998634Y-9536484D02*
X13979586Y-9526960D01*
X13979586Y-9526960D02*
X13970063Y-9517436D01*
X13970063Y-9517436D02*
X13960539Y-9498389D01*
X13960539Y-9498389D02*
X13951015Y-9460293D01*
X13951015Y-9460293D02*
X13951015Y-9412674D01*
X13951015Y-9412674D02*
X13960539Y-9374579D01*
X13960539Y-9374579D02*
X13970063Y-9355531D01*
X13970063Y-9355531D02*
X13979586Y-9346008D01*
X13979586Y-9346008D02*
X13998634Y-9336484D01*
X14151015Y-9517436D02*
X14160539Y-9526960D01*
X14160539Y-9526960D02*
X14151015Y-9536484D01*
X14151015Y-9536484D02*
X14141491Y-9526960D01*
X14141491Y-9526960D02*
X14151015Y-9517436D01*
X14151015Y-9517436D02*
X14151015Y-9536484D01*
X14284348Y-9336484D02*
X14303396Y-9336484D01*
X14303396Y-9336484D02*
X14322444Y-9346008D01*
X14322444Y-9346008D02*
X14331967Y-9355531D01*
X14331967Y-9355531D02*
X14341491Y-9374579D01*
X14341491Y-9374579D02*
X14351015Y-9412674D01*
X14351015Y-9412674D02*
X14351015Y-9460293D01*
X14351015Y-9460293D02*
X14341491Y-9498389D01*
X14341491Y-9498389D02*
X14331967Y-9517436D01*
X14331967Y-9517436D02*
X14322444Y-9526960D01*
X14322444Y-9526960D02*
X14303396Y-9536484D01*
X14303396Y-9536484D02*
X14284348Y-9536484D01*
X14284348Y-9536484D02*
X14265301Y-9526960D01*
X14265301Y-9526960D02*
X14255777Y-9517436D01*
X14255777Y-9517436D02*
X14246253Y-9498389D01*
X14246253Y-9498389D02*
X14236729Y-9460293D01*
X14236729Y-9460293D02*
X14236729Y-9412674D01*
X14236729Y-9412674D02*
X14246253Y-9374579D01*
X14246253Y-9374579D02*
X14255777Y-9355531D01*
X14255777Y-9355531D02*
X14265301Y-9346008D01*
X14265301Y-9346008D02*
X14284348Y-9336484D01*
X14541491Y-9536484D02*
X14427206Y-9536484D01*
X14484348Y-9536484D02*
X14484348Y-9336484D01*
X14484348Y-9336484D02*
X14465301Y-9365055D01*
X14465301Y-9365055D02*
X14446253Y-9384103D01*
X14446253Y-9384103D02*
X14427206Y-9393627D01*
X14722444Y-9336484D02*
X14627206Y-9336484D01*
X14627206Y-9336484D02*
X14617682Y-9431722D01*
X14617682Y-9431722D02*
X14627206Y-9422198D01*
X14627206Y-9422198D02*
X14646253Y-9412674D01*
X14646253Y-9412674D02*
X14693872Y-9412674D01*
X14693872Y-9412674D02*
X14712920Y-9422198D01*
X14712920Y-9422198D02*
X14722444Y-9431722D01*
X14722444Y-9431722D02*
X14731967Y-9450770D01*
X14731967Y-9450770D02*
X14731967Y-9498389D01*
X14731967Y-9498389D02*
X14722444Y-9517436D01*
X14722444Y-9517436D02*
X14712920Y-9526960D01*
X14712920Y-9526960D02*
X14693872Y-9536484D01*
X14693872Y-9536484D02*
X14646253Y-9536484D01*
X14646253Y-9536484D02*
X14627206Y-9526960D01*
X14627206Y-9526960D02*
X14617682Y-9517436D01*
X14798634Y-9336484D02*
X14931967Y-9336484D01*
X14931967Y-9336484D02*
X14846253Y-9536484D01*
X14998634Y-9336484D02*
X14998634Y-9374579D01*
X15074825Y-9336484D02*
X15074825Y-9374579D01*
X15370063Y-9612674D02*
X15360539Y-9603150D01*
X15360539Y-9603150D02*
X15341491Y-9574579D01*
X15341491Y-9574579D02*
X15331968Y-9555531D01*
X15331968Y-9555531D02*
X15322444Y-9526960D01*
X15322444Y-9526960D02*
X15312920Y-9479341D01*
X15312920Y-9479341D02*
X15312920Y-9441246D01*
X15312920Y-9441246D02*
X15322444Y-9393627D01*
X15322444Y-9393627D02*
X15331968Y-9365055D01*
X15331968Y-9365055D02*
X15341491Y-9346008D01*
X15341491Y-9346008D02*
X15360539Y-9317436D01*
X15360539Y-9317436D02*
X15370063Y-9307912D01*
X15474825Y-9422198D02*
X15455777Y-9412674D01*
X15455777Y-9412674D02*
X15446253Y-9403150D01*
X15446253Y-9403150D02*
X15436729Y-9384103D01*
X15436729Y-9384103D02*
X15436729Y-9374579D01*
X15436729Y-9374579D02*
X15446253Y-9355531D01*
X15446253Y-9355531D02*
X15455777Y-9346008D01*
X15455777Y-9346008D02*
X15474825Y-9336484D01*
X15474825Y-9336484D02*
X15512920Y-9336484D01*
X15512920Y-9336484D02*
X15531968Y-9346008D01*
X15531968Y-9346008D02*
X15541491Y-9355531D01*
X15541491Y-9355531D02*
X15551015Y-9374579D01*
X15551015Y-9374579D02*
X15551015Y-9384103D01*
X15551015Y-9384103D02*
X15541491Y-9403150D01*
X15541491Y-9403150D02*
X15531968Y-9412674D01*
X15531968Y-9412674D02*
X15512920Y-9422198D01*
X15512920Y-9422198D02*
X15474825Y-9422198D01*
X15474825Y-9422198D02*
X15455777Y-9431722D01*
X15455777Y-9431722D02*
X15446253Y-9441246D01*
X15446253Y-9441246D02*
X15436729Y-9460293D01*
X15436729Y-9460293D02*
X15436729Y-9498389D01*
X15436729Y-9498389D02*
X15446253Y-9517436D01*
X15446253Y-9517436D02*
X15455777Y-9526960D01*
X15455777Y-9526960D02*
X15474825Y-9536484D01*
X15474825Y-9536484D02*
X15512920Y-9536484D01*
X15512920Y-9536484D02*
X15531968Y-9526960D01*
X15531968Y-9526960D02*
X15541491Y-9517436D01*
X15541491Y-9517436D02*
X15551015Y-9498389D01*
X15551015Y-9498389D02*
X15551015Y-9460293D01*
X15551015Y-9460293D02*
X15541491Y-9441246D01*
X15541491Y-9441246D02*
X15531968Y-9431722D01*
X15531968Y-9431722D02*
X15512920Y-9422198D01*
X15627206Y-9355531D02*
X15636729Y-9346008D01*
X15636729Y-9346008D02*
X15655777Y-9336484D01*
X15655777Y-9336484D02*
X15703396Y-9336484D01*
X15703396Y-9336484D02*
X15722444Y-9346008D01*
X15722444Y-9346008D02*
X15731968Y-9355531D01*
X15731968Y-9355531D02*
X15741491Y-9374579D01*
X15741491Y-9374579D02*
X15741491Y-9393627D01*
X15741491Y-9393627D02*
X15731968Y-9422198D01*
X15731968Y-9422198D02*
X15617682Y-9536484D01*
X15617682Y-9536484D02*
X15741491Y-9536484D01*
X15979587Y-9536484D02*
X15979587Y-9336484D01*
X16065301Y-9536484D02*
X16065301Y-9431722D01*
X16065301Y-9431722D02*
X16055777Y-9412674D01*
X16055777Y-9412674D02*
X16036730Y-9403150D01*
X16036730Y-9403150D02*
X16008158Y-9403150D01*
X16008158Y-9403150D02*
X15989110Y-9412674D01*
X15989110Y-9412674D02*
X15979587Y-9422198D01*
X16189110Y-9536484D02*
X16170063Y-9526960D01*
X16170063Y-9526960D02*
X16160539Y-9517436D01*
X16160539Y-9517436D02*
X16151015Y-9498389D01*
X16151015Y-9498389D02*
X16151015Y-9441246D01*
X16151015Y-9441246D02*
X16160539Y-9422198D01*
X16160539Y-9422198D02*
X16170063Y-9412674D01*
X16170063Y-9412674D02*
X16189110Y-9403150D01*
X16189110Y-9403150D02*
X16217682Y-9403150D01*
X16217682Y-9403150D02*
X16236730Y-9412674D01*
X16236730Y-9412674D02*
X16246253Y-9422198D01*
X16246253Y-9422198D02*
X16255777Y-9441246D01*
X16255777Y-9441246D02*
X16255777Y-9498389D01*
X16255777Y-9498389D02*
X16246253Y-9517436D01*
X16246253Y-9517436D02*
X16236730Y-9526960D01*
X16236730Y-9526960D02*
X16217682Y-9536484D01*
X16217682Y-9536484D02*
X16189110Y-9536484D01*
X16370063Y-9536484D02*
X16351015Y-9526960D01*
X16351015Y-9526960D02*
X16341491Y-9507912D01*
X16341491Y-9507912D02*
X16341491Y-9336484D01*
X16522444Y-9526960D02*
X16503396Y-9536484D01*
X16503396Y-9536484D02*
X16465301Y-9536484D01*
X16465301Y-9536484D02*
X16446253Y-9526960D01*
X16446253Y-9526960D02*
X16436730Y-9507912D01*
X16436730Y-9507912D02*
X16436730Y-9431722D01*
X16436730Y-9431722D02*
X16446253Y-9412674D01*
X16446253Y-9412674D02*
X16465301Y-9403150D01*
X16465301Y-9403150D02*
X16503396Y-9403150D01*
X16503396Y-9403150D02*
X16522444Y-9412674D01*
X16522444Y-9412674D02*
X16531968Y-9431722D01*
X16531968Y-9431722D02*
X16531968Y-9450770D01*
X16531968Y-9450770D02*
X16436730Y-9469817D01*
X16608158Y-9526960D02*
X16627206Y-9536484D01*
X16627206Y-9536484D02*
X16665301Y-9536484D01*
X16665301Y-9536484D02*
X16684349Y-9526960D01*
X16684349Y-9526960D02*
X16693872Y-9507912D01*
X16693872Y-9507912D02*
X16693872Y-9498389D01*
X16693872Y-9498389D02*
X16684349Y-9479341D01*
X16684349Y-9479341D02*
X16665301Y-9469817D01*
X16665301Y-9469817D02*
X16636730Y-9469817D01*
X16636730Y-9469817D02*
X16617682Y-9460293D01*
X16617682Y-9460293D02*
X16608158Y-9441246D01*
X16608158Y-9441246D02*
X16608158Y-9431722D01*
X16608158Y-9431722D02*
X16617682Y-9412674D01*
X16617682Y-9412674D02*
X16636730Y-9403150D01*
X16636730Y-9403150D02*
X16665301Y-9403150D01*
X16665301Y-9403150D02*
X16684349Y-9412674D01*
X16760539Y-9612674D02*
X16770063Y-9603150D01*
X16770063Y-9603150D02*
X16789111Y-9574579D01*
X16789111Y-9574579D02*
X16798634Y-9555531D01*
X16798634Y-9555531D02*
X16808158Y-9526960D01*
X16808158Y-9526960D02*
X16817682Y-9479341D01*
X16817682Y-9479341D02*
X16817682Y-9441246D01*
X16817682Y-9441246D02*
X16808158Y-9393627D01*
X16808158Y-9393627D02*
X16798634Y-9365055D01*
X16798634Y-9365055D02*
X16789111Y-9346008D01*
X16789111Y-9346008D02*
X16770063Y-9317436D01*
X16770063Y-9317436D02*
X16760539Y-9307912D01*
D10*
X11795000Y-9709000D02*
G75*
G02*
X11725000Y-9709000I-35000J0D01*
G01*
X11725000Y-9709000D02*
G75*
G02*
X11795000Y-9709000I35000J0D01*
G01*
D11*
X12093872Y-9600484D02*
X12112920Y-9600484D01*
X12112920Y-9600484D02*
X12131967Y-9610008D01*
X12131967Y-9610008D02*
X12141491Y-9619531D01*
X12141491Y-9619531D02*
X12151015Y-9638579D01*
X12151015Y-9638579D02*
X12160539Y-9676674D01*
X12160539Y-9676674D02*
X12160539Y-9724293D01*
X12160539Y-9724293D02*
X12151015Y-9762389D01*
X12151015Y-9762389D02*
X12141491Y-9781436D01*
X12141491Y-9781436D02*
X12131967Y-9790960D01*
X12131967Y-9790960D02*
X12112920Y-9800484D01*
X12112920Y-9800484D02*
X12093872Y-9800484D01*
X12093872Y-9800484D02*
X12074824Y-9790960D01*
X12074824Y-9790960D02*
X12065301Y-9781436D01*
X12065301Y-9781436D02*
X12055777Y-9762389D01*
X12055777Y-9762389D02*
X12046253Y-9724293D01*
X12046253Y-9724293D02*
X12046253Y-9676674D01*
X12046253Y-9676674D02*
X12055777Y-9638579D01*
X12055777Y-9638579D02*
X12065301Y-9619531D01*
X12065301Y-9619531D02*
X12074824Y-9610008D01*
X12074824Y-9610008D02*
X12093872Y-9600484D01*
X12246253Y-9781436D02*
X12255777Y-9790960D01*
X12255777Y-9790960D02*
X12246253Y-9800484D01*
X12246253Y-9800484D02*
X12236729Y-9790960D01*
X12236729Y-9790960D02*
X12246253Y-9781436D01*
X12246253Y-9781436D02*
X12246253Y-9800484D01*
X12322443Y-9600484D02*
X12455777Y-9600484D01*
X12455777Y-9600484D02*
X12370062Y-9800484D01*
X12570062Y-9600484D02*
X12589110Y-9600484D01*
X12589110Y-9600484D02*
X12608158Y-9610008D01*
X12608158Y-9610008D02*
X12617682Y-9619531D01*
X12617682Y-9619531D02*
X12627205Y-9638579D01*
X12627205Y-9638579D02*
X12636729Y-9676674D01*
X12636729Y-9676674D02*
X12636729Y-9724293D01*
X12636729Y-9724293D02*
X12627205Y-9762389D01*
X12627205Y-9762389D02*
X12617682Y-9781436D01*
X12617682Y-9781436D02*
X12608158Y-9790960D01*
X12608158Y-9790960D02*
X12589110Y-9800484D01*
X12589110Y-9800484D02*
X12570062Y-9800484D01*
X12570062Y-9800484D02*
X12551015Y-9790960D01*
X12551015Y-9790960D02*
X12541491Y-9781436D01*
X12541491Y-9781436D02*
X12531967Y-9762389D01*
X12531967Y-9762389D02*
X12522443Y-9724293D01*
X12522443Y-9724293D02*
X12522443Y-9676674D01*
X12522443Y-9676674D02*
X12531967Y-9638579D01*
X12531967Y-9638579D02*
X12541491Y-9619531D01*
X12541491Y-9619531D02*
X12551015Y-9610008D01*
X12551015Y-9610008D02*
X12570062Y-9600484D01*
X12760539Y-9600484D02*
X12779586Y-9600484D01*
X12779586Y-9600484D02*
X12798634Y-9610008D01*
X12798634Y-9610008D02*
X12808158Y-9619531D01*
X12808158Y-9619531D02*
X12817682Y-9638579D01*
X12817682Y-9638579D02*
X12827205Y-9676674D01*
X12827205Y-9676674D02*
X12827205Y-9724293D01*
X12827205Y-9724293D02*
X12817682Y-9762389D01*
X12817682Y-9762389D02*
X12808158Y-9781436D01*
X12808158Y-9781436D02*
X12798634Y-9790960D01*
X12798634Y-9790960D02*
X12779586Y-9800484D01*
X12779586Y-9800484D02*
X12760539Y-9800484D01*
X12760539Y-9800484D02*
X12741491Y-9790960D01*
X12741491Y-9790960D02*
X12731967Y-9781436D01*
X12731967Y-9781436D02*
X12722443Y-9762389D01*
X12722443Y-9762389D02*
X12712920Y-9724293D01*
X12712920Y-9724293D02*
X12712920Y-9676674D01*
X12712920Y-9676674D02*
X12722443Y-9638579D01*
X12722443Y-9638579D02*
X12731967Y-9619531D01*
X12731967Y-9619531D02*
X12741491Y-9610008D01*
X12741491Y-9610008D02*
X12760539Y-9600484D01*
X12912920Y-9800484D02*
X12912920Y-9667150D01*
X12912920Y-9686198D02*
X12922443Y-9676674D01*
X12922443Y-9676674D02*
X12941491Y-9667150D01*
X12941491Y-9667150D02*
X12970063Y-9667150D01*
X12970063Y-9667150D02*
X12989110Y-9676674D01*
X12989110Y-9676674D02*
X12998634Y-9695722D01*
X12998634Y-9695722D02*
X12998634Y-9800484D01*
X12998634Y-9695722D02*
X13008158Y-9676674D01*
X13008158Y-9676674D02*
X13027205Y-9667150D01*
X13027205Y-9667150D02*
X13055777Y-9667150D01*
X13055777Y-9667150D02*
X13074824Y-9676674D01*
X13074824Y-9676674D02*
X13084348Y-9695722D01*
X13084348Y-9695722D02*
X13084348Y-9800484D01*
X13179586Y-9800484D02*
X13179586Y-9667150D01*
X13179586Y-9686198D02*
X13189110Y-9676674D01*
X13189110Y-9676674D02*
X13208158Y-9667150D01*
X13208158Y-9667150D02*
X13236729Y-9667150D01*
X13236729Y-9667150D02*
X13255777Y-9676674D01*
X13255777Y-9676674D02*
X13265301Y-9695722D01*
X13265301Y-9695722D02*
X13265301Y-9800484D01*
X13265301Y-9695722D02*
X13274824Y-9676674D01*
X13274824Y-9676674D02*
X13293872Y-9667150D01*
X13293872Y-9667150D02*
X13322443Y-9667150D01*
X13322443Y-9667150D02*
X13341491Y-9676674D01*
X13341491Y-9676674D02*
X13351015Y-9695722D01*
X13351015Y-9695722D02*
X13351015Y-9800484D01*
X13741491Y-9590960D02*
X13570063Y-9848103D01*
X13998634Y-9600484D02*
X14017682Y-9600484D01*
X14017682Y-9600484D02*
X14036729Y-9610008D01*
X14036729Y-9610008D02*
X14046253Y-9619531D01*
X14046253Y-9619531D02*
X14055777Y-9638579D01*
X14055777Y-9638579D02*
X14065301Y-9676674D01*
X14065301Y-9676674D02*
X14065301Y-9724293D01*
X14065301Y-9724293D02*
X14055777Y-9762389D01*
X14055777Y-9762389D02*
X14046253Y-9781436D01*
X14046253Y-9781436D02*
X14036729Y-9790960D01*
X14036729Y-9790960D02*
X14017682Y-9800484D01*
X14017682Y-9800484D02*
X13998634Y-9800484D01*
X13998634Y-9800484D02*
X13979586Y-9790960D01*
X13979586Y-9790960D02*
X13970063Y-9781436D01*
X13970063Y-9781436D02*
X13960539Y-9762389D01*
X13960539Y-9762389D02*
X13951015Y-9724293D01*
X13951015Y-9724293D02*
X13951015Y-9676674D01*
X13951015Y-9676674D02*
X13960539Y-9638579D01*
X13960539Y-9638579D02*
X13970063Y-9619531D01*
X13970063Y-9619531D02*
X13979586Y-9610008D01*
X13979586Y-9610008D02*
X13998634Y-9600484D01*
X14151015Y-9781436D02*
X14160539Y-9790960D01*
X14160539Y-9790960D02*
X14151015Y-9800484D01*
X14151015Y-9800484D02*
X14141491Y-9790960D01*
X14141491Y-9790960D02*
X14151015Y-9781436D01*
X14151015Y-9781436D02*
X14151015Y-9800484D01*
X14284348Y-9600484D02*
X14303396Y-9600484D01*
X14303396Y-9600484D02*
X14322444Y-9610008D01*
X14322444Y-9610008D02*
X14331967Y-9619531D01*
X14331967Y-9619531D02*
X14341491Y-9638579D01*
X14341491Y-9638579D02*
X14351015Y-9676674D01*
X14351015Y-9676674D02*
X14351015Y-9724293D01*
X14351015Y-9724293D02*
X14341491Y-9762389D01*
X14341491Y-9762389D02*
X14331967Y-9781436D01*
X14331967Y-9781436D02*
X14322444Y-9790960D01*
X14322444Y-9790960D02*
X14303396Y-9800484D01*
X14303396Y-9800484D02*
X14284348Y-9800484D01*
X14284348Y-9800484D02*
X14265301Y-9790960D01*
X14265301Y-9790960D02*
X14255777Y-9781436D01*
X14255777Y-9781436D02*
X14246253Y-9762389D01*
X14246253Y-9762389D02*
X14236729Y-9724293D01*
X14236729Y-9724293D02*
X14236729Y-9676674D01*
X14236729Y-9676674D02*
X14246253Y-9638579D01*
X14246253Y-9638579D02*
X14255777Y-9619531D01*
X14255777Y-9619531D02*
X14265301Y-9610008D01*
X14265301Y-9610008D02*
X14284348Y-9600484D01*
X14427206Y-9619531D02*
X14436729Y-9610008D01*
X14436729Y-9610008D02*
X14455777Y-9600484D01*
X14455777Y-9600484D02*
X14503396Y-9600484D01*
X14503396Y-9600484D02*
X14522444Y-9610008D01*
X14522444Y-9610008D02*
X14531967Y-9619531D01*
X14531967Y-9619531D02*
X14541491Y-9638579D01*
X14541491Y-9638579D02*
X14541491Y-9657627D01*
X14541491Y-9657627D02*
X14531967Y-9686198D01*
X14531967Y-9686198D02*
X14417682Y-9800484D01*
X14417682Y-9800484D02*
X14541491Y-9800484D01*
X14608158Y-9600484D02*
X14741491Y-9600484D01*
X14741491Y-9600484D02*
X14655777Y-9800484D01*
X14903396Y-9600484D02*
X14865301Y-9600484D01*
X14865301Y-9600484D02*
X14846253Y-9610008D01*
X14846253Y-9610008D02*
X14836729Y-9619531D01*
X14836729Y-9619531D02*
X14817682Y-9648103D01*
X14817682Y-9648103D02*
X14808158Y-9686198D01*
X14808158Y-9686198D02*
X14808158Y-9762389D01*
X14808158Y-9762389D02*
X14817682Y-9781436D01*
X14817682Y-9781436D02*
X14827206Y-9790960D01*
X14827206Y-9790960D02*
X14846253Y-9800484D01*
X14846253Y-9800484D02*
X14884348Y-9800484D01*
X14884348Y-9800484D02*
X14903396Y-9790960D01*
X14903396Y-9790960D02*
X14912920Y-9781436D01*
X14912920Y-9781436D02*
X14922444Y-9762389D01*
X14922444Y-9762389D02*
X14922444Y-9714770D01*
X14922444Y-9714770D02*
X14912920Y-9695722D01*
X14912920Y-9695722D02*
X14903396Y-9686198D01*
X14903396Y-9686198D02*
X14884348Y-9676674D01*
X14884348Y-9676674D02*
X14846253Y-9676674D01*
X14846253Y-9676674D02*
X14827206Y-9686198D01*
X14827206Y-9686198D02*
X14817682Y-9695722D01*
X14817682Y-9695722D02*
X14808158Y-9714770D01*
X14998634Y-9600484D02*
X14998634Y-9638579D01*
X15074825Y-9600484D02*
X15074825Y-9638579D01*
X15370063Y-9876674D02*
X15360539Y-9867150D01*
X15360539Y-9867150D02*
X15341491Y-9838579D01*
X15341491Y-9838579D02*
X15331968Y-9819531D01*
X15331968Y-9819531D02*
X15322444Y-9790960D01*
X15322444Y-9790960D02*
X15312920Y-9743341D01*
X15312920Y-9743341D02*
X15312920Y-9705246D01*
X15312920Y-9705246D02*
X15322444Y-9657627D01*
X15322444Y-9657627D02*
X15331968Y-9629055D01*
X15331968Y-9629055D02*
X15341491Y-9610008D01*
X15341491Y-9610008D02*
X15360539Y-9581436D01*
X15360539Y-9581436D02*
X15370063Y-9571912D01*
X15436729Y-9619531D02*
X15446253Y-9610008D01*
X15446253Y-9610008D02*
X15465301Y-9600484D01*
X15465301Y-9600484D02*
X15512920Y-9600484D01*
X15512920Y-9600484D02*
X15531968Y-9610008D01*
X15531968Y-9610008D02*
X15541491Y-9619531D01*
X15541491Y-9619531D02*
X15551015Y-9638579D01*
X15551015Y-9638579D02*
X15551015Y-9657627D01*
X15551015Y-9657627D02*
X15541491Y-9686198D01*
X15541491Y-9686198D02*
X15427206Y-9800484D01*
X15427206Y-9800484D02*
X15551015Y-9800484D01*
X15674825Y-9600484D02*
X15693872Y-9600484D01*
X15693872Y-9600484D02*
X15712920Y-9610008D01*
X15712920Y-9610008D02*
X15722444Y-9619531D01*
X15722444Y-9619531D02*
X15731968Y-9638579D01*
X15731968Y-9638579D02*
X15741491Y-9676674D01*
X15741491Y-9676674D02*
X15741491Y-9724293D01*
X15741491Y-9724293D02*
X15731968Y-9762389D01*
X15731968Y-9762389D02*
X15722444Y-9781436D01*
X15722444Y-9781436D02*
X15712920Y-9790960D01*
X15712920Y-9790960D02*
X15693872Y-9800484D01*
X15693872Y-9800484D02*
X15674825Y-9800484D01*
X15674825Y-9800484D02*
X15655777Y-9790960D01*
X15655777Y-9790960D02*
X15646253Y-9781436D01*
X15646253Y-9781436D02*
X15636729Y-9762389D01*
X15636729Y-9762389D02*
X15627206Y-9724293D01*
X15627206Y-9724293D02*
X15627206Y-9676674D01*
X15627206Y-9676674D02*
X15636729Y-9638579D01*
X15636729Y-9638579D02*
X15646253Y-9619531D01*
X15646253Y-9619531D02*
X15655777Y-9610008D01*
X15655777Y-9610008D02*
X15674825Y-9600484D01*
X15979587Y-9800484D02*
X15979587Y-9600484D01*
X16065301Y-9800484D02*
X16065301Y-9695722D01*
X16065301Y-9695722D02*
X16055777Y-9676674D01*
X16055777Y-9676674D02*
X16036730Y-9667150D01*
X16036730Y-9667150D02*
X16008158Y-9667150D01*
X16008158Y-9667150D02*
X15989110Y-9676674D01*
X15989110Y-9676674D02*
X15979587Y-9686198D01*
X16189110Y-9800484D02*
X16170063Y-9790960D01*
X16170063Y-9790960D02*
X16160539Y-9781436D01*
X16160539Y-9781436D02*
X16151015Y-9762389D01*
X16151015Y-9762389D02*
X16151015Y-9705246D01*
X16151015Y-9705246D02*
X16160539Y-9686198D01*
X16160539Y-9686198D02*
X16170063Y-9676674D01*
X16170063Y-9676674D02*
X16189110Y-9667150D01*
X16189110Y-9667150D02*
X16217682Y-9667150D01*
X16217682Y-9667150D02*
X16236730Y-9676674D01*
X16236730Y-9676674D02*
X16246253Y-9686198D01*
X16246253Y-9686198D02*
X16255777Y-9705246D01*
X16255777Y-9705246D02*
X16255777Y-9762389D01*
X16255777Y-9762389D02*
X16246253Y-9781436D01*
X16246253Y-9781436D02*
X16236730Y-9790960D01*
X16236730Y-9790960D02*
X16217682Y-9800484D01*
X16217682Y-9800484D02*
X16189110Y-9800484D01*
X16370063Y-9800484D02*
X16351015Y-9790960D01*
X16351015Y-9790960D02*
X16341491Y-9771912D01*
X16341491Y-9771912D02*
X16341491Y-9600484D01*
X16522444Y-9790960D02*
X16503396Y-9800484D01*
X16503396Y-9800484D02*
X16465301Y-9800484D01*
X16465301Y-9800484D02*
X16446253Y-9790960D01*
X16446253Y-9790960D02*
X16436730Y-9771912D01*
X16436730Y-9771912D02*
X16436730Y-9695722D01*
X16436730Y-9695722D02*
X16446253Y-9676674D01*
X16446253Y-9676674D02*
X16465301Y-9667150D01*
X16465301Y-9667150D02*
X16503396Y-9667150D01*
X16503396Y-9667150D02*
X16522444Y-9676674D01*
X16522444Y-9676674D02*
X16531968Y-9695722D01*
X16531968Y-9695722D02*
X16531968Y-9714770D01*
X16531968Y-9714770D02*
X16436730Y-9733817D01*
X16608158Y-9790960D02*
X16627206Y-9800484D01*
X16627206Y-9800484D02*
X16665301Y-9800484D01*
X16665301Y-9800484D02*
X16684349Y-9790960D01*
X16684349Y-9790960D02*
X16693872Y-9771912D01*
X16693872Y-9771912D02*
X16693872Y-9762389D01*
X16693872Y-9762389D02*
X16684349Y-9743341D01*
X16684349Y-9743341D02*
X16665301Y-9733817D01*
X16665301Y-9733817D02*
X16636730Y-9733817D01*
X16636730Y-9733817D02*
X16617682Y-9724293D01*
X16617682Y-9724293D02*
X16608158Y-9705246D01*
X16608158Y-9705246D02*
X16608158Y-9695722D01*
X16608158Y-9695722D02*
X16617682Y-9676674D01*
X16617682Y-9676674D02*
X16636730Y-9667150D01*
X16636730Y-9667150D02*
X16665301Y-9667150D01*
X16665301Y-9667150D02*
X16684349Y-9676674D01*
X16760539Y-9876674D02*
X16770063Y-9867150D01*
X16770063Y-9867150D02*
X16789111Y-9838579D01*
X16789111Y-9838579D02*
X16798634Y-9819531D01*
X16798634Y-9819531D02*
X16808158Y-9790960D01*
X16808158Y-9790960D02*
X16817682Y-9743341D01*
X16817682Y-9743341D02*
X16817682Y-9705246D01*
X16817682Y-9705246D02*
X16808158Y-9657627D01*
X16808158Y-9657627D02*
X16798634Y-9629055D01*
X16798634Y-9629055D02*
X16789111Y-9610008D01*
X16789111Y-9610008D02*
X16770063Y-9581436D01*
X16770063Y-9581436D02*
X16760539Y-9571912D01*
D10*
X11755000Y-9933000D02*
X11755000Y-10013000D01*
X11715000Y-9973000D02*
X11795000Y-9973000D01*
D11*
X12093872Y-9864484D02*
X12112920Y-9864484D01*
X12112920Y-9864484D02*
X12131967Y-9874008D01*
X12131967Y-9874008D02*
X12141491Y-9883531D01*
X12141491Y-9883531D02*
X12151015Y-9902579D01*
X12151015Y-9902579D02*
X12160539Y-9940674D01*
X12160539Y-9940674D02*
X12160539Y-9988293D01*
X12160539Y-9988293D02*
X12151015Y-10026389D01*
X12151015Y-10026389D02*
X12141491Y-10045436D01*
X12141491Y-10045436D02*
X12131967Y-10054960D01*
X12131967Y-10054960D02*
X12112920Y-10064484D01*
X12112920Y-10064484D02*
X12093872Y-10064484D01*
X12093872Y-10064484D02*
X12074824Y-10054960D01*
X12074824Y-10054960D02*
X12065301Y-10045436D01*
X12065301Y-10045436D02*
X12055777Y-10026389D01*
X12055777Y-10026389D02*
X12046253Y-9988293D01*
X12046253Y-9988293D02*
X12046253Y-9940674D01*
X12046253Y-9940674D02*
X12055777Y-9902579D01*
X12055777Y-9902579D02*
X12065301Y-9883531D01*
X12065301Y-9883531D02*
X12074824Y-9874008D01*
X12074824Y-9874008D02*
X12093872Y-9864484D01*
X12246253Y-10045436D02*
X12255777Y-10054960D01*
X12255777Y-10054960D02*
X12246253Y-10064484D01*
X12246253Y-10064484D02*
X12236729Y-10054960D01*
X12236729Y-10054960D02*
X12246253Y-10045436D01*
X12246253Y-10045436D02*
X12246253Y-10064484D01*
X12370062Y-9950198D02*
X12351015Y-9940674D01*
X12351015Y-9940674D02*
X12341491Y-9931150D01*
X12341491Y-9931150D02*
X12331967Y-9912103D01*
X12331967Y-9912103D02*
X12331967Y-9902579D01*
X12331967Y-9902579D02*
X12341491Y-9883531D01*
X12341491Y-9883531D02*
X12351015Y-9874008D01*
X12351015Y-9874008D02*
X12370062Y-9864484D01*
X12370062Y-9864484D02*
X12408158Y-9864484D01*
X12408158Y-9864484D02*
X12427205Y-9874008D01*
X12427205Y-9874008D02*
X12436729Y-9883531D01*
X12436729Y-9883531D02*
X12446253Y-9902579D01*
X12446253Y-9902579D02*
X12446253Y-9912103D01*
X12446253Y-9912103D02*
X12436729Y-9931150D01*
X12436729Y-9931150D02*
X12427205Y-9940674D01*
X12427205Y-9940674D02*
X12408158Y-9950198D01*
X12408158Y-9950198D02*
X12370062Y-9950198D01*
X12370062Y-9950198D02*
X12351015Y-9959722D01*
X12351015Y-9959722D02*
X12341491Y-9969246D01*
X12341491Y-9969246D02*
X12331967Y-9988293D01*
X12331967Y-9988293D02*
X12331967Y-10026389D01*
X12331967Y-10026389D02*
X12341491Y-10045436D01*
X12341491Y-10045436D02*
X12351015Y-10054960D01*
X12351015Y-10054960D02*
X12370062Y-10064484D01*
X12370062Y-10064484D02*
X12408158Y-10064484D01*
X12408158Y-10064484D02*
X12427205Y-10054960D01*
X12427205Y-10054960D02*
X12436729Y-10045436D01*
X12436729Y-10045436D02*
X12446253Y-10026389D01*
X12446253Y-10026389D02*
X12446253Y-9988293D01*
X12446253Y-9988293D02*
X12436729Y-9969246D01*
X12436729Y-9969246D02*
X12427205Y-9959722D01*
X12427205Y-9959722D02*
X12408158Y-9950198D01*
X12570062Y-9864484D02*
X12589110Y-9864484D01*
X12589110Y-9864484D02*
X12608158Y-9874008D01*
X12608158Y-9874008D02*
X12617682Y-9883531D01*
X12617682Y-9883531D02*
X12627205Y-9902579D01*
X12627205Y-9902579D02*
X12636729Y-9940674D01*
X12636729Y-9940674D02*
X12636729Y-9988293D01*
X12636729Y-9988293D02*
X12627205Y-10026389D01*
X12627205Y-10026389D02*
X12617682Y-10045436D01*
X12617682Y-10045436D02*
X12608158Y-10054960D01*
X12608158Y-10054960D02*
X12589110Y-10064484D01*
X12589110Y-10064484D02*
X12570062Y-10064484D01*
X12570062Y-10064484D02*
X12551015Y-10054960D01*
X12551015Y-10054960D02*
X12541491Y-10045436D01*
X12541491Y-10045436D02*
X12531967Y-10026389D01*
X12531967Y-10026389D02*
X12522443Y-9988293D01*
X12522443Y-9988293D02*
X12522443Y-9940674D01*
X12522443Y-9940674D02*
X12531967Y-9902579D01*
X12531967Y-9902579D02*
X12541491Y-9883531D01*
X12541491Y-9883531D02*
X12551015Y-9874008D01*
X12551015Y-9874008D02*
X12570062Y-9864484D01*
X12760539Y-9864484D02*
X12779586Y-9864484D01*
X12779586Y-9864484D02*
X12798634Y-9874008D01*
X12798634Y-9874008D02*
X12808158Y-9883531D01*
X12808158Y-9883531D02*
X12817682Y-9902579D01*
X12817682Y-9902579D02*
X12827205Y-9940674D01*
X12827205Y-9940674D02*
X12827205Y-9988293D01*
X12827205Y-9988293D02*
X12817682Y-10026389D01*
X12817682Y-10026389D02*
X12808158Y-10045436D01*
X12808158Y-10045436D02*
X12798634Y-10054960D01*
X12798634Y-10054960D02*
X12779586Y-10064484D01*
X12779586Y-10064484D02*
X12760539Y-10064484D01*
X12760539Y-10064484D02*
X12741491Y-10054960D01*
X12741491Y-10054960D02*
X12731967Y-10045436D01*
X12731967Y-10045436D02*
X12722443Y-10026389D01*
X12722443Y-10026389D02*
X12712920Y-9988293D01*
X12712920Y-9988293D02*
X12712920Y-9940674D01*
X12712920Y-9940674D02*
X12722443Y-9902579D01*
X12722443Y-9902579D02*
X12731967Y-9883531D01*
X12731967Y-9883531D02*
X12741491Y-9874008D01*
X12741491Y-9874008D02*
X12760539Y-9864484D01*
X12912920Y-10064484D02*
X12912920Y-9931150D01*
X12912920Y-9950198D02*
X12922443Y-9940674D01*
X12922443Y-9940674D02*
X12941491Y-9931150D01*
X12941491Y-9931150D02*
X12970063Y-9931150D01*
X12970063Y-9931150D02*
X12989110Y-9940674D01*
X12989110Y-9940674D02*
X12998634Y-9959722D01*
X12998634Y-9959722D02*
X12998634Y-10064484D01*
X12998634Y-9959722D02*
X13008158Y-9940674D01*
X13008158Y-9940674D02*
X13027205Y-9931150D01*
X13027205Y-9931150D02*
X13055777Y-9931150D01*
X13055777Y-9931150D02*
X13074824Y-9940674D01*
X13074824Y-9940674D02*
X13084348Y-9959722D01*
X13084348Y-9959722D02*
X13084348Y-10064484D01*
X13179586Y-10064484D02*
X13179586Y-9931150D01*
X13179586Y-9950198D02*
X13189110Y-9940674D01*
X13189110Y-9940674D02*
X13208158Y-9931150D01*
X13208158Y-9931150D02*
X13236729Y-9931150D01*
X13236729Y-9931150D02*
X13255777Y-9940674D01*
X13255777Y-9940674D02*
X13265301Y-9959722D01*
X13265301Y-9959722D02*
X13265301Y-10064484D01*
X13265301Y-9959722D02*
X13274824Y-9940674D01*
X13274824Y-9940674D02*
X13293872Y-9931150D01*
X13293872Y-9931150D02*
X13322443Y-9931150D01*
X13322443Y-9931150D02*
X13341491Y-9940674D01*
X13341491Y-9940674D02*
X13351015Y-9959722D01*
X13351015Y-9959722D02*
X13351015Y-10064484D01*
X13741491Y-9854960D02*
X13570063Y-10112103D01*
X13998634Y-9864484D02*
X14017682Y-9864484D01*
X14017682Y-9864484D02*
X14036729Y-9874008D01*
X14036729Y-9874008D02*
X14046253Y-9883531D01*
X14046253Y-9883531D02*
X14055777Y-9902579D01*
X14055777Y-9902579D02*
X14065301Y-9940674D01*
X14065301Y-9940674D02*
X14065301Y-9988293D01*
X14065301Y-9988293D02*
X14055777Y-10026389D01*
X14055777Y-10026389D02*
X14046253Y-10045436D01*
X14046253Y-10045436D02*
X14036729Y-10054960D01*
X14036729Y-10054960D02*
X14017682Y-10064484D01*
X14017682Y-10064484D02*
X13998634Y-10064484D01*
X13998634Y-10064484D02*
X13979586Y-10054960D01*
X13979586Y-10054960D02*
X13970063Y-10045436D01*
X13970063Y-10045436D02*
X13960539Y-10026389D01*
X13960539Y-10026389D02*
X13951015Y-9988293D01*
X13951015Y-9988293D02*
X13951015Y-9940674D01*
X13951015Y-9940674D02*
X13960539Y-9902579D01*
X13960539Y-9902579D02*
X13970063Y-9883531D01*
X13970063Y-9883531D02*
X13979586Y-9874008D01*
X13979586Y-9874008D02*
X13998634Y-9864484D01*
X14151015Y-10045436D02*
X14160539Y-10054960D01*
X14160539Y-10054960D02*
X14151015Y-10064484D01*
X14151015Y-10064484D02*
X14141491Y-10054960D01*
X14141491Y-10054960D02*
X14151015Y-10045436D01*
X14151015Y-10045436D02*
X14151015Y-10064484D01*
X14284348Y-9864484D02*
X14303396Y-9864484D01*
X14303396Y-9864484D02*
X14322444Y-9874008D01*
X14322444Y-9874008D02*
X14331967Y-9883531D01*
X14331967Y-9883531D02*
X14341491Y-9902579D01*
X14341491Y-9902579D02*
X14351015Y-9940674D01*
X14351015Y-9940674D02*
X14351015Y-9988293D01*
X14351015Y-9988293D02*
X14341491Y-10026389D01*
X14341491Y-10026389D02*
X14331967Y-10045436D01*
X14331967Y-10045436D02*
X14322444Y-10054960D01*
X14322444Y-10054960D02*
X14303396Y-10064484D01*
X14303396Y-10064484D02*
X14284348Y-10064484D01*
X14284348Y-10064484D02*
X14265301Y-10054960D01*
X14265301Y-10054960D02*
X14255777Y-10045436D01*
X14255777Y-10045436D02*
X14246253Y-10026389D01*
X14246253Y-10026389D02*
X14236729Y-9988293D01*
X14236729Y-9988293D02*
X14236729Y-9940674D01*
X14236729Y-9940674D02*
X14246253Y-9902579D01*
X14246253Y-9902579D02*
X14255777Y-9883531D01*
X14255777Y-9883531D02*
X14265301Y-9874008D01*
X14265301Y-9874008D02*
X14284348Y-9864484D01*
X14417682Y-9864484D02*
X14541491Y-9864484D01*
X14541491Y-9864484D02*
X14474825Y-9940674D01*
X14474825Y-9940674D02*
X14503396Y-9940674D01*
X14503396Y-9940674D02*
X14522444Y-9950198D01*
X14522444Y-9950198D02*
X14531967Y-9959722D01*
X14531967Y-9959722D02*
X14541491Y-9978770D01*
X14541491Y-9978770D02*
X14541491Y-10026389D01*
X14541491Y-10026389D02*
X14531967Y-10045436D01*
X14531967Y-10045436D02*
X14522444Y-10054960D01*
X14522444Y-10054960D02*
X14503396Y-10064484D01*
X14503396Y-10064484D02*
X14446253Y-10064484D01*
X14446253Y-10064484D02*
X14427206Y-10054960D01*
X14427206Y-10054960D02*
X14417682Y-10045436D01*
X14731967Y-10064484D02*
X14617682Y-10064484D01*
X14674825Y-10064484D02*
X14674825Y-9864484D01*
X14674825Y-9864484D02*
X14655777Y-9893055D01*
X14655777Y-9893055D02*
X14636729Y-9912103D01*
X14636729Y-9912103D02*
X14617682Y-9921627D01*
X14912920Y-9864484D02*
X14817682Y-9864484D01*
X14817682Y-9864484D02*
X14808158Y-9959722D01*
X14808158Y-9959722D02*
X14817682Y-9950198D01*
X14817682Y-9950198D02*
X14836729Y-9940674D01*
X14836729Y-9940674D02*
X14884348Y-9940674D01*
X14884348Y-9940674D02*
X14903396Y-9950198D01*
X14903396Y-9950198D02*
X14912920Y-9959722D01*
X14912920Y-9959722D02*
X14922444Y-9978770D01*
X14922444Y-9978770D02*
X14922444Y-10026389D01*
X14922444Y-10026389D02*
X14912920Y-10045436D01*
X14912920Y-10045436D02*
X14903396Y-10054960D01*
X14903396Y-10054960D02*
X14884348Y-10064484D01*
X14884348Y-10064484D02*
X14836729Y-10064484D01*
X14836729Y-10064484D02*
X14817682Y-10054960D01*
X14817682Y-10054960D02*
X14808158Y-10045436D01*
X14998634Y-9864484D02*
X14998634Y-9902579D01*
X15074825Y-9864484D02*
X15074825Y-9902579D01*
X15370063Y-10140674D02*
X15360539Y-10131150D01*
X15360539Y-10131150D02*
X15341491Y-10102579D01*
X15341491Y-10102579D02*
X15331968Y-10083531D01*
X15331968Y-10083531D02*
X15322444Y-10054960D01*
X15322444Y-10054960D02*
X15312920Y-10007341D01*
X15312920Y-10007341D02*
X15312920Y-9969246D01*
X15312920Y-9969246D02*
X15322444Y-9921627D01*
X15322444Y-9921627D02*
X15331968Y-9893055D01*
X15331968Y-9893055D02*
X15341491Y-9874008D01*
X15341491Y-9874008D02*
X15360539Y-9845436D01*
X15360539Y-9845436D02*
X15370063Y-9835912D01*
X15427206Y-9864484D02*
X15551015Y-9864484D01*
X15551015Y-9864484D02*
X15484348Y-9940674D01*
X15484348Y-9940674D02*
X15512920Y-9940674D01*
X15512920Y-9940674D02*
X15531968Y-9950198D01*
X15531968Y-9950198D02*
X15541491Y-9959722D01*
X15541491Y-9959722D02*
X15551015Y-9978770D01*
X15551015Y-9978770D02*
X15551015Y-10026389D01*
X15551015Y-10026389D02*
X15541491Y-10045436D01*
X15541491Y-10045436D02*
X15531968Y-10054960D01*
X15531968Y-10054960D02*
X15512920Y-10064484D01*
X15512920Y-10064484D02*
X15455777Y-10064484D01*
X15455777Y-10064484D02*
X15436729Y-10054960D01*
X15436729Y-10054960D02*
X15427206Y-10045436D01*
X15674825Y-9864484D02*
X15693872Y-9864484D01*
X15693872Y-9864484D02*
X15712920Y-9874008D01*
X15712920Y-9874008D02*
X15722444Y-9883531D01*
X15722444Y-9883531D02*
X15731968Y-9902579D01*
X15731968Y-9902579D02*
X15741491Y-9940674D01*
X15741491Y-9940674D02*
X15741491Y-9988293D01*
X15741491Y-9988293D02*
X15731968Y-10026389D01*
X15731968Y-10026389D02*
X15722444Y-10045436D01*
X15722444Y-10045436D02*
X15712920Y-10054960D01*
X15712920Y-10054960D02*
X15693872Y-10064484D01*
X15693872Y-10064484D02*
X15674825Y-10064484D01*
X15674825Y-10064484D02*
X15655777Y-10054960D01*
X15655777Y-10054960D02*
X15646253Y-10045436D01*
X15646253Y-10045436D02*
X15636729Y-10026389D01*
X15636729Y-10026389D02*
X15627206Y-9988293D01*
X15627206Y-9988293D02*
X15627206Y-9940674D01*
X15627206Y-9940674D02*
X15636729Y-9902579D01*
X15636729Y-9902579D02*
X15646253Y-9883531D01*
X15646253Y-9883531D02*
X15655777Y-9874008D01*
X15655777Y-9874008D02*
X15674825Y-9864484D01*
X15979587Y-10064484D02*
X15979587Y-9864484D01*
X16065301Y-10064484D02*
X16065301Y-9959722D01*
X16065301Y-9959722D02*
X16055777Y-9940674D01*
X16055777Y-9940674D02*
X16036730Y-9931150D01*
X16036730Y-9931150D02*
X16008158Y-9931150D01*
X16008158Y-9931150D02*
X15989110Y-9940674D01*
X15989110Y-9940674D02*
X15979587Y-9950198D01*
X16189110Y-10064484D02*
X16170063Y-10054960D01*
X16170063Y-10054960D02*
X16160539Y-10045436D01*
X16160539Y-10045436D02*
X16151015Y-10026389D01*
X16151015Y-10026389D02*
X16151015Y-9969246D01*
X16151015Y-9969246D02*
X16160539Y-9950198D01*
X16160539Y-9950198D02*
X16170063Y-9940674D01*
X16170063Y-9940674D02*
X16189110Y-9931150D01*
X16189110Y-9931150D02*
X16217682Y-9931150D01*
X16217682Y-9931150D02*
X16236730Y-9940674D01*
X16236730Y-9940674D02*
X16246253Y-9950198D01*
X16246253Y-9950198D02*
X16255777Y-9969246D01*
X16255777Y-9969246D02*
X16255777Y-10026389D01*
X16255777Y-10026389D02*
X16246253Y-10045436D01*
X16246253Y-10045436D02*
X16236730Y-10054960D01*
X16236730Y-10054960D02*
X16217682Y-10064484D01*
X16217682Y-10064484D02*
X16189110Y-10064484D01*
X16370063Y-10064484D02*
X16351015Y-10054960D01*
X16351015Y-10054960D02*
X16341491Y-10035912D01*
X16341491Y-10035912D02*
X16341491Y-9864484D01*
X16522444Y-10054960D02*
X16503396Y-10064484D01*
X16503396Y-10064484D02*
X16465301Y-10064484D01*
X16465301Y-10064484D02*
X16446253Y-10054960D01*
X16446253Y-10054960D02*
X16436730Y-10035912D01*
X16436730Y-10035912D02*
X16436730Y-9959722D01*
X16436730Y-9959722D02*
X16446253Y-9940674D01*
X16446253Y-9940674D02*
X16465301Y-9931150D01*
X16465301Y-9931150D02*
X16503396Y-9931150D01*
X16503396Y-9931150D02*
X16522444Y-9940674D01*
X16522444Y-9940674D02*
X16531968Y-9959722D01*
X16531968Y-9959722D02*
X16531968Y-9978770D01*
X16531968Y-9978770D02*
X16436730Y-9997817D01*
X16608158Y-10054960D02*
X16627206Y-10064484D01*
X16627206Y-10064484D02*
X16665301Y-10064484D01*
X16665301Y-10064484D02*
X16684349Y-10054960D01*
X16684349Y-10054960D02*
X16693872Y-10035912D01*
X16693872Y-10035912D02*
X16693872Y-10026389D01*
X16693872Y-10026389D02*
X16684349Y-10007341D01*
X16684349Y-10007341D02*
X16665301Y-9997817D01*
X16665301Y-9997817D02*
X16636730Y-9997817D01*
X16636730Y-9997817D02*
X16617682Y-9988293D01*
X16617682Y-9988293D02*
X16608158Y-9969246D01*
X16608158Y-9969246D02*
X16608158Y-9959722D01*
X16608158Y-9959722D02*
X16617682Y-9940674D01*
X16617682Y-9940674D02*
X16636730Y-9931150D01*
X16636730Y-9931150D02*
X16665301Y-9931150D01*
X16665301Y-9931150D02*
X16684349Y-9940674D01*
X16760539Y-10140674D02*
X16770063Y-10131150D01*
X16770063Y-10131150D02*
X16789111Y-10102579D01*
X16789111Y-10102579D02*
X16798634Y-10083531D01*
X16798634Y-10083531D02*
X16808158Y-10054960D01*
X16808158Y-10054960D02*
X16817682Y-10007341D01*
X16817682Y-10007341D02*
X16817682Y-9969246D01*
X16817682Y-9969246D02*
X16808158Y-9921627D01*
X16808158Y-9921627D02*
X16798634Y-9893055D01*
X16798634Y-9893055D02*
X16789111Y-9874008D01*
X16789111Y-9874008D02*
X16770063Y-9845436D01*
X16770063Y-9845436D02*
X16760539Y-9835912D01*
D10*
X11780356Y-10272356D02*
X11780356Y-10201644D01*
X11709644Y-10201644D01*
X11709644Y-10272356D01*
X11780356Y-10272356D01*
D11*
X12160539Y-10328484D02*
X12046253Y-10328484D01*
X12103396Y-10328484D02*
X12103396Y-10128484D01*
X12103396Y-10128484D02*
X12084348Y-10157055D01*
X12084348Y-10157055D02*
X12065301Y-10176103D01*
X12065301Y-10176103D02*
X12046253Y-10185627D01*
X12246253Y-10309436D02*
X12255777Y-10318960D01*
X12255777Y-10318960D02*
X12246253Y-10328484D01*
X12246253Y-10328484D02*
X12236729Y-10318960D01*
X12236729Y-10318960D02*
X12246253Y-10309436D01*
X12246253Y-10309436D02*
X12246253Y-10328484D01*
X12379586Y-10128484D02*
X12398634Y-10128484D01*
X12398634Y-10128484D02*
X12417682Y-10138008D01*
X12417682Y-10138008D02*
X12427205Y-10147531D01*
X12427205Y-10147531D02*
X12436729Y-10166579D01*
X12436729Y-10166579D02*
X12446253Y-10204674D01*
X12446253Y-10204674D02*
X12446253Y-10252293D01*
X12446253Y-10252293D02*
X12436729Y-10290389D01*
X12436729Y-10290389D02*
X12427205Y-10309436D01*
X12427205Y-10309436D02*
X12417682Y-10318960D01*
X12417682Y-10318960D02*
X12398634Y-10328484D01*
X12398634Y-10328484D02*
X12379586Y-10328484D01*
X12379586Y-10328484D02*
X12360539Y-10318960D01*
X12360539Y-10318960D02*
X12351015Y-10309436D01*
X12351015Y-10309436D02*
X12341491Y-10290389D01*
X12341491Y-10290389D02*
X12331967Y-10252293D01*
X12331967Y-10252293D02*
X12331967Y-10204674D01*
X12331967Y-10204674D02*
X12341491Y-10166579D01*
X12341491Y-10166579D02*
X12351015Y-10147531D01*
X12351015Y-10147531D02*
X12360539Y-10138008D01*
X12360539Y-10138008D02*
X12379586Y-10128484D01*
X12570062Y-10128484D02*
X12589110Y-10128484D01*
X12589110Y-10128484D02*
X12608158Y-10138008D01*
X12608158Y-10138008D02*
X12617682Y-10147531D01*
X12617682Y-10147531D02*
X12627205Y-10166579D01*
X12627205Y-10166579D02*
X12636729Y-10204674D01*
X12636729Y-10204674D02*
X12636729Y-10252293D01*
X12636729Y-10252293D02*
X12627205Y-10290389D01*
X12627205Y-10290389D02*
X12617682Y-10309436D01*
X12617682Y-10309436D02*
X12608158Y-10318960D01*
X12608158Y-10318960D02*
X12589110Y-10328484D01*
X12589110Y-10328484D02*
X12570062Y-10328484D01*
X12570062Y-10328484D02*
X12551015Y-10318960D01*
X12551015Y-10318960D02*
X12541491Y-10309436D01*
X12541491Y-10309436D02*
X12531967Y-10290389D01*
X12531967Y-10290389D02*
X12522443Y-10252293D01*
X12522443Y-10252293D02*
X12522443Y-10204674D01*
X12522443Y-10204674D02*
X12531967Y-10166579D01*
X12531967Y-10166579D02*
X12541491Y-10147531D01*
X12541491Y-10147531D02*
X12551015Y-10138008D01*
X12551015Y-10138008D02*
X12570062Y-10128484D01*
X12760539Y-10128484D02*
X12779586Y-10128484D01*
X12779586Y-10128484D02*
X12798634Y-10138008D01*
X12798634Y-10138008D02*
X12808158Y-10147531D01*
X12808158Y-10147531D02*
X12817682Y-10166579D01*
X12817682Y-10166579D02*
X12827205Y-10204674D01*
X12827205Y-10204674D02*
X12827205Y-10252293D01*
X12827205Y-10252293D02*
X12817682Y-10290389D01*
X12817682Y-10290389D02*
X12808158Y-10309436D01*
X12808158Y-10309436D02*
X12798634Y-10318960D01*
X12798634Y-10318960D02*
X12779586Y-10328484D01*
X12779586Y-10328484D02*
X12760539Y-10328484D01*
X12760539Y-10328484D02*
X12741491Y-10318960D01*
X12741491Y-10318960D02*
X12731967Y-10309436D01*
X12731967Y-10309436D02*
X12722443Y-10290389D01*
X12722443Y-10290389D02*
X12712920Y-10252293D01*
X12712920Y-10252293D02*
X12712920Y-10204674D01*
X12712920Y-10204674D02*
X12722443Y-10166579D01*
X12722443Y-10166579D02*
X12731967Y-10147531D01*
X12731967Y-10147531D02*
X12741491Y-10138008D01*
X12741491Y-10138008D02*
X12760539Y-10128484D01*
X12912920Y-10328484D02*
X12912920Y-10195150D01*
X12912920Y-10214198D02*
X12922443Y-10204674D01*
X12922443Y-10204674D02*
X12941491Y-10195150D01*
X12941491Y-10195150D02*
X12970063Y-10195150D01*
X12970063Y-10195150D02*
X12989110Y-10204674D01*
X12989110Y-10204674D02*
X12998634Y-10223722D01*
X12998634Y-10223722D02*
X12998634Y-10328484D01*
X12998634Y-10223722D02*
X13008158Y-10204674D01*
X13008158Y-10204674D02*
X13027205Y-10195150D01*
X13027205Y-10195150D02*
X13055777Y-10195150D01*
X13055777Y-10195150D02*
X13074824Y-10204674D01*
X13074824Y-10204674D02*
X13084348Y-10223722D01*
X13084348Y-10223722D02*
X13084348Y-10328484D01*
X13179586Y-10328484D02*
X13179586Y-10195150D01*
X13179586Y-10214198D02*
X13189110Y-10204674D01*
X13189110Y-10204674D02*
X13208158Y-10195150D01*
X13208158Y-10195150D02*
X13236729Y-10195150D01*
X13236729Y-10195150D02*
X13255777Y-10204674D01*
X13255777Y-10204674D02*
X13265301Y-10223722D01*
X13265301Y-10223722D02*
X13265301Y-10328484D01*
X13265301Y-10223722D02*
X13274824Y-10204674D01*
X13274824Y-10204674D02*
X13293872Y-10195150D01*
X13293872Y-10195150D02*
X13322443Y-10195150D01*
X13322443Y-10195150D02*
X13341491Y-10204674D01*
X13341491Y-10204674D02*
X13351015Y-10223722D01*
X13351015Y-10223722D02*
X13351015Y-10328484D01*
X13741491Y-10118960D02*
X13570063Y-10376103D01*
X13998634Y-10128484D02*
X14017682Y-10128484D01*
X14017682Y-10128484D02*
X14036729Y-10138008D01*
X14036729Y-10138008D02*
X14046253Y-10147531D01*
X14046253Y-10147531D02*
X14055777Y-10166579D01*
X14055777Y-10166579D02*
X14065301Y-10204674D01*
X14065301Y-10204674D02*
X14065301Y-10252293D01*
X14065301Y-10252293D02*
X14055777Y-10290389D01*
X14055777Y-10290389D02*
X14046253Y-10309436D01*
X14046253Y-10309436D02*
X14036729Y-10318960D01*
X14036729Y-10318960D02*
X14017682Y-10328484D01*
X14017682Y-10328484D02*
X13998634Y-10328484D01*
X13998634Y-10328484D02*
X13979586Y-10318960D01*
X13979586Y-10318960D02*
X13970063Y-10309436D01*
X13970063Y-10309436D02*
X13960539Y-10290389D01*
X13960539Y-10290389D02*
X13951015Y-10252293D01*
X13951015Y-10252293D02*
X13951015Y-10204674D01*
X13951015Y-10204674D02*
X13960539Y-10166579D01*
X13960539Y-10166579D02*
X13970063Y-10147531D01*
X13970063Y-10147531D02*
X13979586Y-10138008D01*
X13979586Y-10138008D02*
X13998634Y-10128484D01*
X14151015Y-10309436D02*
X14160539Y-10318960D01*
X14160539Y-10318960D02*
X14151015Y-10328484D01*
X14151015Y-10328484D02*
X14141491Y-10318960D01*
X14141491Y-10318960D02*
X14151015Y-10309436D01*
X14151015Y-10309436D02*
X14151015Y-10328484D01*
X14284348Y-10128484D02*
X14303396Y-10128484D01*
X14303396Y-10128484D02*
X14322444Y-10138008D01*
X14322444Y-10138008D02*
X14331967Y-10147531D01*
X14331967Y-10147531D02*
X14341491Y-10166579D01*
X14341491Y-10166579D02*
X14351015Y-10204674D01*
X14351015Y-10204674D02*
X14351015Y-10252293D01*
X14351015Y-10252293D02*
X14341491Y-10290389D01*
X14341491Y-10290389D02*
X14331967Y-10309436D01*
X14331967Y-10309436D02*
X14322444Y-10318960D01*
X14322444Y-10318960D02*
X14303396Y-10328484D01*
X14303396Y-10328484D02*
X14284348Y-10328484D01*
X14284348Y-10328484D02*
X14265301Y-10318960D01*
X14265301Y-10318960D02*
X14255777Y-10309436D01*
X14255777Y-10309436D02*
X14246253Y-10290389D01*
X14246253Y-10290389D02*
X14236729Y-10252293D01*
X14236729Y-10252293D02*
X14236729Y-10204674D01*
X14236729Y-10204674D02*
X14246253Y-10166579D01*
X14246253Y-10166579D02*
X14255777Y-10147531D01*
X14255777Y-10147531D02*
X14265301Y-10138008D01*
X14265301Y-10138008D02*
X14284348Y-10128484D01*
X14417682Y-10128484D02*
X14541491Y-10128484D01*
X14541491Y-10128484D02*
X14474825Y-10204674D01*
X14474825Y-10204674D02*
X14503396Y-10204674D01*
X14503396Y-10204674D02*
X14522444Y-10214198D01*
X14522444Y-10214198D02*
X14531967Y-10223722D01*
X14531967Y-10223722D02*
X14541491Y-10242770D01*
X14541491Y-10242770D02*
X14541491Y-10290389D01*
X14541491Y-10290389D02*
X14531967Y-10309436D01*
X14531967Y-10309436D02*
X14522444Y-10318960D01*
X14522444Y-10318960D02*
X14503396Y-10328484D01*
X14503396Y-10328484D02*
X14446253Y-10328484D01*
X14446253Y-10328484D02*
X14427206Y-10318960D01*
X14427206Y-10318960D02*
X14417682Y-10309436D01*
X14636729Y-10328484D02*
X14674825Y-10328484D01*
X14674825Y-10328484D02*
X14693872Y-10318960D01*
X14693872Y-10318960D02*
X14703396Y-10309436D01*
X14703396Y-10309436D02*
X14722444Y-10280865D01*
X14722444Y-10280865D02*
X14731967Y-10242770D01*
X14731967Y-10242770D02*
X14731967Y-10166579D01*
X14731967Y-10166579D02*
X14722444Y-10147531D01*
X14722444Y-10147531D02*
X14712920Y-10138008D01*
X14712920Y-10138008D02*
X14693872Y-10128484D01*
X14693872Y-10128484D02*
X14655777Y-10128484D01*
X14655777Y-10128484D02*
X14636729Y-10138008D01*
X14636729Y-10138008D02*
X14627206Y-10147531D01*
X14627206Y-10147531D02*
X14617682Y-10166579D01*
X14617682Y-10166579D02*
X14617682Y-10214198D01*
X14617682Y-10214198D02*
X14627206Y-10233246D01*
X14627206Y-10233246D02*
X14636729Y-10242770D01*
X14636729Y-10242770D02*
X14655777Y-10252293D01*
X14655777Y-10252293D02*
X14693872Y-10252293D01*
X14693872Y-10252293D02*
X14712920Y-10242770D01*
X14712920Y-10242770D02*
X14722444Y-10233246D01*
X14722444Y-10233246D02*
X14731967Y-10214198D01*
X14903396Y-10195150D02*
X14903396Y-10328484D01*
X14855777Y-10118960D02*
X14808158Y-10261817D01*
X14808158Y-10261817D02*
X14931967Y-10261817D01*
X14998634Y-10128484D02*
X14998634Y-10166579D01*
X15074825Y-10128484D02*
X15074825Y-10166579D01*
X15370063Y-10404674D02*
X15360539Y-10395150D01*
X15360539Y-10395150D02*
X15341491Y-10366579D01*
X15341491Y-10366579D02*
X15331968Y-10347531D01*
X15331968Y-10347531D02*
X15322444Y-10318960D01*
X15322444Y-10318960D02*
X15312920Y-10271341D01*
X15312920Y-10271341D02*
X15312920Y-10233246D01*
X15312920Y-10233246D02*
X15322444Y-10185627D01*
X15322444Y-10185627D02*
X15331968Y-10157055D01*
X15331968Y-10157055D02*
X15341491Y-10138008D01*
X15341491Y-10138008D02*
X15360539Y-10109436D01*
X15360539Y-10109436D02*
X15370063Y-10099912D01*
X15427206Y-10128484D02*
X15551015Y-10128484D01*
X15551015Y-10128484D02*
X15484348Y-10204674D01*
X15484348Y-10204674D02*
X15512920Y-10204674D01*
X15512920Y-10204674D02*
X15531968Y-10214198D01*
X15531968Y-10214198D02*
X15541491Y-10223722D01*
X15541491Y-10223722D02*
X15551015Y-10242770D01*
X15551015Y-10242770D02*
X15551015Y-10290389D01*
X15551015Y-10290389D02*
X15541491Y-10309436D01*
X15541491Y-10309436D02*
X15531968Y-10318960D01*
X15531968Y-10318960D02*
X15512920Y-10328484D01*
X15512920Y-10328484D02*
X15455777Y-10328484D01*
X15455777Y-10328484D02*
X15436729Y-10318960D01*
X15436729Y-10318960D02*
X15427206Y-10309436D01*
X15674825Y-10128484D02*
X15693872Y-10128484D01*
X15693872Y-10128484D02*
X15712920Y-10138008D01*
X15712920Y-10138008D02*
X15722444Y-10147531D01*
X15722444Y-10147531D02*
X15731968Y-10166579D01*
X15731968Y-10166579D02*
X15741491Y-10204674D01*
X15741491Y-10204674D02*
X15741491Y-10252293D01*
X15741491Y-10252293D02*
X15731968Y-10290389D01*
X15731968Y-10290389D02*
X15722444Y-10309436D01*
X15722444Y-10309436D02*
X15712920Y-10318960D01*
X15712920Y-10318960D02*
X15693872Y-10328484D01*
X15693872Y-10328484D02*
X15674825Y-10328484D01*
X15674825Y-10328484D02*
X15655777Y-10318960D01*
X15655777Y-10318960D02*
X15646253Y-10309436D01*
X15646253Y-10309436D02*
X15636729Y-10290389D01*
X15636729Y-10290389D02*
X15627206Y-10252293D01*
X15627206Y-10252293D02*
X15627206Y-10204674D01*
X15627206Y-10204674D02*
X15636729Y-10166579D01*
X15636729Y-10166579D02*
X15646253Y-10147531D01*
X15646253Y-10147531D02*
X15655777Y-10138008D01*
X15655777Y-10138008D02*
X15674825Y-10128484D01*
X15979587Y-10328484D02*
X15979587Y-10128484D01*
X16065301Y-10328484D02*
X16065301Y-10223722D01*
X16065301Y-10223722D02*
X16055777Y-10204674D01*
X16055777Y-10204674D02*
X16036730Y-10195150D01*
X16036730Y-10195150D02*
X16008158Y-10195150D01*
X16008158Y-10195150D02*
X15989110Y-10204674D01*
X15989110Y-10204674D02*
X15979587Y-10214198D01*
X16189110Y-10328484D02*
X16170063Y-10318960D01*
X16170063Y-10318960D02*
X16160539Y-10309436D01*
X16160539Y-10309436D02*
X16151015Y-10290389D01*
X16151015Y-10290389D02*
X16151015Y-10233246D01*
X16151015Y-10233246D02*
X16160539Y-10214198D01*
X16160539Y-10214198D02*
X16170063Y-10204674D01*
X16170063Y-10204674D02*
X16189110Y-10195150D01*
X16189110Y-10195150D02*
X16217682Y-10195150D01*
X16217682Y-10195150D02*
X16236730Y-10204674D01*
X16236730Y-10204674D02*
X16246253Y-10214198D01*
X16246253Y-10214198D02*
X16255777Y-10233246D01*
X16255777Y-10233246D02*
X16255777Y-10290389D01*
X16255777Y-10290389D02*
X16246253Y-10309436D01*
X16246253Y-10309436D02*
X16236730Y-10318960D01*
X16236730Y-10318960D02*
X16217682Y-10328484D01*
X16217682Y-10328484D02*
X16189110Y-10328484D01*
X16370063Y-10328484D02*
X16351015Y-10318960D01*
X16351015Y-10318960D02*
X16341491Y-10299912D01*
X16341491Y-10299912D02*
X16341491Y-10128484D01*
X16522444Y-10318960D02*
X16503396Y-10328484D01*
X16503396Y-10328484D02*
X16465301Y-10328484D01*
X16465301Y-10328484D02*
X16446253Y-10318960D01*
X16446253Y-10318960D02*
X16436730Y-10299912D01*
X16436730Y-10299912D02*
X16436730Y-10223722D01*
X16436730Y-10223722D02*
X16446253Y-10204674D01*
X16446253Y-10204674D02*
X16465301Y-10195150D01*
X16465301Y-10195150D02*
X16503396Y-10195150D01*
X16503396Y-10195150D02*
X16522444Y-10204674D01*
X16522444Y-10204674D02*
X16531968Y-10223722D01*
X16531968Y-10223722D02*
X16531968Y-10242770D01*
X16531968Y-10242770D02*
X16436730Y-10261817D01*
X16608158Y-10318960D02*
X16627206Y-10328484D01*
X16627206Y-10328484D02*
X16665301Y-10328484D01*
X16665301Y-10328484D02*
X16684349Y-10318960D01*
X16684349Y-10318960D02*
X16693872Y-10299912D01*
X16693872Y-10299912D02*
X16693872Y-10290389D01*
X16693872Y-10290389D02*
X16684349Y-10271341D01*
X16684349Y-10271341D02*
X16665301Y-10261817D01*
X16665301Y-10261817D02*
X16636730Y-10261817D01*
X16636730Y-10261817D02*
X16617682Y-10252293D01*
X16617682Y-10252293D02*
X16608158Y-10233246D01*
X16608158Y-10233246D02*
X16608158Y-10223722D01*
X16608158Y-10223722D02*
X16617682Y-10204674D01*
X16617682Y-10204674D02*
X16636730Y-10195150D01*
X16636730Y-10195150D02*
X16665301Y-10195150D01*
X16665301Y-10195150D02*
X16684349Y-10204674D01*
X16760539Y-10404674D02*
X16770063Y-10395150D01*
X16770063Y-10395150D02*
X16789111Y-10366579D01*
X16789111Y-10366579D02*
X16798634Y-10347531D01*
X16798634Y-10347531D02*
X16808158Y-10318960D01*
X16808158Y-10318960D02*
X16817682Y-10271341D01*
X16817682Y-10271341D02*
X16817682Y-10233246D01*
X16817682Y-10233246D02*
X16808158Y-10185627D01*
X16808158Y-10185627D02*
X16798634Y-10157055D01*
X16798634Y-10157055D02*
X16789111Y-10138008D01*
X16789111Y-10138008D02*
X16770063Y-10109436D01*
X16770063Y-10109436D02*
X16760539Y-10099912D01*
D12*
X11735000Y-10561000D02*
X11795000Y-10501000D01*
X11735000Y-10441000D01*
X11675000Y-10501000D01*
X11735000Y-10561000D01*
D11*
X12160539Y-10592484D02*
X12046253Y-10592484D01*
X12103396Y-10592484D02*
X12103396Y-10392484D01*
X12103396Y-10392484D02*
X12084348Y-10421055D01*
X12084348Y-10421055D02*
X12065301Y-10440103D01*
X12065301Y-10440103D02*
X12046253Y-10449627D01*
X12246253Y-10573436D02*
X12255777Y-10582960D01*
X12255777Y-10582960D02*
X12246253Y-10592484D01*
X12246253Y-10592484D02*
X12236729Y-10582960D01*
X12236729Y-10582960D02*
X12246253Y-10573436D01*
X12246253Y-10573436D02*
X12246253Y-10592484D01*
X12331967Y-10411531D02*
X12341491Y-10402008D01*
X12341491Y-10402008D02*
X12360539Y-10392484D01*
X12360539Y-10392484D02*
X12408158Y-10392484D01*
X12408158Y-10392484D02*
X12427205Y-10402008D01*
X12427205Y-10402008D02*
X12436729Y-10411531D01*
X12436729Y-10411531D02*
X12446253Y-10430579D01*
X12446253Y-10430579D02*
X12446253Y-10449627D01*
X12446253Y-10449627D02*
X12436729Y-10478198D01*
X12436729Y-10478198D02*
X12322443Y-10592484D01*
X12322443Y-10592484D02*
X12446253Y-10592484D01*
X12570062Y-10392484D02*
X12589110Y-10392484D01*
X12589110Y-10392484D02*
X12608158Y-10402008D01*
X12608158Y-10402008D02*
X12617682Y-10411531D01*
X12617682Y-10411531D02*
X12627205Y-10430579D01*
X12627205Y-10430579D02*
X12636729Y-10468674D01*
X12636729Y-10468674D02*
X12636729Y-10516293D01*
X12636729Y-10516293D02*
X12627205Y-10554389D01*
X12627205Y-10554389D02*
X12617682Y-10573436D01*
X12617682Y-10573436D02*
X12608158Y-10582960D01*
X12608158Y-10582960D02*
X12589110Y-10592484D01*
X12589110Y-10592484D02*
X12570062Y-10592484D01*
X12570062Y-10592484D02*
X12551015Y-10582960D01*
X12551015Y-10582960D02*
X12541491Y-10573436D01*
X12541491Y-10573436D02*
X12531967Y-10554389D01*
X12531967Y-10554389D02*
X12522443Y-10516293D01*
X12522443Y-10516293D02*
X12522443Y-10468674D01*
X12522443Y-10468674D02*
X12531967Y-10430579D01*
X12531967Y-10430579D02*
X12541491Y-10411531D01*
X12541491Y-10411531D02*
X12551015Y-10402008D01*
X12551015Y-10402008D02*
X12570062Y-10392484D01*
X12760539Y-10392484D02*
X12779586Y-10392484D01*
X12779586Y-10392484D02*
X12798634Y-10402008D01*
X12798634Y-10402008D02*
X12808158Y-10411531D01*
X12808158Y-10411531D02*
X12817682Y-10430579D01*
X12817682Y-10430579D02*
X12827205Y-10468674D01*
X12827205Y-10468674D02*
X12827205Y-10516293D01*
X12827205Y-10516293D02*
X12817682Y-10554389D01*
X12817682Y-10554389D02*
X12808158Y-10573436D01*
X12808158Y-10573436D02*
X12798634Y-10582960D01*
X12798634Y-10582960D02*
X12779586Y-10592484D01*
X12779586Y-10592484D02*
X12760539Y-10592484D01*
X12760539Y-10592484D02*
X12741491Y-10582960D01*
X12741491Y-10582960D02*
X12731967Y-10573436D01*
X12731967Y-10573436D02*
X12722443Y-10554389D01*
X12722443Y-10554389D02*
X12712920Y-10516293D01*
X12712920Y-10516293D02*
X12712920Y-10468674D01*
X12712920Y-10468674D02*
X12722443Y-10430579D01*
X12722443Y-10430579D02*
X12731967Y-10411531D01*
X12731967Y-10411531D02*
X12741491Y-10402008D01*
X12741491Y-10402008D02*
X12760539Y-10392484D01*
X12912920Y-10592484D02*
X12912920Y-10459150D01*
X12912920Y-10478198D02*
X12922443Y-10468674D01*
X12922443Y-10468674D02*
X12941491Y-10459150D01*
X12941491Y-10459150D02*
X12970063Y-10459150D01*
X12970063Y-10459150D02*
X12989110Y-10468674D01*
X12989110Y-10468674D02*
X12998634Y-10487722D01*
X12998634Y-10487722D02*
X12998634Y-10592484D01*
X12998634Y-10487722D02*
X13008158Y-10468674D01*
X13008158Y-10468674D02*
X13027205Y-10459150D01*
X13027205Y-10459150D02*
X13055777Y-10459150D01*
X13055777Y-10459150D02*
X13074824Y-10468674D01*
X13074824Y-10468674D02*
X13084348Y-10487722D01*
X13084348Y-10487722D02*
X13084348Y-10592484D01*
X13179586Y-10592484D02*
X13179586Y-10459150D01*
X13179586Y-10478198D02*
X13189110Y-10468674D01*
X13189110Y-10468674D02*
X13208158Y-10459150D01*
X13208158Y-10459150D02*
X13236729Y-10459150D01*
X13236729Y-10459150D02*
X13255777Y-10468674D01*
X13255777Y-10468674D02*
X13265301Y-10487722D01*
X13265301Y-10487722D02*
X13265301Y-10592484D01*
X13265301Y-10487722D02*
X13274824Y-10468674D01*
X13274824Y-10468674D02*
X13293872Y-10459150D01*
X13293872Y-10459150D02*
X13322443Y-10459150D01*
X13322443Y-10459150D02*
X13341491Y-10468674D01*
X13341491Y-10468674D02*
X13351015Y-10487722D01*
X13351015Y-10487722D02*
X13351015Y-10592484D01*
X13741491Y-10382960D02*
X13570063Y-10640103D01*
X13998634Y-10392484D02*
X14017682Y-10392484D01*
X14017682Y-10392484D02*
X14036729Y-10402008D01*
X14036729Y-10402008D02*
X14046253Y-10411531D01*
X14046253Y-10411531D02*
X14055777Y-10430579D01*
X14055777Y-10430579D02*
X14065301Y-10468674D01*
X14065301Y-10468674D02*
X14065301Y-10516293D01*
X14065301Y-10516293D02*
X14055777Y-10554389D01*
X14055777Y-10554389D02*
X14046253Y-10573436D01*
X14046253Y-10573436D02*
X14036729Y-10582960D01*
X14036729Y-10582960D02*
X14017682Y-10592484D01*
X14017682Y-10592484D02*
X13998634Y-10592484D01*
X13998634Y-10592484D02*
X13979586Y-10582960D01*
X13979586Y-10582960D02*
X13970063Y-10573436D01*
X13970063Y-10573436D02*
X13960539Y-10554389D01*
X13960539Y-10554389D02*
X13951015Y-10516293D01*
X13951015Y-10516293D02*
X13951015Y-10468674D01*
X13951015Y-10468674D02*
X13960539Y-10430579D01*
X13960539Y-10430579D02*
X13970063Y-10411531D01*
X13970063Y-10411531D02*
X13979586Y-10402008D01*
X13979586Y-10402008D02*
X13998634Y-10392484D01*
X14151015Y-10573436D02*
X14160539Y-10582960D01*
X14160539Y-10582960D02*
X14151015Y-10592484D01*
X14151015Y-10592484D02*
X14141491Y-10582960D01*
X14141491Y-10582960D02*
X14151015Y-10573436D01*
X14151015Y-10573436D02*
X14151015Y-10592484D01*
X14284348Y-10392484D02*
X14303396Y-10392484D01*
X14303396Y-10392484D02*
X14322444Y-10402008D01*
X14322444Y-10402008D02*
X14331967Y-10411531D01*
X14331967Y-10411531D02*
X14341491Y-10430579D01*
X14341491Y-10430579D02*
X14351015Y-10468674D01*
X14351015Y-10468674D02*
X14351015Y-10516293D01*
X14351015Y-10516293D02*
X14341491Y-10554389D01*
X14341491Y-10554389D02*
X14331967Y-10573436D01*
X14331967Y-10573436D02*
X14322444Y-10582960D01*
X14322444Y-10582960D02*
X14303396Y-10592484D01*
X14303396Y-10592484D02*
X14284348Y-10592484D01*
X14284348Y-10592484D02*
X14265301Y-10582960D01*
X14265301Y-10582960D02*
X14255777Y-10573436D01*
X14255777Y-10573436D02*
X14246253Y-10554389D01*
X14246253Y-10554389D02*
X14236729Y-10516293D01*
X14236729Y-10516293D02*
X14236729Y-10468674D01*
X14236729Y-10468674D02*
X14246253Y-10430579D01*
X14246253Y-10430579D02*
X14255777Y-10411531D01*
X14255777Y-10411531D02*
X14265301Y-10402008D01*
X14265301Y-10402008D02*
X14284348Y-10392484D01*
X14522444Y-10459150D02*
X14522444Y-10592484D01*
X14474825Y-10382960D02*
X14427206Y-10525817D01*
X14427206Y-10525817D02*
X14551015Y-10525817D01*
X14608158Y-10392484D02*
X14741491Y-10392484D01*
X14741491Y-10392484D02*
X14655777Y-10592484D01*
X14808158Y-10411531D02*
X14817682Y-10402008D01*
X14817682Y-10402008D02*
X14836729Y-10392484D01*
X14836729Y-10392484D02*
X14884348Y-10392484D01*
X14884348Y-10392484D02*
X14903396Y-10402008D01*
X14903396Y-10402008D02*
X14912920Y-10411531D01*
X14912920Y-10411531D02*
X14922444Y-10430579D01*
X14922444Y-10430579D02*
X14922444Y-10449627D01*
X14922444Y-10449627D02*
X14912920Y-10478198D01*
X14912920Y-10478198D02*
X14798634Y-10592484D01*
X14798634Y-10592484D02*
X14922444Y-10592484D01*
X14998634Y-10392484D02*
X14998634Y-10430579D01*
X15074825Y-10392484D02*
X15074825Y-10430579D01*
X15370063Y-10668674D02*
X15360539Y-10659150D01*
X15360539Y-10659150D02*
X15341491Y-10630579D01*
X15341491Y-10630579D02*
X15331968Y-10611531D01*
X15331968Y-10611531D02*
X15322444Y-10582960D01*
X15322444Y-10582960D02*
X15312920Y-10535341D01*
X15312920Y-10535341D02*
X15312920Y-10497246D01*
X15312920Y-10497246D02*
X15322444Y-10449627D01*
X15322444Y-10449627D02*
X15331968Y-10421055D01*
X15331968Y-10421055D02*
X15341491Y-10402008D01*
X15341491Y-10402008D02*
X15360539Y-10373436D01*
X15360539Y-10373436D02*
X15370063Y-10363912D01*
X15474825Y-10478198D02*
X15455777Y-10468674D01*
X15455777Y-10468674D02*
X15446253Y-10459150D01*
X15446253Y-10459150D02*
X15436729Y-10440103D01*
X15436729Y-10440103D02*
X15436729Y-10430579D01*
X15436729Y-10430579D02*
X15446253Y-10411531D01*
X15446253Y-10411531D02*
X15455777Y-10402008D01*
X15455777Y-10402008D02*
X15474825Y-10392484D01*
X15474825Y-10392484D02*
X15512920Y-10392484D01*
X15512920Y-10392484D02*
X15531968Y-10402008D01*
X15531968Y-10402008D02*
X15541491Y-10411531D01*
X15541491Y-10411531D02*
X15551015Y-10430579D01*
X15551015Y-10430579D02*
X15551015Y-10440103D01*
X15551015Y-10440103D02*
X15541491Y-10459150D01*
X15541491Y-10459150D02*
X15531968Y-10468674D01*
X15531968Y-10468674D02*
X15512920Y-10478198D01*
X15512920Y-10478198D02*
X15474825Y-10478198D01*
X15474825Y-10478198D02*
X15455777Y-10487722D01*
X15455777Y-10487722D02*
X15446253Y-10497246D01*
X15446253Y-10497246D02*
X15436729Y-10516293D01*
X15436729Y-10516293D02*
X15436729Y-10554389D01*
X15436729Y-10554389D02*
X15446253Y-10573436D01*
X15446253Y-10573436D02*
X15455777Y-10582960D01*
X15455777Y-10582960D02*
X15474825Y-10592484D01*
X15474825Y-10592484D02*
X15512920Y-10592484D01*
X15512920Y-10592484D02*
X15531968Y-10582960D01*
X15531968Y-10582960D02*
X15541491Y-10573436D01*
X15541491Y-10573436D02*
X15551015Y-10554389D01*
X15551015Y-10554389D02*
X15551015Y-10516293D01*
X15551015Y-10516293D02*
X15541491Y-10497246D01*
X15541491Y-10497246D02*
X15531968Y-10487722D01*
X15531968Y-10487722D02*
X15512920Y-10478198D01*
X15789110Y-10592484D02*
X15789110Y-10392484D01*
X15874825Y-10592484D02*
X15874825Y-10487722D01*
X15874825Y-10487722D02*
X15865301Y-10468674D01*
X15865301Y-10468674D02*
X15846253Y-10459150D01*
X15846253Y-10459150D02*
X15817682Y-10459150D01*
X15817682Y-10459150D02*
X15798634Y-10468674D01*
X15798634Y-10468674D02*
X15789110Y-10478198D01*
X15998634Y-10592484D02*
X15979587Y-10582960D01*
X15979587Y-10582960D02*
X15970063Y-10573436D01*
X15970063Y-10573436D02*
X15960539Y-10554389D01*
X15960539Y-10554389D02*
X15960539Y-10497246D01*
X15960539Y-10497246D02*
X15970063Y-10478198D01*
X15970063Y-10478198D02*
X15979587Y-10468674D01*
X15979587Y-10468674D02*
X15998634Y-10459150D01*
X15998634Y-10459150D02*
X16027206Y-10459150D01*
X16027206Y-10459150D02*
X16046253Y-10468674D01*
X16046253Y-10468674D02*
X16055777Y-10478198D01*
X16055777Y-10478198D02*
X16065301Y-10497246D01*
X16065301Y-10497246D02*
X16065301Y-10554389D01*
X16065301Y-10554389D02*
X16055777Y-10573436D01*
X16055777Y-10573436D02*
X16046253Y-10582960D01*
X16046253Y-10582960D02*
X16027206Y-10592484D01*
X16027206Y-10592484D02*
X15998634Y-10592484D01*
X16179587Y-10592484D02*
X16160539Y-10582960D01*
X16160539Y-10582960D02*
X16151015Y-10563912D01*
X16151015Y-10563912D02*
X16151015Y-10392484D01*
X16331968Y-10582960D02*
X16312920Y-10592484D01*
X16312920Y-10592484D02*
X16274825Y-10592484D01*
X16274825Y-10592484D02*
X16255777Y-10582960D01*
X16255777Y-10582960D02*
X16246253Y-10563912D01*
X16246253Y-10563912D02*
X16246253Y-10487722D01*
X16246253Y-10487722D02*
X16255777Y-10468674D01*
X16255777Y-10468674D02*
X16274825Y-10459150D01*
X16274825Y-10459150D02*
X16312920Y-10459150D01*
X16312920Y-10459150D02*
X16331968Y-10468674D01*
X16331968Y-10468674D02*
X16341491Y-10487722D01*
X16341491Y-10487722D02*
X16341491Y-10506770D01*
X16341491Y-10506770D02*
X16246253Y-10525817D01*
X16417682Y-10582960D02*
X16436730Y-10592484D01*
X16436730Y-10592484D02*
X16474825Y-10592484D01*
X16474825Y-10592484D02*
X16493872Y-10582960D01*
X16493872Y-10582960D02*
X16503396Y-10563912D01*
X16503396Y-10563912D02*
X16503396Y-10554389D01*
X16503396Y-10554389D02*
X16493872Y-10535341D01*
X16493872Y-10535341D02*
X16474825Y-10525817D01*
X16474825Y-10525817D02*
X16446253Y-10525817D01*
X16446253Y-10525817D02*
X16427206Y-10516293D01*
X16427206Y-10516293D02*
X16417682Y-10497246D01*
X16417682Y-10497246D02*
X16417682Y-10487722D01*
X16417682Y-10487722D02*
X16427206Y-10468674D01*
X16427206Y-10468674D02*
X16446253Y-10459150D01*
X16446253Y-10459150D02*
X16474825Y-10459150D01*
X16474825Y-10459150D02*
X16493872Y-10468674D01*
X16570063Y-10668674D02*
X16579587Y-10659150D01*
X16579587Y-10659150D02*
X16598634Y-10630579D01*
X16598634Y-10630579D02*
X16608158Y-10611531D01*
X16608158Y-10611531D02*
X16617682Y-10582960D01*
X16617682Y-10582960D02*
X16627206Y-10535341D01*
X16627206Y-10535341D02*
X16627206Y-10497246D01*
X16627206Y-10497246D02*
X16617682Y-10449627D01*
X16617682Y-10449627D02*
X16608158Y-10421055D01*
X16608158Y-10421055D02*
X16598634Y-10402008D01*
X16598634Y-10402008D02*
X16579587Y-10373436D01*
X16579587Y-10373436D02*
X16570063Y-10363912D01*
D13*
X11655000Y-10695000D02*
X11795000Y-10835000D01*
X11795000Y-10695000D02*
X11655000Y-10835000D01*
X11795000Y-10765000D02*
G75*
G02*
X11655000Y-10765000I-70000J0D01*
G01*
X11655000Y-10765000D02*
G75*
G02*
X11795000Y-10765000I70000J0D01*
G01*
D11*
X12160539Y-10856484D02*
X12046253Y-10856484D01*
X12103396Y-10856484D02*
X12103396Y-10656484D01*
X12103396Y-10656484D02*
X12084348Y-10685055D01*
X12084348Y-10685055D02*
X12065301Y-10704103D01*
X12065301Y-10704103D02*
X12046253Y-10713627D01*
X12246253Y-10837436D02*
X12255777Y-10846960D01*
X12255777Y-10846960D02*
X12246253Y-10856484D01*
X12246253Y-10856484D02*
X12236729Y-10846960D01*
X12236729Y-10846960D02*
X12246253Y-10837436D01*
X12246253Y-10837436D02*
X12246253Y-10856484D01*
X12427205Y-10723150D02*
X12427205Y-10856484D01*
X12379586Y-10646960D02*
X12331967Y-10789817D01*
X12331967Y-10789817D02*
X12455777Y-10789817D01*
X12570062Y-10656484D02*
X12589110Y-10656484D01*
X12589110Y-10656484D02*
X12608158Y-10666008D01*
X12608158Y-10666008D02*
X12617682Y-10675531D01*
X12617682Y-10675531D02*
X12627205Y-10694579D01*
X12627205Y-10694579D02*
X12636729Y-10732674D01*
X12636729Y-10732674D02*
X12636729Y-10780293D01*
X12636729Y-10780293D02*
X12627205Y-10818389D01*
X12627205Y-10818389D02*
X12617682Y-10837436D01*
X12617682Y-10837436D02*
X12608158Y-10846960D01*
X12608158Y-10846960D02*
X12589110Y-10856484D01*
X12589110Y-10856484D02*
X12570062Y-10856484D01*
X12570062Y-10856484D02*
X12551015Y-10846960D01*
X12551015Y-10846960D02*
X12541491Y-10837436D01*
X12541491Y-10837436D02*
X12531967Y-10818389D01*
X12531967Y-10818389D02*
X12522443Y-10780293D01*
X12522443Y-10780293D02*
X12522443Y-10732674D01*
X12522443Y-10732674D02*
X12531967Y-10694579D01*
X12531967Y-10694579D02*
X12541491Y-10675531D01*
X12541491Y-10675531D02*
X12551015Y-10666008D01*
X12551015Y-10666008D02*
X12570062Y-10656484D01*
X12760539Y-10656484D02*
X12779586Y-10656484D01*
X12779586Y-10656484D02*
X12798634Y-10666008D01*
X12798634Y-10666008D02*
X12808158Y-10675531D01*
X12808158Y-10675531D02*
X12817682Y-10694579D01*
X12817682Y-10694579D02*
X12827205Y-10732674D01*
X12827205Y-10732674D02*
X12827205Y-10780293D01*
X12827205Y-10780293D02*
X12817682Y-10818389D01*
X12817682Y-10818389D02*
X12808158Y-10837436D01*
X12808158Y-10837436D02*
X12798634Y-10846960D01*
X12798634Y-10846960D02*
X12779586Y-10856484D01*
X12779586Y-10856484D02*
X12760539Y-10856484D01*
X12760539Y-10856484D02*
X12741491Y-10846960D01*
X12741491Y-10846960D02*
X12731967Y-10837436D01*
X12731967Y-10837436D02*
X12722443Y-10818389D01*
X12722443Y-10818389D02*
X12712920Y-10780293D01*
X12712920Y-10780293D02*
X12712920Y-10732674D01*
X12712920Y-10732674D02*
X12722443Y-10694579D01*
X12722443Y-10694579D02*
X12731967Y-10675531D01*
X12731967Y-10675531D02*
X12741491Y-10666008D01*
X12741491Y-10666008D02*
X12760539Y-10656484D01*
X12912920Y-10856484D02*
X12912920Y-10723150D01*
X12912920Y-10742198D02*
X12922443Y-10732674D01*
X12922443Y-10732674D02*
X12941491Y-10723150D01*
X12941491Y-10723150D02*
X12970063Y-10723150D01*
X12970063Y-10723150D02*
X12989110Y-10732674D01*
X12989110Y-10732674D02*
X12998634Y-10751722D01*
X12998634Y-10751722D02*
X12998634Y-10856484D01*
X12998634Y-10751722D02*
X13008158Y-10732674D01*
X13008158Y-10732674D02*
X13027205Y-10723150D01*
X13027205Y-10723150D02*
X13055777Y-10723150D01*
X13055777Y-10723150D02*
X13074824Y-10732674D01*
X13074824Y-10732674D02*
X13084348Y-10751722D01*
X13084348Y-10751722D02*
X13084348Y-10856484D01*
X13179586Y-10856484D02*
X13179586Y-10723150D01*
X13179586Y-10742198D02*
X13189110Y-10732674D01*
X13189110Y-10732674D02*
X13208158Y-10723150D01*
X13208158Y-10723150D02*
X13236729Y-10723150D01*
X13236729Y-10723150D02*
X13255777Y-10732674D01*
X13255777Y-10732674D02*
X13265301Y-10751722D01*
X13265301Y-10751722D02*
X13265301Y-10856484D01*
X13265301Y-10751722D02*
X13274824Y-10732674D01*
X13274824Y-10732674D02*
X13293872Y-10723150D01*
X13293872Y-10723150D02*
X13322443Y-10723150D01*
X13322443Y-10723150D02*
X13341491Y-10732674D01*
X13341491Y-10732674D02*
X13351015Y-10751722D01*
X13351015Y-10751722D02*
X13351015Y-10856484D01*
X13741491Y-10646960D02*
X13570063Y-10904103D01*
X13998634Y-10656484D02*
X14017682Y-10656484D01*
X14017682Y-10656484D02*
X14036729Y-10666008D01*
X14036729Y-10666008D02*
X14046253Y-10675531D01*
X14046253Y-10675531D02*
X14055777Y-10694579D01*
X14055777Y-10694579D02*
X14065301Y-10732674D01*
X14065301Y-10732674D02*
X14065301Y-10780293D01*
X14065301Y-10780293D02*
X14055777Y-10818389D01*
X14055777Y-10818389D02*
X14046253Y-10837436D01*
X14046253Y-10837436D02*
X14036729Y-10846960D01*
X14036729Y-10846960D02*
X14017682Y-10856484D01*
X14017682Y-10856484D02*
X13998634Y-10856484D01*
X13998634Y-10856484D02*
X13979586Y-10846960D01*
X13979586Y-10846960D02*
X13970063Y-10837436D01*
X13970063Y-10837436D02*
X13960539Y-10818389D01*
X13960539Y-10818389D02*
X13951015Y-10780293D01*
X13951015Y-10780293D02*
X13951015Y-10732674D01*
X13951015Y-10732674D02*
X13960539Y-10694579D01*
X13960539Y-10694579D02*
X13970063Y-10675531D01*
X13970063Y-10675531D02*
X13979586Y-10666008D01*
X13979586Y-10666008D02*
X13998634Y-10656484D01*
X14151015Y-10837436D02*
X14160539Y-10846960D01*
X14160539Y-10846960D02*
X14151015Y-10856484D01*
X14151015Y-10856484D02*
X14141491Y-10846960D01*
X14141491Y-10846960D02*
X14151015Y-10837436D01*
X14151015Y-10837436D02*
X14151015Y-10856484D01*
X14284348Y-10656484D02*
X14303396Y-10656484D01*
X14303396Y-10656484D02*
X14322444Y-10666008D01*
X14322444Y-10666008D02*
X14331967Y-10675531D01*
X14331967Y-10675531D02*
X14341491Y-10694579D01*
X14341491Y-10694579D02*
X14351015Y-10732674D01*
X14351015Y-10732674D02*
X14351015Y-10780293D01*
X14351015Y-10780293D02*
X14341491Y-10818389D01*
X14341491Y-10818389D02*
X14331967Y-10837436D01*
X14331967Y-10837436D02*
X14322444Y-10846960D01*
X14322444Y-10846960D02*
X14303396Y-10856484D01*
X14303396Y-10856484D02*
X14284348Y-10856484D01*
X14284348Y-10856484D02*
X14265301Y-10846960D01*
X14265301Y-10846960D02*
X14255777Y-10837436D01*
X14255777Y-10837436D02*
X14246253Y-10818389D01*
X14246253Y-10818389D02*
X14236729Y-10780293D01*
X14236729Y-10780293D02*
X14236729Y-10732674D01*
X14236729Y-10732674D02*
X14246253Y-10694579D01*
X14246253Y-10694579D02*
X14255777Y-10675531D01*
X14255777Y-10675531D02*
X14265301Y-10666008D01*
X14265301Y-10666008D02*
X14284348Y-10656484D01*
X14531967Y-10656484D02*
X14436729Y-10656484D01*
X14436729Y-10656484D02*
X14427206Y-10751722D01*
X14427206Y-10751722D02*
X14436729Y-10742198D01*
X14436729Y-10742198D02*
X14455777Y-10732674D01*
X14455777Y-10732674D02*
X14503396Y-10732674D01*
X14503396Y-10732674D02*
X14522444Y-10742198D01*
X14522444Y-10742198D02*
X14531967Y-10751722D01*
X14531967Y-10751722D02*
X14541491Y-10770770D01*
X14541491Y-10770770D02*
X14541491Y-10818389D01*
X14541491Y-10818389D02*
X14531967Y-10837436D01*
X14531967Y-10837436D02*
X14522444Y-10846960D01*
X14522444Y-10846960D02*
X14503396Y-10856484D01*
X14503396Y-10856484D02*
X14455777Y-10856484D01*
X14455777Y-10856484D02*
X14436729Y-10846960D01*
X14436729Y-10846960D02*
X14427206Y-10837436D01*
X14722444Y-10656484D02*
X14627206Y-10656484D01*
X14627206Y-10656484D02*
X14617682Y-10751722D01*
X14617682Y-10751722D02*
X14627206Y-10742198D01*
X14627206Y-10742198D02*
X14646253Y-10732674D01*
X14646253Y-10732674D02*
X14693872Y-10732674D01*
X14693872Y-10732674D02*
X14712920Y-10742198D01*
X14712920Y-10742198D02*
X14722444Y-10751722D01*
X14722444Y-10751722D02*
X14731967Y-10770770D01*
X14731967Y-10770770D02*
X14731967Y-10818389D01*
X14731967Y-10818389D02*
X14722444Y-10837436D01*
X14722444Y-10837436D02*
X14712920Y-10846960D01*
X14712920Y-10846960D02*
X14693872Y-10856484D01*
X14693872Y-10856484D02*
X14646253Y-10856484D01*
X14646253Y-10856484D02*
X14627206Y-10846960D01*
X14627206Y-10846960D02*
X14617682Y-10837436D01*
X14922444Y-10856484D02*
X14808158Y-10856484D01*
X14865301Y-10856484D02*
X14865301Y-10656484D01*
X14865301Y-10656484D02*
X14846253Y-10685055D01*
X14846253Y-10685055D02*
X14827206Y-10704103D01*
X14827206Y-10704103D02*
X14808158Y-10713627D01*
X14998634Y-10656484D02*
X14998634Y-10694579D01*
X15074825Y-10656484D02*
X15074825Y-10694579D01*
X15370063Y-10932674D02*
X15360539Y-10923150D01*
X15360539Y-10923150D02*
X15341491Y-10894579D01*
X15341491Y-10894579D02*
X15331968Y-10875531D01*
X15331968Y-10875531D02*
X15322444Y-10846960D01*
X15322444Y-10846960D02*
X15312920Y-10799341D01*
X15312920Y-10799341D02*
X15312920Y-10761246D01*
X15312920Y-10761246D02*
X15322444Y-10713627D01*
X15322444Y-10713627D02*
X15331968Y-10685055D01*
X15331968Y-10685055D02*
X15341491Y-10666008D01*
X15341491Y-10666008D02*
X15360539Y-10637436D01*
X15360539Y-10637436D02*
X15370063Y-10627912D01*
X15541491Y-10656484D02*
X15446253Y-10656484D01*
X15446253Y-10656484D02*
X15436729Y-10751722D01*
X15436729Y-10751722D02*
X15446253Y-10742198D01*
X15446253Y-10742198D02*
X15465301Y-10732674D01*
X15465301Y-10732674D02*
X15512920Y-10732674D01*
X15512920Y-10732674D02*
X15531968Y-10742198D01*
X15531968Y-10742198D02*
X15541491Y-10751722D01*
X15541491Y-10751722D02*
X15551015Y-10770770D01*
X15551015Y-10770770D02*
X15551015Y-10818389D01*
X15551015Y-10818389D02*
X15541491Y-10837436D01*
X15541491Y-10837436D02*
X15531968Y-10846960D01*
X15531968Y-10846960D02*
X15512920Y-10856484D01*
X15512920Y-10856484D02*
X15465301Y-10856484D01*
X15465301Y-10856484D02*
X15446253Y-10846960D01*
X15446253Y-10846960D02*
X15436729Y-10837436D01*
X15789110Y-10856484D02*
X15789110Y-10656484D01*
X15874825Y-10856484D02*
X15874825Y-10751722D01*
X15874825Y-10751722D02*
X15865301Y-10732674D01*
X15865301Y-10732674D02*
X15846253Y-10723150D01*
X15846253Y-10723150D02*
X15817682Y-10723150D01*
X15817682Y-10723150D02*
X15798634Y-10732674D01*
X15798634Y-10732674D02*
X15789110Y-10742198D01*
X15998634Y-10856484D02*
X15979587Y-10846960D01*
X15979587Y-10846960D02*
X15970063Y-10837436D01*
X15970063Y-10837436D02*
X15960539Y-10818389D01*
X15960539Y-10818389D02*
X15960539Y-10761246D01*
X15960539Y-10761246D02*
X15970063Y-10742198D01*
X15970063Y-10742198D02*
X15979587Y-10732674D01*
X15979587Y-10732674D02*
X15998634Y-10723150D01*
X15998634Y-10723150D02*
X16027206Y-10723150D01*
X16027206Y-10723150D02*
X16046253Y-10732674D01*
X16046253Y-10732674D02*
X16055777Y-10742198D01*
X16055777Y-10742198D02*
X16065301Y-10761246D01*
X16065301Y-10761246D02*
X16065301Y-10818389D01*
X16065301Y-10818389D02*
X16055777Y-10837436D01*
X16055777Y-10837436D02*
X16046253Y-10846960D01*
X16046253Y-10846960D02*
X16027206Y-10856484D01*
X16027206Y-10856484D02*
X15998634Y-10856484D01*
X16179587Y-10856484D02*
X16160539Y-10846960D01*
X16160539Y-10846960D02*
X16151015Y-10827912D01*
X16151015Y-10827912D02*
X16151015Y-10656484D01*
X16331968Y-10846960D02*
X16312920Y-10856484D01*
X16312920Y-10856484D02*
X16274825Y-10856484D01*
X16274825Y-10856484D02*
X16255777Y-10846960D01*
X16255777Y-10846960D02*
X16246253Y-10827912D01*
X16246253Y-10827912D02*
X16246253Y-10751722D01*
X16246253Y-10751722D02*
X16255777Y-10732674D01*
X16255777Y-10732674D02*
X16274825Y-10723150D01*
X16274825Y-10723150D02*
X16312920Y-10723150D01*
X16312920Y-10723150D02*
X16331968Y-10732674D01*
X16331968Y-10732674D02*
X16341491Y-10751722D01*
X16341491Y-10751722D02*
X16341491Y-10770770D01*
X16341491Y-10770770D02*
X16246253Y-10789817D01*
X16417682Y-10846960D02*
X16436730Y-10856484D01*
X16436730Y-10856484D02*
X16474825Y-10856484D01*
X16474825Y-10856484D02*
X16493872Y-10846960D01*
X16493872Y-10846960D02*
X16503396Y-10827912D01*
X16503396Y-10827912D02*
X16503396Y-10818389D01*
X16503396Y-10818389D02*
X16493872Y-10799341D01*
X16493872Y-10799341D02*
X16474825Y-10789817D01*
X16474825Y-10789817D02*
X16446253Y-10789817D01*
X16446253Y-10789817D02*
X16427206Y-10780293D01*
X16427206Y-10780293D02*
X16417682Y-10761246D01*
X16417682Y-10761246D02*
X16417682Y-10751722D01*
X16417682Y-10751722D02*
X16427206Y-10732674D01*
X16427206Y-10732674D02*
X16446253Y-10723150D01*
X16446253Y-10723150D02*
X16474825Y-10723150D01*
X16474825Y-10723150D02*
X16493872Y-10732674D01*
X16570063Y-10932674D02*
X16579587Y-10923150D01*
X16579587Y-10923150D02*
X16598634Y-10894579D01*
X16598634Y-10894579D02*
X16608158Y-10875531D01*
X16608158Y-10875531D02*
X16617682Y-10846960D01*
X16617682Y-10846960D02*
X16627206Y-10799341D01*
X16627206Y-10799341D02*
X16627206Y-10761246D01*
X16627206Y-10761246D02*
X16617682Y-10713627D01*
X16617682Y-10713627D02*
X16608158Y-10685055D01*
X16608158Y-10685055D02*
X16598634Y-10666008D01*
X16598634Y-10666008D02*
X16579587Y-10637436D01*
X16579587Y-10637436D02*
X16570063Y-10627912D01*
M02*
