%TF.GenerationSoftware,KiCad,Pcbnew,8.0.1*%
%TF.CreationDate,2024-03-26T18:20:05+01:00*%
%TF.ProjectId,TDA7294V,54444137-3239-4345-962e-6b696361645f,rev?*%
%TF.SameCoordinates,Original*%
%TF.FileFunction,Soldermask,Top*%
%TF.FilePolarity,Negative*%
%FSLAX46Y46*%
G04 Gerber Fmt 4.6, Leading zero omitted, Abs format (unit mm)*
G04 Created by KiCad (PCBNEW 8.0.1) date 2024-03-26 18:20:05*
%MOMM*%
%LPD*%
G01*
G04 APERTURE LIST*
G04 Aperture macros list*
%AMRoundRect*
0 Rectangle with rounded corners*
0 $1 Rounding radius*
0 $2 $3 $4 $5 $6 $7 $8 $9 X,Y pos of 4 corners*
0 Add a 4 corners polygon primitive as box body*
4,1,4,$2,$3,$4,$5,$6,$7,$8,$9,$2,$3,0*
0 Add four circle primitives for the rounded corners*
1,1,$1+$1,$2,$3*
1,1,$1+$1,$4,$5*
1,1,$1+$1,$6,$7*
1,1,$1+$1,$8,$9*
0 Add four rect primitives between the rounded corners*
20,1,$1+$1,$2,$3,$4,$5,0*
20,1,$1+$1,$4,$5,$6,$7,0*
20,1,$1+$1,$6,$7,$8,$9,0*
20,1,$1+$1,$8,$9,$2,$3,0*%
G04 Aperture macros list end*
%ADD10C,1.600000*%
%ADD11O,1.600000X1.600000*%
%ADD12R,1.800000X1.800000*%
%ADD13O,1.800000X1.800000*%
%ADD14RoundRect,0.250000X-0.750000X-1.550000X0.750000X-1.550000X0.750000X1.550000X-0.750000X1.550000X0*%
%ADD15O,2.000000X3.600000*%
%ADD16C,1.400000*%
%ADD17O,1.400000X1.400000*%
%ADD18R,1.600000X1.600000*%
%ADD19R,2.400000X2.400000*%
%ADD20C,2.400000*%
%ADD21C,1.700000*%
%ADD22RoundRect,0.250000X-0.600000X0.850000X-0.600000X-0.850000X0.600000X-0.850000X0.600000X0.850000X0*%
%ADD23O,1.700000X2.200000*%
G04 APERTURE END LIST*
D10*
%TO.C,R11*%
X148000000Y-50920000D03*
D11*
X148000000Y-61080000D03*
%TD*%
D12*
%TO.C,U2*%
X158750000Y-47752000D03*
D13*
X160020000Y-42672000D03*
X161290000Y-47752000D03*
X162560000Y-42672000D03*
X163830000Y-47752000D03*
X165100000Y-42672000D03*
X166370000Y-47752000D03*
X167640000Y-42672000D03*
X168910000Y-47752000D03*
X170180000Y-42672000D03*
X171450000Y-47752000D03*
X172720000Y-42672000D03*
X173990000Y-47752000D03*
X175260000Y-42672000D03*
X176530000Y-47752000D03*
%TD*%
D14*
%TO.C,J2*%
X146500000Y-44000000D03*
D15*
X151500000Y-44000000D03*
%TD*%
D16*
%TO.C,R9*%
X168080000Y-64000000D03*
D17*
X163000000Y-64000000D03*
%TD*%
D10*
%TO.C,C9*%
X174000000Y-55000000D03*
X174000000Y-50000000D03*
%TD*%
D12*
%TO.C,U1*%
X120650000Y-47752000D03*
D13*
X121920000Y-42672000D03*
X123190000Y-47752000D03*
X124460000Y-42672000D03*
X125730000Y-47752000D03*
X127000000Y-42672000D03*
X128270000Y-47752000D03*
X129540000Y-42672000D03*
X130810000Y-47752000D03*
X132080000Y-42672000D03*
X133350000Y-47752000D03*
X134620000Y-42672000D03*
X135890000Y-47752000D03*
X137160000Y-42672000D03*
X138430000Y-47752000D03*
%TD*%
D18*
%TO.C,D1*%
X161500000Y-81000000D03*
D11*
X161500000Y-73380000D03*
%TD*%
D16*
%TO.C,R7*%
X163920000Y-75500000D03*
D17*
X169000000Y-75500000D03*
%TD*%
D10*
%TO.C,C1*%
X126250000Y-74000000D03*
X121250000Y-74000000D03*
%TD*%
D18*
%TO.C,C13*%
X165000000Y-51500000D03*
D10*
X165000000Y-56500000D03*
%TD*%
D16*
%TO.C,R1*%
X121170000Y-71000000D03*
D17*
X126250000Y-71000000D03*
%TD*%
D16*
%TO.C,R10*%
X159750000Y-55750000D03*
D17*
X154670000Y-55750000D03*
%TD*%
D16*
%TO.C,R6*%
X163920000Y-73000000D03*
D17*
X169000000Y-73000000D03*
%TD*%
D16*
%TO.C,R5*%
X163920000Y-78000000D03*
D17*
X169000000Y-78000000D03*
%TD*%
D19*
%TO.C,C8*%
X145000000Y-71000000D03*
D20*
X150000000Y-71000000D03*
%TD*%
D10*
%TO.C,C4*%
X145000000Y-54500000D03*
X145000000Y-59500000D03*
%TD*%
D16*
%TO.C,R12*%
X154500000Y-50000000D03*
D17*
X159580000Y-50000000D03*
%TD*%
D18*
%TO.C,C11*%
X157000000Y-58597349D03*
D10*
X157000000Y-63597349D03*
%TD*%
D16*
%TO.C,R3*%
X133920000Y-53000000D03*
D17*
X139000000Y-53000000D03*
%TD*%
D18*
%TO.C,C2*%
X133500000Y-59000000D03*
D10*
X138500000Y-59000000D03*
%TD*%
D16*
%TO.C,R2*%
X133920000Y-50500000D03*
D17*
X139000000Y-50500000D03*
%TD*%
D18*
%TO.C,C3*%
X126883349Y-53420000D03*
D10*
X126883349Y-58420000D03*
%TD*%
D14*
%TO.C,J3*%
X135000000Y-83820000D03*
D15*
X140000000Y-83820000D03*
X145000000Y-83820000D03*
%TD*%
D10*
%TO.C,C14*%
X151000000Y-54500000D03*
X151000000Y-59500000D03*
%TD*%
D19*
%TO.C,C7*%
X137000000Y-71000000D03*
D20*
X132000000Y-71000000D03*
%TD*%
D21*
%TO.C,J4*%
X157460000Y-85000000D03*
X154960000Y-85000000D03*
D22*
X157460000Y-77820000D03*
D23*
X154960000Y-77820000D03*
%TD*%
D18*
%TO.C,C6*%
X171500000Y-83000000D03*
D10*
X176500000Y-83000000D03*
%TD*%
D21*
%TO.C,J1*%
X125000000Y-85040000D03*
X122500000Y-85040000D03*
D22*
X125000000Y-77860000D03*
D23*
X122500000Y-77860000D03*
%TD*%
D10*
%TO.C,C10*%
X177000000Y-50000000D03*
X177000000Y-55000000D03*
%TD*%
%TO.C,R4*%
X142000000Y-50920000D03*
D11*
X142000000Y-61080000D03*
%TD*%
D18*
%TO.C,C5*%
X164000000Y-83000000D03*
D10*
X169000000Y-83000000D03*
%TD*%
D16*
%TO.C,R8*%
X154670000Y-53500000D03*
D17*
X159750000Y-53500000D03*
%TD*%
D10*
%TO.C,C12*%
X168080000Y-61500000D03*
X163080000Y-61500000D03*
%TD*%
M02*
